<svg width="151" height="44" viewBox="0 0 151 44" fill="none" xmlns="http://www.w3.org/2000/svg">
<g clip-path="url(#clip0_836_1426)">
<g filter="url(#filter0_d_836_1426)">
<path d="M145.407 0H5.59259C2.50389 0 0 2.46243 0 5.5V38.5C0 41.5376 2.50389 44 5.59259 44H145.407C148.496 44 151 41.5376 151 38.5V5.5C151 2.46243 148.496 0 145.407 0Z" fill="white"/>
</g>
<path d="M145.407 0.88C146.653 0.88 147.848 1.36675 148.729 2.23317C149.61 3.09958 150.105 4.2747 150.105 5.5V38.5C150.105 39.7253 149.61 40.9004 148.729 41.7668C147.848 42.6333 146.653 43.12 145.407 43.12H5.59259C4.34666 43.12 3.15177 42.6333 2.27076 41.7668C1.38976 40.9004 0.894815 39.7253 0.894815 38.5V5.5C0.894815 4.2747 1.38976 3.09958 2.27076 2.23317C3.15177 1.36675 4.34666 0.88 5.59259 0.88H145.407ZM145.407 0H5.59259C4.10934 0 2.68685 0.579463 1.63803 1.61091C0.589218 2.64236 0 4.04131 0 5.5V38.5C0 39.9587 0.589218 41.3576 1.63803 42.3891C2.68685 43.4205 4.10934 44 5.59259 44H145.407C146.891 44 148.313 43.4205 149.362 42.3891C150.411 41.3576 151 39.9587 151 38.5V5.5C151 4.04131 150.411 2.64236 149.362 1.61091C148.313 0.579463 146.891 0 145.407 0Z" fill="#1E1E1E"/>
<path d="M53.0401 11.264C53.0585 11.6674 52.9936 12.0703 52.8495 12.4484C52.7053 12.8265 52.4848 13.1719 52.2012 13.464C51.8835 13.7866 51.5 14.0396 51.076 14.2064C50.6519 14.3732 50.1968 14.4501 49.7405 14.432C49.2815 14.4421 48.8253 14.3594 48.4001 14.1891C47.975 14.0188 47.5898 13.7645 47.2686 13.442C46.6168 12.7864 46.2519 11.9059 46.2519 10.989C46.2519 10.0721 46.6168 9.19164 47.2686 8.536C47.7669 8.05715 48.398 7.73381 49.0825 7.6066C49.7671 7.47939 50.4747 7.55398 51.1163 7.821C51.5196 7.98405 51.8794 8.23623 52.1677 8.558L51.5749 9.141C51.3527 8.87785 51.0713 8.66925 50.7529 8.53177C50.4344 8.39429 50.0878 8.33171 49.7405 8.349C49.3021 8.35198 48.871 8.46053 48.4851 8.66516C48.0992 8.86978 47.7701 9.16426 47.5266 9.52284C47.2831 9.88142 47.1327 10.2932 47.0884 10.7222C47.0441 11.1512 47.1073 11.5843 47.2725 11.9837C47.4377 12.3831 47.6998 12.7366 48.0361 13.0134C48.3723 13.2901 48.7723 13.4817 49.2012 13.5713C49.63 13.6609 50.0747 13.6458 50.4963 13.5274C50.9179 13.409 51.3036 13.1908 51.6196 12.892C51.9613 12.5236 52.1594 12.0482 52.1789 11.55H49.7405V10.758H52.9954C53.0209 10.9256 53.0358 11.0946 53.0401 11.264Z" fill="black" stroke="black" stroke-width="0.411304" stroke-miterlimit="10"/>
<path d="M58.1629 8.514H55.143V10.604H57.8945V11.396H55.143V13.486H58.1629V14.3H54.2705V7.7H58.1629V8.514Z" fill="black" stroke="black" stroke-width="0.411304" stroke-miterlimit="10"/>
<path d="M61.8317 14.3H60.9705V8.514H59.0914V7.7H63.7556V8.514H61.8317V14.3Z" fill="black" stroke="black" stroke-width="0.411304" stroke-miterlimit="10"/>
<path d="M67.044 14.3V7.7H67.9053V14.3H67.044Z" fill="black" stroke="black" stroke-width="0.411304" stroke-miterlimit="10"/>
<path d="M71.7305 14.3H70.8693V8.514H68.9902V7.7H73.5985V8.514H71.7305V14.3Z" fill="black" stroke="black" stroke-width="0.411304" stroke-miterlimit="10"/>
<path d="M82.3341 13.442C82.0111 13.76 81.6275 14.0122 81.2052 14.1843C80.783 14.3564 80.3304 14.445 79.8734 14.445C79.4163 14.445 78.9638 14.3564 78.5415 14.1843C78.1193 14.0122 77.7357 13.76 77.4126 13.442C76.7803 12.7809 76.4283 11.9076 76.4283 11C76.4283 10.0924 76.7803 9.21904 77.4126 8.55799C77.7287 8.23107 78.1111 7.97304 78.535 7.80061C78.9589 7.62818 79.4148 7.54519 79.8734 7.55699C80.3313 7.54987 80.7858 7.635 81.209 7.80715C81.6322 7.9793 82.0151 8.23483 82.3341 8.55799C82.6557 8.87973 82.9086 9.26158 83.0776 9.68101C83.2467 10.1004 83.3285 10.5489 83.3184 11C83.3331 11.4516 83.2533 11.9014 83.084 12.3215C82.9147 12.7415 82.6595 13.1229 82.3341 13.442ZM78.0502 12.892C78.2885 13.1295 78.5723 13.318 78.8853 13.4467C79.1983 13.5754 79.5342 13.6417 79.8734 13.6417C80.2126 13.6417 80.5485 13.5754 80.8615 13.4467C81.1744 13.318 81.4583 13.1295 81.6966 12.892C82.1792 12.3762 82.4471 11.7009 82.4471 11C82.4471 10.2991 82.1792 9.62375 81.6966 9.10799C81.4583 8.87052 81.1744 8.68197 80.8615 8.55328C80.5485 8.42458 80.2126 8.35831 79.8734 8.35831C79.5342 8.35831 79.1983 8.42458 78.8853 8.55328C78.5723 8.68197 78.2885 8.87052 78.0502 9.10799C77.5676 9.62375 77.2997 10.2991 77.2997 11C77.2997 11.7009 77.5676 12.3762 78.0502 12.892Z" fill="black" stroke="black" stroke-width="0.411304" stroke-miterlimit="10"/>
<path d="M84.5377 14.3V7.7H85.5779L88.844 12.837V11.561V7.7H89.7052V14.3H88.8104L85.3989 8.921V10.186V14.3H84.5377Z" fill="black" stroke="black" stroke-width="0.411304" stroke-miterlimit="10"/>
<path d="M76.2159 23.925C75.2735 23.9272 74.3529 24.2041 73.5706 24.7209C72.7882 25.2376 72.1792 25.9708 71.8206 26.8279C71.462 27.685 71.3699 28.6274 71.556 29.536C71.742 30.4445 72.1978 31.2785 72.8657 31.9323C73.5337 32.5861 74.3838 33.0304 75.3085 33.2091C76.2332 33.3878 77.191 33.2928 78.0609 32.9361C78.9307 32.5794 79.6734 31.9771 80.1952 31.2052C80.7169 30.4334 80.9942 29.5268 80.992 28.6C81.0011 27.9817 80.8836 27.368 80.6465 26.7953C80.4095 26.2226 80.0576 25.7027 79.612 25.2665C79.1664 24.8303 78.636 24.4867 78.0526 24.2562C77.4692 24.0258 76.8445 23.9131 76.2159 23.925ZM76.2159 31.438C75.6383 31.4777 75.0618 31.3457 74.5616 31.0589C74.0613 30.7722 73.6603 30.3441 73.4107 29.8303C73.1611 29.3165 73.0744 28.7407 73.162 28.1778C73.2495 27.6149 73.5073 27.0909 73.9016 26.6739C74.296 26.257 74.8088 25.9664 75.3734 25.8399C75.938 25.7133 76.5282 25.7568 77.0673 25.9645C77.6064 26.1722 78.0696 26.5347 78.3965 27.0047C78.7234 27.4747 78.8989 28.0306 78.9003 28.6C78.9184 28.9608 78.8627 29.3215 78.7367 29.6609C78.6107 30.0002 78.4169 30.3113 78.1667 30.5758C77.9166 30.8403 77.615 31.0529 77.28 31.2009C76.9449 31.349 76.5831 31.4296 76.2159 31.438ZM65.7913 23.925C64.8489 23.9272 63.9283 24.2041 63.146 24.7209C62.3636 25.2376 61.7546 25.9708 61.396 26.8279C61.0374 27.685 60.9453 28.6274 61.1314 29.536C61.3174 30.4445 61.7732 31.2785 62.4411 31.9323C63.1091 32.5861 63.9592 33.0304 64.8839 33.2091C65.8086 33.3878 66.7665 33.2928 67.6363 32.9361C68.5061 32.5794 69.2488 31.9771 69.7706 31.2052C70.2923 30.4334 70.5696 29.5268 70.5674 28.6C70.5765 27.9817 70.459 27.368 70.2219 26.7953C69.9849 26.2226 69.633 25.7027 69.1874 25.2665C68.7418 24.8303 68.2115 24.4867 67.628 24.2562C67.0446 24.0258 66.4199 23.9131 65.7913 23.925ZM65.7913 31.438C65.2137 31.4777 64.6373 31.3457 64.137 31.0589C63.6367 30.7722 63.2357 30.3441 62.9861 29.8303C62.7365 29.3165 62.6498 28.7407 62.7374 28.1778C62.8249 27.6149 63.0827 27.0909 63.4771 26.6739C63.8714 26.257 64.3842 25.9664 64.9488 25.8399C65.5134 25.7133 66.1036 25.7568 66.6427 25.9645C67.1818 26.1722 67.645 26.5347 67.9719 27.0047C68.2988 27.4747 68.4743 28.0306 68.4757 28.6C68.4938 28.9608 68.4381 29.3215 68.3121 29.6609C68.1861 30.0002 67.9923 30.3113 67.7422 30.5758C67.492 30.8403 67.1905 31.0529 66.8554 31.2009C66.5203 31.349 66.1585 31.4296 65.7913 31.438ZM53.3981 25.366V27.346H58.2301C58.1544 28.2786 57.7602 29.1586 57.1116 29.843C56.6269 30.3287 56.0439 30.7089 55.4004 30.959C54.7569 31.2091 54.0671 31.3236 53.3757 31.295C51.9518 31.295 50.5862 30.7387 49.5794 29.7485C48.5725 28.7583 48.0069 27.4153 48.0069 26.015C48.0069 24.6147 48.5725 23.2717 49.5794 22.2815C50.5862 21.2913 51.9518 20.735 53.3757 20.735C54.7408 20.715 56.059 21.2249 57.0445 22.154L58.465 20.757C57.7984 20.1086 57.0068 19.5975 56.1368 19.2537C55.2667 18.9099 54.3356 18.7404 53.3981 18.755C52.4038 18.7169 51.4118 18.8767 50.4817 19.2247C49.5516 19.5727 48.7025 20.1017 47.9853 20.7801C47.2681 21.4585 46.6976 22.2724 46.3078 23.1728C45.9181 24.0733 45.7172 25.0419 45.7172 26.0205C45.7172 26.9991 45.9181 27.9677 46.3078 28.8682C46.6976 29.7687 47.2681 30.5825 47.9853 31.2609C48.7025 31.9393 49.5516 32.4684 50.4817 32.8163C51.4118 33.1643 52.4038 33.3241 53.3981 33.286C54.3549 33.3236 55.309 33.1617 56.1977 32.811C57.0863 32.4603 57.8895 31.9286 58.5545 31.251C59.7291 29.9821 60.3549 28.3131 60.2994 26.598C60.3034 26.1852 60.2697 25.7729 60.1987 25.366H53.3981ZM104.078 26.906C103.786 26.062 103.241 25.3251 102.514 24.7927C101.787 24.2604 100.913 23.9578 100.007 23.925C99.395 23.9238 98.7894 24.0461 98.2275 24.2842C97.6656 24.5223 97.1593 24.8712 96.74 25.3094C96.3207 25.7476 95.9972 26.2656 95.7895 26.8316C95.5819 27.3976 95.4945 27.9995 95.5327 28.6C95.5232 29.6041 95.8442 30.5844 96.4478 31.3943C97.0514 32.2042 97.9053 32.8003 98.8818 33.0937C99.8584 33.387 100.905 33.3617 101.866 33.0217C102.827 32.6816 103.65 32.0451 104.212 31.207L102.591 30.107C102.349 30.5033 102.006 30.8306 101.596 31.0563C101.186 31.2821 100.723 31.3985 100.253 31.394C99.7681 31.4137 99.2886 31.2887 98.8773 31.0354C98.4661 30.7822 98.1424 30.4125 97.9487 29.975L104.313 27.39L104.078 26.906ZM97.5908 28.468C97.5681 28.1263 97.615 27.7836 97.7287 27.46C97.8424 27.1363 98.0206 26.8383 98.2528 26.5832C98.4851 26.3281 98.7668 26.1212 99.0814 25.9745C99.396 25.8278 99.7373 25.7444 100.085 25.729C100.445 25.7074 100.804 25.7908 101.117 25.9689C101.429 26.1469 101.681 26.4117 101.841 26.73L97.5908 28.468ZM92.4232 33H94.5149V19.25H92.4232V33ZM89.0006 24.97H88.9223C88.6098 24.6201 88.2242 24.3406 87.7918 24.1507C87.3593 23.9609 86.8903 23.8651 86.4168 23.87C85.1945 23.9283 84.0418 24.4469 83.1977 25.3182C82.3535 26.1896 81.8827 27.347 81.8827 28.5505C81.8827 29.754 82.3535 30.9114 83.1977 31.7828C84.0418 32.6541 85.1945 33.1727 86.4168 33.231C86.891 33.2404 87.3615 33.1466 87.7946 32.9565C88.2277 32.7663 88.6127 32.4844 88.9223 32.131H89.0006V32.802C89.0006 34.595 88.0275 35.552 86.4615 35.552C85.9384 35.5407 85.4305 35.3768 85.0024 35.081C84.5742 34.7853 84.245 34.3711 84.0567 33.891L82.2447 34.628C82.5797 35.4555 83.1622 36.1635 83.9151 36.6584C84.668 37.1534 85.556 37.412 86.4615 37.4C88.9111 37.4 90.9356 35.981 90.9356 32.527V24.2H89.0006V24.97ZM86.5957 31.438C85.8629 31.3931 85.175 31.0751 84.6722 30.5488C84.1694 30.0226 83.8895 29.3276 83.8895 28.6055C83.8895 27.8834 84.1694 27.1884 84.6722 26.6622C85.175 26.1359 85.8629 25.8179 86.5957 25.773C86.9539 25.7882 87.3054 25.8741 87.6291 26.0256C87.9529 26.1771 88.2423 26.3911 88.4802 26.6548C88.7182 26.9186 88.8997 27.2267 89.0141 27.5609C89.1284 27.8951 89.1733 28.2484 89.146 28.6C89.1765 28.9528 89.1339 29.3079 89.0209 29.6441C88.9078 29.9802 88.7266 30.2903 88.4882 30.5556C88.2499 30.8209 87.9592 31.0358 87.6339 31.1875C87.3087 31.3392 86.9555 31.4244 86.5957 31.438ZM113.876 19.25H108.865V33H110.957V27.786H113.876C114.473 27.8281 115.071 27.749 115.635 27.5536C116.198 27.3582 116.715 27.0507 117.153 26.6502C117.59 26.2498 117.939 25.765 118.178 25.2261C118.416 24.6872 118.539 24.1058 118.539 23.518C118.539 22.9302 118.416 22.3488 118.178 21.8099C117.939 21.271 117.59 20.7862 117.153 20.3858C116.715 19.9853 116.198 19.6778 115.635 19.4824C115.071 19.287 114.473 19.2079 113.876 19.25ZM113.876 25.85H110.957V21.164H113.921C114.235 21.164 114.547 21.2249 114.837 21.3432C115.128 21.4615 115.391 21.6349 115.614 21.8535C115.836 22.0721 116.012 22.3316 116.133 22.6172C116.253 22.9028 116.315 23.2089 116.315 23.518C116.315 23.8271 116.253 24.1332 116.133 24.4188C116.012 24.7044 115.836 24.9639 115.614 25.1825C115.391 25.4011 115.128 25.5745 114.837 25.6928C114.547 25.8111 114.235 25.872 113.921 25.872L113.876 25.85ZM126.784 23.881C126.022 23.8348 125.264 24.0092 124.602 24.3826C123.94 24.756 123.403 25.3121 123.059 25.982L124.905 26.741C125.091 26.4103 125.371 26.1399 125.711 25.9622C126.05 25.7846 126.435 25.7074 126.818 25.74C127.083 25.7095 127.352 25.7313 127.609 25.8042C127.866 25.877 128.105 25.9994 128.314 26.1643C128.522 26.3291 128.695 26.5331 128.822 26.7643C128.949 26.9956 129.028 27.2494 129.055 27.511V27.643C128.382 27.2953 127.633 27.1141 126.874 27.115C124.883 27.115 122.847 28.215 122.847 30.217C122.867 30.6425 122.973 31.0598 123.16 31.4441C123.347 31.8284 123.61 32.1718 123.935 32.454C124.259 32.7361 124.638 32.9513 125.049 33.0867C125.46 33.2221 125.894 33.2749 126.326 33.242C126.85 33.2706 127.374 33.1613 127.841 32.9255C128.309 32.6897 128.705 32.3357 128.988 31.9H129.055V33H131.068V27.709C131.068 25.3 129.211 23.903 126.829 23.903L126.784 23.881ZM126.527 31.416C125.845 31.416 124.894 31.075 124.894 30.25C124.894 29.15 126.079 28.776 127.131 28.776C127.795 28.7599 128.452 28.9194 129.032 29.238C128.962 29.8354 128.674 30.3875 128.222 30.792C127.769 31.1965 127.183 31.426 126.572 31.438L126.527 31.416ZM138.406 24.2L136.012 30.162H135.945L133.462 24.2H131.225L134.949 32.538L132.824 37.169H135.005L140.732 24.2H138.406ZM119.614 33H121.695V19.25H119.614V33Z" fill="black"/>
<path d="M11.6773 8.294C11.3087 8.72259 11.1207 9.27351 11.1516 9.834V34.166C11.1136 34.7274 11.3025 35.2809 11.6773 35.706L11.7556 35.794L25.6141 22.165V21.835L11.7556 8.217L11.6773 8.294Z" fill="url(#paint0_linear_836_1426)"/>
<path d="M30.2 26.708L25.6141 22.165V21.835L30.2 17.292L30.3007 17.358L35.7926 20.416C37.3585 21.285 37.3585 22.715 35.7926 23.595L30.323 26.653L30.2 26.708Z" fill="url(#paint1_linear_836_1426)"/>
<path d="M30.3342 26.642L25.6141 22L11.6773 35.706C11.9934 35.9827 12.398 36.1419 12.8209 36.1559C13.2438 36.17 13.6583 36.0381 13.9927 35.783L30.3342 26.642Z" fill="url(#paint2_linear_836_1426)"/>
<path d="M30.3342 17.358L13.9927 8.228C13.6605 7.9694 13.2463 7.83426 12.8228 7.84633C12.3993 7.8584 11.9937 8.01692 11.6773 8.294L25.6141 22L30.3342 17.358Z" fill="url(#paint3_linear_836_1426)"/>
<path opacity="0.2" d="M30.2 26.543L13.9927 35.618C13.6705 35.8571 13.2778 35.9865 12.8742 35.9865C12.4705 35.9865 12.0778 35.8571 11.7556 35.618L11.6773 35.695L11.7556 35.783C12.0778 36.0221 12.4705 36.1515 12.8742 36.1515C13.2778 36.1515 13.6705 36.0221 13.9927 35.783L30.3342 26.642L30.2 26.543Z" fill="black"/>
<path opacity="0.12" d="M11.6773 35.552C11.3181 35.1157 11.142 34.5608 11.1852 34.001V34.166C11.1471 34.7274 11.3361 35.2809 11.7109 35.706L11.7892 35.629L11.6773 35.552Z" fill="black"/>
<path opacity="0.12" d="M35.7926 23.43L30.2 26.543L30.3007 26.642L35.7926 23.584C36.1168 23.4492 36.398 23.2309 36.6067 22.9522C36.8153 22.6734 36.9437 22.3445 36.9782 22C36.9083 22.313 36.7646 22.6055 36.5586 22.8539C36.3527 23.1023 36.0903 23.2996 35.7926 23.43Z" fill="black"/>
<path opacity="0.25" d="M13.9927 8.382L35.7926 20.57C36.0903 20.7004 36.3527 20.8977 36.5586 21.1461C36.7646 21.3945 36.9083 21.687 36.9782 22C36.9437 21.6555 36.8153 21.3266 36.6067 21.0478C36.398 20.7691 36.1168 20.5508 35.7926 20.416L13.9927 8.228C12.4379 7.348 11.1516 8.074 11.1516 9.834V9.999C11.1852 8.239 12.4379 7.513 13.9927 8.382Z" fill="white"/>
</g>
<defs>
<filter id="filter0_d_836_1426" x="-50" y="-40" width="251" height="144" filterUnits="userSpaceOnUse" color-interpolation-filters="sRGB">
<feFlood flood-opacity="0" result="BackgroundImageFix"/>
<feColorMatrix in="SourceAlpha" type="matrix" values="0 0 0 0 0 0 0 0 0 0 0 0 0 0 0 0 0 0 127 0" result="hardAlpha"/>
<feOffset dy="10"/>
<feGaussianBlur stdDeviation="25"/>
<feComposite in2="hardAlpha" operator="out"/>
<feColorMatrix type="matrix" values="0 0 0 0 0.968627 0 0 0 0 0.780392 0 0 0 0 0.388235 0 0 0 0.12 0"/>
<feBlend mode="normal" in2="BackgroundImageFix" result="effect1_dropShadow_836_1426"/>
<feBlend mode="normal" in="SourceGraphic" in2="effect1_dropShadow_836_1426" result="shape"/>
</filter>
<linearGradient id="paint0_linear_836_1426" x1="24.3837" y1="9.581" x2="5.92828" y2="28.3471" gradientUnits="userSpaceOnUse">
<stop stop-color="#00A0FF"/>
<stop offset="0.01" stop-color="#00A1FF"/>
<stop offset="0.26" stop-color="#00BEFF"/>
<stop offset="0.51" stop-color="#00D2FF"/>
<stop offset="0.76" stop-color="#00DFFF"/>
<stop offset="1" stop-color="#00E3FF"/>
</linearGradient>
<linearGradient id="paint1_linear_836_1426" x1="37.8395" y1="22" x2="10.7825" y2="22" gradientUnits="userSpaceOnUse">
<stop stop-color="#FFE000"/>
<stop offset="0.41" stop-color="#FFBD00"/>
<stop offset="0.78" stop-color="#FFA500"/>
<stop offset="1" stop-color="#FF9C00"/>
</linearGradient>
<linearGradient id="paint2_linear_836_1426" x1="27.7728" y1="24.53" x2="2.74012" y2="49.9729" gradientUnits="userSpaceOnUse">
<stop stop-color="#FF3A44"/>
<stop offset="1" stop-color="#C31162"/>
</linearGradient>
<linearGradient id="paint3_linear_836_1426" x1="8.16519" y1="0.198" x2="19.3396" y2="11.5606" gradientUnits="userSpaceOnUse">
<stop stop-color="#32A071"/>
<stop offset="0.07" stop-color="#2DA771"/>
<stop offset="0.48" stop-color="#15CF74"/>
<stop offset="0.8" stop-color="#06E775"/>
<stop offset="1" stop-color="#00F076"/>
</linearGradient>
<clipPath id="clip0_836_1426">
<rect width="151" height="44" fill="white"/>
</clipPath>
</defs>
</svg>
