<svg width="1251" height="462" viewBox="0 0 1251 462" fill="none" xmlns="http://www.w3.org/2000/svg">
    <path d="M31.0383 44.8182C35.3032 24.2166 53.7084 9.84308 74.7457 10.0583C496.129 14.3695 752.071 23.0662 1192.08 46.7496C1209.99 47.7137 1225.52 59.3248 1229.22 76.8763C1235.76 107.888 1243.81 164.605 1241.22 249.061C1238.57 334.951 1226.37 392.249 1217.67 422.973C1212.91 439.746 1197.48 450.26 1180.05 450.455C1112.27 451.211 923.864 451.828 615.155 441.712C325.251 432.212 134.176 419.517 60.1435 414.055C39.6985 412.546 23.1958 397.299 20.3 377.004C14.326 335.135 5.62177 263.572 7.2697 211.638C8.93893 159.033 22.2821 87.1146 31.0383 44.8182Z" fill="#3D7D7D"/>
    <mask id="mask0_863_764" style="mask-type:alpha" maskUnits="userSpaceOnUse" x="12" y="9" width="1233" height="441">
        <path d="M35.9263 44.1483C40.1907 23.5469 58.5954 9.17251 79.6325 9.38781C500.235 13.6922 755.727 22.3736 1194.93 46.0123C1212.84 46.9763 1228.36 58.5862 1232.06 76.1378C1238.58 107.105 1246.62 163.704 1244.02 247.964C1241.39 333.653 1229.22 390.833 1220.53 421.515C1215.78 438.288 1200.35 448.803 1182.92 448.997C1115.22 449.752 927.152 450.365 619.047 440.269C329.723 430.788 139.004 418.119 65.0554 412.664C44.6105 411.156 28.1069 395.908 25.2116 375.613C19.2481 333.811 10.5682 262.421 12.2124 210.605C13.8778 158.121 27.1852 86.3774 35.9263 44.1483Z" fill="#C4C4C4"/>
    </mask>
    <g mask="url(#mask0_863_764)">
        <g clip-path="url(#clip0_863_764)">
            <path d="M413.074 91.7371C470.455 60.5382 488.415 93.5698 545.795 62.371C603.175 31.1721 585.215 -1.85953 642.578 -33.0494C699.942 -64.2393 717.919 -31.2167 775.299 -62.4156C832.679 -93.6145 814.719 -126.646 872.099 -157.845C929.479 -189.044 947.439 -156.012 1004.84 -187.22C1062.23 -218.428 1044.26 -251.451 1101.64 -282.649" stroke="#DFE1FE" stroke-opacity="0.04" stroke-width="2" stroke-miterlimit="10"/>
            <path d="M556.828 356.124C614.208 324.925 632.168 357.957 689.548 326.758C746.928 295.559 728.968 262.527 786.332 231.338C843.695 200.148 861.672 233.17 919.052 201.971C976.432 170.772 958.472 137.741 1015.85 106.542C1073.23 75.3431 1091.19 108.375 1148.59 77.1668C1205.99 45.959 1188.01 12.9364 1245.39 -18.2625" stroke="#DFE1FE" stroke-opacity="0.04" stroke-width="2" stroke-miterlimit="10"/>
            <path d="M484.951 223.931C542.331 192.732 560.291 225.763 617.671 194.564C675.051 163.366 657.091 130.334 714.455 99.144C771.819 67.9541 789.795 100.977 847.175 69.7779C904.555 38.579 886.595 5.5474 943.975 -25.6515C1001.36 -56.8504 1019.32 -23.8188 1076.71 -55.0266C1134.11 -86.2345 1116.13 -119.257 1173.51 -150.456" stroke="#DFE1FE" stroke-opacity="0.04" stroke-width="2" stroke-miterlimit="10"/>
            <path d="M628.705 488.318C686.085 457.119 704.081 490.218 761.461 459.019C818.841 427.82 800.845 394.721 858.208 363.531C915.572 332.341 933.585 365.431 990.965 334.232C1048.35 303.033 1030.35 269.934 1087.73 238.736C1145.11 207.537 1163.11 240.635 1220.5 209.428C1277.9 178.22 1259.89 145.13 1317.27 113.931" stroke="#DFE1FE" stroke-opacity="0.04" stroke-width="2" stroke-miterlimit="10"/>
            <path d="M727.558 670.126C784.938 638.927 802.898 671.959 860.278 640.76C917.658 609.561 899.698 576.529 957.062 545.339C1014.43 514.149 1032.4 547.172 1089.78 515.973C1147.16 484.774 1129.2 451.743 1186.58 420.544C1243.96 389.345 1261.92 422.376 1319.32 391.169C1376.72 359.961 1358.74 326.938 1416.12 295.739" stroke="#DFE1FE" stroke-opacity="0.04" stroke-width="2" stroke-miterlimit="10"/>
            <path d="M448.995 157.8C506.375 126.601 524.371 159.7 581.751 128.501C639.131 97.3023 621.135 64.2036 678.498 33.0137C735.862 1.82376 753.875 34.9135 811.255 3.71464C868.635 -27.4842 850.639 -60.583 908.019 -91.7819C965.399 -122.981 983.396 -89.882 1040.79 -121.09C1098.19 -152.298 1080.18 -185.387 1137.56 -216.586" stroke="#DFE1FE" stroke-opacity="0.04" stroke-width="2" stroke-miterlimit="10"/>
            <path d="M592.785 422.254C650.165 391.056 668.125 424.087 725.505 392.888C782.885 361.689 764.925 328.658 822.288 297.468C879.652 266.278 897.629 299.301 955.009 268.102C1012.39 236.903 994.429 203.871 1051.81 172.672C1109.19 141.473 1127.15 174.505 1184.55 143.297C1241.94 112.089 1223.97 79.0667 1281.35 47.8678" stroke="#DFE1FE" stroke-opacity="0.04" stroke-width="2" stroke-miterlimit="10"/>
            <path d="M520.908 290.061C578.288 258.862 596.248 291.894 653.628 260.695C711.008 229.496 693.048 196.464 750.411 165.274C807.775 134.085 825.752 167.107 883.132 135.908C940.512 104.709 922.552 71.6778 979.932 40.4789C1037.31 9.28 1055.27 42.3116 1112.67 11.1037C1170.07 -20.1041 1152.09 -53.1268 1209.47 -84.3256" stroke="#DFE1FE" stroke-opacity="0.04" stroke-width="2" stroke-miterlimit="10"/>
            <path d="M664.661 554.448C722.041 523.249 740.001 556.281 797.382 525.082C854.762 493.883 836.802 460.852 894.165 429.662C951.529 398.472 969.505 431.494 1026.89 400.295C1084.27 369.097 1066.31 336.065 1123.69 304.866C1181.07 273.667 1199.03 306.699 1256.42 275.491C1313.82 244.283 1295.84 211.26 1353.22 180.062" stroke="#DFE1FE" stroke-opacity="0.04" stroke-width="2" stroke-miterlimit="10"/>
            <path d="M763.478 736.189C820.858 704.99 838.855 738.089 896.235 706.89C953.615 675.691 935.618 642.592 992.982 611.402C1050.35 580.213 1068.36 613.302 1125.74 582.103C1183.12 550.905 1165.12 517.806 1222.5 486.607C1279.88 455.408 1297.88 488.507 1355.28 457.299C1412.67 426.091 1394.66 393.001 1452.04 361.802" stroke="#DFE1FE" stroke-opacity="0.04" stroke-width="2" stroke-miterlimit="10"/>
            <path d="M431.034 124.769C488.414 93.5697 506.375 126.601 563.755 95.4025C621.135 64.2036 603.175 31.172 660.538 -0.0179474C717.902 -31.2079 735.878 1.81477 793.259 -29.3841C850.639 -60.583 832.679 -93.6146 890.059 -124.813C947.439 -156.012 965.399 -122.981 1022.8 -154.189C1080.19 -185.396 1062.22 -218.419 1119.6 -249.618" stroke="#DFE1FE" stroke-opacity="0.04" stroke-width="2" stroke-miterlimit="10"/>
            <path d="M574.788 389.156C632.168 357.957 650.165 391.056 707.545 359.857C764.925 328.658 746.928 295.559 804.292 264.369C861.655 233.179 879.668 266.269 937.049 235.07C994.429 203.871 976.432 170.772 1033.81 139.574C1091.19 108.375 1109.19 141.473 1166.59 110.266C1223.98 79.0577 1205.97 45.968 1263.35 14.7691" stroke="#DFE1FE" stroke-opacity="0.04" stroke-width="2" stroke-miterlimit="10"/>
            <path d="M502.911 256.962C560.291 225.763 578.288 258.862 635.668 227.663C693.048 196.464 675.052 163.365 732.415 132.176C789.779 100.986 807.792 134.075 865.172 102.877C922.552 71.6776 904.555 38.5789 961.936 7.38001C1019.32 -23.8189 1037.31 9.27986 1094.71 -21.928C1152.11 -53.1359 1134.09 -86.2256 1191.47 -117.425" stroke="#DFE1FE" stroke-opacity="0.04" stroke-width="2" stroke-miterlimit="10"/>
            <path d="M646.701 521.416C704.081 490.217 722.041 523.249 779.421 492.05C836.801 460.851 818.841 427.82 876.205 396.63C933.569 365.44 951.545 398.462 1008.93 367.264C1066.31 336.065 1048.35 303.033 1105.73 271.834C1163.11 240.635 1181.07 273.667 1238.46 242.459C1295.86 211.251 1277.88 178.229 1335.26 147.03" stroke="#DFE1FE" stroke-opacity="0.04" stroke-width="2" stroke-miterlimit="10"/>
            <path d="M745.518 703.157C802.898 671.958 820.858 704.99 878.238 673.791C935.618 642.592 917.658 609.561 975.022 578.371C1032.39 547.181 1050.36 580.203 1107.74 549.005C1165.12 517.806 1147.16 484.774 1204.54 453.575C1261.92 422.376 1279.88 455.408 1337.28 424.2C1394.68 392.992 1376.7 359.97 1434.08 328.771" stroke="#DFE1FE" stroke-opacity="0.04" stroke-width="2" stroke-miterlimit="10"/>
            <path d="M466.991 190.899C524.371 159.7 542.331 192.732 599.711 161.533C657.091 130.334 639.131 97.3022 696.495 66.1123C753.859 34.9224 771.835 67.945 829.215 36.7461C886.595 5.54725 868.635 -27.4843 926.015 -58.6832C983.395 -89.8821 1001.36 -56.8505 1058.75 -88.0584C1116.15 -119.266 1098.17 -152.289 1155.55 -183.488" stroke="#DFE1FE" stroke-opacity="0.04" stroke-width="2" stroke-miterlimit="10"/>
            <path d="M610.745 455.286C668.125 424.087 686.085 457.119 743.465 425.92C800.845 394.721 782.885 361.689 840.248 330.5C897.612 299.31 915.589 332.332 972.969 301.133C1030.35 269.934 1012.39 236.903 1069.77 205.704C1127.15 174.505 1145.11 207.537 1202.51 176.329C1259.9 145.121 1241.93 112.098 1299.31 80.8995" stroke="#DFE1FE" stroke-opacity="0.04" stroke-width="2" stroke-miterlimit="10"/>
            <path d="M709.598 637.094C766.978 605.895 784.938 638.927 842.318 607.728C899.698 576.529 881.738 543.498 939.102 512.308C996.465 481.118 1014.44 514.14 1071.82 482.941C1129.2 451.743 1111.24 418.711 1168.62 387.512C1226 356.313 1243.96 389.345 1301.36 358.137C1358.76 326.929 1340.78 293.906 1398.16 262.708" stroke="#DFE1FE" stroke-opacity="0.04" stroke-width="2" stroke-miterlimit="10"/>
            <path d="M538.868 323.092C596.248 291.894 614.208 324.925 671.588 293.726C728.968 262.527 711.008 229.496 768.372 198.306C825.735 167.116 843.712 200.139 901.092 168.94C958.472 137.741 940.512 104.709 997.892 73.5104C1055.27 42.3115 1073.23 75.3431 1130.63 44.1352C1188.03 12.9274 1170.05 -20.0953 1227.43 -51.2941" stroke="#DFE1FE" stroke-opacity="0.04" stroke-width="2" stroke-miterlimit="10"/>
            <path d="M682.621 587.48C740.001 556.281 757.961 589.312 815.341 558.114C872.721 526.915 854.761 493.883 912.125 462.693C969.489 431.503 987.465 464.526 1044.85 433.327C1102.23 402.128 1084.27 369.096 1141.65 337.898C1199.03 306.699 1216.99 339.73 1274.38 308.522C1331.78 277.315 1313.8 244.292 1371.18 213.093" stroke="#DFE1FE" stroke-opacity="0.04" stroke-width="2" stroke-miterlimit="10"/>
            <path d="M781.474 769.288C838.854 738.089 856.815 771.121 914.195 739.922C971.575 708.723 953.615 675.691 1010.98 644.501C1068.34 613.311 1086.32 646.334 1143.7 615.135C1201.08 583.936 1183.12 550.905 1240.5 519.706C1297.88 488.507 1315.84 521.538 1373.24 490.331C1430.63 459.123 1412.66 426.1 1470.04 394.901" stroke="#DFE1FE" stroke-opacity="0.04" stroke-width="2" stroke-miterlimit="10"/>
            <path d="M422.055 108.253C479.435 77.0539 497.395 110.085 554.775 78.8866C612.155 47.6877 594.195 14.6561 651.558 -16.5338C708.922 -47.7237 726.899 -14.7011 784.279 -45.9C841.659 -77.0989 823.699 -110.13 881.079 -141.329C938.459 -172.528 956.419 -139.497 1013.82 -170.704C1071.21 -201.912 1053.24 -234.935 1110.62 -266.134" stroke="#DFE1FE" stroke-opacity="0.04" stroke-width="2" stroke-miterlimit="10"/>
            <path d="M565.808 372.64C623.188 341.441 641.185 374.54 698.565 343.341C755.945 312.142 737.948 279.043 795.312 247.853C852.675 216.663 870.688 249.753 928.069 218.554C985.449 187.355 967.452 154.257 1024.83 123.058C1082.21 91.859 1100.21 124.958 1157.61 93.7499C1215 62.542 1196.99 29.4522 1254.37 -1.74666" stroke="#DFE1FE" stroke-opacity="0.04" stroke-width="2" stroke-miterlimit="10"/>
            <path d="M493.931 240.446C551.311 209.247 569.271 242.279 626.651 211.08C684.031 179.881 666.071 146.85 723.435 115.66C780.798 84.4699 798.775 117.493 856.155 86.2936C913.535 55.0947 895.575 22.0631 952.955 -9.13574C1010.34 -40.3346 1028.3 -7.30303 1085.69 -38.5109C1143.09 -69.7187 1125.11 -102.741 1182.49 -133.94" stroke="#DFE1FE" stroke-opacity="0.04" stroke-width="2" stroke-miterlimit="10"/>
            <path d="M637.685 504.834C695.065 473.635 713.061 506.733 770.441 475.535C827.821 444.336 809.825 411.237 867.188 380.047C924.552 348.857 942.565 381.947 999.945 350.748C1057.33 319.549 1039.33 286.45 1096.71 255.251C1154.09 224.053 1172.09 257.151 1229.48 225.943C1286.88 194.736 1268.87 161.646 1326.25 130.447" stroke="#DFE1FE" stroke-opacity="0.04" stroke-width="2" stroke-miterlimit="10"/>
            <path d="M736.538 686.642C793.918 655.443 811.878 688.474 869.258 657.275C926.638 626.077 908.678 593.045 966.042 561.855C1023.41 530.665 1041.38 563.688 1098.76 532.489C1156.14 501.29 1138.18 468.258 1195.56 437.06C1252.94 405.861 1270.9 438.892 1328.3 407.684C1385.7 376.477 1367.72 343.454 1425.1 312.255" stroke="#DFE1FE" stroke-opacity="0.04" stroke-width="2" stroke-miterlimit="10"/>
            <path d="M458.011 174.383C515.391 143.184 533.351 176.216 590.731 145.017C648.112 113.818 630.152 80.7865 687.515 49.5966C744.879 18.4066 762.855 51.4293 820.235 20.2304C877.615 -10.9685 859.655 -44.0001 917.036 -75.199C974.416 -106.398 992.376 -73.3663 1049.77 -104.574C1107.17 -135.782 1089.19 -168.805 1146.57 -200.003" stroke="#DFE1FE" stroke-opacity="0.04" stroke-width="2" stroke-miterlimit="10"/>
            <path d="M601.764 438.77C659.145 407.571 677.105 440.603 734.485 409.404C791.865 378.205 773.905 345.174 831.268 313.984C888.632 282.794 906.609 315.816 963.989 284.617C1021.37 253.419 1003.41 220.387 1060.79 189.188C1118.17 157.989 1136.13 191.021 1193.53 159.813C1250.92 128.605 1232.95 95.5825 1290.33 64.3836" stroke="#DFE1FE" stroke-opacity="0.04" stroke-width="2" stroke-miterlimit="10"/>
            <path d="M700.581 620.511C757.961 589.312 775.958 622.411 833.338 591.212C890.718 560.013 872.722 526.915 930.085 495.725C987.449 464.535 1005.46 497.625 1062.84 466.426C1120.22 435.227 1102.23 402.128 1159.61 370.929C1216.99 339.73 1234.98 372.829 1292.38 341.621C1349.78 310.413 1331.76 277.324 1389.14 246.125" stroke="#DFE1FE" stroke-opacity="0.04" stroke-width="2" stroke-miterlimit="10"/>
            <path d="M529.888 306.577C587.268 275.378 605.228 308.409 662.608 277.211C719.988 246.012 702.028 212.98 759.392 181.79C816.755 150.6 834.732 183.623 892.112 152.424C949.492 121.225 931.532 88.1935 988.912 56.9946C1046.29 25.7958 1064.25 58.8273 1121.65 27.6195C1179.05 -3.58838 1161.07 -36.611 1218.45 -67.8099" stroke="#DFE1FE" stroke-opacity="0.04" stroke-width="2" stroke-miterlimit="10"/>
            <path d="M673.641 570.964C731.021 539.765 748.981 572.797 806.361 541.598C863.742 510.399 845.782 477.367 903.145 446.177C960.509 414.987 978.485 448.01 1035.87 416.811C1093.25 385.612 1075.29 352.581 1132.67 321.382C1190.05 290.183 1208.01 323.214 1265.4 292.007C1322.8 260.799 1304.82 227.776 1362.2 196.577" stroke="#DFE1FE" stroke-opacity="0.04" stroke-width="2" stroke-miterlimit="10"/>
            <path d="M772.494 752.772C829.874 721.573 847.835 754.605 905.215 723.406C962.595 692.207 944.635 659.175 1002 627.985C1059.36 596.796 1077.34 629.818 1134.72 598.619C1192.1 567.42 1174.14 534.389 1231.52 503.19C1288.9 471.991 1306.86 505.023 1364.26 473.815C1421.65 442.607 1403.68 409.584 1461.06 378.385" stroke="#DFE1FE" stroke-opacity="0.04" stroke-width="2" stroke-miterlimit="10"/>
            <path d="M440.015 141.284C497.395 110.086 515.391 143.184 572.771 111.985C630.151 80.7866 612.155 47.6878 669.519 16.4979C726.882 -14.692 744.895 18.3978 802.275 -12.8011C859.655 -44 841.659 -77.0987 899.039 -108.298C956.419 -139.496 974.416 -106.398 1031.81 -137.606C1089.21 -168.813 1071.2 -201.903 1128.58 -233.102" stroke="#DFE1FE" stroke-opacity="0.04" stroke-width="2" stroke-miterlimit="10"/>
            <path d="M583.804 405.739C641.184 374.54 659.145 407.571 716.525 376.373C773.905 345.174 755.945 312.142 813.308 280.952C870.672 249.762 888.648 282.785 946.029 251.586C1003.41 220.387 985.449 187.356 1042.83 156.157C1100.21 124.958 1118.17 157.989 1175.57 126.781C1232.96 95.5736 1214.99 62.551 1272.37 31.3521" stroke="#DFE1FE" stroke-opacity="0.04" stroke-width="2" stroke-miterlimit="10"/>
            <path d="M511.891 273.478C569.271 242.279 587.268 275.378 644.648 244.179C702.028 212.98 684.031 179.881 741.395 148.691C798.759 117.501 816.772 150.591 874.152 119.392C931.532 88.1935 913.535 55.0948 970.915 23.8959C1028.3 -7.303 1046.29 25.7957 1103.69 -5.41213C1161.09 -36.62 1143.07 -69.7098 1200.45 -100.909" stroke="#DFE1FE" stroke-opacity="0.04" stroke-width="2" stroke-miterlimit="10"/>
            <path d="M655.681 537.932C713.061 506.733 731.021 539.765 788.401 508.566C845.781 477.367 827.821 444.336 885.185 413.146C942.549 381.956 960.525 414.978 1017.91 383.779C1075.29 352.581 1057.33 319.549 1114.71 288.35C1172.09 257.151 1190.05 290.183 1247.44 258.975C1304.84 227.767 1286.86 194.744 1344.24 163.546" stroke="#DFE1FE" stroke-opacity="0.04" stroke-width="2" stroke-miterlimit="10"/>
            <path d="M754.498 719.673C811.878 688.474 829.875 721.573 887.255 690.374C944.635 659.175 926.638 626.077 984.002 594.887C1041.37 563.697 1059.38 596.786 1116.76 565.588C1174.14 534.389 1156.14 501.29 1213.52 470.091C1270.9 438.892 1288.9 471.991 1346.3 440.783C1403.69 409.575 1385.68 376.485 1443.06 345.287" stroke="#DFE1FE" stroke-opacity="0.04" stroke-width="2" stroke-miterlimit="10"/>
            <path d="M475.971 207.415C533.351 176.216 551.311 209.247 608.691 178.049C666.071 146.85 648.111 113.818 705.475 82.6282C762.839 51.4383 780.815 84.4609 838.195 53.262C895.575 22.0631 877.615 -10.9685 934.995 -42.1674C992.376 -73.3662 1010.34 -40.3346 1067.73 -71.5425C1125.13 -102.75 1107.15 -135.773 1164.53 -166.972" stroke="#DFE1FE" stroke-opacity="0.04" stroke-width="2" stroke-miterlimit="10"/>
            <path d="M619.724 471.802C677.104 440.603 695.065 473.635 752.445 442.436C809.825 411.237 791.865 378.205 849.228 347.015C906.592 315.825 924.568 348.848 981.949 317.649C1039.33 286.45 1021.37 253.419 1078.75 222.22C1136.13 191.021 1154.09 224.052 1211.49 192.845C1268.88 161.637 1250.91 128.614 1308.29 97.4152" stroke="#DFE1FE" stroke-opacity="0.04" stroke-width="2" stroke-miterlimit="10"/>
            <path d="M718.578 653.61C775.958 622.411 793.918 655.443 851.298 624.244C908.678 593.045 890.718 560.013 948.082 528.823C1005.45 497.634 1023.42 530.656 1080.8 499.457C1138.18 468.258 1120.22 435.227 1177.6 404.028C1234.98 372.829 1252.94 405.861 1310.34 374.653C1367.74 343.445 1349.76 310.422 1407.14 279.223" stroke="#DFE1FE" stroke-opacity="0.04" stroke-width="2" stroke-miterlimit="10"/>
            <path d="M547.848 339.608C605.228 308.409 623.188 341.441 680.568 310.242C737.948 279.043 719.988 246.012 777.352 214.822C834.715 183.632 852.692 216.654 910.072 185.456C967.452 154.257 949.492 121.225 1006.87 90.0263C1064.25 58.8274 1082.21 91.859 1139.61 60.6511C1197.01 29.4432 1179.03 -3.57939 1236.41 -34.7783" stroke="#DFE1FE" stroke-opacity="0.04" stroke-width="2" stroke-miterlimit="10"/>
            <path d="M691.601 603.996C748.981 572.797 766.978 605.895 824.358 574.697C881.738 543.498 863.742 510.399 921.105 479.209C978.469 448.019 996.482 481.109 1053.86 449.91C1111.24 418.711 1093.25 385.612 1150.63 354.413C1208.01 323.215 1226 356.313 1283.4 325.105C1340.8 293.898 1322.78 260.808 1380.16 229.609" stroke="#DFE1FE" stroke-opacity="0.04" stroke-width="2" stroke-miterlimit="10"/>
            <path d="M790.454 785.804C847.834 754.605 865.794 787.636 923.175 756.437C980.555 725.238 962.595 692.207 1019.96 661.017C1077.32 629.827 1095.3 662.85 1152.68 631.651C1210.06 600.452 1192.1 567.42 1249.48 536.221C1306.86 505.023 1324.82 538.054 1382.22 506.846C1439.61 475.638 1421.64 442.616 1479.02 411.417" stroke="#DFE1FE" stroke-opacity="0.04" stroke-width="2" stroke-miterlimit="10"/>
        </g>
        <g clip-path="url(#clip1_863_764)">
            <path d="M-159.926 91.7371C-102.545 60.5382 -84.5854 93.5698 -27.2053 62.371C30.1748 31.1721 12.2148 -1.85953 69.5784 -33.0494C126.942 -64.2393 144.919 -31.2167 202.299 -62.4156C259.679 -93.6145 241.719 -126.646 299.099 -157.845C356.479 -189.044 374.439 -156.012 431.836 -187.22C489.232 -218.428 471.256 -251.451 528.636 -282.649" stroke="#DFE1FE" stroke-opacity="0.04" stroke-width="2" stroke-miterlimit="10"/>
            <path d="M-16.1721 356.124C41.208 324.925 59.168 357.957 116.548 326.758C173.928 295.559 155.968 262.527 213.332 231.338C270.695 200.148 288.672 233.17 346.052 201.971C403.432 170.772 385.472 137.741 442.852 106.542C500.232 75.3431 518.192 108.375 575.589 77.1668C632.986 45.959 615.009 12.9364 672.389 -18.2625" stroke="#DFE1FE" stroke-opacity="0.04" stroke-width="2" stroke-miterlimit="10"/>
            <path d="M-88.0489 223.931C-30.6688 192.732 -12.7087 225.763 44.6714 194.564C102.051 163.366 84.0914 130.334 141.455 99.144C198.819 67.9541 216.795 100.977 274.175 69.7779C331.555 38.579 313.595 5.5474 370.975 -25.6515C428.355 -56.8504 446.316 -23.8188 503.712 -55.0266C561.109 -86.2345 543.132 -119.257 600.512 -150.456" stroke="#DFE1FE" stroke-opacity="0.04" stroke-width="2" stroke-miterlimit="10"/>
            <path d="M55.7045 488.318C113.085 457.119 131.081 490.218 188.461 459.019C245.841 427.82 227.845 394.721 285.208 363.531C342.572 332.341 360.585 365.431 417.965 334.232C475.345 303.033 457.349 269.934 514.729 238.736C572.109 207.537 590.105 240.635 647.502 209.428C704.899 178.22 686.886 145.13 744.266 113.931" stroke="#DFE1FE" stroke-opacity="0.04" stroke-width="2" stroke-miterlimit="10"/>
            <path d="M154.558 670.126C211.938 638.927 229.898 671.959 287.278 640.76C344.658 609.561 326.698 576.529 384.062 545.339C441.425 514.149 459.402 547.172 516.782 515.973C574.162 484.774 556.202 451.743 613.582 420.544C670.962 389.345 688.922 422.376 746.319 391.169C803.716 359.961 785.739 326.938 843.119 295.739" stroke="#DFE1FE" stroke-opacity="0.04" stroke-width="2" stroke-miterlimit="10"/>
            <path d="M-124.005 157.8C-66.6253 126.601 -48.6288 159.7 8.75132 128.501C66.1314 97.3023 48.1349 64.2036 105.498 33.0137C162.862 1.82376 180.875 34.9135 238.255 3.71464C295.635 -27.4842 277.639 -60.583 335.019 -91.7819C392.399 -122.981 410.396 -89.882 467.792 -121.09C525.189 -152.298 507.176 -185.387 564.556 -216.586" stroke="#DFE1FE" stroke-opacity="0.04" stroke-width="2" stroke-miterlimit="10"/>
            <path d="M19.7845 422.254C77.1646 391.056 95.1247 424.087 152.505 392.888C209.885 361.689 191.925 328.658 249.288 297.468C306.652 266.278 324.629 299.301 382.009 268.102C439.389 236.903 421.429 203.871 478.809 172.672C536.189 141.473 554.149 174.505 611.546 143.297C668.942 112.089 650.966 79.0667 708.346 47.8678" stroke="#DFE1FE" stroke-opacity="0.04" stroke-width="2" stroke-miterlimit="10"/>
            <path d="M-52.0924 290.061C5.28769 258.862 23.2477 291.894 80.6278 260.695C138.008 229.496 120.048 196.464 177.411 165.274C234.775 134.085 252.752 167.107 310.132 135.908C367.512 104.709 349.552 71.6778 406.932 40.4789C464.312 9.28 482.272 42.3116 539.669 11.1037C597.065 -20.1041 579.089 -53.1268 636.469 -84.3256" stroke="#DFE1FE" stroke-opacity="0.04" stroke-width="2" stroke-miterlimit="10"/>
            <path d="M91.6613 554.448C149.041 523.249 167.001 556.281 224.382 525.082C281.762 493.883 263.802 460.852 321.165 429.662C378.529 398.472 396.505 431.494 453.885 400.295C511.266 369.097 493.305 336.065 550.686 304.866C608.066 273.667 626.026 306.699 683.422 275.491C740.819 244.283 722.842 211.26 780.223 180.062" stroke="#DFE1FE" stroke-opacity="0.04" stroke-width="2" stroke-miterlimit="10"/>
            <path d="M190.478 736.189C247.858 704.99 265.855 738.089 323.235 706.89C380.615 675.691 362.618 642.592 419.982 611.402C477.345 580.213 495.358 613.302 552.739 582.103C610.119 550.905 592.122 517.806 649.502 486.607C706.882 455.408 724.879 488.507 782.275 457.299C839.672 426.091 821.659 393.001 879.039 361.802" stroke="#DFE1FE" stroke-opacity="0.04" stroke-width="2" stroke-miterlimit="10"/>
            <path d="M-141.966 124.769C-84.5855 93.5697 -66.6255 126.601 -9.24539 95.4025C48.1347 64.2036 30.1747 31.172 87.5383 -0.0179474C144.902 -31.2079 162.878 1.81477 220.259 -29.3841C277.639 -60.583 259.679 -93.6146 317.059 -124.813C374.439 -156.012 392.399 -122.981 449.795 -154.189C507.192 -185.396 489.215 -218.419 546.596 -249.618" stroke="#DFE1FE" stroke-opacity="0.04" stroke-width="2" stroke-miterlimit="10"/>
            <path d="M1.7879 389.156C59.168 357.957 77.1646 391.056 134.545 359.857C191.925 328.658 173.928 295.559 231.292 264.369C288.655 233.179 306.668 266.269 364.049 235.07C421.429 203.871 403.432 170.772 460.812 139.574C518.192 108.375 536.189 141.473 593.585 110.266C650.982 79.0577 632.969 45.968 690.349 14.7691" stroke="#DFE1FE" stroke-opacity="0.04" stroke-width="2" stroke-miterlimit="10"/>
            <path d="M-70.0887 256.962C-12.7086 225.763 5.28796 258.862 62.6681 227.663C120.048 196.464 102.052 163.365 159.415 132.176C216.779 100.986 234.792 134.075 292.172 102.877C349.552 71.6776 331.555 38.5789 388.936 7.38001C446.316 -23.8189 464.312 9.27986 521.709 -21.928C579.105 -53.1359 561.092 -86.2256 618.473 -117.425" stroke="#DFE1FE" stroke-opacity="0.04" stroke-width="2" stroke-miterlimit="10"/>
            <path d="M73.701 521.416C131.081 490.217 149.041 523.249 206.421 492.05C263.801 460.851 245.841 427.82 303.205 396.63C360.569 365.44 378.545 398.462 435.925 367.264C493.305 336.065 475.345 303.033 532.725 271.834C590.105 240.635 608.065 273.667 665.462 242.459C722.859 211.251 704.882 178.229 762.262 147.03" stroke="#DFE1FE" stroke-opacity="0.04" stroke-width="2" stroke-miterlimit="10"/>
            <path d="M172.518 703.157C229.898 671.958 247.858 704.99 305.238 673.791C362.618 642.592 344.658 609.561 402.022 578.371C459.385 547.181 477.362 580.203 534.742 549.005C592.122 517.806 574.162 484.774 631.542 453.575C688.922 422.376 706.882 455.408 764.279 424.2C821.676 392.992 803.699 359.97 861.079 328.771" stroke="#DFE1FE" stroke-opacity="0.04" stroke-width="2" stroke-miterlimit="10"/>
            <path d="M-106.009 190.899C-48.6288 159.7 -30.6688 192.732 26.7113 161.533C84.0914 130.334 66.1314 97.3022 123.495 66.1123C180.859 34.9224 198.835 67.945 256.215 36.7461C313.595 5.54725 295.635 -27.4843 353.015 -58.6832C410.395 -89.8821 428.356 -56.8505 485.752 -88.0584C543.149 -119.266 525.172 -152.289 582.552 -183.488" stroke="#DFE1FE" stroke-opacity="0.04" stroke-width="2" stroke-miterlimit="10"/>
            <path d="M37.7446 455.286C95.1247 424.087 113.085 457.119 170.465 425.92C227.845 394.721 209.885 361.689 267.248 330.5C324.612 299.31 342.589 332.332 399.969 301.133C457.349 269.934 439.389 236.903 496.769 205.704C554.149 174.505 572.109 207.537 629.506 176.329C686.902 145.121 668.926 112.098 726.306 80.8995" stroke="#DFE1FE" stroke-opacity="0.04" stroke-width="2" stroke-miterlimit="10"/>
            <path d="M136.598 637.094C193.978 605.895 211.938 638.927 269.318 607.728C326.698 576.529 308.738 543.498 366.102 512.308C423.465 481.118 441.442 514.14 498.822 482.941C556.202 451.743 538.242 418.711 595.622 387.512C653.002 356.313 670.962 389.345 728.359 358.137C785.755 326.929 767.779 293.906 825.159 262.708" stroke="#DFE1FE" stroke-opacity="0.04" stroke-width="2" stroke-miterlimit="10"/>
            <path d="M-34.1322 323.092C23.2479 291.894 41.2079 324.925 98.588 293.726C155.968 262.527 138.008 229.496 195.372 198.306C252.735 167.116 270.712 200.139 328.092 168.94C385.472 137.741 367.512 104.709 424.892 73.5104C482.272 42.3115 500.232 75.3431 557.629 44.1352C615.025 12.9274 597.049 -20.0953 654.429 -51.2941" stroke="#DFE1FE" stroke-opacity="0.04" stroke-width="2" stroke-miterlimit="10"/>
            <path d="M109.621 587.48C167.001 556.281 184.961 589.312 242.341 558.114C299.721 526.915 281.761 493.883 339.125 462.693C396.489 431.503 414.465 464.526 471.845 433.327C529.225 402.128 511.265 369.096 568.645 337.898C626.025 306.699 643.985 339.73 701.382 308.522C758.779 277.315 740.802 244.292 798.182 213.093" stroke="#DFE1FE" stroke-opacity="0.04" stroke-width="2" stroke-miterlimit="10"/>
            <path d="M208.474 769.288C265.854 738.089 283.815 771.121 341.195 739.922C398.575 708.723 380.615 675.691 437.978 644.501C495.342 613.311 513.318 646.334 570.699 615.135C628.079 583.936 610.119 550.905 667.499 519.706C724.879 488.507 742.839 521.538 800.235 490.331C857.632 459.123 839.655 426.1 897.036 394.901" stroke="#DFE1FE" stroke-opacity="0.04" stroke-width="2" stroke-miterlimit="10"/>
            <path d="M-150.945 108.253C-93.5654 77.0539 -75.6054 110.085 -18.2253 78.8866C39.1548 47.6877 21.1948 14.6561 78.5584 -16.5338C135.922 -47.7237 153.899 -14.7011 211.279 -45.9C268.659 -77.0989 250.699 -110.13 308.079 -141.329C365.459 -172.528 383.419 -139.497 440.816 -170.704C498.212 -201.912 480.236 -234.935 537.616 -266.134" stroke="#DFE1FE" stroke-opacity="0.04" stroke-width="2" stroke-miterlimit="10"/>
            <path d="M-7.19214 372.64C50.188 341.441 68.1845 374.54 125.565 343.341C182.945 312.142 164.948 279.043 222.312 247.853C279.675 216.663 297.688 249.753 355.069 218.554C412.449 187.355 394.452 154.257 451.832 123.058C509.212 91.859 527.209 124.958 584.605 93.7499C642.002 62.542 623.989 29.4522 681.369 -1.74666" stroke="#DFE1FE" stroke-opacity="0.04" stroke-width="2" stroke-miterlimit="10"/>
            <path d="M-79.069 240.446C-21.6889 209.247 -3.72889 242.279 53.6512 211.08C111.031 179.881 93.0713 146.85 150.435 115.66C207.798 84.4699 225.775 117.493 283.155 86.2936C340.535 55.0947 322.575 22.0631 379.955 -9.13574C437.335 -40.3346 455.295 -7.30303 512.692 -38.5109C570.089 -69.7187 552.112 -102.741 609.492 -133.94" stroke="#DFE1FE" stroke-opacity="0.04" stroke-width="2" stroke-miterlimit="10"/>
            <path d="M64.6846 504.834C122.065 473.635 140.061 506.733 197.441 475.535C254.821 444.336 236.825 411.237 294.188 380.047C351.552 348.857 369.565 381.947 426.945 350.748C484.325 319.549 466.329 286.45 523.709 255.251C581.089 224.053 599.086 257.151 656.482 225.943C713.879 194.736 695.866 161.646 753.246 130.447" stroke="#DFE1FE" stroke-opacity="0.04" stroke-width="2" stroke-miterlimit="10"/>
            <path d="M163.538 686.642C220.918 655.443 238.878 688.474 296.258 657.275C353.638 626.077 335.678 593.045 393.042 561.855C450.405 530.665 468.382 563.688 525.762 532.489C583.142 501.29 565.182 468.258 622.562 437.06C679.942 405.861 697.902 438.892 755.299 407.684C812.695 376.477 794.719 343.454 852.099 312.255" stroke="#DFE1FE" stroke-opacity="0.04" stroke-width="2" stroke-miterlimit="10"/>
            <path d="M-114.989 174.383C-57.6087 143.184 -39.6486 176.216 17.7315 145.017C75.1116 113.818 57.1515 80.7865 114.515 49.5966C171.879 18.4066 189.855 51.4293 247.235 20.2304C304.615 -10.9685 286.655 -44.0001 344.036 -75.199C401.416 -106.398 419.376 -73.3663 476.772 -104.574C534.169 -135.782 516.192 -168.805 573.572 -200.003" stroke="#DFE1FE" stroke-opacity="0.04" stroke-width="2" stroke-miterlimit="10"/>
            <path d="M28.7645 438.77C86.1446 407.571 104.105 440.603 161.485 409.404C218.865 378.205 200.905 345.174 258.268 313.984C315.632 282.794 333.609 315.816 390.989 284.617C448.369 253.419 430.409 220.387 487.789 189.188C545.169 157.989 563.129 191.021 620.526 159.813C677.922 128.605 659.946 95.5825 717.326 64.3836" stroke="#DFE1FE" stroke-opacity="0.04" stroke-width="2" stroke-miterlimit="10"/>
            <path d="M127.581 620.511C184.961 589.312 202.958 622.411 260.338 591.212C317.718 560.013 299.722 526.915 357.085 495.725C414.449 464.535 432.462 497.625 489.842 466.426C547.222 435.227 529.226 402.128 586.606 370.929C643.986 339.73 661.982 372.829 719.379 341.621C776.776 310.413 758.762 277.324 816.143 246.125" stroke="#DFE1FE" stroke-opacity="0.04" stroke-width="2" stroke-miterlimit="10"/>
            <path d="M-43.1122 306.577C14.2679 275.378 32.228 308.409 89.6081 277.211C146.988 246.012 129.028 212.98 186.392 181.79C243.755 150.6 261.732 183.623 319.112 152.424C376.492 121.225 358.532 88.1935 415.912 56.9946C473.292 25.7958 491.252 58.8273 548.649 27.6195C606.045 -3.58838 588.069 -36.611 645.449 -67.8099" stroke="#DFE1FE" stroke-opacity="0.04" stroke-width="2" stroke-miterlimit="10"/>
            <path d="M100.641 570.964C158.021 539.765 175.981 572.797 233.361 541.598C290.742 510.399 272.782 477.367 330.145 446.177C387.509 414.987 405.485 448.01 462.865 416.811C520.245 385.612 502.285 352.581 559.666 321.382C617.046 290.183 635.006 323.214 692.402 292.007C749.799 260.799 731.822 227.776 789.202 196.577" stroke="#DFE1FE" stroke-opacity="0.04" stroke-width="2" stroke-miterlimit="10"/>
            <path d="M199.494 752.772C256.874 721.573 274.835 754.605 332.215 723.406C389.595 692.207 371.635 659.175 428.998 627.985C486.362 596.796 504.338 629.818 561.719 598.619C619.099 567.42 601.139 534.389 658.519 503.19C715.899 471.991 733.859 505.023 791.255 473.815C848.652 442.607 830.675 409.584 888.056 378.385" stroke="#DFE1FE" stroke-opacity="0.04" stroke-width="2" stroke-miterlimit="10"/>
            <path d="M-132.985 141.284C-75.6053 110.086 -57.6087 143.184 -0.228603 111.985C57.1515 80.7866 39.155 47.6878 96.5185 16.4979C153.882 -14.692 171.895 18.3978 229.275 -12.8011C286.655 -44 268.659 -77.0987 326.039 -108.298C383.419 -139.496 401.416 -106.398 458.812 -137.606C516.209 -168.813 498.196 -201.903 555.576 -233.102" stroke="#DFE1FE" stroke-opacity="0.04" stroke-width="2" stroke-miterlimit="10"/>
            <path d="M10.8044 405.739C68.1845 374.54 86.1445 407.571 143.525 376.373C200.905 345.174 182.945 312.142 240.308 280.952C297.672 249.762 315.648 282.785 373.029 251.586C430.409 220.387 412.449 187.356 469.829 156.157C527.209 124.958 545.169 157.989 602.565 126.781C659.962 95.5736 641.985 62.551 699.366 31.3521" stroke="#DFE1FE" stroke-opacity="0.04" stroke-width="2" stroke-miterlimit="10"/>
            <path d="M-61.1088 273.478C-3.72873 242.279 14.2678 275.378 71.6479 244.179C129.028 212.98 111.031 179.881 168.395 148.691C225.759 117.501 243.772 150.591 301.152 119.392C358.532 88.1935 340.535 55.0948 397.915 23.8959C455.296 -7.303 473.292 25.7957 530.689 -5.41213C588.085 -36.62 570.072 -69.7098 627.452 -100.909" stroke="#DFE1FE" stroke-opacity="0.04" stroke-width="2" stroke-miterlimit="10"/>
            <path d="M82.6811 537.932C140.061 506.733 158.021 539.765 215.401 508.566C272.781 477.367 254.821 444.336 312.185 413.146C369.549 381.956 387.525 414.978 444.905 383.779C502.285 352.581 484.325 319.549 541.705 288.35C599.085 257.151 617.046 290.183 674.442 258.975C731.839 227.767 713.862 194.744 771.242 163.546" stroke="#DFE1FE" stroke-opacity="0.04" stroke-width="2" stroke-miterlimit="10"/>
            <path d="M181.498 719.673C238.878 688.474 256.875 721.573 314.255 690.374C371.635 659.175 353.638 626.077 411.002 594.887C468.365 563.697 486.378 596.786 543.759 565.588C601.139 534.389 583.142 501.29 640.522 470.091C697.902 438.892 715.899 471.991 773.295 440.783C830.692 409.575 812.679 376.485 870.059 345.287" stroke="#DFE1FE" stroke-opacity="0.04" stroke-width="2" stroke-miterlimit="10"/>
            <path d="M-97.0289 207.415C-39.6488 176.216 -21.6887 209.247 35.6914 178.049C93.0715 146.85 75.1114 113.818 132.475 82.6282C189.839 51.4383 207.815 84.4609 265.195 53.262C322.575 22.0631 304.615 -10.9685 361.995 -42.1674C419.376 -73.3662 437.336 -40.3346 494.732 -71.5425C552.129 -102.75 534.152 -135.773 591.532 -166.972" stroke="#DFE1FE" stroke-opacity="0.04" stroke-width="2" stroke-miterlimit="10"/>
            <path d="M46.7244 471.802C104.104 440.603 122.065 473.635 179.445 442.436C236.825 411.237 218.865 378.205 276.228 347.015C333.592 315.825 351.568 348.848 408.949 317.649C466.329 286.45 448.369 253.419 505.749 222.22C563.129 191.021 581.089 224.052 638.485 192.845C695.882 161.637 677.905 128.614 735.286 97.4152" stroke="#DFE1FE" stroke-opacity="0.04" stroke-width="2" stroke-miterlimit="10"/>
            <path d="M145.578 653.61C202.958 622.411 220.918 655.443 278.298 624.244C335.678 593.045 317.718 560.013 375.082 528.823C432.445 497.634 450.422 530.656 507.802 499.457C565.182 468.258 547.222 435.227 604.602 404.028C661.982 372.829 679.942 405.861 737.339 374.653C794.735 343.445 776.759 310.422 834.139 279.223" stroke="#DFE1FE" stroke-opacity="0.04" stroke-width="2" stroke-miterlimit="10"/>
            <path d="M-25.1523 339.608C32.2278 308.409 50.1878 341.441 107.568 310.242C164.948 279.043 146.988 246.012 204.352 214.822C261.715 183.632 279.692 216.654 337.072 185.456C394.452 154.257 376.492 121.225 433.872 90.0263C491.252 58.8274 509.212 91.859 566.609 60.6511C624.005 29.4432 606.029 -3.57939 663.409 -34.7783" stroke="#DFE1FE" stroke-opacity="0.04" stroke-width="2" stroke-miterlimit="10"/>
            <path d="M118.601 603.996C175.981 572.797 193.978 605.895 251.358 574.697C308.738 543.498 290.742 510.399 348.105 479.209C405.469 448.019 423.482 481.109 480.862 449.91C538.242 418.711 520.245 385.612 577.625 354.413C635.006 323.215 653.002 356.313 710.399 325.105C767.795 293.898 749.782 260.808 807.162 229.609" stroke="#DFE1FE" stroke-opacity="0.04" stroke-width="2" stroke-miterlimit="10"/>
            <path d="M217.454 785.804C274.834 754.605 292.794 787.636 350.175 756.437C407.555 725.238 389.595 692.207 446.958 661.017C504.322 629.827 522.298 662.85 579.678 631.651C637.059 600.452 619.099 567.42 676.479 536.221C733.859 505.023 751.819 538.054 809.215 506.846C866.612 475.638 848.635 442.616 906.016 411.417" stroke="#DFE1FE" stroke-opacity="0.04" stroke-width="2" stroke-miterlimit="10"/>
        </g>
        <g clip-path="url(#clip2_863_764)">
            <path d="M-591.172 356.124C-533.792 324.925 -515.832 357.957 -458.452 326.758C-401.072 295.559 -419.032 262.527 -361.668 231.338C-304.305 200.148 -286.328 233.17 -228.948 201.971C-171.568 170.772 -189.528 137.741 -132.148 106.542C-74.7677 75.3431 -56.8077 108.375 0.588927 77.1668C57.9855 45.959 40.009 12.9364 97.3891 -18.2625" stroke="#DFE1FE" stroke-opacity="0.04" stroke-width="2" stroke-miterlimit="10"/>
            <path d="M-663.049 223.931C-605.669 192.732 -587.709 225.763 -530.329 194.564C-472.948 163.366 -490.909 130.334 -433.545 99.144C-376.181 67.9541 -358.205 100.977 -300.825 69.7779C-243.445 38.579 -261.405 5.5474 -204.025 -25.6515C-146.644 -56.8504 -128.684 -23.8188 -71.2878 -55.0266C-13.8912 -86.2345 -31.8677 -119.257 25.5124 -150.456" stroke="#DFE1FE" stroke-opacity="0.04" stroke-width="2" stroke-miterlimit="10"/>
            <path d="M-519.295 488.318C-461.915 457.119 -443.919 490.218 -386.539 459.019C-329.159 427.82 -347.155 394.721 -289.792 363.531C-232.428 332.341 -214.415 365.431 -157.035 334.232C-99.6547 303.033 -117.651 269.934 -60.2711 238.736C-2.89104 207.537 15.1055 240.635 72.5021 209.428C129.899 178.22 111.886 145.13 169.266 113.931" stroke="#DFE1FE" stroke-opacity="0.04" stroke-width="2" stroke-miterlimit="10"/>
            <path d="M-420.442 670.126C-363.062 638.927 -345.102 671.959 -287.722 640.76C-230.342 609.561 -248.302 576.529 -190.938 545.339C-133.575 514.149 -115.598 547.172 -58.218 515.973C-0.837896 484.774 -18.798 451.743 38.5821 420.544C95.9622 389.345 113.922 422.376 171.319 391.169C228.716 359.961 210.739 326.938 268.119 295.739" stroke="#DFE1FE" stroke-opacity="0.04" stroke-width="2" stroke-miterlimit="10"/>
            <path d="M-555.215 422.254C-497.835 391.056 -479.875 424.087 -422.495 392.888C-365.115 361.689 -383.075 328.658 -325.712 297.468C-268.348 266.278 -250.371 299.301 -192.991 268.102C-135.611 236.903 -153.571 203.871 -96.1912 172.672C-38.8111 141.473 -20.851 174.505 36.5456 143.297C93.9422 112.089 75.9656 79.0667 133.346 47.8678" stroke="#DFE1FE" stroke-opacity="0.04" stroke-width="2" stroke-miterlimit="10"/>
            <path d="M-627.092 290.061C-569.712 258.862 -551.752 291.894 -494.372 260.695C-436.992 229.496 -454.952 196.464 -397.589 165.274C-340.225 134.085 -322.248 167.107 -264.868 135.908C-207.488 104.709 -225.448 71.6778 -168.068 40.4789C-110.688 9.28 -92.728 42.3116 -35.3314 11.1037C22.0652 -20.1041 4.08869 -53.1268 61.4688 -84.3256" stroke="#DFE1FE" stroke-opacity="0.04" stroke-width="2" stroke-miterlimit="10"/>
            <path d="M-483.339 554.448C-425.959 523.249 -407.998 556.281 -350.618 525.082C-293.238 493.883 -311.198 460.852 -253.835 429.662C-196.471 398.472 -178.495 431.494 -121.114 400.295C-63.7344 369.097 -81.6945 336.065 -24.3144 304.866C33.0657 273.667 51.0258 306.699 108.422 275.491C165.819 244.283 147.842 211.26 205.223 180.062" stroke="#DFE1FE" stroke-opacity="0.04" stroke-width="2" stroke-miterlimit="10"/>
            <path d="M-384.522 736.189C-327.142 704.99 -309.145 738.089 -251.765 706.89C-194.385 675.691 -212.382 642.592 -155.018 611.402C-97.6546 580.213 -79.6415 613.302 -22.2614 582.103C35.1187 550.905 17.1221 517.806 74.5022 486.607C131.882 455.408 149.879 488.507 207.275 457.299C264.672 426.091 246.659 393.001 304.039 361.802" stroke="#DFE1FE" stroke-opacity="0.04" stroke-width="2" stroke-miterlimit="10"/>
            <path d="M-573.212 389.156C-515.832 357.957 -497.836 391.056 -440.455 359.857C-383.075 328.658 -401.072 295.559 -343.708 264.369C-286.345 233.179 -268.332 266.269 -210.952 235.07C-153.571 203.871 -171.568 170.772 -114.188 139.574C-56.8078 108.375 -38.8112 141.473 18.5854 110.266C75.982 79.0577 57.9689 45.968 115.349 14.7691" stroke="#DFE1FE" stroke-opacity="0.04" stroke-width="2" stroke-miterlimit="10"/>
            <path d="M-645.089 256.962C-587.709 225.763 -569.712 258.862 -512.332 227.663C-454.952 196.464 -472.948 163.365 -415.585 132.176C-358.221 100.986 -340.208 134.075 -282.828 102.877C-225.448 71.6776 -243.444 38.5789 -186.064 7.38001C-128.684 -23.8189 -110.688 9.27986 -53.2911 -21.928C4.10554 -53.1359 -13.9075 -86.2256 43.4726 -117.425" stroke="#DFE1FE" stroke-opacity="0.04" stroke-width="2" stroke-miterlimit="10"/>
            <path d="M-501.299 521.416C-443.919 490.217 -425.959 523.249 -368.579 492.05C-311.199 460.851 -329.159 427.82 -271.795 396.63C-214.431 365.44 -196.455 398.462 -139.075 367.264C-81.6947 336.065 -99.6548 303.033 -42.2747 271.834C15.1054 240.635 33.0655 273.667 90.4621 242.459C147.859 211.251 129.882 178.229 187.262 147.03" stroke="#DFE1FE" stroke-opacity="0.04" stroke-width="2" stroke-miterlimit="10"/>
            <path d="M-402.482 703.157C-345.102 671.958 -327.142 704.99 -269.762 673.791C-212.382 642.592 -230.342 609.561 -172.978 578.371C-115.615 547.181 -97.638 580.203 -40.2579 549.005C17.1222 517.806 -0.837884 484.774 56.5422 453.575C113.922 422.376 131.882 455.408 189.279 424.2C246.676 392.992 228.699 359.97 286.079 328.771" stroke="#DFE1FE" stroke-opacity="0.04" stroke-width="2" stroke-miterlimit="10"/>
            <path d="M-681.009 190.899C-623.629 159.7 -605.669 192.732 -548.289 161.533C-490.909 130.334 -508.869 97.3022 -451.505 66.1123C-394.141 34.9224 -376.165 67.945 -318.785 36.7461C-261.405 5.54725 -279.365 -27.4843 -221.985 -58.6832C-164.605 -89.8821 -146.644 -56.8505 -89.2479 -88.0584C-31.8513 -119.266 -49.8278 -152.289 7.55229 -183.488" stroke="#DFE1FE" stroke-opacity="0.04" stroke-width="2" stroke-miterlimit="10"/>
            <path d="M-537.255 455.286C-479.875 424.087 -461.915 457.119 -404.535 425.92C-347.155 394.721 -365.115 361.689 -307.751 330.5C-250.388 299.31 -232.411 332.332 -175.031 301.133C-117.651 269.934 -135.611 236.903 -78.2311 205.704C-20.851 174.505 -2.89093 207.537 54.5057 176.329C111.902 145.121 93.9257 112.098 151.306 80.8995" stroke="#DFE1FE" stroke-opacity="0.04" stroke-width="2" stroke-miterlimit="10"/>
            <path d="M-438.402 637.094C-381.022 605.895 -363.062 638.927 -305.682 607.728C-248.302 576.529 -266.262 543.498 -208.898 512.308C-151.535 481.118 -133.558 514.14 -76.1782 482.941C-18.7981 451.743 -36.7582 418.711 20.6219 387.512C78.002 356.313 95.9621 389.345 153.359 358.137C210.755 326.929 192.779 293.906 250.159 262.708" stroke="#DFE1FE" stroke-opacity="0.04" stroke-width="2" stroke-miterlimit="10"/>
            <path d="M-609.132 323.092C-551.752 291.894 -533.792 324.925 -476.412 293.726C-419.032 262.527 -436.992 229.496 -379.628 198.306C-322.265 167.116 -304.288 200.139 -246.908 168.94C-189.528 137.741 -207.488 104.709 -150.108 73.5104C-92.7278 42.3115 -74.7678 75.3431 -17.3712 44.1352C40.0255 12.9274 22.0489 -20.0953 79.429 -51.2941" stroke="#DFE1FE" stroke-opacity="0.04" stroke-width="2" stroke-miterlimit="10"/>
            <path d="M-465.379 587.48C-407.999 556.281 -390.039 589.312 -332.659 558.114C-275.279 526.915 -293.239 493.883 -235.875 462.693C-178.511 431.503 -160.535 464.526 -103.155 433.327C-45.7747 402.128 -63.7347 369.096 -6.35463 337.898C51.0255 306.699 68.9855 339.73 126.382 308.522C183.779 277.315 165.802 244.292 223.182 213.093" stroke="#DFE1FE" stroke-opacity="0.04" stroke-width="2" stroke-miterlimit="10"/>
            <path d="M-366.526 769.288C-309.146 738.089 -291.185 771.121 -233.805 739.922C-176.425 708.723 -194.385 675.691 -137.022 644.501C-79.6581 613.311 -61.6816 646.334 -4.30149 615.135C53.0786 583.936 35.1185 550.905 92.4986 519.706C149.879 488.507 167.839 521.538 225.235 490.331C282.632 459.123 264.655 426.1 322.036 394.901" stroke="#DFE1FE" stroke-opacity="0.04" stroke-width="2" stroke-miterlimit="10"/>
            <path d="M-582.192 372.64C-524.812 341.441 -506.815 374.54 -449.435 343.341C-392.055 312.142 -410.052 279.043 -352.688 247.853C-295.325 216.663 -277.312 249.753 -219.931 218.554C-162.551 187.355 -180.548 154.257 -123.168 123.058C-65.7878 91.859 -47.7912 124.958 9.60541 93.7499C67.002 62.542 48.989 29.4522 106.369 -1.74666" stroke="#DFE1FE" stroke-opacity="0.04" stroke-width="2" stroke-miterlimit="10"/>
            <path d="M-654.069 240.446C-596.689 209.247 -578.729 242.279 -521.349 211.08C-463.969 179.881 -481.929 146.85 -424.565 115.66C-367.202 84.4699 -349.225 117.493 -291.845 86.2936C-234.465 55.0947 -252.425 22.0631 -195.045 -9.13574C-137.665 -40.3346 -119.705 -7.30303 -62.308 -38.5109C-4.91144 -69.7187 -22.888 -102.741 34.4921 -133.94" stroke="#DFE1FE" stroke-opacity="0.04" stroke-width="2" stroke-miterlimit="10"/>
            <path d="M-510.315 504.834C-452.935 473.635 -434.939 506.733 -377.559 475.535C-320.179 444.336 -338.175 411.237 -280.812 380.047C-223.448 348.857 -205.435 381.947 -148.055 350.748C-90.6747 319.549 -108.671 286.45 -51.2912 255.251C6.08894 224.053 24.0855 257.151 81.4821 225.943C138.879 194.736 120.866 161.646 178.246 130.447" stroke="#DFE1FE" stroke-opacity="0.04" stroke-width="2" stroke-miterlimit="10"/>
            <path d="M-411.462 686.642C-354.082 655.443 -336.122 688.474 -278.742 657.275C-221.362 626.077 -239.322 593.045 -181.958 561.855C-124.595 530.665 -106.618 563.688 -49.238 532.489C8.14208 501.29 -9.81799 468.258 47.5621 437.06C104.942 405.861 122.902 438.892 180.299 407.684C237.695 376.477 219.719 343.454 277.099 312.255" stroke="#DFE1FE" stroke-opacity="0.04" stroke-width="2" stroke-miterlimit="10"/>
            <path d="M-689.989 174.383C-632.609 143.184 -614.649 176.216 -557.269 145.017C-499.888 113.818 -517.848 80.7865 -460.485 49.5966C-403.121 18.4066 -385.145 51.4293 -327.765 20.2304C-270.385 -10.9685 -288.345 -44.0001 -230.964 -75.199C-173.584 -106.398 -155.624 -73.3663 -98.2277 -104.574C-40.8311 -135.782 -58.8077 -168.805 -1.42757 -200.003" stroke="#DFE1FE" stroke-opacity="0.04" stroke-width="2" stroke-miterlimit="10"/>
            <path d="M-546.236 438.77C-488.855 407.571 -470.895 440.603 -413.515 409.404C-356.135 378.205 -374.095 345.174 -316.732 313.984C-259.368 282.794 -241.392 315.816 -184.011 284.617C-126.631 253.419 -144.591 220.387 -87.2113 189.188C-29.8312 157.989 -11.8712 191.021 45.5254 159.813C102.922 128.605 84.9455 95.5825 142.326 64.3836" stroke="#DFE1FE" stroke-opacity="0.04" stroke-width="2" stroke-miterlimit="10"/>
            <path d="M-447.419 620.511C-390.039 589.312 -372.042 622.411 -314.662 591.212C-257.282 560.013 -275.278 526.915 -217.915 495.725C-160.551 464.535 -142.538 497.625 -85.1581 466.426C-27.778 435.227 -45.7745 402.128 11.6056 370.929C68.9857 339.73 86.9822 372.829 144.379 341.621C201.775 310.413 183.762 277.324 241.142 246.125" stroke="#DFE1FE" stroke-opacity="0.04" stroke-width="2" stroke-miterlimit="10"/>
            <path d="M-618.112 306.577C-560.732 275.378 -542.772 308.409 -485.392 277.211C-428.012 246.012 -445.972 212.98 -388.608 181.79C-331.245 150.6 -313.268 183.623 -255.888 152.424C-198.508 121.225 -216.468 88.1935 -159.088 56.9946C-101.708 25.7958 -83.7477 58.8273 -26.3511 27.6195C31.0455 -3.58838 13.0689 -36.611 70.449 -67.8099" stroke="#DFE1FE" stroke-opacity="0.04" stroke-width="2" stroke-miterlimit="10"/>
            <path d="M-474.359 570.964C-416.979 539.765 -399.019 572.797 -341.639 541.598C-284.258 510.399 -302.218 477.367 -244.855 446.177C-187.491 414.987 -169.515 448.01 -112.135 416.811C-54.7545 385.612 -72.7146 352.581 -15.3345 321.382C42.0456 290.183 60.0057 323.214 117.402 292.007C174.799 260.799 156.822 227.776 214.202 196.577" stroke="#DFE1FE" stroke-opacity="0.04" stroke-width="2" stroke-miterlimit="10"/>
            <path d="M-375.506 752.772C-318.126 721.573 -300.165 754.605 -242.785 723.406C-185.405 692.207 -203.365 659.175 -146.002 627.985C-88.6381 596.796 -70.6616 629.818 -13.2815 598.619C44.0986 567.42 26.1386 534.389 83.5187 503.19C140.899 471.991 158.859 505.023 216.255 473.815C273.652 442.607 255.675 409.584 313.056 378.385" stroke="#DFE1FE" stroke-opacity="0.04" stroke-width="2" stroke-miterlimit="10"/>
            <path d="M-564.196 405.739C-506.815 374.54 -488.855 407.571 -431.475 376.373C-374.095 345.174 -392.055 312.142 -334.692 280.952C-277.328 249.762 -259.352 282.785 -201.971 251.586C-144.591 220.387 -162.551 187.356 -105.171 156.157C-47.7912 124.958 -29.8311 157.989 27.5655 126.781C84.9621 95.5736 66.9855 62.551 124.366 31.3521" stroke="#DFE1FE" stroke-opacity="0.04" stroke-width="2" stroke-miterlimit="10"/>
            <path d="M-636.109 273.478C-578.729 242.279 -560.732 275.378 -503.352 244.179C-445.972 212.98 -463.969 179.881 -406.605 148.691C-349.241 117.501 -331.228 150.591 -273.848 119.392C-216.468 88.1935 -234.465 55.0948 -177.085 23.8959C-119.705 -7.303 -101.708 25.7957 -44.3113 -5.41213C13.0853 -36.62 -4.92779 -69.7098 52.4523 -100.909" stroke="#DFE1FE" stroke-opacity="0.04" stroke-width="2" stroke-miterlimit="10"/>
            <path d="M-492.319 537.932C-434.939 506.733 -416.979 539.765 -359.599 508.566C-302.219 477.367 -320.179 444.336 -262.815 413.146C-205.451 381.956 -187.475 414.978 -130.095 383.779C-72.7146 352.581 -90.6747 319.549 -33.2946 288.35C24.0855 257.151 42.0456 290.183 99.4422 258.975C156.839 227.767 138.862 194.744 196.242 163.546" stroke="#DFE1FE" stroke-opacity="0.04" stroke-width="2" stroke-miterlimit="10"/>
            <path d="M-393.502 719.673C-336.122 688.474 -318.125 721.573 -260.745 690.374C-203.365 659.175 -221.362 626.077 -163.998 594.887C-106.635 563.697 -88.6216 596.786 -31.2415 565.588C26.1386 534.389 8.14204 501.29 65.5221 470.091C122.902 438.892 140.899 471.991 198.295 440.783C255.692 409.575 237.679 376.485 295.059 345.287" stroke="#DFE1FE" stroke-opacity="0.04" stroke-width="2" stroke-miterlimit="10"/>
            <path d="M-672.029 207.415C-614.649 176.216 -596.689 209.247 -539.309 178.049C-481.928 146.85 -499.889 113.818 -442.525 82.6282C-385.161 51.4383 -367.185 84.4609 -309.805 53.262C-252.425 22.0631 -270.385 -10.9685 -213.005 -42.1674C-155.624 -73.3662 -137.664 -40.3346 -80.2678 -71.5425C-22.8712 -102.75 -40.8477 -135.773 16.5324 -166.972" stroke="#DFE1FE" stroke-opacity="0.04" stroke-width="2" stroke-miterlimit="10"/>
            <path d="M-528.276 471.802C-470.896 440.603 -452.935 473.635 -395.555 442.436C-338.175 411.237 -356.135 378.205 -298.772 347.015C-241.408 315.825 -223.432 348.848 -166.051 317.649C-108.671 286.45 -126.631 253.419 -69.2514 222.22C-11.8713 191.021 6.0888 224.052 63.4854 192.845C120.882 161.637 102.905 128.614 160.286 97.4152" stroke="#DFE1FE" stroke-opacity="0.04" stroke-width="2" stroke-miterlimit="10"/>
            <path d="M-429.422 653.61C-372.042 622.411 -354.082 655.443 -296.702 624.244C-239.322 593.045 -257.282 560.013 -199.918 528.823C-142.555 497.634 -124.578 530.656 -67.1982 499.457C-9.81812 468.258 -27.7782 435.227 29.6019 404.028C86.982 372.829 104.942 405.861 162.339 374.653C219.735 343.445 201.759 310.422 259.139 279.223" stroke="#DFE1FE" stroke-opacity="0.04" stroke-width="2" stroke-miterlimit="10"/>
            <path d="M-600.152 339.608C-542.772 308.409 -524.812 341.441 -467.432 310.242C-410.052 279.043 -428.012 246.012 -370.648 214.822C-313.285 183.632 -295.308 216.654 -237.928 185.456C-180.548 154.257 -198.508 121.225 -141.128 90.0263C-83.748 58.8274 -65.7879 91.859 -8.3913 60.6511C49.0053 29.4432 31.0288 -3.57939 88.4089 -34.7783" stroke="#DFE1FE" stroke-opacity="0.04" stroke-width="2" stroke-miterlimit="10"/>
            <path d="M-456.399 603.996C-399.019 572.797 -381.022 605.895 -323.642 574.697C-266.262 543.498 -284.258 510.399 -226.895 479.209C-169.531 448.019 -151.518 481.109 -94.1382 449.91C-36.7581 418.711 -54.7546 385.612 2.62547 354.413C60.0056 323.215 78.0021 356.313 135.399 325.105C192.795 293.898 174.782 260.808 232.162 229.609" stroke="#DFE1FE" stroke-opacity="0.04" stroke-width="2" stroke-miterlimit="10"/>
            <path d="M-357.546 785.804C-300.166 754.605 -282.206 787.636 -224.825 756.437C-167.445 725.238 -185.405 692.207 -128.042 661.017C-70.6782 629.827 -52.7016 662.85 4.67849 631.651C62.0586 600.452 44.0985 567.42 101.479 536.221C158.859 505.023 176.819 538.054 234.215 506.846C291.612 475.638 273.635 442.616 331.016 411.417" stroke="#DFE1FE" stroke-opacity="0.04" stroke-width="2" stroke-miterlimit="10"/>
        </g>
    </g>
    <defs>
        <clipPath id="clip0_863_764">
            <rect width="576" height="576" fill="white" transform="translate(667 -28)"/>
        </clipPath>
        <clipPath id="clip1_863_764">
            <rect width="576" height="576" fill="white" transform="translate(94 -28)"/>
        </clipPath>
        <clipPath id="clip2_863_764">
            <rect width="576" height="576" fill="white" transform="translate(-481 -28)"/>
        </clipPath>
    </defs>
</svg>
