<svg width="43" height="44" viewBox="0 0 43 44" fill="none" xmlns="http://www.w3.org/2000/svg">
<path d="M9.97642 1.99723C6.23881 2.18894 3.25406 5.16164 3.06284 8.89677C2.60123 17.9138 2.63564 24.9652 3.13596 34.4827C3.30992 37.7919 5.68339 40.4775 8.93576 40.7938C12.0654 41.098 16.4893 41.3718 22.2929 41.3756C28.5287 41.3796 33.2141 41.0642 36.4148 40.7319C39.4038 40.4217 41.6283 38.0898 41.8654 35.0812C42.1176 31.8811 42.3574 27.232 42.3556 21.1339C42.354 15.7822 42.1531 11.4658 41.9264 8.29521C41.6789 4.83292 38.8783 2.2083 35.3845 2.02268C31.4556 1.81394 26.4511 1.59767 22.5711 1.59644C18.7755 1.59524 13.9091 1.79551 9.97642 1.99723Z" fill="#3D7D7D" stroke="#F6C762"/>
<mask id="mask0_850_3788" style="mask-type:alpha" maskUnits="userSpaceOnUse" x="1" y="0" width="42" height="43">
<path d="M2.165 7.74181C2.49939 3.75825 5.77503 0.672402 9.77185 0.594823C18.8673 0.418281 25.9797 0.675428 35.4449 1.47756C39.2371 1.79892 42.193 4.79851 42.278 8.60333C42.3496 11.8074 42.3584 16.2239 42.1758 21.9245C41.9784 28.0876 41.6472 32.7781 41.3447 36.0608C41.023 39.5516 38.2896 42.1927 34.7874 42.345C31.5345 42.4864 26.933 42.5625 20.9897 42.3665C15.48 42.1849 11.0531 41.8287 7.81912 41.4859C4.10567 41.0924 1.40007 37.9846 1.32457 34.2511C1.24231 30.1831 1.18673 24.9331 1.318 20.8762C1.44654 16.9035 1.82381 11.8065 2.165 7.74181Z" fill="#C4C4C4"/>
</mask>
<g mask="url(#mask0_850_3788)">
<g clip-path="url(#clip0_850_3788)">
<path d="M-18.6866 7.19653C-14.1895 4.75136 -12.7819 7.34017 -8.28485 4.89499C-3.78774 2.44982 -5.19534 -0.138999 -0.699536 -2.58347C3.79627 -5.02795 5.20516 -2.43984 9.70226 -4.88501C14.1994 -7.33019 12.7918 -9.919 17.2889 -12.3642C21.786 -14.8094 23.1936 -12.2205 27.692 -14.6664C32.1904 -17.1123 30.7815 -19.7004 35.2786 -22.1456" stroke="#DFE1FE" stroke-opacity="0.04" stroke-width="2" stroke-miterlimit="10"/>
<path d="M-7.42017 27.9177C-2.92307 25.4725 -1.51547 28.0614 2.98163 25.6162C7.47873 23.171 6.07114 20.5822 10.5669 18.1377C15.0628 15.6932 16.4716 18.2814 20.9687 15.8362C25.4658 13.391 24.0582 10.8022 28.5553 8.35701C33.0524 5.91183 34.46 8.50065 38.9584 6.05477C43.4568 3.60888 42.0479 1.02077 46.545 -1.4244" stroke="#DFE1FE" stroke-opacity="0.04" stroke-width="2" stroke-miterlimit="10"/>
<path d="M-13.0533 17.5571C-8.55624 15.112 -7.14865 17.7008 -2.65154 15.2556C1.84556 12.8104 0.437958 10.2216 4.93376 7.77712C9.42957 5.33265 10.8385 7.92076 15.3356 5.47558C19.8327 3.03041 18.4251 0.441591 22.9222 -2.00359C27.4193 -4.44876 28.8269 -1.85995 33.3253 -4.30583C37.8237 -6.75171 36.4148 -9.33982 40.9119 -11.785" stroke="#DFE1FE" stroke-opacity="0.04" stroke-width="2" stroke-miterlimit="10"/>
<path d="M-1.78687 38.2781C2.71024 35.8329 4.12069 38.427 8.6178 35.9818C13.1149 33.5366 11.7044 30.9425 16.2002 28.4981C20.6961 26.0536 22.1078 28.647 26.6049 26.2018C31.102 23.7566 29.6915 21.1625 34.1886 18.7174C38.6857 16.2722 40.0962 18.8663 44.5946 16.4204C49.093 13.9745 47.6812 11.3811 52.1783 8.93595" stroke="#DFE1FE" stroke-opacity="0.04" stroke-width="2" stroke-miterlimit="10"/>
<path d="M5.96069 52.5271C10.4578 50.0819 11.8654 52.6707 16.3625 50.2256C20.8596 47.7804 19.452 45.1916 23.9478 42.7471C28.4436 40.3026 29.8525 42.8907 34.3496 40.4456C38.8467 38.0004 37.4391 35.4116 41.9362 32.9664C46.4333 30.5212 47.8409 33.11 52.3393 30.6641C56.8377 28.2183 55.4288 25.6301 59.9259 23.185" stroke="#DFE1FE" stroke-opacity="0.04" stroke-width="2" stroke-miterlimit="10"/>
<path d="M-15.8715 12.3743C-11.3744 9.92909 -9.9639 12.5232 -5.4668 10.078C-0.969699 7.63281 -2.38016 5.03874 2.11565 2.59426C6.61146 0.149787 8.02321 2.74316 12.5203 0.297983C17.0174 -2.14719 15.6069 -4.74127 20.1041 -7.18645C24.6012 -9.63162 26.0116 -7.03755 30.51 -9.48343C35.0084 -11.9293 33.5966 -14.5227 38.0937 -16.9679" stroke="#DFE1FE" stroke-opacity="0.04" stroke-width="2" stroke-miterlimit="10"/>
<path d="M-4.60205 33.1006C-0.10495 30.6554 1.30265 33.2442 5.79975 30.799C10.2968 28.3539 8.88925 25.7651 13.3851 23.3206C17.8809 20.8761 19.2898 23.4642 23.7869 21.019C28.284 18.5739 26.8764 15.985 31.3735 13.5399C35.8706 11.0947 37.2782 13.6835 41.7766 11.2376C46.2749 8.79175 44.8661 6.20363 49.3632 3.75846" stroke="#DFE1FE" stroke-opacity="0.04" stroke-width="2" stroke-miterlimit="10"/>
<path d="M-10.2354 22.74C-5.73825 20.2948 -4.33065 22.8836 0.166448 20.4385C4.66355 17.9933 3.25595 15.4045 7.75176 12.96C12.2476 10.5155 13.6565 13.1036 18.1536 10.6584C22.6507 8.21327 21.2431 5.62445 25.7402 3.17928C30.2373 0.734098 31.6449 3.32291 36.1433 0.877031C40.6416 -1.56885 39.2328 -4.15696 43.7299 -6.60214" stroke="#DFE1FE" stroke-opacity="0.04" stroke-width="2" stroke-miterlimit="10"/>
<path d="M1.03125 43.4612C5.52835 41.016 6.93595 43.6048 11.433 41.1596C15.9302 38.7145 14.5226 36.1256 19.0184 33.6812C23.5142 31.2367 24.9231 33.8248 29.4202 31.3796C33.9173 28.9345 32.5097 26.3456 37.0068 23.9005C41.5039 21.4553 42.9115 24.0441 47.4099 21.5982C51.9083 19.1523 50.4994 16.5642 54.9965 14.1191" stroke="#DFE1FE" stroke-opacity="0.04" stroke-width="2" stroke-miterlimit="10"/>
<path d="M8.77588 57.7048C13.273 55.2597 14.6834 57.8537 19.1805 55.4086C23.6776 52.9634 22.2672 50.3693 26.763 47.9248C31.2588 45.4804 32.6705 48.0737 37.1676 45.6285C41.6647 43.1834 40.2543 40.5893 44.7514 38.1441C49.2485 35.6989 50.659 38.293 55.1573 35.8471C59.6557 33.4013 58.244 30.8079 62.7411 28.3627" stroke="#DFE1FE" stroke-opacity="0.04" stroke-width="2" stroke-miterlimit="10"/>
<path d="M-17.2791 9.7854C-12.782 7.34022 -11.3744 9.92904 -6.87725 7.48386C-2.38015 5.03868 -3.78775 2.44987 0.708057 0.00539404C5.20386 -2.43908 6.61276 0.149032 11.1099 -2.29615C15.607 -4.74132 14.1994 -7.33014 18.6965 -9.77531C23.1936 -12.2205 24.6012 -9.63168 29.0996 -12.0776C33.5979 -14.5234 32.1891 -17.1116 36.6862 -19.5567" stroke="#DFE1FE" stroke-opacity="0.04" stroke-width="2" stroke-miterlimit="10"/>
<path d="M-6.01257 30.5063C-1.51547 28.0612 -0.105013 30.6552 4.39209 28.2101C8.88919 25.7649 7.47873 23.1708 11.9745 20.7263C16.4703 18.2819 17.8821 20.8752 22.3792 18.4301C26.8763 15.9849 25.4658 13.3908 29.9629 10.9456C34.46 8.50046 35.8705 11.0945 40.3689 8.64865C44.8673 6.20277 43.4555 3.6094 47.9526 1.16422" stroke="#DFE1FE" stroke-opacity="0.04" stroke-width="2" stroke-miterlimit="10"/>
<path d="M-11.6458 20.146C-7.14865 17.7008 -5.73819 20.2949 -1.24109 17.8497C3.25601 15.4045 1.84555 12.8105 6.34136 10.366C10.8372 7.92152 12.2489 10.5149 16.746 8.06971C21.2431 5.62453 19.8327 3.03046 24.3298 0.585281C28.8269 -1.8599 30.2373 0.734179 34.7357 -1.7117C39.2341 -4.15758 37.8224 -6.75096 42.3195 -9.19613" stroke="#DFE1FE" stroke-opacity="0.04" stroke-width="2" stroke-miterlimit="10"/>
<path d="M-0.376465 40.8723C4.12064 38.4271 5.52823 41.016 10.0253 38.5708C14.5224 36.1256 13.1148 33.5368 17.6106 31.0923C22.1065 28.6478 23.5153 31.2359 28.0124 28.7908C32.5095 26.3456 31.1019 23.7568 35.599 21.3116C40.0961 18.8664 41.5037 21.4552 46.0021 19.0094C50.5005 16.5635 49.0916 13.9754 53.5887 11.5302" stroke="#DFE1FE" stroke-opacity="0.04" stroke-width="2" stroke-miterlimit="10"/>
<path d="M7.36829 55.116C11.8654 52.6708 13.273 55.2596 17.7701 52.8144C22.2672 50.3692 20.8596 47.7804 25.3554 45.336C29.8512 42.8915 31.2601 45.4796 35.7572 43.0344C40.2543 40.5892 38.8467 38.0004 43.3438 35.5553C47.8409 33.1101 49.2485 35.6989 53.7469 33.253C58.2453 30.8071 56.8364 28.219 61.3335 25.7738" stroke="#DFE1FE" stroke-opacity="0.04" stroke-width="2" stroke-miterlimit="10"/>
<path d="M-14.4609 14.9683C-9.96384 12.5231 -8.55624 15.1119 -4.05914 12.6667C0.437963 10.2215 -0.969635 7.63273 3.52617 5.18826C8.02198 2.74378 9.43087 5.33189 13.928 2.88672C18.4251 0.441538 17.0175 -2.14728 21.5146 -4.59245C26.0117 -7.03763 27.4193 -4.44882 31.9177 -6.8947C36.4161 -9.34058 35.0072 -11.9287 39.5043 -14.3739" stroke="#DFE1FE" stroke-opacity="0.04" stroke-width="2" stroke-miterlimit="10"/>
<path d="M-3.19446 35.6895C1.30264 33.2443 2.71024 35.8331 7.20734 33.3879C11.7044 30.9427 10.2968 28.3539 14.7927 25.9094C19.2885 23.465 20.6974 26.0531 25.1945 23.6079C29.6916 21.1627 28.284 18.5739 32.7811 16.1287C37.2782 13.6836 38.6858 16.2724 43.1841 13.8265C47.6825 11.3806 46.2736 8.7925 50.7708 6.34732" stroke="#DFE1FE" stroke-opacity="0.04" stroke-width="2" stroke-miterlimit="10"/>
<path d="M4.55298 49.9385C9.05008 47.4933 10.4577 50.0821 14.9548 47.6369C19.4519 45.1918 18.0443 42.6029 22.5401 40.1585C27.0359 37.714 28.4448 40.3021 32.9419 37.8569C37.439 35.4118 36.0314 32.8229 40.5285 30.3778C45.0256 27.9326 46.4332 30.5214 50.9316 28.0755C55.43 25.6296 54.0211 23.0415 58.5182 20.5963" stroke="#DFE1FE" stroke-opacity="0.04" stroke-width="2" stroke-miterlimit="10"/>
<path d="M-8.82776 25.3289C-4.33066 22.8837 -2.92306 25.4725 1.57404 23.0273C6.07114 20.5821 4.66354 17.9933 9.15935 15.5489C13.6552 13.1044 15.064 15.6925 19.5612 13.2473C24.0583 10.8021 22.6507 8.21332 27.1478 5.76814C31.6449 3.32297 33.0525 5.91178 37.5508 3.4659C42.0492 1.02002 40.6403 -1.56809 45.1374 -4.01327" stroke="#DFE1FE" stroke-opacity="0.04" stroke-width="2" stroke-miterlimit="10"/>
<path d="M2.43872 46.0498C6.93582 43.6046 8.34342 46.1934 12.8405 43.7483C17.3376 41.3031 15.93 38.7143 20.4258 36.2698C24.9216 33.8253 26.3305 36.4134 30.8276 33.9683C35.3247 31.5231 33.9171 28.9343 38.4142 26.4891C42.9113 24.0439 44.3189 26.6327 48.8173 24.1868C53.3157 21.741 51.9068 19.1529 56.4039 16.7077" stroke="#DFE1FE" stroke-opacity="0.04" stroke-width="2" stroke-miterlimit="10"/>
<path d="M10.1863 60.2988C14.6834 57.8537 16.091 60.4425 20.5881 57.9973C25.0852 55.5521 23.6776 52.9633 28.1734 50.5188C32.6692 48.0743 34.0781 50.6625 38.5752 48.2173C43.0723 45.7721 41.6647 43.1833 46.1618 40.7381C50.6589 38.2929 52.0665 40.8818 56.5649 38.4359C61.0633 35.99 59.6544 33.4019 64.1515 30.9567" stroke="#DFE1FE" stroke-opacity="0.04" stroke-width="2" stroke-miterlimit="10"/>
<path d="M-17.9828 8.49097C-13.4857 6.04579 -12.0781 8.6346 -7.58099 6.18943C-3.08389 3.74425 -4.49149 1.15543 0.00432138 -1.28904C4.50013 -3.73351 5.90902 -1.1454 10.4061 -3.59058C14.9032 -6.03576 13.4956 -8.62457 17.9927 -11.0697C22.4898 -13.5149 23.8974 -10.9261 28.3958 -13.372C32.8942 -15.8179 31.4853 -18.406 35.9824 -20.8512" stroke="#DFE1FE" stroke-opacity="0.04" stroke-width="2" stroke-miterlimit="10"/>
<path d="M-6.71631 29.2122C-2.21921 26.767 -0.808749 29.3611 3.68835 26.9159C8.18545 24.4707 6.77499 21.8766 11.2708 19.4322C15.7666 16.9877 17.1784 19.5811 21.6755 17.1359C26.1726 14.6907 24.7621 12.0966 29.2592 9.65144C33.7563 7.20627 35.1668 9.80034 39.6652 7.35446C44.1636 4.90858 42.7518 2.31521 47.2489 -0.129971" stroke="#DFE1FE" stroke-opacity="0.04" stroke-width="2" stroke-miterlimit="10"/>
<path d="M-12.3496 18.8516C-7.85251 16.4064 -6.44491 18.9952 -1.94781 16.55C2.54929 14.1048 1.14169 11.516 5.6375 9.07156C10.1333 6.62708 11.5422 9.21519 16.0393 6.77002C20.5364 4.32484 19.1288 1.73603 23.6259 -0.709152C28.123 -3.15433 29.5306 -0.565516 34.029 -3.0114C38.5274 -5.45728 37.1185 -8.04539 41.6156 -10.4906" stroke="#DFE1FE" stroke-opacity="0.04" stroke-width="2" stroke-miterlimit="10"/>
<path d="M-1.08313 39.5725C3.41397 37.1273 4.82443 39.7214 9.32153 37.2762C13.8186 34.8311 12.4082 32.237 16.904 29.7925C21.3998 27.348 22.8115 29.9414 27.3086 27.4962C31.8057 25.051 30.3953 22.457 34.8924 20.0118C39.3895 17.5666 40.7999 20.1607 45.2983 17.7148C49.7967 15.2689 48.385 12.6756 52.8821 10.2304" stroke="#DFE1FE" stroke-opacity="0.04" stroke-width="2" stroke-miterlimit="10"/>
<path d="M6.66443 53.8215C11.1615 51.3764 12.5691 53.9652 17.0662 51.52C21.5633 49.0748 20.1557 46.486 24.6515 44.0415C29.1473 41.5971 30.5562 44.1852 35.0533 41.74C39.5504 39.2948 38.1428 36.706 42.6399 34.2608C47.137 31.8156 48.5446 34.4045 53.043 31.9586C57.5414 29.5127 56.1325 26.9246 60.6296 24.4794" stroke="#DFE1FE" stroke-opacity="0.04" stroke-width="2" stroke-miterlimit="10"/>
<path d="M-15.1648 13.6738C-10.6677 11.2287 -9.2601 13.8175 -4.763 11.3723C-0.265894 8.92711 -1.67349 6.3383 2.82231 3.89382C7.31812 1.44935 8.72701 4.03746 13.2241 1.59228C17.7212 -0.852895 16.3136 -3.44171 20.8107 -5.88689C25.3078 -8.33206 26.7154 -5.74325 31.2138 -8.18913C35.7122 -10.635 34.3033 -13.2231 38.8004 -15.6683" stroke="#DFE1FE" stroke-opacity="0.04" stroke-width="2" stroke-miterlimit="10"/>
<path d="M-3.89832 34.395C0.598785 31.9498 2.00638 34.5387 6.50348 32.0935C11.0006 29.6483 9.59299 27.0595 14.0888 24.615C18.5846 22.1705 19.9935 24.7587 24.4906 22.3135C28.9877 19.8683 27.5801 17.2795 32.0772 14.8343C36.5743 12.3891 37.9819 14.9779 42.4803 12.5321C46.9787 10.0862 45.5698 7.49807 50.0669 5.05289" stroke="#DFE1FE" stroke-opacity="0.04" stroke-width="2" stroke-miterlimit="10"/>
<path d="M3.84644 48.6387C8.34354 46.1935 9.754 48.7876 14.2511 46.3424C18.7482 43.8972 17.3377 41.3031 21.8335 38.8587C26.3294 36.4142 27.7411 39.0076 32.2382 36.5624C36.7353 34.1172 35.3248 31.5231 39.8219 29.078C44.319 26.6328 45.7295 29.2269 50.2279 26.781C54.7263 24.3351 53.3145 21.7417 57.8116 19.2965" stroke="#DFE1FE" stroke-opacity="0.04" stroke-width="2" stroke-miterlimit="10"/>
<path d="M-9.53149 24.0344C-5.03439 21.5892 -3.62679 24.1781 0.870306 21.7329C5.36741 19.2877 3.95981 16.6989 8.45562 14.2544C12.9514 11.8099 14.3603 14.3981 18.8574 11.9529C23.3545 9.5077 21.9469 6.91889 26.444 4.47371C30.9411 2.02853 32.3487 4.61735 36.8471 2.17146C41.3455 -0.274416 39.9366 -2.86253 44.4337 -5.30771" stroke="#DFE1FE" stroke-opacity="0.04" stroke-width="2" stroke-miterlimit="10"/>
<path d="M1.73499 44.7554C6.23209 42.3102 7.63968 44.899 12.1368 42.4538C16.6339 40.0087 15.2263 37.4198 19.7221 34.9754C24.2179 32.5309 25.6268 35.119 30.1239 32.6738C34.621 30.2286 33.2134 27.6398 37.7105 25.1947C42.2076 22.7495 43.6152 25.3383 48.1136 22.8924C52.612 20.4465 51.2031 17.8584 55.7002 15.4132" stroke="#DFE1FE" stroke-opacity="0.04" stroke-width="2" stroke-miterlimit="10"/>
<path d="M9.48254 59.0044C13.9796 56.5592 15.3872 59.148 19.8843 56.7029C24.3814 54.2577 22.9738 51.6689 27.4697 49.2244C31.9655 46.7799 33.3744 49.368 37.8715 46.9228C42.3686 44.4777 40.961 41.8889 45.4581 39.4437C49.9552 36.9985 51.3628 39.5873 55.8611 37.1414C60.3595 34.6956 58.9507 32.1074 63.4478 29.6623" stroke="#DFE1FE" stroke-opacity="0.04" stroke-width="2" stroke-miterlimit="10"/>
<path d="M-16.5752 11.0798C-12.0781 8.63466 -10.6676 11.2287 -6.17053 8.78356C-1.67343 6.33838 -3.08389 3.7443 1.41191 1.29983C5.90772 -1.14465 7.31947 1.44873 11.8166 -0.996451C16.3137 -3.44163 14.9032 -6.0357 19.4003 -8.48088C23.8974 -10.9261 25.3079 -8.33198 29.8063 -10.7779C34.3047 -13.2237 32.8929 -15.8171 37.39 -18.2623" stroke="#DFE1FE" stroke-opacity="0.04" stroke-width="2" stroke-miterlimit="10"/>
<path d="M-5.30591 31.8062C-0.808807 29.361 0.598791 31.9498 5.09589 29.5046C9.59299 27.0594 8.18539 24.4706 12.6812 22.0261C17.177 19.5817 18.5859 22.1698 23.083 19.7246C27.5801 17.2794 26.1725 14.6906 30.6696 12.2454C35.1667 9.80026 36.5743 12.3891 41.0727 9.94319C45.5711 7.49731 44.1622 4.9092 48.6593 2.46402" stroke="#DFE1FE" stroke-opacity="0.04" stroke-width="2" stroke-miterlimit="10"/>
<path d="M-10.942 21.4404C-6.44492 18.9953 -5.03446 21.5893 -0.537356 19.1442C3.95974 16.699 2.54929 14.1049 7.04509 11.6604C11.5409 9.21595 12.9527 11.8093 17.4498 9.36414C21.9469 6.91897 20.5364 4.32489 25.0335 1.87971C29.5306 -0.565463 30.9411 2.02861 35.4394 -0.417268C39.9378 -2.86315 38.5261 -5.45652 43.0232 -7.9017" stroke="#DFE1FE" stroke-opacity="0.04" stroke-width="2" stroke-miterlimit="10"/>
<path d="M0.327393 42.1667C4.82449 39.7216 6.23209 42.3104 10.7292 39.8652C15.2263 37.42 13.8187 34.8312 18.3145 32.3867C22.8103 29.9423 24.2192 32.5304 28.7163 30.0852C33.2134 27.64 31.8058 25.0512 36.3029 22.606C40.8 20.1609 42.2076 22.7497 46.706 20.3038C51.2044 17.8579 49.7955 15.2698 54.2926 12.8246" stroke="#DFE1FE" stroke-opacity="0.04" stroke-width="2" stroke-miterlimit="10"/>
<path d="M8.07202 56.4104C12.5691 53.9652 13.9796 56.5593 18.4767 54.1141C22.9738 51.6689 21.5633 49.0749 26.0591 46.6304C30.5549 44.1859 31.9667 46.7793 36.4638 44.3341C40.9609 41.8889 39.5504 39.2949 44.0475 36.8497C48.5446 34.4045 49.9551 36.9986 54.4535 34.5527C58.9519 32.1068 57.5401 29.5134 62.0372 27.0683" stroke="#DFE1FE" stroke-opacity="0.04" stroke-width="2" stroke-miterlimit="10"/>
<path d="M-13.7572 16.2627C-9.2601 13.8175 -7.8525 16.4063 -3.3554 13.9612C1.1417 11.516 -0.265899 8.92716 4.22991 6.48269C8.72571 4.03822 10.1346 6.62633 14.6317 4.18115C19.1288 1.73597 17.7212 -0.852842 22.2183 -3.29802C26.7154 -5.7432 28.123 -3.15438 32.6214 -5.60026C37.1198 -8.04614 35.7109 -10.6343 40.208 -13.0794" stroke="#DFE1FE" stroke-opacity="0.04" stroke-width="2" stroke-miterlimit="10"/>
<path d="M-2.49072 36.9839C2.00638 34.5387 3.41398 37.1275 7.91108 34.6823C12.4082 32.2372 11.0006 29.6484 15.4964 27.2039C19.9922 24.7594 21.4011 27.3475 25.8982 24.9023C30.3953 22.4572 28.9877 19.8683 33.4848 17.4232C37.9819 14.978 39.3895 17.5668 43.8879 15.1209C48.3863 12.675 46.9774 10.0869 51.4745 7.64176" stroke="#DFE1FE" stroke-opacity="0.04" stroke-width="2" stroke-miterlimit="10"/>
<path d="M5.25684 51.2327C9.75394 48.7875 11.1615 51.3763 15.6586 48.9311C20.1557 46.4859 18.7481 43.8971 23.2439 41.4527C27.7398 39.0082 29.1486 41.5963 33.6457 39.1511C38.1428 36.7059 36.7352 34.1171 41.2323 31.672C45.7294 29.2268 47.137 31.8156 51.6354 29.3697C56.1338 26.9238 54.7249 24.3357 59.222 21.8905" stroke="#DFE1FE" stroke-opacity="0.04" stroke-width="2" stroke-miterlimit="10"/>
<path d="M-8.1239 26.6233C-3.6268 24.1781 -2.2192 26.7669 2.2779 24.3218C6.775 21.8766 5.3674 19.2878 9.86321 16.8433C14.359 14.3988 15.7679 16.9869 20.265 14.5417C24.7621 12.0966 23.3545 9.50775 27.8516 7.06258C32.3487 4.6174 33.7563 7.20621 38.2547 4.76033C42.7531 2.31445 41.3442 -0.27366 45.8413 -2.71884" stroke="#DFE1FE" stroke-opacity="0.04" stroke-width="2" stroke-miterlimit="10"/>
<path d="M3.14258 47.3442C7.63968 44.8991 9.05014 47.4931 13.5472 45.048C18.0443 42.6028 16.6339 40.0087 21.1297 37.5642C25.6255 35.1198 27.0372 37.7131 31.5343 35.268C36.0314 32.8228 34.621 30.2287 39.1181 27.7835C43.6152 25.3383 45.0256 27.9324 49.524 25.4865C54.0224 23.0407 52.6107 20.4473 57.1078 18.0021" stroke="#DFE1FE" stroke-opacity="0.04" stroke-width="2" stroke-miterlimit="10"/>
<path d="M10.8901 61.5933C15.3872 59.1481 16.7948 61.7369 21.2919 59.2917C25.789 56.8465 24.3814 54.2577 28.8772 51.8133C33.3731 49.3688 34.7819 51.9569 39.279 49.5117C43.7761 47.0665 42.3685 44.4777 46.8656 42.0325C51.3627 39.5874 52.7703 42.1762 57.2687 39.7303C61.7671 37.2844 60.3582 34.6963 64.8553 32.2511" stroke="#DFE1FE" stroke-opacity="0.04" stroke-width="2" stroke-miterlimit="10"/>
</g>
<path d="M25.6895 26.0786L18 17" stroke="#F5C868" stroke-width="2" stroke-linecap="round"/>
<path d="M18 26.0786L25.6896 17" stroke="#F5C868" stroke-width="2" stroke-linecap="round"/>
</g>
<defs>
<clipPath id="clip0_850_3788">
<rect x="1.21448" y="-2.18774" width="45.1434" height="45.1434" rx="8" fill="white"/>
</clipPath>
</defs>
</svg>
