<svg width="134" height="44" viewBox="0 0 134 44" fill="none" xmlns="http://www.w3.org/2000/svg">
<g clip-path="url(#clip0_836_1446)">
<path d="M123.329 1.33003e-05H10.6769C10.2663 1.33003e-05 9.86061 1.33003e-05 9.45107 0.0022133C9.10824 0.0044133 8.76815 0.0108043 8.42203 0.0161833C7.67009 0.0248753 6.91993 0.0898572 6.17806 0.210564C5.43722 0.333899 4.7196 0.566421 4.04945 0.900264C3.38012 1.23693 2.76854 1.6744 2.23688 2.19679C1.70244 2.71771 1.25694 3.31983 0.917509 3.97999C0.577146 4.63883 0.341137 5.34485 0.217633 6.07364C0.0929558 6.80152 0.0258656 7.53779 0.016965 8.27584C0.00657323 8.6131 0.00547583 8.95148 0 9.28879V34.7145C0.00547583 35.056 0.00657323 35.3869 0.016965 35.7286C0.0258683 36.4666 0.0929585 37.2028 0.217633 37.9306C0.340796 38.6599 0.576819 39.3663 0.917509 40.0254C1.25678 40.6834 1.70235 41.2831 2.23688 41.8011C2.76652 42.3258 3.3785 42.7636 4.04945 43.0977C4.71959 43.4324 5.43714 43.6663 6.17806 43.7916C6.92006 43.9113 7.67014 43.9763 8.42203 43.986C8.76815 43.9935 9.10824 43.9978 9.45107 43.9978C9.8606 44 10.2663 44 10.6769 44H123.329C123.732 44 124.14 44 124.543 43.9978C124.884 43.9978 125.234 43.9935 125.575 43.986C126.326 43.9768 127.074 43.9118 127.815 43.7916C128.558 43.6654 129.278 43.4316 129.952 43.0977C130.622 42.7634 131.233 42.3256 131.763 41.8011C132.296 41.2811 132.742 40.6818 133.086 40.0254C133.424 39.3658 133.658 38.6594 133.779 37.9306C133.904 37.2027 133.973 36.4666 133.987 35.7286C133.991 35.3869 133.991 35.056 133.991 34.7145C134 34.3148 134 33.9174 134 33.5113V10.4898C134 10.0869 134 9.68732 133.991 9.28879C133.991 8.95148 133.991 8.6131 133.987 8.2758C133.973 7.53768 133.904 6.80157 133.779 6.0736C133.657 5.34522 133.424 4.63927 133.086 3.97994C132.395 2.65673 131.298 1.57964 129.952 0.900165C129.278 0.567137 128.558 0.334678 127.815 0.210465C127.075 0.0892264 126.326 0.0242218 125.575 0.0160293C125.234 0.0106613 124.884 0.0042153 124.543 0.0020703C124.14 -0.0001297 123.732 -0.0001297 123.329 -0.0001297V1.33003e-05Z" fill="#1E1E1E"/>
<g filter="url(#filter0_d_836_1446)">
<path d="M9.45653 43.0375C9.11535 43.0375 8.78241 43.0332 8.44391 43.0257C7.74267 43.0168 7.04307 42.9568 6.35084 42.8463C5.70538 42.7371 5.0801 42.534 4.49562 42.2436C3.91651 41.9557 3.38831 41.5781 2.93126 41.1254C2.4676 40.678 2.08158 40.1591 1.78849 39.5892C1.49218 39.0157 1.28712 38.4009 1.18044 37.7663C1.06524 37.0844 1.00291 36.3949 0.993994 35.7038C0.986894 35.4718 0.9776 34.6994 0.9776 34.6994V9.28878C0.9776 9.28878 0.987499 8.52822 0.99405 8.30478C1.00259 7.61473 1.06456 6.92632 1.17941 6.2455C1.28628 5.60918 1.49151 4.99263 1.78798 4.41719C2.07998 3.84774 2.46386 3.32845 2.92473 2.87945C3.38509 2.42619 3.91498 2.04667 4.49508 1.75473C5.07821 1.4653 5.70231 1.26361 6.34647 1.1564C7.04096 1.04482 7.74299 0.984497 8.44666 0.975933L9.45708 0.962502H124.537L125.56 0.976472C126.257 0.984611 126.953 1.0444 127.641 1.15532C128.292 1.26387 128.922 1.46698 129.512 1.75796C130.674 2.34629 131.62 3.27708 132.216 4.41988C132.508 4.99134 132.71 5.60286 132.816 6.23369C132.932 6.92009 132.997 7.61391 133.01 8.30962C133.014 8.62114 133.014 8.95576 133.014 9.28878C133.022 9.70128 133.022 10.0939 133.022 10.4897V33.5113C133.022 33.9109 133.022 34.3009 133.014 34.694C133.014 35.0517 133.014 35.3794 133.009 35.7167C132.996 36.4 132.932 37.0814 132.818 37.7555C132.713 38.3947 132.509 39.0143 132.213 39.5925C131.918 40.1562 131.534 40.6706 131.076 41.1168C130.618 41.572 130.089 41.9517 129.509 42.2415C128.921 42.5341 128.291 42.738 127.641 42.8463C126.949 42.9574 126.249 43.0173 125.548 43.0257C125.22 43.0332 124.876 43.0375 124.543 43.0375L123.329 43.0397L9.45653 43.0375Z" fill="white"/>
</g>
<path d="M27.9913 21.8783C28.0039 20.9235 28.262 19.9874 28.7418 19.157C29.2216 18.3266 29.9075 17.6289 30.7355 17.1288C30.2095 16.3908 29.5155 15.7835 28.7087 15.355C27.9019 14.9266 27.0046 14.6888 26.0879 14.6607C24.1325 14.459 22.2367 15.8101 21.2403 15.8101C20.2245 15.8101 18.6903 14.6807 17.0383 14.7141C15.9696 14.748 14.9282 15.0532 14.0154 15.6001C13.1026 16.1469 12.3495 16.9167 11.8296 17.8344C9.5776 21.6646 11.2574 27.2938 13.4147 30.3898C14.4941 31.9059 15.7555 33.5994 17.4061 33.5393C19.0213 33.4735 19.6246 32.5276 21.5743 32.5276C23.5058 32.5276 24.0718 33.5393 25.7559 33.5011C27.4891 33.4735 28.5811 31.9783 29.6226 30.4479C30.3981 29.3677 30.9948 28.1738 31.3907 26.9105C30.3838 26.4921 29.5245 25.7918 28.92 24.897C28.3155 24.0021 27.9925 22.9522 27.9913 21.8783Z" fill="#1E1E1E"/>
<path d="M24.8104 12.6245C25.7554 11.5101 26.221 10.0777 26.1083 8.63161C24.6645 8.78056 23.3309 9.45838 22.3731 10.53C21.9048 11.0535 21.5462 11.6626 21.3177 12.3223C21.0891 12.9821 20.9952 13.6796 21.0413 14.3751C21.7634 14.3824 22.4778 14.2286 23.1307 13.9254C23.7836 13.6222 24.3579 13.1774 24.8104 12.6245Z" fill="#1E1E1E"/>
<path d="M47.3696 29.8536H42.0691L40.7962 33.5457H38.5511L43.5716 19.8859H45.9042L50.9247 33.5457H48.6414L47.3696 29.8536ZM42.6181 28.1499H46.8196L44.7483 22.1579H44.6903L42.6181 28.1499Z" fill="#1E1E1E"/>
<path d="M61.7673 28.5667C61.7673 31.6615 60.081 33.6499 57.5363 33.6499C56.8917 33.683 56.2506 33.5372 55.6865 33.229C55.1223 32.9209 54.6579 32.4629 54.3464 31.9075H54.2983V36.8403H52.2173V23.5866H54.2316V25.2431H54.2699C54.5957 24.6903 55.0679 24.2347 55.6364 23.9247C56.2048 23.6147 56.8482 23.4618 57.498 23.4824C60.0712 23.4824 61.7673 25.4805 61.7673 28.5667ZM59.6283 28.5667C59.6283 26.5504 58.5676 25.2248 56.9491 25.2248C55.3591 25.2248 54.2896 26.5783 54.2896 28.5667C54.2896 30.5733 55.3591 31.9172 56.9491 31.9172C58.5676 31.9172 59.6283 30.6013 59.6283 28.5667H59.6283Z" fill="#1E1E1E"/>
<path d="M72.9265 28.5667C72.9265 31.6615 71.2397 33.6499 68.695 33.6499C68.0504 33.683 67.4093 33.5372 66.8451 33.229C66.281 32.9209 65.8166 32.4629 65.5051 31.9075H65.457V36.8403H63.3759V23.5866H65.3902V25.2431H65.4285C65.7543 24.6903 66.2266 24.2347 66.795 23.9247C67.3635 23.6147 68.0068 23.4618 68.6567 23.4824C71.2299 23.4824 72.9265 25.4805 72.9265 28.5667ZM70.787 28.5667C70.787 26.5504 69.7262 25.2248 68.1078 25.2248C66.5177 25.2248 65.4482 26.5783 65.4482 28.5667C65.4482 30.5733 66.5177 31.9172 68.1078 31.9172C69.7262 31.9172 70.787 30.6013 70.787 28.5667Z" fill="#1E1E1E"/>
<path d="M80.3003 29.7397C80.4545 31.0943 81.7942 31.9837 83.6248 31.9837C85.3788 31.9837 86.6408 31.0943 86.6408 29.8729C86.6408 28.8126 85.8797 28.1778 84.0775 27.7427L82.2753 27.3163C79.7219 26.7104 78.5364 25.5373 78.5364 23.6338C78.5364 21.277 80.6273 19.6581 83.5952 19.6581C86.5347 19.6581 88.549 21.277 88.6169 23.6338H86.5161C86.3904 22.2706 85.2432 21.4478 83.5668 21.4478C81.8904 21.4478 80.7432 22.2803 80.7432 23.492C80.7432 24.4578 81.4759 25.026 83.2682 25.461L84.8003 25.8306C87.6534 26.4934 88.8377 27.6192 88.8377 29.6172C88.8377 32.1728 86.7665 33.7733 83.4705 33.7733C80.3867 33.7733 78.3046 32.2104 78.17 29.7396L80.3003 29.7397Z" fill="#1E1E1E"/>
<path d="M93.3311 21.2298V23.5866H95.2591V25.2055H93.3311V30.6958C93.3311 31.5487 93.7172 31.9462 94.5647 31.9462C94.7935 31.9423 95.022 31.9265 95.2492 31.8989V33.5081C94.8682 33.578 94.4809 33.6097 94.0933 33.6026C92.0407 33.6026 91.2402 32.8453 91.2402 30.9138V25.2055H89.7661V23.5866H91.2402V21.2298H93.3311Z" fill="#1E1E1E"/>
<path d="M96.3745 28.5667C96.3745 25.4332 98.2533 23.4642 101.183 23.4642C104.122 23.4642 105.992 25.4332 105.992 28.5667C105.992 31.7088 104.132 33.6692 101.183 33.6692C98.2347 33.6692 96.3745 31.7088 96.3745 28.5667ZM103.872 28.5667C103.872 26.4172 102.869 25.1485 101.183 25.1485C99.4966 25.1485 98.4938 26.4269 98.4938 28.5667C98.4938 30.7248 99.4966 31.9838 101.183 31.9838C102.869 31.9838 103.872 30.7248 103.872 28.5667H103.872Z" fill="#1E1E1E"/>
<path d="M107.708 23.5866H109.693V25.2817H109.741C109.875 24.7523 110.191 24.2844 110.635 23.9568C111.079 23.6291 111.625 23.4616 112.18 23.4824C112.42 23.4816 112.659 23.5072 112.893 23.5587V25.4708C112.59 25.3799 112.274 25.3382 111.958 25.3473C111.655 25.3352 111.354 25.3876 111.074 25.5007C110.794 25.6139 110.543 25.7852 110.337 26.0029C110.131 26.2206 109.975 26.4795 109.881 26.7618C109.786 27.0442 109.755 27.3432 109.789 27.6386V33.5457H107.708L107.708 23.5866Z" fill="#1E1E1E"/>
<path d="M122.488 30.6206C122.208 32.4285 120.415 33.6692 118.122 33.6692C115.173 33.6692 113.342 31.7281 113.342 28.614C113.342 25.4901 115.183 23.4641 118.035 23.4641C120.84 23.4641 122.604 25.3569 122.604 28.3766V29.0769H115.443V29.2005C115.41 29.567 115.457 29.9362 115.58 30.2837C115.703 30.6311 115.901 30.9487 116.158 31.2155C116.416 31.4823 116.729 31.6922 117.076 31.8311C117.423 31.9701 117.796 32.0349 118.17 32.0214C118.662 32.0666 119.156 31.9548 119.577 31.7024C119.999 31.45 120.327 31.0706 120.512 30.6206L122.488 30.6206ZM115.453 27.6482H120.521C120.54 27.3187 120.489 26.9889 120.372 26.6796C120.255 26.3702 120.074 26.088 119.84 25.8507C119.607 25.6133 119.326 25.426 119.015 25.3003C118.704 25.1747 118.371 25.1135 118.035 25.1206C117.696 25.1186 117.36 25.1826 117.046 25.3088C116.733 25.435 116.448 25.621 116.208 25.856C115.967 26.091 115.777 26.3703 115.648 26.678C115.518 26.9856 115.452 27.3153 115.453 27.6482V27.6482Z" fill="#1E1E1E"/>
<path d="M42.3578 9.6041C42.7941 9.57335 43.2319 9.6381 43.6396 9.79367C44.0474 9.94925 44.4149 10.1918 44.7156 10.5038C45.0164 10.8158 45.2429 11.1894 45.3789 11.5978C45.5148 12.0062 45.5568 12.4392 45.5018 12.8654C45.5018 14.9623 44.3481 16.1676 42.3578 16.1676H39.9443V9.6041H42.3578ZM40.9821 15.2394H42.2419C42.5537 15.2577 42.8656 15.2075 43.1552 15.0924C43.4447 14.9773 43.7044 14.8003 43.9155 14.5742C44.1266 14.3481 44.2837 14.0785 44.3753 13.7853C44.467 13.492 44.4909 13.1823 44.4454 12.8788C44.4876 12.5765 44.4613 12.2687 44.3682 11.9776C44.2751 11.6865 44.1176 11.4192 43.907 11.1949C43.6964 10.9705 43.4379 10.7947 43.1501 10.6801C42.8622 10.5654 42.5521 10.5147 42.2419 10.5316H40.9821V15.2394Z" fill="#1E1E1E"/>
<path d="M46.674 13.6888C46.6423 13.3633 46.6802 13.0348 46.7853 12.7246C46.8904 12.4143 47.0603 12.129 47.2842 11.887C47.5081 11.6451 47.781 11.4517 48.0855 11.3194C48.3899 11.1871 48.7191 11.1188 49.052 11.1188C49.3849 11.1188 49.7141 11.1871 50.0185 11.3194C50.3229 11.4517 50.5958 11.6451 50.8197 11.887C51.0436 12.129 51.2135 12.4143 51.3186 12.7246C51.4237 13.0348 51.4616 13.3633 51.4299 13.6888C51.4622 14.0146 51.4248 14.3435 51.32 14.6543C51.2151 14.9651 51.0453 15.2509 50.8214 15.4933C50.5974 15.7358 50.3243 15.9295 50.0196 16.0621C49.7148 16.1947 49.3852 16.2632 49.052 16.2632C48.7187 16.2632 48.3891 16.1947 48.0844 16.0621C47.7796 15.9295 47.5065 15.7358 47.2826 15.4933C47.0586 15.2509 46.8888 14.9651 46.784 14.6543C46.6792 14.3435 46.6417 14.0146 46.674 13.6888ZM50.4063 13.6888C50.4063 12.6151 49.9153 11.9872 49.0536 11.9872C48.1886 11.9872 47.702 12.6151 47.702 13.6888C47.702 14.7711 48.1886 15.3941 49.0536 15.3941C49.9153 15.3941 50.4063 14.7668 50.4063 13.6888H50.4063Z" fill="#1E1E1E"/>
<path d="M57.7518 16.1675H56.7195L55.6773 12.5195H55.5986L54.5608 16.1675H53.5383L52.1484 11.2143H53.1578L54.061 14.9939H54.1354L55.1721 11.2143H56.1268L57.1635 14.9939H57.2422L58.1411 11.2143H59.1362L57.7518 16.1675Z" fill="#1E1E1E"/>
<path d="M60.3053 11.2143H61.2632V12.0012H61.3376C61.4637 11.7186 61.6765 11.4816 61.9462 11.3235C62.216 11.1653 62.5292 11.0937 62.8423 11.1187C63.0877 11.1006 63.334 11.1369 63.5631 11.225C63.7922 11.3131 63.9982 11.4507 64.1658 11.6277C64.3335 11.8046 64.4584 12.0163 64.5314 12.2471C64.6044 12.4779 64.6236 12.7219 64.5876 12.961V16.1675H63.5925V13.2064C63.5925 12.4105 63.2404 12.0146 62.5044 12.0146C62.3378 12.007 62.1715 12.0348 62.0169 12.0962C61.8624 12.1577 61.7231 12.2512 61.6087 12.3704C61.4944 12.4896 61.4076 12.6317 61.3544 12.787C61.3012 12.9422 61.2828 13.1069 61.3004 13.2698V16.1675H60.3053L60.3053 11.2143Z" fill="#1E1E1E"/>
<path d="M66.1733 9.28071H67.1684V16.1675H66.1733V9.28071Z" fill="#1E1E1E"/>
<path d="M68.5517 13.6888C68.5201 13.3632 68.558 13.0348 68.6631 12.7245C68.7682 12.4142 68.9382 12.1289 69.1621 11.887C69.386 11.645 69.659 11.4516 69.9634 11.3193C70.2678 11.187 70.5971 11.1187 70.93 11.1187C71.2629 11.1187 71.5921 11.187 71.8965 11.3193C72.201 11.4516 72.4739 11.645 72.6978 11.887C72.9217 12.1289 73.0917 12.4142 73.1968 12.7245C73.3019 13.0348 73.3398 13.3632 73.3082 13.6888C73.3404 14.0146 73.3029 14.3435 73.1981 14.6543C73.0933 14.9651 72.9234 15.2509 72.6994 15.4933C72.4754 15.7358 72.2023 15.9295 71.8976 16.0621C71.5928 16.1947 71.2632 16.2632 70.93 16.2632C70.5967 16.2632 70.2671 16.1947 69.9623 16.0621C69.6576 15.9295 69.3845 15.7358 69.1605 15.4933C68.9365 15.2509 68.7667 14.9651 68.6618 14.6543C68.557 14.3435 68.5195 14.0146 68.5517 13.6888ZM72.284 13.6888C72.284 12.6151 71.793 11.9872 70.9313 11.9872C70.0663 11.9872 69.5797 12.6151 69.5797 13.6888C69.5797 14.7711 70.0664 15.3941 70.9313 15.3941C71.793 15.3941 72.284 14.7668 72.284 13.6888H72.284Z" fill="#1E1E1E"/>
<path d="M74.3558 14.7668C74.3558 13.8751 75.0316 13.3611 76.2312 13.2881L77.5971 13.2107V12.7832C77.5971 12.2601 77.245 11.9647 76.5648 11.9647C76.0093 11.9647 75.6243 12.165 75.5139 12.5152H74.5505C74.6522 11.6644 75.4669 11.1187 76.6107 11.1187C77.8749 11.1187 78.5879 11.7369 78.5879 12.7832V16.1675H77.6299V15.4714H77.5512C77.3914 15.7211 77.1669 15.9247 76.9009 16.0613C76.6348 16.198 76.3365 16.2628 76.0366 16.2491C75.8249 16.2708 75.611 16.2486 75.4086 16.184C75.2061 16.1195 75.0197 16.0139 74.8614 15.8743C74.703 15.7346 74.5762 15.5639 74.4891 15.3731C74.4021 15.1824 74.3566 14.9758 74.3558 14.7668ZM77.5971 14.3435V13.9294L76.3658 14.0067C75.6713 14.0524 75.3564 14.2844 75.3564 14.7211C75.3564 15.1669 75.7501 15.4263 76.2914 15.4263C76.45 15.4421 76.6103 15.4264 76.7626 15.3801C76.9149 15.3338 77.0561 15.2578 77.1779 15.1568C77.2998 15.0558 77.3997 14.9317 77.4717 14.792C77.5437 14.6523 77.5863 14.4998 77.5971 14.3435Z" fill="#1E1E1E"/>
<path d="M79.8958 13.6888C79.8958 12.1236 80.7148 11.1321 81.9888 11.1321C82.3039 11.1179 82.6167 11.192 82.8905 11.3459C83.1643 11.4998 83.3879 11.7271 83.5351 12.0011H83.6095V9.28071H84.6046V16.1675H83.651V15.3849H83.5723C83.4137 15.6572 83.1824 15.8816 82.9032 16.034C82.6241 16.1863 82.3079 16.2607 81.9888 16.2492C80.7061 16.2492 79.8958 15.2577 79.8958 13.6888ZM80.9237 13.6888C80.9237 14.7394 81.4279 15.3716 82.271 15.3716C83.1097 15.3716 83.6281 14.7303 83.6281 13.6931C83.6281 12.6608 83.1043 12.0103 82.271 12.0103C81.4333 12.0103 80.9237 12.6468 80.9237 13.6888H80.9237Z" fill="#1E1E1E"/>
<path d="M88.7219 13.6888C88.6902 13.3633 88.7281 13.0348 88.8331 12.7246C88.9382 12.4143 89.1082 12.129 89.3321 11.887C89.556 11.6451 89.8289 11.4517 90.1333 11.3194C90.4377 11.1871 90.7669 11.1188 91.0998 11.1188C91.4327 11.1188 91.7619 11.1871 92.0663 11.3194C92.3707 11.4517 92.6436 11.6451 92.8675 11.887C93.0914 12.129 93.2613 12.4143 93.3664 12.7246C93.4715 13.0348 93.5094 13.3633 93.4777 13.6888C93.51 14.0146 93.4726 14.3435 93.3678 14.6543C93.263 14.9651 93.0931 15.2509 92.8692 15.4933C92.6452 15.7358 92.3721 15.9295 92.0674 16.0621C91.7627 16.1947 91.4331 16.2632 91.0998 16.2632C90.7665 16.2632 90.4369 16.1947 90.1322 16.0621C89.8275 15.9295 89.5543 15.7358 89.3304 15.4933C89.1064 15.2509 88.9366 14.9651 88.8318 14.6543C88.727 14.3435 88.6895 14.0146 88.7219 13.6888ZM92.4541 13.6888C92.4541 12.6151 91.9631 11.9872 91.1014 11.9872C90.2364 11.9872 89.7498 12.6151 89.7498 13.6888C89.7498 14.7711 90.2365 15.3941 91.1014 15.3941C91.9631 15.3941 92.4541 14.7668 92.4541 13.6888Z" fill="#1E1E1E"/>
<path d="M94.8129 11.2143H95.7709V12.0012H95.8453C95.9714 11.7186 96.1842 11.4816 96.4539 11.3235C96.7236 11.1653 97.0369 11.0937 97.35 11.1187C97.5953 11.1006 97.8417 11.1369 98.0708 11.225C98.2999 11.3131 98.5059 11.4507 98.6735 11.6277C98.8411 11.8046 98.9661 12.0163 99.0391 12.2471C99.1121 12.4779 99.1313 12.7219 99.0953 12.961V16.1675H98.1002V13.2064C98.1002 12.4105 97.748 12.0146 97.0121 12.0146C96.8455 12.007 96.6792 12.0348 96.5246 12.0962C96.37 12.1577 96.2308 12.2512 96.1164 12.3704C96.002 12.4896 95.9153 12.6317 95.8621 12.787C95.8088 12.9422 95.7904 13.1069 95.8081 13.2698V16.1675H94.8129V11.2143Z" fill="#1E1E1E"/>
<path d="M104.718 9.98111V11.2369H105.811V12.0603H104.718V14.6072C104.718 15.1261 104.936 15.3533 105.431 15.3533C105.558 15.3529 105.685 15.3453 105.811 15.3307V16.145C105.632 16.1764 105.451 16.1931 105.27 16.1949C104.163 16.1949 103.722 15.8125 103.722 14.8575V12.0602H102.922V11.2368H103.722V9.98111H104.718Z" fill="#1E1E1E"/>
<path d="M107.17 9.28071H108.157V12.0103H108.235C108.368 11.7251 108.586 11.4868 108.861 11.328C109.136 11.1692 109.455 11.0976 109.773 11.123C110.017 11.11 110.261 11.15 110.487 11.2402C110.714 11.3305 110.917 11.4687 111.083 11.6451C111.249 11.8215 111.373 12.0316 111.447 12.2606C111.521 12.4895 111.542 12.7316 111.509 12.9696V16.1675H110.513V13.2107C110.513 12.4196 110.138 12.0189 109.435 12.0189C109.264 12.0051 109.092 12.0282 108.931 12.0866C108.77 12.1449 108.624 12.2371 108.503 12.3567C108.382 12.4764 108.289 12.6205 108.231 12.779C108.172 12.9376 108.15 13.1067 108.165 13.2746V16.1675H107.17L107.17 9.28071Z" fill="#1E1E1E"/>
<path d="M117.312 14.8301C117.177 15.2828 116.884 15.6744 116.484 15.9364C116.085 16.1983 115.604 16.314 115.127 16.2631C114.795 16.2717 114.465 16.2092 114.159 16.08C113.854 15.9507 113.581 15.7577 113.36 15.5145C113.138 15.2712 112.973 14.9835 112.876 14.6713C112.779 14.3591 112.752 14.0299 112.798 13.7065C112.753 13.3821 112.781 13.0522 112.877 12.7391C112.974 12.4259 113.138 12.1369 113.359 11.8915C113.579 11.6461 113.851 11.4501 114.155 11.3168C114.459 11.1835 114.789 11.1159 115.122 11.1187C116.525 11.1187 117.372 12.0603 117.372 13.6157V13.9568H113.811V14.0116C113.796 14.1934 113.819 14.3763 113.88 14.5487C113.94 14.7212 114.037 14.8792 114.163 15.0128C114.29 15.1464 114.443 15.2526 114.614 15.3246C114.784 15.3965 114.968 15.4326 115.154 15.4306C115.392 15.4587 115.633 15.4165 115.847 15.3096C116.061 15.2027 116.237 15.0358 116.354 14.8301L117.312 14.8301ZM113.811 13.2338H116.358C116.371 13.0676 116.348 12.9006 116.291 12.7436C116.234 12.5866 116.144 12.4431 116.027 12.3223C115.91 12.2014 115.769 12.1059 115.612 12.0419C115.455 11.978 115.287 11.9469 115.117 11.9507C114.945 11.9486 114.774 11.9803 114.615 12.044C114.455 12.1078 114.31 12.2022 114.189 12.3218C114.067 12.4414 113.971 12.5837 113.906 12.7403C113.841 12.897 113.809 13.0648 113.811 13.2338H113.811Z" fill="#1E1E1E"/>
</g>
<defs>
<filter id="filter0_d_836_1446" x="-49.0224" y="-39.0375" width="232.045" height="142.077" filterUnits="userSpaceOnUse" color-interpolation-filters="sRGB">
<feFlood flood-opacity="0" result="BackgroundImageFix"/>
<feColorMatrix in="SourceAlpha" type="matrix" values="0 0 0 0 0 0 0 0 0 0 0 0 0 0 0 0 0 0 127 0" result="hardAlpha"/>
<feOffset dy="10"/>
<feGaussianBlur stdDeviation="25"/>
<feComposite in2="hardAlpha" operator="out"/>
<feColorMatrix type="matrix" values="0 0 0 0 0.968627 0 0 0 0 0.780392 0 0 0 0 0.388235 0 0 0 0.12 0"/>
<feBlend mode="normal" in2="BackgroundImageFix" result="effect1_dropShadow_836_1446"/>
<feBlend mode="normal" in="SourceGraphic" in2="effect1_dropShadow_836_1446" result="shape"/>
</filter>
<clipPath id="clip0_836_1446">
<rect width="134" height="44" fill="white"/>
</clipPath>
</defs>
</svg>
