<svg width="884" height="549" viewBox="0 0 884 549" fill="none" xmlns="http://www.w3.org/2000/svg">
<path d="M14.7528 54.3687C16.9062 32.2636 35.1491 15.3192 57.3412 14.435C345.746 2.94444 526.472 3.3513 827.848 14.6902C848.221 15.4567 865.32 29.8807 868.113 50.0751C873.528 89.2295 880.881 162.793 880.998 274.104C881.119 388.144 873.333 463.615 867.808 502.746C865.098 521.942 849.466 535.964 830.132 537.386C773.739 541.535 643.511 549.036 439.444 549C246.451 548.965 114.738 541.71 55.0536 537.551C33.8157 536.071 17.006 519.622 14.9029 498.437C9.71583 446.185 1.03645 348.277 0.999996 277.83C0.96324 206.803 9.52798 108.002 14.7528 54.3687Z" fill="#3D7D7D"/>
<path d="M393.157 105.148C392.725 103.468 392.353 101.896 392.041 100.432C391.753 98.992 391.537 97.684 391.393 96.508C391.249 95.356 391.177 94.372 391.177 93.556C391.177 91.876 391.453 90.472 392.005 89.344C392.581 88.216 393.337 87.316 394.273 86.644C395.233 85.948 396.277 85.456 397.405 85.168C398.533 84.856 399.661 84.7 400.789 84.7C401.941 84.7 402.997 84.796 403.957 84.988C404.005 84.244 403.945 83.572 403.777 82.972C403.633 82.372 403.405 81.856 403.093 81.424C402.805 80.992 402.445 80.656 402.013 80.416C401.605 80.176 401.161 80.056 400.681 80.056C400.225 80.056 399.769 80.176 399.313 80.416C398.857 80.632 398.425 80.956 398.017 81.388C397.633 81.82 397.261 82.372 396.901 83.044L392.977 80.884C393.625 79.42 394.393 78.268 395.281 77.428C396.169 76.564 397.093 75.952 398.053 75.592C399.037 75.208 399.997 75.016 400.933 75.016C402.373 75.016 403.609 75.328 404.641 75.952C405.697 76.552 406.549 77.344 407.197 78.328C407.845 79.288 408.325 80.32 408.637 81.424C408.949 82.528 409.105 83.584 409.105 84.592C409.105 85.36 409.021 86.128 408.853 86.896C408.709 87.64 408.529 88.312 408.313 88.912C408.121 89.512 407.929 89.98 407.737 90.316C406.417 89.956 405.169 89.692 403.993 89.524C402.817 89.356 401.749 89.308 400.789 89.38C399.853 89.428 399.037 89.62 398.341 89.956C397.669 90.268 397.141 90.736 396.757 91.36C396.397 91.984 396.217 92.776 396.217 93.736C396.217 94.624 396.289 95.632 396.433 96.76C396.577 97.912 396.781 99.1 397.045 100.324C397.309 101.548 397.609 102.76 397.945 103.96L393.157 105.148ZM413.239 91L412.483 64.648H417.523L418.279 91H413.239ZM428.051 86.14C429.131 86.14 429.959 86.044 430.535 85.852C431.111 85.66 431.507 85.408 431.723 85.096C431.939 84.784 432.047 84.448 432.047 84.088C432.047 83.512 431.879 82.84 431.543 82.072C431.231 81.304 430.835 80.5 430.355 79.66C429.875 78.82 429.371 78.016 428.843 77.248C428.339 76.48 427.883 75.808 427.475 75.232L431.759 72.388C432.791 73.78 433.679 75.16 434.423 76.528C435.167 77.872 435.767 79.12 436.223 80.272C436.703 81.424 437.039 82.408 437.231 83.224C437.423 83.992 437.711 84.592 438.095 85.024C438.503 85.432 438.971 85.72 439.499 85.888C440.027 86.056 440.555 86.14 441.083 86.14C441.995 86.14 442.643 86.38 443.027 86.86C443.435 87.316 443.639 87.892 443.639 88.588C443.639 89.332 443.387 89.956 442.883 90.46C442.403 90.94 441.683 91.18 440.723 91.18C439.667 91.18 438.743 91.036 437.951 90.748C437.159 90.46 436.487 90.004 435.935 89.38C435.383 88.756 434.915 87.964 434.531 87.004L436.727 87.472C436.535 88.144 436.091 88.768 435.395 89.344C434.723 89.896 433.823 90.352 432.695 90.712C431.591 91.048 430.283 91.216 428.771 91.216C428.051 91.216 427.247 91.156 426.359 91.036C425.495 90.916 424.631 90.736 423.767 90.496C422.927 90.256 422.159 89.944 421.463 89.56L423.227 84.988C424.115 85.372 424.967 85.66 425.783 85.852C426.623 86.044 427.379 86.14 428.051 86.14ZM464.314 91.18C463.21 91.18 462.178 91.096 461.218 90.928C460.282 90.76 459.418 90.472 458.626 90.064C457.834 89.632 457.126 89.044 456.502 88.3C455.902 87.556 455.398 86.62 454.99 85.492L457.834 83.224C458.266 83.992 458.794 84.592 459.418 85.024C460.042 85.432 460.786 85.72 461.65 85.888C462.514 86.056 463.522 86.14 464.674 86.14C465.586 86.14 466.234 86.38 466.618 86.86C467.002 87.316 467.194 87.892 467.194 88.588C467.194 89.332 466.942 89.956 466.438 90.46C465.958 90.94 465.25 91.18 464.314 91.18ZM440.77 91.18L441.13 86.14C442.426 86.14 443.71 86.068 444.982 85.924C446.254 85.78 447.49 85.564 448.69 85.276C449.89 84.988 451.03 84.616 452.11 84.16C453.214 83.704 454.246 83.152 455.206 82.504C454.486 82.072 453.706 81.7 452.866 81.388C452.026 81.076 451.126 80.848 450.166 80.704C449.23 80.536 448.234 80.452 447.178 80.452C446.794 80.452 446.386 80.464 445.954 80.488C445.546 80.512 445.126 80.56 444.694 80.632C444.262 80.68 443.83 80.752 443.398 80.848L442.678 75.916C443.374 75.724 444.106 75.592 444.874 75.52C445.666 75.424 446.362 75.376 446.962 75.376C448.258 75.376 449.446 75.52 450.526 75.808C451.63 76.096 452.638 76.456 453.55 76.888C454.486 77.32 455.35 77.752 456.142 78.184C456.958 78.616 457.726 78.976 458.446 79.264C459.19 79.552 459.91 79.696 460.606 79.696H461.938L462.514 84.484C461.482 84.532 460.51 84.736 459.598 85.096C458.71 85.432 457.822 85.864 456.934 86.392C456.07 86.896 455.134 87.424 454.126 87.976C453.142 88.528 452.026 89.044 450.778 89.524C449.53 90.004 448.09 90.4 446.458 90.712C444.826 91.024 442.93 91.18 440.77 91.18ZM446.962 71.668C446.218 71.668 445.582 71.416 445.054 70.912C444.55 70.408 444.298 69.784 444.298 69.04C444.298 68.296 444.55 67.66 445.054 67.132C445.582 66.604 446.218 66.34 446.962 66.34C447.682 66.34 448.294 66.604 448.798 67.132C449.326 67.66 449.59 68.296 449.59 69.04C449.59 69.784 449.326 70.408 448.798 70.912C448.294 71.416 447.682 71.668 446.962 71.668ZM464.324 91.18L464.684 86.14C465.548 86.14 466.292 86.056 466.916 85.888C467.54 85.72 468.068 85.384 468.5 84.88C468.932 84.352 469.292 83.584 469.58 82.576C469.892 81.568 470.168 80.224 470.408 78.544L475.124 79.336C475.076 79.696 475.004 80.116 474.908 80.596C474.836 81.076 474.764 81.568 474.692 82.072C474.644 82.552 474.62 83.008 474.62 83.44C474.62 83.872 474.704 84.256 474.872 84.592C475.04 84.928 475.304 85.216 475.664 85.456C476.048 85.672 476.54 85.84 477.14 85.96C477.764 86.08 478.52 86.14 479.408 86.14C480.32 86.14 480.968 86.38 481.352 86.86C481.736 87.316 481.928 87.892 481.928 88.588C481.928 89.332 481.676 89.956 481.172 90.46C480.692 90.94 479.984 91.18 479.048 91.18C477.968 91.18 476.984 91.096 476.096 90.928C475.232 90.76 474.476 90.484 473.828 90.1C473.204 89.692 472.688 89.164 472.28 88.516C471.896 87.844 471.656 87.028 471.56 86.068H473.288C472.856 87.22 472.304 88.144 471.632 88.84C470.984 89.512 470.252 90.016 469.436 90.352C468.62 90.688 467.768 90.904 466.88 91C466.016 91.12 465.164 91.18 464.324 91.18ZM475.88 75.304C475.184 75.304 474.584 75.064 474.08 74.584C473.6 74.08 473.36 73.492 473.36 72.82C473.36 72.124 473.6 71.524 474.08 71.02C474.584 70.516 475.184 70.264 475.88 70.264C476.552 70.264 477.128 70.516 477.608 71.02C478.088 71.524 478.328 72.124 478.328 72.82C478.328 73.492 478.088 74.08 477.608 74.584C477.128 75.064 476.552 75.304 475.88 75.304ZM469.652 75.268C468.956 75.268 468.356 75.028 467.852 74.548C467.372 74.044 467.132 73.456 467.132 72.784C467.132 72.088 467.372 71.488 467.852 70.984C468.356 70.48 468.956 70.228 469.652 70.228C470.324 70.228 470.9 70.48 471.38 70.984C471.86 71.488 472.1 72.088 472.1 72.784C472.1 73.456 471.86 74.044 471.38 74.548C470.9 75.028 470.324 75.268 469.652 75.268ZM479.055 91.18L479.415 86.14C480.207 86.14 480.855 86.08 481.359 85.96C481.863 85.816 482.271 85.516 482.583 85.06C482.919 84.58 483.207 83.872 483.447 82.936C483.711 81.976 483.999 80.68 484.311 79.048L488.991 79.912C488.919 80.272 488.835 80.692 488.739 81.172C488.643 81.652 488.559 82.144 488.487 82.648C488.415 83.128 488.379 83.56 488.379 83.944C488.379 84.616 488.595 85.156 489.027 85.564C489.459 85.948 490.275 86.14 491.475 86.14C492.075 86.14 492.591 86.08 493.023 85.96C493.479 85.816 493.863 85.516 494.175 85.06C494.511 84.58 494.799 83.848 495.039 82.864C495.303 81.856 495.555 80.5 495.795 78.796L500.547 79.552C500.451 80.104 500.355 80.692 500.259 81.316C500.163 81.94 500.079 82.516 500.007 83.044C499.935 83.572 499.899 84.004 499.899 84.34C499.899 84.652 499.983 84.952 500.151 85.24C500.343 85.504 500.679 85.72 501.159 85.888C501.663 86.056 502.371 86.14 503.283 86.14C503.931 86.14 504.483 86.056 504.939 85.888C505.419 85.72 505.779 85.444 506.019 85.06C506.283 84.676 506.415 84.172 506.415 83.548C506.415 82.66 506.211 81.496 505.803 80.056C505.395 78.616 504.915 77.104 504.363 75.52L509.439 74.008C509.823 75.04 510.159 76.144 510.447 77.32C510.759 78.472 510.999 79.6 511.167 80.704C511.359 81.784 511.455 82.732 511.455 83.548C511.455 84.772 511.263 85.864 510.879 86.824C510.495 87.76 509.955 88.552 509.259 89.2C508.563 89.848 507.735 90.34 506.775 90.676C505.815 91.012 504.759 91.18 503.607 91.18C502.215 91.18 501.075 91.048 500.187 90.784C499.299 90.496 498.615 90.028 498.135 89.38C497.679 88.708 497.379 87.796 497.235 86.644H498.459C497.955 88.06 497.391 89.092 496.767 89.74C496.143 90.364 495.399 90.76 494.535 90.928C493.695 91.096 492.639 91.18 491.367 91.18C490.575 91.18 489.759 91.096 488.919 90.928C488.103 90.736 487.371 90.304 486.723 89.632C486.075 88.96 485.595 87.916 485.283 86.5L487.227 86.428C486.723 87.844 486.063 88.888 485.247 89.56C484.455 90.232 483.543 90.676 482.511 90.892C481.479 91.084 480.327 91.18 479.055 91.18ZM527.446 71.704C527.446 70.912 527.398 70.12 527.302 69.328C527.23 68.536 527.134 67.792 527.014 67.096C526.894 66.376 526.786 65.752 526.69 65.224L531.73 64.504C531.826 64.984 531.922 65.62 532.018 66.412C532.114 67.204 532.198 68.044 532.27 68.932C532.342 69.796 532.378 70.624 532.378 71.416C532.378 72.664 532.27 73.84 532.054 74.944C531.838 76.048 531.514 77.092 531.082 78.076C530.65 79.036 530.11 79.96 529.462 80.848L528.814 81.712C528.19 82.48 527.458 83.236 526.618 83.98C525.802 84.724 524.902 85.444 523.918 86.14H526.258C527.074 86.14 527.698 86.092 528.13 85.996C528.562 85.9 528.85 85.768 528.994 85.6C529.162 85.408 529.246 85.192 529.246 84.952C529.246 84.52 528.874 83.884 528.13 83.044C527.386 82.18 526.354 81.196 525.034 80.092C523.714 78.964 522.166 77.776 520.39 76.528C518.638 75.256 516.742 73.984 514.702 72.712L517.33 68.86C520.162 70.612 522.55 72.22 524.494 73.684C526.462 75.148 528.07 76.48 529.318 77.68C530.59 78.88 531.574 79.972 532.27 80.956C532.966 81.94 533.446 82.828 533.71 83.62C533.974 84.388 534.106 85.084 534.106 85.708C534.106 86.404 533.998 87.076 533.782 87.724C533.566 88.348 533.218 88.912 532.738 89.416C532.258 89.896 531.634 90.28 530.866 90.568C530.098 90.856 529.15 91 528.022 91H517.438V86.176C519.91 84.4 521.866 82.72 523.306 81.136C524.77 79.552 525.826 77.992 526.474 76.456C527.122 74.92 527.446 73.336 527.446 71.704ZM516.934 102.124L516.322 99.604C517.162 99.46 517.786 99.34 518.194 99.244C518.626 99.148 519.082 99.04 519.562 98.92L519.202 99.82C518.578 99.604 517.978 99.172 517.402 98.524C516.85 97.9 516.574 97.18 516.574 96.364C516.574 95.5 516.766 94.804 517.15 94.276C517.534 93.748 518.026 93.364 518.626 93.124C519.226 92.884 519.85 92.764 520.498 92.764C520.858 92.764 521.194 92.788 521.506 92.836C521.842 92.884 522.142 92.956 522.406 93.052L522.118 95.644C521.878 95.596 521.638 95.548 521.398 95.5C521.158 95.452 520.894 95.428 520.606 95.428C520.294 95.428 520.006 95.524 519.742 95.716C519.502 95.932 519.382 96.184 519.382 96.472C519.382 96.88 519.526 97.24 519.814 97.552C520.102 97.864 520.438 98.104 520.822 98.272C521.23 98.464 521.566 98.572 521.83 98.596L519.85 98.812C520.498 98.644 521.11 98.464 521.686 98.272C522.262 98.104 522.802 97.924 523.306 97.732L524.026 100.144C523.426 100.36 522.718 100.588 521.902 100.828C521.11 101.092 520.282 101.332 519.418 101.548C518.578 101.764 517.75 101.956 516.934 102.124ZM538.888 91L538.132 64.648H543.172L543.928 91H538.888ZM569.135 91.468C567.887 91.468 566.663 91.444 565.463 91.396C564.263 91.372 563.099 91.336 561.971 91.288C560.843 91.24 559.775 91.168 558.767 91.072C557.759 90.976 556.811 90.88 555.923 90.784L556.499 85.816C557.699 85.936 558.815 86.044 559.847 86.14C560.903 86.212 561.911 86.272 562.871 86.32C563.831 86.368 564.791 86.404 565.751 86.428C566.711 86.428 567.695 86.428 568.703 86.428C570.671 86.428 572.327 86.344 573.671 86.176C575.015 86.008 576.083 85.768 576.875 85.456C577.691 85.144 578.267 84.772 578.603 84.34C578.963 83.908 579.143 83.44 579.143 82.936C579.143 82.48 579.023 82.048 578.783 81.64C578.567 81.232 578.231 80.896 577.775 80.632C577.343 80.368 576.791 80.236 576.119 80.236C575.207 80.236 574.307 80.452 573.419 80.884C572.531 81.316 571.667 81.892 570.827 82.612C570.011 83.308 569.243 84.076 568.523 84.916C567.803 85.732 567.155 86.524 566.579 87.292L561.071 86.68C562.055 85.144 563.123 83.692 564.275 82.324C565.451 80.932 566.699 79.708 568.019 78.652C569.363 77.572 570.755 76.732 572.195 76.132C573.635 75.508 575.099 75.196 576.587 75.196C578.123 75.196 579.455 75.508 580.583 76.132C581.711 76.756 582.587 77.62 583.211 78.724C583.859 79.828 584.183 81.1 584.183 82.54C584.183 84.268 583.691 85.804 582.707 87.148C581.723 88.492 580.127 89.548 577.919 90.316C575.735 91.084 572.807 91.468 569.135 91.468ZM562.871 87.436L562.115 64.648H567.155L567.803 81.856L562.871 87.436ZM587.63 99.28L586.586 94.24C588.29 94.024 589.778 93.76 591.05 93.448C592.322 93.16 593.39 92.752 594.254 92.224C595.118 91.696 595.766 90.976 596.198 90.064C596.63 89.128 596.846 87.928 596.846 86.464C596.846 85.936 596.798 85.408 596.702 84.88C596.606 84.328 596.462 83.824 596.27 83.368C596.078 82.912 595.826 82.54 595.514 82.252C595.226 81.964 594.878 81.82 594.47 81.82C594.038 81.82 593.654 81.976 593.318 82.288C592.982 82.576 592.718 82.948 592.526 83.404C592.334 83.836 592.238 84.28 592.238 84.736C592.238 85.072 592.322 85.36 592.49 85.6C592.658 85.816 592.91 85.984 593.246 86.104C593.582 86.2 594.002 86.248 594.506 86.248C595.082 86.248 595.67 86.188 596.27 86.068C596.894 85.924 597.458 85.732 597.962 85.492L598.106 89.416C597.53 89.872 596.87 90.28 596.126 90.64C595.382 90.976 594.482 91.144 593.426 91.144C592.562 91.144 591.758 91.048 591.014 90.856C590.27 90.64 589.61 90.316 589.034 89.884C588.482 89.452 588.05 88.9 587.738 88.228C587.426 87.532 587.27 86.704 587.27 85.744C587.27 84.568 587.462 83.428 587.846 82.324C588.23 81.22 588.758 80.236 589.43 79.372C590.126 78.484 590.918 77.788 591.806 77.284C592.718 76.756 593.678 76.492 594.686 76.492C595.886 76.492 596.93 76.792 597.818 77.392C598.73 77.992 599.486 78.784 600.086 79.768C600.686 80.728 601.142 81.772 601.454 82.9C601.766 84.028 601.922 85.108 601.922 86.14C601.922 88.852 601.346 91.156 600.194 93.052C599.042 94.948 597.398 96.412 595.262 97.444C593.126 98.5 590.582 99.112 587.63 99.28ZM604.084 99.316L602.248 94.852C603.52 94.42 604.684 93.916 605.74 93.34C606.82 92.764 607.756 92.128 608.548 91.432C609.34 90.736 609.952 89.98 610.384 89.164C610.816 88.324 611.032 87.424 611.032 86.464C611.032 85.456 610.804 84.352 610.348 83.152C609.892 81.952 609.34 80.728 608.692 79.48L613.408 77.212C613.84 77.956 614.212 78.76 614.524 79.624C614.86 80.464 615.136 81.22 615.352 81.892C615.568 82.564 615.712 83.02 615.784 83.26C616.12 84.412 616.576 85.18 617.152 85.564C617.752 85.948 618.712 86.14 620.032 86.14C620.944 86.14 621.592 86.38 621.976 86.86C622.384 87.316 622.588 87.892 622.588 88.588C622.588 89.332 622.336 89.956 621.832 90.46C621.328 90.94 620.608 91.18 619.672 91.18C618.688 91.18 617.824 91.036 617.08 90.748C616.336 90.46 615.736 90.04 615.28 89.488C614.848 88.936 614.572 88.288 614.452 87.544L615.784 88.3C615.64 89.572 615.22 90.772 614.524 91.9C613.852 93.052 612.976 94.108 611.896 95.068C610.816 96.028 609.604 96.868 608.26 97.588C606.916 98.308 605.524 98.884 604.084 99.316ZM619.715 91.18L620.075 86.14C620.867 86.14 621.515 86.08 622.019 85.96C622.523 85.816 622.931 85.516 623.243 85.06C623.579 84.58 623.867 83.872 624.107 82.936C624.371 81.976 624.659 80.68 624.971 79.048L629.651 79.912C629.579 80.272 629.495 80.692 629.399 81.172C629.303 81.652 629.219 82.144 629.147 82.648C629.075 83.128 629.039 83.56 629.039 83.944C629.039 84.616 629.255 85.156 629.687 85.564C630.119 85.948 630.935 86.14 632.135 86.14C632.735 86.14 633.251 86.08 633.683 85.96C634.139 85.816 634.523 85.516 634.835 85.06C635.171 84.58 635.459 83.848 635.699 82.864C635.963 81.856 636.215 80.5 636.455 78.796L641.207 79.552C641.111 80.104 641.015 80.692 640.919 81.316C640.823 81.94 640.739 82.516 640.667 83.044C640.595 83.572 640.559 84.004 640.559 84.34C640.559 84.652 640.643 84.952 640.811 85.24C641.003 85.504 641.339 85.72 641.819 85.888C642.323 86.056 643.031 86.14 643.943 86.14C644.591 86.14 645.143 86.056 645.599 85.888C646.079 85.72 646.439 85.444 646.679 85.06C646.943 84.676 647.075 84.172 647.075 83.548C647.075 82.66 646.871 81.496 646.463 80.056C646.055 78.616 645.575 77.104 645.023 75.52L650.099 74.008C650.483 75.04 650.819 76.144 651.107 77.32C651.419 78.472 651.659 79.6 651.827 80.704C652.019 81.784 652.115 82.732 652.115 83.548C652.115 84.772 651.923 85.864 651.539 86.824C651.155 87.76 650.615 88.552 649.919 89.2C649.223 89.848 648.395 90.34 647.435 90.676C646.475 91.012 645.419 91.18 644.267 91.18C642.875 91.18 641.735 91.048 640.847 90.784C639.959 90.496 639.275 90.028 638.795 89.38C638.339 88.708 638.039 87.796 637.895 86.644H639.119C638.615 88.06 638.051 89.092 637.427 89.74C636.803 90.364 636.059 90.76 635.195 90.928C634.355 91.096 633.299 91.18 632.027 91.18C631.235 91.18 630.419 91.096 629.579 90.928C628.763 90.736 628.031 90.304 627.383 89.632C626.735 88.96 626.255 87.916 625.943 86.5L627.887 86.428C627.383 87.844 626.723 88.888 625.907 89.56C625.115 90.232 624.203 90.676 623.171 90.892C622.139 91.084 620.987 91.18 619.715 91.18ZM638.543 68.896C637.943 68.896 637.415 68.668 636.959 68.212C636.527 67.756 636.311 67.216 636.311 66.592C636.311 65.968 636.527 65.44 636.959 65.008C637.415 64.576 637.943 64.36 638.543 64.36C639.167 64.36 639.695 64.576 640.127 65.008C640.559 65.44 640.775 65.968 640.775 66.592C640.775 67.216 640.559 67.756 640.127 68.212C639.695 68.668 639.167 68.896 638.543 68.896ZM635.663 73.648C635.063 73.648 634.535 73.42 634.079 72.964C633.647 72.508 633.431 71.968 633.431 71.344C633.431 70.72 633.647 70.192 634.079 69.76C634.535 69.328 635.063 69.112 635.663 69.112C636.287 69.112 636.815 69.328 637.247 69.76C637.679 70.192 637.895 70.72 637.895 71.344C637.895 71.968 637.679 72.508 637.247 72.964C636.815 73.42 636.287 73.648 635.663 73.648ZM641.243 73.648C640.643 73.648 640.115 73.42 639.659 72.964C639.227 72.508 639.011 71.968 639.011 71.344C639.011 70.72 639.227 70.192 639.659 69.76C640.115 69.328 640.643 69.112 641.243 69.112C641.867 69.112 642.395 69.328 642.827 69.76C643.259 70.192 643.475 70.72 643.475 71.344C643.475 71.968 643.259 72.508 642.827 72.964C642.395 73.42 641.867 73.648 641.243 73.648ZM692.073 91.18L692.433 86.14C693.561 86.14 694.353 86.032 694.809 85.816C695.289 85.576 695.577 85.144 695.673 84.52C695.769 83.872 695.793 82.936 695.745 81.712L695.169 64.648H700.281L700.893 81.676C700.941 82.876 701.085 83.8 701.325 84.448C701.565 85.096 701.961 85.54 702.513 85.78C703.089 86.02 703.857 86.14 704.817 86.14C705.729 86.14 706.377 86.38 706.761 86.86C707.145 87.316 707.337 87.892 707.337 88.588C707.337 89.332 707.085 89.956 706.581 90.46C706.077 90.94 705.369 91.18 704.457 91.18C703.401 91.18 702.417 91.06 701.505 90.82C700.593 90.58 699.837 90.124 699.237 89.452C698.637 88.78 698.241 87.808 698.049 86.536L699.633 86.572C699.225 87.82 698.697 88.78 698.049 89.452C697.401 90.1 696.585 90.556 695.601 90.82C694.641 91.06 693.465 91.18 692.073 91.18ZM664.209 89.992C664.209 89.44 664.257 88.792 664.353 88.048C664.449 87.304 664.629 86.464 664.893 85.528C665.157 84.568 665.553 83.5 666.081 82.324L670.509 83.872C670.245 84.616 670.017 85.3 669.825 85.924C669.633 86.524 669.489 87.088 669.393 87.616C669.297 88.12 669.249 88.624 669.249 89.128C669.249 89.92 669.417 90.628 669.753 91.252C670.113 91.9 670.629 92.44 671.301 92.872C671.973 93.328 672.789 93.676 673.749 93.916C674.733 94.156 675.861 94.276 677.133 94.276C678.453 94.276 679.629 94.216 680.661 94.096C681.717 93.976 682.605 93.796 683.325 93.556C684.069 93.316 684.633 93.004 685.017 92.62C685.401 92.26 685.593 91.84 685.593 91.36C685.593 91.144 685.509 90.94 685.341 90.748C685.197 90.556 684.945 90.352 684.585 90.136C684.249 89.92 683.793 89.692 683.217 89.452C682.665 89.212 681.993 88.948 681.201 88.66L682.389 83.584C683.421 84.016 684.393 84.4 685.305 84.736C686.241 85.048 687.129 85.312 687.969 85.528C688.809 85.72 689.601 85.876 690.345 85.996C691.089 86.092 691.785 86.14 692.433 86.14C693.345 86.14 693.993 86.38 694.377 86.86C694.761 87.316 694.953 87.892 694.953 88.588C694.953 89.332 694.701 89.956 694.197 90.46C693.693 90.94 692.985 91.18 692.073 91.18C691.881 91.18 691.689 91.18 691.497 91.18C691.329 91.18 691.149 91.18 690.957 91.18C690.789 91.18 690.609 91.18 690.417 91.18C690.465 91.42 690.489 91.624 690.489 91.792C690.489 91.984 690.489 92.164 690.489 92.332C690.489 93.124 690.213 93.928 689.661 94.744C689.133 95.56 688.305 96.316 687.177 97.012C686.049 97.708 684.609 98.26 682.857 98.668C681.129 99.1 679.065 99.316 676.665 99.316C674.073 99.316 671.841 98.98 669.969 98.308C668.121 97.66 666.693 96.64 665.685 95.248C664.701 93.88 664.209 92.128 664.209 89.992ZM704.441 91.18L704.801 86.14C705.929 86.14 706.793 86.128 707.393 86.104C708.017 86.08 708.485 86.056 708.797 86.032C709.109 85.984 709.373 85.948 709.589 85.924C709.349 85.684 709.037 85.336 708.653 84.88C708.269 84.424 707.921 83.836 707.609 83.116C707.321 82.396 707.177 81.532 707.177 80.524C707.177 79.06 707.549 77.776 708.293 76.672C709.061 75.568 710.093 74.704 711.389 74.08C712.685 73.456 714.137 73.144 715.745 73.144C716.513 73.144 717.221 73.192 717.869 73.288C718.541 73.384 719.213 73.528 719.885 73.72L719.093 78.508C718.613 78.388 718.109 78.292 717.581 78.22C717.053 78.148 716.585 78.112 716.177 78.112C715.385 78.112 714.689 78.244 714.089 78.508C713.513 78.748 713.057 79.096 712.721 79.552C712.409 79.984 712.253 80.512 712.253 81.136C712.253 81.544 712.325 81.928 712.469 82.288C712.637 82.648 712.841 82.972 713.081 83.26C713.321 83.548 713.585 83.8 713.873 84.016C714.161 84.232 714.437 84.412 714.701 84.556C714.989 84.676 715.229 84.76 715.421 84.808C716.021 84.64 716.537 84.496 716.969 84.376C717.425 84.232 717.857 84.1 718.265 83.98C718.697 83.836 719.165 83.656 719.669 83.44C720.173 83.224 720.797 82.96 721.541 82.648L723.161 87.4C721.145 88.384 719.177 89.152 717.257 89.704C715.337 90.256 713.345 90.64 711.281 90.856C709.217 91.072 706.937 91.18 704.441 91.18ZM747.224 105.184C745.616 105.184 744.044 104.992 742.508 104.608C740.996 104.224 739.628 103.612 738.404 102.772C737.18 101.956 736.208 100.9 735.488 99.604C734.768 98.308 734.408 96.748 734.408 94.924C734.408 92.956 734.804 91.156 735.596 89.524C736.388 87.868 737.504 86.404 738.944 85.132C740.384 83.86 742.088 82.804 744.056 81.964C746.048 81.1 748.22 80.488 750.572 80.128L751.76 84.88C749.648 85.264 747.812 85.768 746.252 86.392C744.716 87.016 743.444 87.748 742.436 88.588C741.428 89.428 740.672 90.328 740.168 91.288C739.688 92.272 739.448 93.304 739.448 94.384C739.448 95.248 739.604 96.004 739.916 96.652C740.252 97.3 740.696 97.84 741.248 98.272C741.8 98.728 742.412 99.088 743.084 99.352C743.756 99.64 744.452 99.844 745.172 99.964C745.892 100.084 746.576 100.144 747.224 100.144C748.88 100.144 750.416 99.988 751.832 99.676C753.272 99.364 754.532 98.98 755.612 98.524L757.052 103.168C756.476 103.456 755.66 103.756 754.604 104.068C753.572 104.38 752.408 104.644 751.112 104.86C749.84 105.076 748.544 105.184 747.224 105.184ZM740.06 85.24C739.22 84.904 738.44 84.424 737.72 83.8C737.024 83.176 736.46 82.408 736.028 81.496C735.62 80.56 735.416 79.492 735.416 78.292C735.416 76.78 735.812 75.472 736.604 74.368C737.396 73.264 738.452 72.412 739.772 71.812C741.092 71.212 742.532 70.912 744.092 70.912C744.86 70.912 745.568 70.96 746.216 71.056C746.888 71.152 747.572 71.296 748.268 71.488L747.476 76.276C746.972 76.156 746.456 76.06 745.928 75.988C745.4 75.916 744.932 75.88 744.524 75.88C743.684 75.88 742.952 76 742.328 76.24C741.728 76.48 741.26 76.828 740.924 77.284C740.612 77.716 740.456 78.232 740.456 78.832C740.456 79.312 740.6 79.768 740.888 80.2C741.2 80.632 741.596 81.016 742.076 81.352C742.556 81.664 743.084 81.928 743.66 82.144C744.236 82.336 744.8 82.444 745.352 82.468L740.06 85.24ZM778.843 91.18C777.163 91.18 775.771 91.06 774.667 90.82C773.587 90.556 772.735 90.16 772.111 89.632C771.487 89.08 771.043 88.396 770.779 87.58C770.515 86.764 770.359 85.792 770.311 84.664L769.555 64.648H774.595L775.351 82.252C775.399 83.356 775.519 84.184 775.711 84.736C775.903 85.288 776.263 85.66 776.791 85.852C777.343 86.044 778.147 86.14 779.203 86.14C780.115 86.14 780.763 86.38 781.147 86.86C781.555 87.316 781.759 87.892 781.759 88.588C781.759 89.332 781.507 89.956 781.003 90.46C780.499 90.94 779.779 91.18 778.843 91.18ZM759.475 91.18C758.827 91.18 758.167 91.12 757.495 91C756.847 90.904 756.391 90.832 756.127 90.784L756.811 85.564C758.467 85.78 760.075 85.828 761.635 85.708C763.219 85.564 764.635 85.18 765.883 84.556C767.155 83.908 768.163 82.972 768.907 81.748C769.651 80.5 770.023 78.892 770.023 76.924L771.967 82.576C771.679 84.208 771.187 85.564 770.491 86.644C769.819 87.7 769.015 88.54 768.079 89.164C767.167 89.764 766.195 90.208 765.163 90.496C764.131 90.784 763.123 90.964 762.139 91.036C761.155 91.132 760.267 91.18 759.475 91.18ZM767.287 86.248C766.927 85.552 766.411 84.736 765.739 83.8C765.067 82.84 764.239 81.784 763.255 80.632C762.295 79.456 761.191 78.22 759.943 76.924C758.695 75.604 757.315 74.248 755.803 72.856L758.935 69.436C761.167 71.548 762.979 73.324 764.371 74.764C765.763 76.204 766.867 77.416 767.683 78.4C768.523 79.36 769.159 80.188 769.591 80.884C770.047 81.58 770.431 82.252 770.743 82.9L767.287 86.248ZM778.867 91.18L779.227 86.14H787.291C789.547 86.14 791.419 86.056 792.907 85.888C794.419 85.72 795.619 85.48 796.507 85.168C797.395 84.832 798.019 84.448 798.379 84.016C798.763 83.584 798.955 83.116 798.955 82.612C798.955 82.156 798.847 81.724 798.631 81.316C798.415 80.884 798.091 80.536 797.659 80.272C797.227 80.008 796.663 79.876 795.967 79.876C795.079 79.876 794.191 80.092 793.303 80.524C792.415 80.932 791.551 81.496 790.711 82.216C789.871 82.912 789.067 83.692 788.299 84.556C787.555 85.42 786.871 86.296 786.247 87.184L780.811 86.428C781.819 84.868 782.911 83.392 784.087 82C785.287 80.584 786.547 79.348 787.867 78.292C789.211 77.212 790.591 76.372 792.007 75.772C793.447 75.148 794.911 74.836 796.399 74.836C797.983 74.836 799.339 75.16 800.467 75.808C801.595 76.456 802.459 77.344 803.059 78.472C803.683 79.6 803.995 80.908 803.995 82.396C803.995 83.956 803.551 85.36 802.663 86.608C801.799 87.856 800.323 88.888 798.235 89.704C797.347 90.04 796.387 90.316 795.355 90.532C794.323 90.748 793.111 90.904 791.719 91C790.327 91.12 788.659 91.18 786.715 91.18H778.867ZM782.611 87.508L781.855 64.648H786.895L787.543 81.928L782.611 87.508ZM819.594 71.704C819.594 70.912 819.546 70.12 819.45 69.328C819.378 68.536 819.282 67.792 819.162 67.096C819.042 66.376 818.934 65.752 818.838 65.224L823.878 64.504C823.974 64.984 824.07 65.62 824.166 66.412C824.262 67.204 824.346 68.044 824.418 68.932C824.49 69.796 824.526 70.624 824.526 71.416C824.526 72.664 824.418 73.84 824.202 74.944C823.986 76.048 823.662 77.092 823.23 78.076C822.798 79.036 822.258 79.96 821.61 80.848L820.962 81.712C820.338 82.48 819.606 83.236 818.766 83.98C817.95 84.724 817.05 85.444 816.066 86.14H818.406C819.222 86.14 819.846 86.092 820.278 85.996C820.71 85.9 820.998 85.768 821.142 85.6C821.31 85.408 821.394 85.192 821.394 84.952C821.394 84.52 821.022 83.884 820.278 83.044C819.534 82.18 818.502 81.196 817.182 80.092C815.862 78.964 814.314 77.776 812.538 76.528C810.786 75.256 808.89 73.984 806.85 72.712L809.478 68.86C812.31 70.612 814.698 72.22 816.642 73.684C818.61 75.148 820.218 76.48 821.466 77.68C822.738 78.88 823.722 79.972 824.418 80.956C825.114 81.94 825.594 82.828 825.858 83.62C826.122 84.388 826.254 85.084 826.254 85.708C826.254 86.404 826.146 87.076 825.93 87.724C825.714 88.348 825.366 88.912 824.886 89.416C824.406 89.896 823.782 90.28 823.014 90.568C822.246 90.856 821.298 91 820.17 91H809.586V86.176C812.058 84.4 814.014 82.72 815.454 81.136C816.918 79.552 817.974 77.992 818.622 76.456C819.27 74.92 819.594 73.336 819.594 71.704ZM809.082 102.124L808.47 99.604C809.31 99.46 809.934 99.34 810.342 99.244C810.774 99.148 811.23 99.04 811.71 98.92L811.35 99.82C810.726 99.604 810.126 99.172 809.55 98.524C808.998 97.9 808.722 97.18 808.722 96.364C808.722 95.5 808.914 94.804 809.298 94.276C809.682 93.748 810.174 93.364 810.774 93.124C811.374 92.884 811.998 92.764 812.646 92.764C813.006 92.764 813.342 92.788 813.654 92.836C813.99 92.884 814.29 92.956 814.554 93.052L814.266 95.644C814.026 95.596 813.786 95.548 813.546 95.5C813.306 95.452 813.042 95.428 812.754 95.428C812.442 95.428 812.154 95.524 811.89 95.716C811.65 95.932 811.53 96.184 811.53 96.472C811.53 96.88 811.674 97.24 811.962 97.552C812.25 97.864 812.586 98.104 812.97 98.272C813.378 98.464 813.714 98.572 813.978 98.596L811.998 98.812C812.646 98.644 813.258 98.464 813.834 98.272C814.41 98.104 814.95 97.924 815.454 97.732L816.174 100.144C815.574 100.36 814.866 100.588 814.05 100.828C813.258 101.092 812.43 101.332 811.566 101.548C810.726 101.764 809.898 101.956 809.082 102.124ZM831.036 91L830.28 64.648H835.32L836.076 91H831.036Z" fill="#F5C868"/>
<path d="M870.5 109.5C868.5 56.9996 873.912 20.8128 832 18.5C460.5 -2 421 1.15515 63 17.9998C16.5 20.1878 20.5 37.9997 13.5 106.5" stroke="#F5C868" stroke-width="8" stroke-linecap="round"/>
</svg>
