<svg width="356" height="175" viewBox="0 0 356 175" fill="none" xmlns="http://www.w3.org/2000/svg">
<g filter="url(#filter0_d_806_919)">
<rect x="50" y="40" width="256" height="75" rx="8" fill="white"/>
</g>
<g filter="url(#filter1_d_806_919)">
<rect x="236" y="49" width="58" height="58" rx="8" fill="#F6C762"/>
</g>
<path d="M275 77.08V78C274.999 80.1564 274.301 82.2547 273.009 83.9818C271.718 85.709 269.903 86.9725 267.835 87.5839C265.767 88.1953 263.557 88.1219 261.534 87.3746C259.512 86.6273 257.785 85.2461 256.611 83.4371C255.437 81.628 254.88 79.4881 255.022 77.3363C255.164 75.1846 255.997 73.1363 257.398 71.4971C258.799 69.8578 260.693 68.7154 262.796 68.2401C264.9 67.7649 267.1 67.9823 269.07 68.86" stroke="white" stroke-width="2" stroke-linecap="round" stroke-linejoin="round"/>
<path d="M275 70L265 80.01L262 77.01" stroke="white" stroke-width="2" stroke-linecap="round" stroke-linejoin="round"/>
<path d="M98.468 72.496C98.468 72.22 98.492 71.896 98.54 71.524C98.588 71.152 98.678 70.732 98.81 70.264C98.942 69.784 99.14 69.25 99.404 68.662L101.618 69.436C101.486 69.808 101.372 70.15 101.276 70.462C101.18 70.762 101.108 71.044 101.06 71.308C101.012 71.56 100.988 71.812 100.988 72.064C100.988 72.604 101.12 73.072 101.384 73.468C101.66 73.876 102.032 74.188 102.5 74.404C102.98 74.632 103.532 74.746 104.156 74.746C105.176 74.746 105.956 74.578 106.496 74.242C107.048 73.918 107.42 73.402 107.612 72.694C107.816 71.974 107.894 71.044 107.846 69.904L107.486 59.824H110.024L110.294 68.338C110.318 68.938 110.402 69.4 110.546 69.724C110.69 70.048 110.912 70.27 111.212 70.39C111.524 70.51 111.926 70.57 112.418 70.57C112.874 70.57 113.198 70.69 113.39 70.93C113.582 71.158 113.678 71.446 113.678 71.794C113.678 72.166 113.552 72.478 113.3 72.73C113.048 72.97 112.694 73.09 112.238 73.09C111.974 73.09 111.692 73.054 111.392 72.982C111.092 72.91 110.804 72.796 110.528 72.64C110.252 72.484 110.012 72.28 109.808 72.028C109.604 71.764 109.466 71.44 109.394 71.056L110.366 70.57C110.366 71.782 110.222 72.808 109.934 73.648C109.658 74.488 109.25 75.166 108.71 75.682C108.182 76.198 107.528 76.57 106.748 76.798C105.98 77.038 105.092 77.158 104.084 77.158C103.316 77.158 102.59 77.062 101.906 76.87C101.234 76.678 100.64 76.39 100.124 76.006C99.608 75.622 99.2 75.136 98.9 74.548C98.612 73.972 98.468 73.288 98.468 72.496ZM130.292 73.09C129.68 73.09 129.092 73.036 128.528 72.928C127.964 72.808 127.454 72.652 126.998 72.46C126.554 72.268 126.188 72.052 125.9 71.812L127.52 70.066C127.952 70.246 128.396 70.378 128.852 70.462C129.308 70.534 129.848 70.57 130.472 70.57C130.928 70.57 131.252 70.69 131.444 70.93C131.648 71.158 131.75 71.446 131.75 71.794C131.75 72.166 131.624 72.478 131.372 72.73C131.12 72.97 130.76 73.09 130.292 73.09ZM121.562 73.324C120.446 73.324 119.516 73.276 118.772 73.18C118.04 73.084 117.446 72.946 116.99 72.766C116.534 72.586 116.174 72.37 115.91 72.118C115.646 71.866 115.43 71.59 115.262 71.29L115.766 71.146C115.466 71.722 115.124 72.148 114.74 72.424C114.356 72.7 113.954 72.88 113.534 72.964C113.114 73.048 112.682 73.09 112.238 73.09L112.418 70.57C112.79 70.57 113.084 70.51 113.3 70.39C113.516 70.27 113.69 70.072 113.822 69.796C113.966 69.52 114.098 69.154 114.218 68.698C114.338 68.242 114.482 67.684 114.65 67.024L116.936 67.582C116.852 67.906 116.78 68.188 116.72 68.428C116.672 68.668 116.63 68.878 116.594 69.058C116.57 69.226 116.558 69.364 116.558 69.472C116.558 69.7 116.612 69.904 116.72 70.084C116.828 70.252 117.038 70.39 117.35 70.498C117.662 70.594 118.118 70.672 118.718 70.732C119.33 70.78 120.128 70.804 121.112 70.804C122.156 70.804 123.026 70.768 123.722 70.696C124.418 70.612 124.97 70.498 125.378 70.354C125.798 70.198 126.098 70.012 126.278 69.796C126.458 69.568 126.548 69.31 126.548 69.022C126.548 68.794 126.494 68.584 126.386 68.392C126.29 68.188 126.128 68.02 125.9 67.888C125.672 67.756 125.378 67.69 125.018 67.69C124.586 67.69 124.148 67.798 123.704 68.014C123.272 68.218 122.846 68.494 122.426 68.842C122.006 69.178 121.604 69.556 121.22 69.976C120.848 70.396 120.512 70.816 120.212 71.236L117.512 70.93C117.98 70.174 118.508 69.448 119.096 68.752C119.684 68.056 120.314 67.444 120.986 66.916C121.658 66.376 122.354 65.95 123.074 65.638C123.794 65.326 124.526 65.17 125.27 65.17C126.074 65.17 126.758 65.326 127.322 65.638C127.886 65.95 128.318 66.382 128.618 66.934C128.918 67.486 129.068 68.122 129.068 68.842C129.068 69.718 128.816 70.492 128.312 71.164C127.82 71.836 127.022 72.364 125.918 72.748C124.826 73.132 123.374 73.324 121.562 73.324ZM124.748 63.496C124.376 63.496 124.058 63.37 123.794 63.118C123.542 62.866 123.416 62.554 123.416 62.182C123.416 61.81 123.542 61.492 123.794 61.228C124.058 60.964 124.376 60.832 124.748 60.832C125.108 60.832 125.414 60.964 125.666 61.228C125.93 61.492 126.062 61.81 126.062 62.182C126.062 62.554 125.93 62.866 125.666 63.118C125.414 63.37 125.108 63.496 124.748 63.496ZM130.309 73.09L130.489 70.588C131.485 70.588 132.283 70.582 132.883 70.57C133.495 70.558 133.969 70.534 134.305 70.498C134.653 70.45 134.911 70.396 135.079 70.336C135.247 70.264 135.391 70.186 135.511 70.102C135.655 69.994 135.775 69.85 135.871 69.67C135.979 69.478 136.063 69.226 136.123 68.914C136.183 68.602 136.213 68.212 136.213 67.744C136.213 67.156 136.159 66.664 136.051 66.268C135.955 65.86 135.811 65.554 135.619 65.35C135.439 65.146 135.217 65.044 134.953 65.044C134.761 65.044 134.581 65.11 134.413 65.242C134.245 65.362 134.107 65.53 133.999 65.746C133.891 65.962 133.837 66.208 133.837 66.484C133.837 66.64 133.879 66.778 133.963 66.898C134.047 67.018 134.179 67.108 134.359 67.168C134.539 67.228 134.767 67.258 135.043 67.258C135.307 67.258 135.583 67.228 135.871 67.168C136.171 67.096 136.447 67 136.699 66.88L136.771 69.022C136.579 69.154 136.357 69.274 136.105 69.382C135.853 69.49 135.583 69.574 135.295 69.634C135.019 69.682 134.737 69.706 134.449 69.706C133.813 69.706 133.261 69.622 132.793 69.454C132.337 69.274 131.983 68.986 131.731 68.59C131.479 68.194 131.353 67.654 131.353 66.97C131.353 66.442 131.443 65.92 131.623 65.404C131.803 64.876 132.061 64.402 132.397 63.982C132.733 63.55 133.129 63.208 133.585 62.956C134.041 62.692 134.545 62.56 135.097 62.56C135.913 62.56 136.585 62.8 137.113 63.28C137.653 63.748 138.049 64.384 138.301 65.188C138.565 65.98 138.697 66.862 138.697 67.834C138.697 68.686 138.571 69.43 138.319 70.066C138.067 70.69 137.767 71.182 137.419 71.542C137.131 71.842 136.801 72.094 136.429 72.298C136.057 72.502 135.601 72.664 135.061 72.784C134.533 72.892 133.879 72.97 133.099 73.018C132.331 73.066 131.401 73.09 130.309 73.09ZM135.061 60.886C134.689 60.886 134.371 60.76 134.107 60.508C133.855 60.256 133.729 59.944 133.729 59.572C133.729 59.2 133.855 58.882 134.107 58.618C134.371 58.354 134.689 58.222 135.061 58.222C135.421 58.222 135.727 58.354 135.979 58.618C136.243 58.882 136.375 59.2 136.375 59.572C136.375 59.944 136.243 60.256 135.979 60.508C135.727 60.76 135.421 60.886 135.061 60.886ZM146.488 63.352C146.488 62.956 146.464 62.56 146.416 62.164C146.38 61.768 146.332 61.396 146.272 61.048C146.212 60.688 146.158 60.376 146.11 60.112L148.63 59.752C148.678 59.992 148.726 60.31 148.774 60.706C148.822 61.102 148.864 61.522 148.9 61.966C148.936 62.398 148.954 62.812 148.954 63.208C148.954 63.832 148.9 64.42 148.792 64.972C148.684 65.524 148.522 66.046 148.306 66.538C148.09 67.018 147.82 67.48 147.496 67.924L147.172 68.356C146.86 68.74 146.494 69.118 146.074 69.49C145.666 69.862 145.216 70.222 144.724 70.57H145.894C146.302 70.57 146.614 70.546 146.83 70.498C147.046 70.45 147.19 70.384 147.262 70.3C147.346 70.204 147.388 70.096 147.388 69.976C147.388 69.76 147.202 69.442 146.83 69.022C146.458 68.59 145.942 68.098 145.282 67.546C144.622 66.982 143.848 66.388 142.96 65.764C142.084 65.128 141.136 64.492 140.116 63.856L141.43 61.93C142.846 62.806 144.04 63.61 145.012 64.342C145.996 65.074 146.8 65.74 147.424 66.34C148.06 66.94 148.552 67.486 148.9 67.978C149.248 68.47 149.488 68.914 149.62 69.31C149.752 69.694 149.818 70.042 149.818 70.354C149.818 70.702 149.764 71.038 149.656 71.362C149.548 71.674 149.374 71.956 149.134 72.208C148.894 72.448 148.582 72.64 148.198 72.784C147.814 72.928 147.34 73 146.776 73H141.484V70.588C142.72 69.7 143.698 68.86 144.418 68.068C145.15 67.276 145.678 66.496 146.002 65.728C146.326 64.96 146.488 64.168 146.488 63.352ZM139.954 61.66L139.648 60.4C140.068 60.328 140.38 60.268 140.584 60.22C140.8 60.172 141.028 60.118 141.268 60.058L141.088 60.508C140.776 60.4 140.476 60.19 140.188 59.878C139.912 59.554 139.774 59.188 139.774 58.78C139.774 58.348 139.87 58 140.062 57.736C140.254 57.472 140.5 57.28 140.8 57.16C141.1 57.04 141.412 56.98 141.736 56.98C141.916 56.98 142.084 56.992 142.24 57.016C142.408 57.04 142.558 57.076 142.69 57.124L142.546 58.42C142.426 58.396 142.306 58.372 142.186 58.348C142.066 58.324 141.934 58.312 141.79 58.312C141.634 58.312 141.49 58.366 141.358 58.474C141.238 58.57 141.178 58.69 141.178 58.834C141.178 59.038 141.25 59.218 141.394 59.374C141.538 59.53 141.706 59.656 141.898 59.752C142.102 59.836 142.27 59.884 142.402 59.896L141.412 60.004C141.736 59.92 142.042 59.836 142.33 59.752C142.618 59.656 142.888 59.56 143.14 59.464L143.5 60.67C143.2 60.778 142.846 60.898 142.438 61.03C142.042 61.15 141.628 61.264 141.196 61.372C140.776 61.48 140.362 61.576 139.954 61.66ZM152.754 73L152.376 59.824H154.896L155.274 73H152.754ZM168.544 73.378L169.012 70.858C170.152 70.87 171.07 70.84 171.766 70.768C172.474 70.684 173.008 70.534 173.368 70.318C173.74 70.09 173.98 69.772 174.088 69.364C174.208 68.944 174.25 68.41 174.214 67.762L173.818 59.824H176.338L176.734 67.888C176.794 68.98 176.716 69.886 176.5 70.606C176.284 71.314 175.876 71.872 175.276 72.28C174.676 72.676 173.83 72.958 172.738 73.126C171.646 73.294 170.248 73.378 168.544 73.378ZM167.68 69.112L167.212 67.33C167.632 67.222 167.974 67.126 168.238 67.042C168.514 66.958 168.718 66.874 168.85 66.79C168.982 66.706 169.048 66.622 169.048 66.538C169.048 66.43 168.994 66.316 168.886 66.196C168.778 66.076 168.658 65.938 168.526 65.782C168.394 65.626 168.274 65.452 168.166 65.26C168.058 65.068 168.004 64.846 168.004 64.594C168.004 64.294 168.088 64.012 168.256 63.748C168.424 63.472 168.694 63.208 169.066 62.956C169.45 62.692 169.954 62.434 170.578 62.182L171.352 63.784C170.848 63.988 170.506 64.168 170.326 64.324C170.158 64.468 170.074 64.606 170.074 64.738C170.074 64.846 170.128 64.972 170.236 65.116C170.344 65.26 170.464 65.422 170.596 65.602C170.74 65.77 170.866 65.962 170.974 66.178C171.082 66.382 171.136 66.604 171.136 66.844C171.136 67.036 171.094 67.234 171.01 67.438C170.938 67.642 170.782 67.84 170.542 68.032C170.314 68.224 169.972 68.41 169.516 68.59C169.06 68.77 168.448 68.944 167.68 69.112ZM168.544 73.378C167.248 73.378 166.15 73.276 165.25 73.072C164.362 72.88 163.636 72.604 163.072 72.244C162.52 71.872 162.118 71.44 161.866 70.948C161.614 70.456 161.488 69.916 161.488 69.328C161.488 68.944 161.518 68.56 161.578 68.176C161.65 67.78 161.734 67.396 161.83 67.024C161.938 66.652 162.034 66.316 162.118 66.016L164.368 66.538C164.32 66.754 164.266 66.988 164.206 67.24C164.146 67.492 164.098 67.738 164.062 67.978C164.026 68.206 164.008 68.416 164.008 68.608C164.008 69.052 164.164 69.448 164.476 69.796C164.8 70.132 165.328 70.396 166.06 70.588C166.792 70.768 167.776 70.858 169.012 70.858L169.372 72.802L168.544 73.378ZM177.495 77.14L176.577 74.836C177.609 74.476 178.443 74.08 179.079 73.648C179.727 73.216 180.201 72.754 180.501 72.262C180.813 71.77 180.969 71.26 180.969 70.732C180.969 70.396 180.921 70.048 180.825 69.688C180.729 69.316 180.591 68.926 180.411 68.518C180.243 68.11 180.039 67.684 179.799 67.24L182.157 66.106C182.577 66.91 182.901 67.678 183.129 68.41C183.369 69.142 183.489 69.826 183.489 70.462C183.489 71.05 183.411 71.614 183.255 72.154C183.111 72.694 182.883 73.198 182.571 73.666C182.271 74.146 181.881 74.596 181.401 75.016C180.921 75.436 180.357 75.82 179.709 76.168C179.061 76.528 178.323 76.852 177.495 77.14ZM190.278 73.09C189.162 73.09 188.298 72.976 187.686 72.748C187.086 72.52 186.666 72.166 186.426 71.686C186.186 71.194 186.048 70.576 186.012 69.832L185.634 59.824H188.154L188.532 68.626C188.556 69.178 188.616 69.592 188.712 69.868C188.808 70.144 188.988 70.33 189.252 70.426C189.528 70.522 189.93 70.57 190.458 70.57C190.914 70.57 191.238 70.69 191.43 70.93C191.634 71.158 191.736 71.446 191.736 71.794C191.736 72.166 191.61 72.478 191.358 72.73C191.106 72.97 190.746 73.09 190.278 73.09ZM190.303 73.09L190.483 70.57C190.915 70.57 191.287 70.528 191.599 70.444C191.911 70.36 192.175 70.192 192.391 69.94C192.607 69.676 192.787 69.292 192.931 68.788C193.087 68.284 193.225 67.612 193.345 66.772L195.703 67.168C195.679 67.348 195.643 67.558 195.595 67.798C195.559 68.038 195.523 68.284 195.487 68.536C195.463 68.776 195.451 69.004 195.451 69.22C195.451 69.436 195.493 69.628 195.577 69.796C195.661 69.964 195.793 70.108 195.973 70.228C196.165 70.336 196.411 70.42 196.711 70.48C197.023 70.54 197.401 70.57 197.845 70.57C198.301 70.57 198.625 70.69 198.817 70.93C199.009 71.158 199.105 71.446 199.105 71.794C199.105 72.166 198.979 72.478 198.727 72.73C198.487 72.97 198.133 73.09 197.665 73.09C197.125 73.09 196.633 73.048 196.189 72.964C195.757 72.88 195.379 72.742 195.055 72.55C194.743 72.346 194.485 72.082 194.281 71.758C194.089 71.422 193.969 71.014 193.921 70.534H194.785C194.569 71.11 194.293 71.572 193.957 71.92C193.633 72.256 193.267 72.508 192.859 72.676C192.451 72.844 192.025 72.952 191.581 73C191.149 73.06 190.723 73.09 190.303 73.09ZM195.325 77.266C194.977 77.266 194.677 77.14 194.425 76.888C194.185 76.648 194.065 76.36 194.065 76.024C194.065 75.676 194.185 75.376 194.425 75.124C194.677 74.872 194.977 74.746 195.325 74.746C195.661 74.746 195.949 74.872 196.189 75.124C196.429 75.376 196.549 75.676 196.549 76.024C196.549 76.36 196.429 76.648 196.189 76.888C195.949 77.14 195.661 77.266 195.325 77.266ZM192.211 77.266C191.863 77.266 191.563 77.14 191.311 76.888C191.071 76.648 190.951 76.36 190.951 76.024C190.951 75.676 191.071 75.376 191.311 75.124C191.563 74.872 191.863 74.746 192.211 74.746C192.547 74.746 192.835 74.872 193.075 75.124C193.315 75.376 193.435 75.676 193.435 76.024C193.435 76.36 193.315 76.648 193.075 76.888C192.835 77.14 192.547 77.266 192.211 77.266ZM197.668 73.09L197.848 70.57C198.28 70.57 198.652 70.528 198.964 70.444C199.276 70.36 199.54 70.192 199.756 69.94C199.972 69.676 200.152 69.292 200.296 68.788C200.452 68.284 200.59 67.612 200.71 66.772L203.068 67.168C203.044 67.348 203.008 67.558 202.96 67.798C202.924 68.038 202.888 68.284 202.852 68.536C202.828 68.776 202.816 69.004 202.816 69.22C202.816 69.436 202.858 69.628 202.942 69.796C203.026 69.964 203.158 70.108 203.338 70.228C203.53 70.336 203.776 70.42 204.076 70.48C204.388 70.54 204.766 70.57 205.21 70.57C205.666 70.57 205.99 70.69 206.182 70.93C206.374 71.158 206.47 71.446 206.47 71.794C206.47 72.166 206.344 72.478 206.092 72.73C205.852 72.97 205.498 73.09 205.03 73.09C204.49 73.09 203.998 73.048 203.554 72.964C203.122 72.88 202.744 72.742 202.42 72.55C202.108 72.346 201.85 72.082 201.646 71.758C201.454 71.422 201.334 71.014 201.286 70.534H202.15C201.934 71.11 201.658 71.572 201.322 71.92C200.998 72.256 200.632 72.508 200.224 72.676C199.816 72.844 199.39 72.952 198.946 73C198.514 73.06 198.088 73.09 197.668 73.09ZM203.446 65.152C203.098 65.152 202.798 65.032 202.546 64.792C202.306 64.54 202.186 64.246 202.186 63.91C202.186 63.562 202.306 63.262 202.546 63.01C202.798 62.758 203.098 62.632 203.446 62.632C203.782 62.632 204.07 62.758 204.31 63.01C204.55 63.262 204.67 63.562 204.67 63.91C204.67 64.246 204.55 64.54 204.31 64.792C204.07 65.032 203.782 65.152 203.446 65.152ZM200.332 65.134C199.984 65.134 199.684 65.014 199.432 64.774C199.192 64.522 199.072 64.228 199.072 63.892C199.072 63.544 199.192 63.244 199.432 62.992C199.684 62.74 199.984 62.614 200.332 62.614C200.668 62.614 200.956 62.74 201.196 62.992C201.436 63.244 201.556 63.544 201.556 63.892C201.556 64.228 201.436 64.522 201.196 64.774C200.956 65.014 200.668 65.134 200.332 65.134ZM205.033 73.09L205.213 70.57C205.861 70.57 206.503 70.534 207.139 70.462C207.775 70.39 208.393 70.282 208.993 70.138C209.593 69.994 210.163 69.808 210.703 69.58C211.255 69.352 211.771 69.076 212.251 68.752C211.891 68.536 211.501 68.35 211.081 68.194C210.661 68.038 210.211 67.924 209.731 67.852C209.263 67.768 208.765 67.726 208.237 67.726C208.045 67.726 207.841 67.732 207.625 67.744C207.421 67.756 207.211 67.78 206.995 67.816C206.779 67.84 206.563 67.876 206.347 67.924L205.987 65.458C206.335 65.362 206.701 65.296 207.085 65.26C207.481 65.212 207.829 65.188 208.129 65.188C208.777 65.188 209.371 65.26 209.911 65.404C210.463 65.548 210.967 65.728 211.423 65.944C211.891 66.16 212.323 66.376 212.719 66.592C213.127 66.808 213.511 66.988 213.871 67.132C214.243 67.276 214.603 67.348 214.951 67.348H215.617L215.905 69.742C215.389 69.766 214.903 69.868 214.447 70.048C214.003 70.216 213.559 70.432 213.115 70.696C212.683 70.948 212.215 71.212 211.711 71.488C211.219 71.764 210.661 72.022 210.037 72.262C209.413 72.502 208.693 72.7 207.877 72.856C207.061 73.012 206.113 73.09 205.033 73.09ZM208.147 63.514C207.775 63.514 207.457 63.388 207.193 63.136C206.941 62.884 206.815 62.572 206.815 62.2C206.815 61.828 206.941 61.51 207.193 61.246C207.457 60.982 207.775 60.85 208.147 60.85C208.507 60.85 208.813 60.982 209.065 61.246C209.329 61.51 209.461 61.828 209.461 62.2C209.461 62.572 209.329 62.884 209.065 63.136C208.813 63.388 208.507 63.514 208.147 63.514ZM217.794 73L217.416 59.824H219.936L220.314 73H217.794ZM217.686 78.562L217.38 77.302C217.8 77.23 218.112 77.17 218.316 77.122C218.532 77.074 218.76 77.02 219 76.96L218.82 77.41C218.508 77.302 218.208 77.086 217.92 76.762C217.644 76.45 217.506 76.09 217.506 75.682C217.506 75.25 217.602 74.902 217.794 74.638C217.986 74.374 218.232 74.182 218.532 74.062C218.832 73.942 219.144 73.882 219.468 73.882C219.648 73.882 219.816 73.894 219.972 73.918C220.14 73.942 220.29 73.978 220.422 74.026L220.278 75.322C220.158 75.298 220.038 75.274 219.918 75.25C219.798 75.226 219.666 75.214 219.522 75.214C219.366 75.214 219.222 75.262 219.09 75.358C218.97 75.466 218.91 75.592 218.91 75.736C218.91 75.94 218.982 76.12 219.126 76.276C219.27 76.432 219.438 76.552 219.63 76.636C219.834 76.732 220.002 76.786 220.134 76.798L219.144 76.906C219.468 76.822 219.774 76.732 220.062 76.636C220.35 76.552 220.62 76.462 220.872 76.366L221.232 77.572C220.932 77.68 220.578 77.794 220.17 77.914C219.774 78.046 219.36 78.166 218.928 78.274C218.508 78.382 218.094 78.478 217.686 78.562Z" fill="#3D7D7D"/>
<path d="M82.074 96.07C81.3273 96.07 80.7533 95.986 80.352 95.818C79.96 95.65 79.6893 95.3887 79.54 95.034C79.3907 94.6793 79.3067 94.222 79.288 93.662L79.008 86.004H80.156L80.436 93.214C80.4547 93.6713 80.4967 94.026 80.562 94.278C80.6367 94.5207 80.7953 94.6887 81.038 94.782C81.29 94.8753 81.682 94.922 82.214 94.922C82.41 94.922 82.55 94.978 82.634 95.09C82.7273 95.1927 82.774 95.3187 82.774 95.468C82.774 95.6173 82.7087 95.7573 82.578 95.888C82.4473 96.0093 82.2793 96.07 82.074 96.07ZM82.0742 96.07L82.2142 94.922C82.6062 94.922 82.9142 94.8893 83.1382 94.824C83.3622 94.7493 83.5302 94.614 83.6422 94.418C83.7636 94.2127 83.8662 93.9187 83.9502 93.536C84.0342 93.1533 84.1369 92.654 84.2582 92.038L85.3502 92.248C85.3129 92.416 85.2709 92.6027 85.2242 92.808C85.1776 93.0133 85.1356 93.2187 85.0982 93.424C85.0702 93.62 85.0562 93.7927 85.0562 93.942C85.0562 94.1287 85.0982 94.2967 85.1822 94.446C85.2662 94.5953 85.4482 94.712 85.7282 94.796C86.0082 94.88 86.4376 94.922 87.0162 94.922C87.2122 94.922 87.3522 94.978 87.4362 95.09C87.5296 95.1927 87.5762 95.3187 87.5762 95.468C87.5762 95.6173 87.5109 95.7573 87.3802 95.888C87.2496 96.0093 87.0816 96.07 86.8762 96.07C86.2696 96.07 85.7936 96.0187 85.4482 95.916C85.1029 95.804 84.8509 95.6407 84.6922 95.426C84.5336 95.202 84.4262 94.9313 84.3702 94.614L84.7902 94.642C84.6409 94.9407 84.4776 95.1833 84.3002 95.37C84.1322 95.5567 83.9456 95.7013 83.7402 95.804C83.5349 95.9067 83.2969 95.9767 83.0262 96.014C82.7556 96.0513 82.4382 96.07 82.0742 96.07ZM84.2582 90.596C84.0622 90.596 83.8942 90.5307 83.7542 90.4C83.6236 90.26 83.5582 90.0967 83.5582 89.91C83.5582 89.7233 83.6236 89.56 83.7542 89.42C83.8942 89.28 84.0622 89.21 84.2582 89.21C84.4449 89.21 84.6036 89.28 84.7342 89.42C84.8742 89.56 84.9442 89.7233 84.9442 89.91C84.9442 90.0967 84.8742 90.26 84.7342 90.4C84.6036 90.5307 84.4449 90.596 84.2582 90.596ZM86.873 96.07L87.013 94.922C87.2464 94.922 87.4844 94.922 87.727 94.922C87.979 94.9127 88.2264 94.8987 88.469 94.88C88.7117 94.8613 88.945 94.838 89.169 94.81C89.393 94.782 89.5937 94.74 89.771 94.684C90.0977 94.5813 90.3964 94.446 90.667 94.278C90.947 94.11 91.171 93.9047 91.339 93.662C91.5164 93.4193 91.605 93.1393 91.605 92.822C91.605 92.6073 91.5537 92.388 91.451 92.164C91.3484 91.9307 91.2084 91.7347 91.031 91.576C90.8537 91.4173 90.6484 91.338 90.415 91.338C90.191 91.338 89.981 91.4127 89.785 91.562C89.5984 91.7113 89.4444 91.9073 89.323 92.15C89.211 92.3833 89.155 92.626 89.155 92.878C89.155 93.1767 89.2297 93.4473 89.379 93.69C89.5377 93.9233 89.729 94.124 89.953 94.292C90.177 94.46 90.401 94.5953 90.625 94.698L89.295 95.09C89.1457 94.978 88.9684 94.824 88.763 94.628C88.567 94.4227 88.3897 94.1707 88.231 93.872C88.0817 93.5733 88.007 93.2327 88.007 92.85C88.007 92.4767 88.0724 92.1313 88.203 91.814C88.343 91.4873 88.525 91.2027 88.749 90.96C88.9824 90.7173 89.2437 90.5307 89.533 90.4C89.8317 90.26 90.1397 90.19 90.457 90.19C90.9144 90.19 91.3157 90.316 91.661 90.568C92.0064 90.82 92.2724 91.142 92.459 91.534C92.655 91.9167 92.753 92.318 92.753 92.738C92.753 93.1393 92.6784 93.5033 92.529 93.83C92.3797 94.1473 92.1744 94.432 91.913 94.684C91.661 94.936 91.3624 95.1507 91.017 95.328C90.681 95.5053 90.3217 95.65 89.939 95.762C89.7244 95.8273 89.491 95.8787 89.239 95.916C88.9964 95.9533 88.7397 95.9813 88.469 96C88.1984 96.028 87.9277 96.0467 87.657 96.056C87.3864 96.0653 87.125 96.07 86.873 96.07ZM93.803 96.07C93.3364 96.07 92.851 96.042 92.347 95.986C91.8524 95.9207 91.381 95.8413 90.933 95.748C90.4944 95.6453 90.1304 95.5333 89.841 95.412L90.807 94.712C91.087 94.7493 91.4184 94.7867 91.801 94.824C92.1837 94.852 92.5664 94.8753 92.949 94.894C93.3317 94.9127 93.663 94.922 93.943 94.922C94.139 94.922 94.279 94.978 94.363 95.09C94.4564 95.1927 94.503 95.3187 94.503 95.468C94.503 95.6173 94.4377 95.7573 94.307 95.888C94.1764 96.0093 94.0084 96.07 93.803 96.07ZM91.311 88.748C91.115 88.748 90.947 88.6827 90.807 88.552C90.6764 88.412 90.611 88.2487 90.611 88.062C90.611 87.8753 90.6764 87.712 90.807 87.572C90.947 87.432 91.115 87.362 91.311 87.362C91.4977 87.362 91.6564 87.432 91.787 87.572C91.927 87.712 91.997 87.8753 91.997 88.062C91.997 88.2487 91.927 88.412 91.787 88.552C91.6564 88.6827 91.4977 88.748 91.311 88.748ZM89.393 88.748C89.197 88.748 89.029 88.6827 88.889 88.552C88.7584 88.412 88.693 88.2487 88.693 88.062C88.693 87.8753 88.7584 87.712 88.889 87.572C89.029 87.432 89.197 87.362 89.393 87.362C89.5797 87.362 89.7384 87.432 89.869 87.572C90.009 87.712 90.079 87.8753 90.079 88.062C90.079 88.2487 90.009 88.412 89.869 88.552C89.7384 88.6827 89.5797 88.748 89.393 88.748ZM93.8047 96.07L93.9447 94.922C94.4114 94.922 94.7754 94.8893 95.0367 94.824C95.298 94.7493 95.494 94.614 95.6247 94.418C95.7647 94.2127 95.8767 93.9187 95.9607 93.536C96.0447 93.1533 96.1474 92.654 96.2687 92.038L97.3607 92.248C97.3234 92.416 97.2814 92.6027 97.2347 92.808C97.188 93.0133 97.146 93.2187 97.1087 93.424C97.0807 93.62 97.0667 93.7927 97.0667 93.942C97.0667 94.082 97.076 94.2127 97.0947 94.334C97.1134 94.4553 97.1834 94.558 97.3047 94.642C97.426 94.726 97.6314 94.796 97.9207 94.852C98.21 94.8987 98.6254 94.922 99.1667 94.922C99.3627 94.922 99.5027 94.978 99.5867 95.09C99.68 95.1927 99.7267 95.3187 99.7267 95.468C99.7267 95.6173 99.6614 95.7573 99.5307 95.888C99.4 96.0093 99.232 96.07 99.0267 96.07C98.4574 96.07 98.0047 96.042 97.6687 95.986C97.3327 95.9207 97.076 95.8273 96.8987 95.706C96.7307 95.5847 96.6094 95.4353 96.5347 95.258C96.4694 95.0713 96.418 94.8567 96.3807 94.614L96.8007 94.642C96.6514 94.9407 96.488 95.1833 96.3107 95.37C96.1427 95.5567 95.9467 95.7013 95.7227 95.804C95.4987 95.9067 95.228 95.9767 94.9107 96.014C94.6027 96.0513 94.234 96.07 93.8047 96.07ZM97.3327 98.716C97.1367 98.716 96.9687 98.646 96.8287 98.506C96.698 98.3753 96.6327 98.2167 96.6327 98.03C96.6327 97.8433 96.698 97.68 96.8287 97.54C96.9687 97.4 97.1367 97.33 97.3327 97.33C97.5194 97.33 97.678 97.4 97.8087 97.54C97.9487 97.68 98.0187 97.8433 98.0187 98.03C98.0187 98.2167 97.9487 98.3753 97.8087 98.506C97.678 98.646 97.5194 98.716 97.3327 98.716ZM95.4147 98.716C95.2187 98.716 95.0507 98.646 94.9107 98.506C94.78 98.3753 94.7147 98.2167 94.7147 98.03C94.7147 97.8433 94.78 97.68 94.9107 97.54C95.0507 97.4 95.2187 97.33 95.4147 97.33C95.6014 97.33 95.76 97.4 95.8907 97.54C96.0307 97.68 96.1007 97.8433 96.1007 98.03C96.1007 98.2167 96.0307 98.3753 95.8907 98.506C95.76 98.646 95.6014 98.716 95.4147 98.716ZM99.0273 96.07L99.1673 94.922C99.5593 94.922 99.8673 94.8893 100.091 94.824C100.315 94.7493 100.483 94.614 100.595 94.418C100.717 94.2127 100.819 93.9187 100.903 93.536C100.987 93.1533 101.09 92.654 101.211 92.038L102.303 92.248C102.266 92.416 102.224 92.6027 102.177 92.808C102.131 93.0133 102.089 93.2187 102.051 93.424C102.023 93.62 102.009 93.7927 102.009 93.942C102.009 94.1287 102.051 94.2967 102.135 94.446C102.219 94.5953 102.401 94.712 102.681 94.796C102.961 94.88 103.391 94.922 103.969 94.922C104.165 94.922 104.305 94.978 104.389 95.09C104.483 95.1927 104.529 95.3187 104.529 95.468C104.529 95.6173 104.464 95.7573 104.333 95.888C104.203 96.0093 104.035 96.07 103.829 96.07C103.223 96.07 102.747 96.0187 102.401 95.916C102.056 95.804 101.804 95.6407 101.645 95.426C101.487 95.202 101.379 94.9313 101.323 94.614L101.743 94.642C101.594 94.9407 101.431 95.1833 101.253 95.37C101.085 95.5567 100.899 95.7013 100.693 95.804C100.488 95.9067 100.25 95.9767 99.9793 96.014C99.7087 96.0513 99.3913 96.07 99.0273 96.07ZM101.407 98.674C101.211 98.674 101.043 98.604 100.903 98.464C100.773 98.3333 100.707 98.1747 100.707 97.988C100.707 97.8013 100.773 97.638 100.903 97.498C101.043 97.358 101.211 97.288 101.407 97.288C101.594 97.288 101.753 97.358 101.883 97.498C102.023 97.638 102.093 97.8013 102.093 97.988C102.093 98.1747 102.023 98.3333 101.883 98.464C101.753 98.604 101.594 98.674 101.407 98.674ZM113.766 96.07C113.524 96.07 113.216 96.0467 112.842 96C112.478 95.944 112.105 95.8507 111.722 95.72C111.349 95.5893 111.032 95.4073 110.77 95.174L111.918 94.6C112.245 94.7307 112.581 94.8193 112.926 94.866C113.281 94.9033 113.608 94.922 113.906 94.922C114.102 94.922 114.242 94.978 114.326 95.09C114.42 95.1927 114.466 95.3187 114.466 95.468C114.466 95.6173 114.401 95.7573 114.27 95.888C114.14 96.0093 113.972 96.07 113.766 96.07ZM103.826 96.07L103.966 94.922H106.892C107.704 94.922 108.404 94.8893 108.992 94.824C109.59 94.7493 110.08 94.642 110.462 94.502C110.845 94.362 111.13 94.1847 111.316 93.97C111.503 93.746 111.596 93.4847 111.596 93.186C111.596 93.0273 111.545 92.8547 111.442 92.668C111.34 92.4813 111.181 92.3227 110.966 92.192C110.752 92.052 110.467 91.982 110.112 91.982C109.664 91.982 109.216 92.0987 108.768 92.332C108.33 92.5653 107.91 92.8593 107.508 93.214C107.116 93.5593 106.766 93.914 106.458 94.278C106.15 94.642 105.903 94.9593 105.716 95.23L104.498 95.188C104.797 94.7027 105.152 94.208 105.562 93.704C105.982 93.1907 106.44 92.7193 106.934 92.29C107.438 91.8513 107.966 91.5013 108.516 91.24C109.067 90.9693 109.627 90.834 110.196 90.834C110.71 90.834 111.148 90.9413 111.512 91.156C111.886 91.3613 112.17 91.6413 112.366 91.996C112.572 92.3507 112.674 92.752 112.674 93.2C112.674 93.6387 112.516 94.082 112.198 94.53C111.881 94.9687 111.335 95.314 110.56 95.566C110.168 95.6967 109.72 95.7993 109.216 95.874C108.712 95.9487 108.138 96 107.494 96.028C106.85 96.056 106.118 96.07 105.296 96.07H103.826ZM105.156 94.684L104.876 86.004H106.01L106.29 93.704L105.156 94.684ZM113.766 96.07L113.906 94.922C114.456 94.922 114.886 94.9033 115.194 94.866C115.502 94.8193 115.721 94.712 115.852 94.544C115.982 94.3667 116.048 94.0913 116.048 93.718C116.048 93.4847 116.01 93.2093 115.936 92.892C115.861 92.5653 115.763 92.22 115.642 91.856C115.52 91.492 115.39 91.1327 115.25 90.778L116.384 90.358C116.505 90.6567 116.617 90.9973 116.72 91.38C116.832 91.7627 116.925 92.1407 117 92.514C117.074 92.8873 117.112 93.214 117.112 93.494C117.112 93.9607 117.046 94.3573 116.916 94.684C116.794 95.0107 116.598 95.2767 116.328 95.482C116.057 95.6873 115.707 95.8367 115.278 95.93C114.858 96.0233 114.354 96.07 113.766 96.07ZM116.818 88.902C116.622 88.902 116.454 88.8367 116.314 88.706C116.183 88.566 116.118 88.4027 116.118 88.216C116.118 88.0293 116.183 87.866 116.314 87.726C116.454 87.586 116.622 87.516 116.818 87.516C117.004 87.516 117.163 87.586 117.294 87.726C117.434 87.866 117.504 88.0293 117.504 88.216C117.504 88.4027 117.434 88.566 117.294 88.706C117.163 88.8367 117.004 88.902 116.818 88.902ZM114.9 88.902C114.704 88.902 114.536 88.8367 114.396 88.706C114.265 88.566 114.2 88.4027 114.2 88.216C114.2 88.0293 114.265 87.866 114.396 87.726C114.536 87.586 114.704 87.516 114.9 87.516C115.086 87.516 115.245 87.586 115.376 87.726C115.516 87.866 115.586 88.0293 115.586 88.216C115.586 88.4027 115.516 88.566 115.376 88.706C115.245 88.8367 115.086 88.902 114.9 88.902ZM122.006 96.014C122.006 95.79 122.025 95.552 122.062 95.3C122.109 95.0387 122.174 94.7633 122.258 94.474C122.351 94.1753 122.463 93.8627 122.594 93.536L123.602 93.928C123.509 94.1893 123.425 94.4367 123.35 94.67C123.285 94.9033 123.233 95.1227 123.196 95.328C123.168 95.5333 123.154 95.7293 123.154 95.916C123.154 96.308 123.238 96.6393 123.406 96.91C123.583 97.19 123.826 97.4187 124.134 97.596C124.442 97.7733 124.792 97.904 125.184 97.988C125.585 98.072 126.01 98.114 126.458 98.114C126.999 98.114 127.503 98.0673 127.97 97.974C128.446 97.8807 128.861 97.7453 129.216 97.568C129.58 97.4 129.865 97.204 130.07 96.98C130.275 96.7653 130.378 96.532 130.378 96.28C130.378 96.1587 130.331 96.0467 130.238 95.944C130.145 95.8413 130.005 95.7433 129.818 95.65C129.631 95.5567 129.407 95.468 129.146 95.384C128.885 95.2907 128.586 95.1973 128.25 95.104L128.516 93.942C129.001 94.1287 129.431 94.2873 129.804 94.418C130.177 94.5393 130.504 94.6373 130.784 94.712C131.064 94.7867 131.307 94.8427 131.512 94.88C131.717 94.908 131.89 94.922 132.03 94.922C132.226 94.922 132.366 94.978 132.45 95.09C132.543 95.1927 132.59 95.3187 132.59 95.468C132.59 95.6173 132.525 95.7573 132.394 95.888C132.263 96.0093 132.095 96.07 131.89 96.07C131.834 96.07 131.778 96.07 131.722 96.07C131.666 96.07 131.605 96.07 131.54 96.07C131.484 96.07 131.428 96.07 131.372 96.07C131.391 96.154 131.405 96.2193 131.414 96.266C131.423 96.322 131.428 96.392 131.428 96.476C131.428 96.8213 131.307 97.1573 131.064 97.484C130.831 97.8107 130.485 98.1047 130.028 98.366C129.571 98.6367 129.015 98.8513 128.362 99.01C127.718 99.1687 126.981 99.248 126.15 99.248C125.413 99.248 124.727 99.1267 124.092 98.884C123.467 98.6507 122.963 98.296 122.58 97.82C122.197 97.344 122.006 96.742 122.006 96.014ZM127.158 101.894C126.962 101.894 126.794 101.824 126.654 101.684C126.523 101.553 126.458 101.395 126.458 101.208C126.458 101.021 126.523 100.858 126.654 100.718C126.794 100.578 126.962 100.508 127.158 100.508C127.345 100.508 127.503 100.578 127.634 100.718C127.774 100.858 127.844 101.021 127.844 101.208C127.844 101.395 127.774 101.553 127.634 101.684C127.503 101.824 127.345 101.894 127.158 101.894ZM125.24 101.894C125.044 101.894 124.876 101.824 124.736 101.684C124.605 101.553 124.54 101.395 124.54 101.208C124.54 101.021 124.605 100.858 124.736 100.718C124.876 100.578 125.044 100.508 125.24 100.508C125.427 100.508 125.585 100.578 125.716 100.718C125.856 100.858 125.926 101.021 125.926 101.208C125.926 101.395 125.856 101.553 125.716 101.684C125.585 101.824 125.427 101.894 125.24 101.894ZM131.895 96.07L132.035 94.922C132.268 94.922 132.525 94.922 132.805 94.922C133.094 94.9127 133.383 94.9033 133.673 94.894C133.971 94.8847 134.247 94.866 134.499 94.838C134.751 94.8007 134.961 94.754 135.129 94.698C135.465 94.5767 135.726 94.4273 135.913 94.25C136.099 94.0633 136.23 93.8207 136.305 93.522C136.389 93.214 136.431 92.822 136.431 92.346C136.431 91.954 136.379 91.59 136.277 91.254C136.174 90.918 136.029 90.6473 135.843 90.442C135.656 90.2367 135.432 90.134 135.171 90.134C134.956 90.134 134.76 90.218 134.583 90.386C134.415 90.5447 134.279 90.75 134.177 91.002C134.083 91.254 134.037 91.506 134.037 91.758C134.037 91.954 134.074 92.122 134.149 92.262C134.233 92.402 134.368 92.514 134.555 92.598C134.741 92.6727 134.984 92.71 135.283 92.71C135.553 92.71 135.824 92.682 136.095 92.626C136.375 92.57 136.613 92.4953 136.809 92.402L136.865 93.382C136.715 93.4847 136.547 93.5687 136.361 93.634C136.174 93.6993 135.978 93.746 135.773 93.774C135.567 93.802 135.362 93.816 135.157 93.816C134.681 93.816 134.275 93.7413 133.939 93.592C133.612 93.4333 133.36 93.2233 133.183 92.962C133.015 92.6913 132.931 92.3833 132.931 92.038C132.931 91.6833 132.987 91.3287 133.099 90.974C133.211 90.61 133.369 90.2787 133.575 89.98C133.78 89.6813 134.027 89.4433 134.317 89.266C134.606 89.0793 134.928 88.986 135.283 88.986C135.787 88.986 136.202 89.1493 136.529 89.476C136.865 89.8027 137.112 90.232 137.271 90.764C137.439 91.2867 137.523 91.842 137.523 92.43C137.523 93.13 137.401 93.732 137.159 94.236C136.925 94.7307 136.533 95.1413 135.983 95.468C135.768 95.5893 135.507 95.692 135.199 95.776C134.9 95.8507 134.569 95.9113 134.205 95.958C133.85 96.0047 133.477 96.0327 133.085 96.042C132.693 96.0607 132.296 96.07 131.895 96.07ZM135.017 87.544C134.821 87.544 134.653 87.4787 134.513 87.348C134.382 87.208 134.317 87.0447 134.317 86.858C134.317 86.6713 134.382 86.508 134.513 86.368C134.653 86.228 134.821 86.158 135.017 86.158C135.203 86.158 135.362 86.228 135.493 86.368C135.633 86.508 135.703 86.6713 135.703 86.858C135.703 87.0447 135.633 87.208 135.493 87.348C135.362 87.4787 135.203 87.544 135.017 87.544ZM146.357 99.808C145.797 99.808 145.27 99.7427 144.775 99.612C144.28 99.4907 143.837 99.2947 143.445 99.024C143.062 98.7627 142.759 98.422 142.535 98.002C142.32 97.582 142.213 97.078 142.213 96.49C142.213 96.35 142.227 96.154 142.255 95.902C142.292 95.6407 142.367 95.328 142.479 94.964C142.591 94.6 142.768 94.1987 143.011 93.76L144.033 94.236C143.893 94.5253 143.776 94.7913 143.683 95.034C143.59 95.2673 143.52 95.4867 143.473 95.692C143.436 95.888 143.417 96.084 143.417 96.28C143.417 96.8587 143.562 97.3207 143.851 97.666C144.15 98.0113 144.542 98.2587 145.027 98.408C145.522 98.5573 146.068 98.632 146.665 98.632C147.094 98.632 147.496 98.5993 147.869 98.534C148.242 98.4687 148.578 98.3753 148.877 98.254C149.185 98.1327 149.456 97.988 149.689 97.82C149.922 97.652 150.118 97.4653 150.277 97.26C150.436 97.064 150.552 96.8493 150.627 96.616C150.72 96.336 150.786 96.028 150.823 95.692C150.87 95.356 150.893 95.0993 150.893 94.922C150.893 94.3993 150.837 93.9607 150.725 93.606C150.613 93.242 150.459 92.9667 150.263 92.78C150.076 92.5933 149.866 92.5 149.633 92.5C149.484 92.5 149.339 92.5467 149.199 92.64C149.068 92.724 148.952 92.8407 148.849 92.99C148.746 93.1393 148.662 93.312 148.597 93.508C148.541 93.6947 148.513 93.8907 148.513 94.096C148.513 94.264 148.55 94.404 148.625 94.516C148.7 94.6187 148.807 94.7027 148.947 94.768C149.096 94.824 149.283 94.866 149.507 94.894C149.731 94.9127 149.992 94.922 150.291 94.922H153.245C153.441 94.922 153.581 94.978 153.665 95.09C153.758 95.1927 153.805 95.3187 153.805 95.468C153.805 95.6173 153.74 95.7573 153.609 95.888C153.478 96.0093 153.31 96.07 153.105 96.07H149.759C149.442 96.07 149.143 96.0373 148.863 95.972C148.583 95.9067 148.331 95.804 148.107 95.664C147.892 95.524 147.72 95.342 147.589 95.118C147.468 94.894 147.402 94.6233 147.393 94.306C147.384 93.9607 147.435 93.6153 147.547 93.27C147.668 92.9247 147.836 92.6073 148.051 92.318C148.266 92.0287 148.518 91.8 148.807 91.632C149.096 91.4547 149.409 91.366 149.745 91.366C150.174 91.366 150.562 91.4967 150.907 91.758C151.252 92.0193 151.528 92.43 151.733 92.99C151.938 93.5407 152.041 94.25 152.041 95.118C152.041 95.37 151.99 95.7153 151.887 96.154C151.794 96.5927 151.654 97.0127 151.467 97.414C151.243 97.8527 150.958 98.2213 150.613 98.52C150.268 98.828 149.871 99.0753 149.423 99.262C148.984 99.458 148.508 99.598 147.995 99.682C147.482 99.766 146.936 99.808 146.357 99.808ZM150.739 89.924C150.543 89.924 150.375 89.8587 150.235 89.728C150.104 89.588 150.039 89.4247 150.039 89.238C150.039 89.0513 150.104 88.888 150.235 88.748C150.375 88.608 150.543 88.538 150.739 88.538C150.926 88.538 151.084 88.608 151.215 88.748C151.355 88.888 151.425 89.0513 151.425 89.238C151.425 89.4247 151.355 89.588 151.215 89.728C151.084 89.8587 150.926 89.924 150.739 89.924ZM148.821 89.924C148.625 89.924 148.457 89.8587 148.317 89.728C148.186 89.588 148.121 89.4247 148.121 89.238C148.121 89.0513 148.186 88.888 148.317 88.748C148.457 88.608 148.625 88.538 148.821 88.538C149.008 88.538 149.166 88.608 149.297 88.748C149.437 88.888 149.507 89.0513 149.507 89.238C149.507 89.4247 149.437 89.588 149.297 89.728C149.166 89.8587 149.008 89.924 148.821 89.924ZM153.1 96.07L153.24 94.922C153.697 94.922 154.061 94.894 154.332 94.838C154.602 94.782 154.798 94.67 154.92 94.502C155.041 94.3247 155.102 94.0633 155.102 93.718C155.102 93.4847 155.064 93.2093 154.99 92.892C154.915 92.5653 154.817 92.22 154.696 91.856C154.574 91.492 154.444 91.1327 154.304 90.778L155.438 90.358C155.559 90.6567 155.671 90.9973 155.774 91.38C155.886 91.7627 155.979 92.1407 156.054 92.514C156.128 92.8873 156.166 93.214 156.166 93.494C156.166 93.8673 156.124 94.1987 156.04 94.488C155.965 94.768 155.848 95.0107 155.69 95.216C155.531 95.412 155.326 95.5753 155.074 95.706C154.831 95.8273 154.546 95.9207 154.22 95.986C153.893 96.042 153.52 96.07 153.1 96.07ZM153.618 88.804L153.45 88.048C153.692 87.992 153.888 87.9453 154.038 87.908C154.187 87.8707 154.355 87.8287 154.542 87.782L154.472 88.076C154.229 88.0013 153.996 87.8427 153.772 87.6C153.557 87.3573 153.45 87.082 153.45 86.774C153.45 86.494 153.515 86.2607 153.646 86.074C153.786 85.878 153.963 85.7333 154.178 85.64C154.402 85.5467 154.64 85.5 154.892 85.5C154.994 85.5 155.102 85.5093 155.214 85.528C155.335 85.5467 155.447 85.5747 155.55 85.612L155.438 86.312C155.344 86.2933 155.256 86.2747 155.172 86.256C155.088 86.2373 154.994 86.228 154.892 86.228C154.677 86.228 154.509 86.2747 154.388 86.368C154.266 86.452 154.206 86.5733 154.206 86.732C154.206 86.928 154.266 87.096 154.388 87.236C154.518 87.376 154.663 87.488 154.822 87.572C154.99 87.6467 155.125 87.684 155.228 87.684L154.654 87.74C154.906 87.6747 155.139 87.6093 155.354 87.544C155.578 87.4693 155.778 87.3993 155.956 87.334L156.18 88.048C155.956 88.132 155.69 88.2207 155.382 88.314C155.083 88.4073 154.78 88.496 154.472 88.58C154.164 88.664 153.879 88.7387 153.618 88.804ZM160.933 96.07C160.187 96.07 159.613 95.986 159.211 95.818C158.819 95.65 158.549 95.3887 158.399 95.034C158.25 94.6793 158.166 94.222 158.147 93.662L157.867 86.004H159.015L159.295 93.214C159.314 93.6713 159.356 94.026 159.421 94.278C159.496 94.5207 159.655 94.6887 159.897 94.782C160.149 94.8753 160.541 94.922 161.073 94.922C161.269 94.922 161.409 94.978 161.493 95.09C161.587 95.1927 161.633 95.3187 161.633 95.468C161.633 95.6173 161.568 95.7573 161.437 95.888C161.307 96.0093 161.139 96.07 160.933 96.07ZM160.934 96.07L161.074 94.922C161.372 94.922 161.615 94.9033 161.802 94.866C161.988 94.8193 162.142 94.712 162.264 94.544C162.394 94.3667 162.516 94.0913 162.628 93.718C162.74 93.3447 162.87 92.822 163.02 92.15L164.07 92.444C164.032 92.6027 163.99 92.7847 163.944 92.99C163.897 93.186 163.855 93.3913 163.818 93.606C163.78 93.8113 163.762 94.0027 163.762 94.18C163.762 94.4133 163.85 94.5953 164.028 94.726C164.205 94.8567 164.527 94.922 164.994 94.922C165.274 94.922 165.502 94.8987 165.68 94.852C165.857 94.8053 166.002 94.6933 166.114 94.516C166.235 94.3387 166.342 94.054 166.436 93.662C166.529 93.27 166.627 92.7333 166.73 92.052L167.794 92.248C167.766 92.416 167.733 92.6213 167.696 92.864C167.658 93.1067 167.621 93.3493 167.584 93.592C167.556 93.8253 167.542 94.0213 167.542 94.18C167.542 94.3107 167.57 94.4367 167.626 94.558C167.691 94.67 167.812 94.7587 167.99 94.824C168.176 94.8893 168.452 94.922 168.816 94.922C169.086 94.922 169.32 94.8893 169.516 94.824C169.721 94.7587 169.875 94.6373 169.978 94.46C170.09 94.2827 170.146 94.0353 170.146 93.718C170.146 93.3633 170.062 92.92 169.894 92.388C169.735 91.8467 169.553 91.31 169.348 90.778L170.482 90.358C170.603 90.6567 170.715 90.9973 170.818 91.38C170.93 91.7627 171.023 92.1407 171.098 92.514C171.172 92.8873 171.21 93.214 171.21 93.494C171.21 93.9233 171.154 94.3013 171.042 94.628C170.93 94.9547 170.771 95.2253 170.566 95.44C170.36 95.6453 170.108 95.804 169.81 95.916C169.511 96.0187 169.175 96.07 168.802 96.07C168.363 96.07 168.004 96.0187 167.724 95.916C167.444 95.8133 167.229 95.6593 167.08 95.454C166.93 95.2393 166.832 94.9687 166.786 94.642H167.262C167.084 95.0433 166.898 95.3467 166.702 95.552C166.506 95.7573 166.263 95.8973 165.974 95.972C165.684 96.0373 165.302 96.07 164.826 96.07C164.592 96.07 164.34 96.0327 164.07 95.958C163.808 95.8833 163.58 95.7387 163.384 95.524C163.188 95.3 163.071 94.9687 163.034 94.53L163.454 94.446C163.295 94.922 163.099 95.2767 162.866 95.51C162.642 95.734 162.371 95.8833 162.054 95.958C161.736 96.0327 161.363 96.07 160.934 96.07ZM180.464 96H179.356V88.918C179.356 88.6491 179.356 88.4189 179.356 88.2275C179.361 88.0316 179.366 87.8538 179.37 87.6943C179.379 87.5303 179.391 87.3639 179.404 87.1953C179.263 87.3411 179.131 87.4665 179.008 87.5713C178.885 87.6715 178.732 87.7969 178.55 87.9473L177.408 88.8633L176.813 88.0908L179.521 86.0059H180.464V96ZM190.8 96H184.251V95.0498L186.924 92.3359C187.421 91.8346 187.838 91.388 188.175 90.9961C188.517 90.6042 188.776 90.2191 188.954 89.8408C189.132 89.458 189.221 89.0387 189.221 88.583C189.221 88.0179 189.052 87.5872 188.715 87.291C188.382 86.9902 187.942 86.8398 187.396 86.8398C186.917 86.8398 186.493 86.9219 186.124 87.0859C185.755 87.25 185.377 87.4824 184.989 87.7832L184.381 87.0176C184.645 86.7943 184.932 86.596 185.242 86.4229C185.557 86.2497 185.892 86.113 186.247 86.0127C186.607 85.9124 186.99 85.8623 187.396 85.8623C188.011 85.8623 188.542 85.9694 188.988 86.1836C189.435 86.3978 189.779 86.7031 190.021 87.0996C190.267 87.4961 190.39 87.9678 190.39 88.5146C190.39 89.0433 190.285 89.5355 190.075 89.9912C189.866 90.4424 189.572 90.8913 189.193 91.3379C188.815 91.7799 188.373 92.2493 187.867 92.7461L185.693 94.9131V94.9609H190.8V96ZM198.866 90.9893C198.866 91.8005 198.805 92.5251 198.682 93.1631C198.559 93.8011 198.365 94.3411 198.101 94.7832C197.836 95.2253 197.494 95.5625 197.075 95.7949C196.656 96.0228 196.152 96.1367 195.564 96.1367C194.822 96.1367 194.206 95.9339 193.719 95.5283C193.236 95.1227 192.873 94.5371 192.632 93.7715C192.395 93.0013 192.276 92.0739 192.276 90.9893C192.276 89.9229 192.383 89.0068 192.598 88.2412C192.816 87.471 193.167 86.8809 193.65 86.4707C194.133 86.056 194.771 85.8486 195.564 85.8486C196.316 85.8486 196.936 86.0537 197.424 86.4639C197.911 86.8695 198.274 87.4574 198.511 88.2275C198.748 88.9932 198.866 89.9137 198.866 90.9893ZM193.418 90.9893C193.418 91.9189 193.489 92.6937 193.63 93.3135C193.771 93.9333 193.999 94.3981 194.313 94.708C194.632 95.0133 195.049 95.166 195.564 95.166C196.079 95.166 196.494 95.0133 196.809 94.708C197.128 94.4027 197.358 93.9401 197.499 93.3203C197.645 92.7005 197.718 91.9235 197.718 90.9893C197.718 90.0732 197.647 89.3076 197.506 88.6924C197.365 88.0726 197.137 87.6077 196.822 87.2979C196.508 86.9834 196.089 86.8262 195.564 86.8262C195.04 86.8262 194.621 86.9834 194.307 87.2979C193.992 87.6077 193.764 88.0726 193.623 88.6924C193.486 89.3076 193.418 90.0732 193.418 90.9893ZM203.277 99.248L202.871 98.184C203.552 97.96 204.117 97.7033 204.565 97.414C205.022 97.1247 205.381 96.8167 205.643 96.49C205.913 96.1633 206.105 95.832 206.217 95.496C206.329 95.1507 206.385 94.8193 206.385 94.502C206.385 94.0447 206.282 93.5827 206.077 93.116C205.881 92.64 205.661 92.192 205.419 91.772L206.441 91.254C206.618 91.5807 206.772 91.9027 206.903 92.22C207.043 92.5373 207.164 92.836 207.267 93.116C207.379 93.396 207.467 93.6527 207.533 93.886C207.663 94.2873 207.831 94.5627 208.037 94.712C208.251 94.852 208.541 94.922 208.905 94.922C209.101 94.922 209.241 94.978 209.325 95.09C209.418 95.1927 209.465 95.3187 209.465 95.468C209.465 95.6173 209.399 95.7573 209.269 95.888C209.138 96.0093 208.97 96.07 208.765 96.07C208.354 96.07 208.018 96 207.757 95.86C207.505 95.7107 207.313 95.5193 207.183 95.286C207.052 95.0433 206.963 94.7913 206.917 94.53L207.365 94.782C207.365 95.398 207.225 95.958 206.945 96.462C206.674 96.9753 206.324 97.4187 205.895 97.792C205.465 98.1747 205.017 98.4873 204.551 98.73C204.084 98.9727 203.659 99.1453 203.277 99.248ZM208.771 96.07L208.911 94.922C209.378 94.922 209.742 94.8893 210.003 94.824C210.265 94.7493 210.461 94.614 210.591 94.418C210.731 94.2127 210.843 93.9187 210.927 93.536C211.011 93.1533 211.114 92.654 211.235 92.038L212.327 92.248C212.29 92.416 212.248 92.6027 212.201 92.808C212.155 93.0133 212.113 93.2187 212.075 93.424C212.047 93.62 212.033 93.7927 212.033 93.942C212.033 94.082 212.043 94.2127 212.061 94.334C212.08 94.4553 212.15 94.558 212.271 94.642C212.393 94.726 212.598 94.796 212.887 94.852C213.177 94.8987 213.592 94.922 214.133 94.922C214.329 94.922 214.469 94.978 214.553 95.09C214.647 95.1927 214.693 95.3187 214.693 95.468C214.693 95.6173 214.628 95.7573 214.497 95.888C214.367 96.0093 214.199 96.07 213.993 96.07C213.424 96.07 212.971 96.042 212.635 95.986C212.299 95.9207 212.043 95.8273 211.865 95.706C211.697 95.5847 211.576 95.4353 211.501 95.258C211.436 95.0713 211.385 94.8567 211.347 94.614L211.767 94.642C211.618 94.9407 211.455 95.1833 211.277 95.37C211.109 95.5567 210.913 95.7013 210.689 95.804C210.465 95.9067 210.195 95.9767 209.877 96.014C209.569 96.0513 209.201 96.07 208.771 96.07ZM211.557 89.056C211.361 89.056 211.193 88.9907 211.053 88.86C210.923 88.72 210.857 88.5567 210.857 88.37C210.857 88.1833 210.923 88.02 211.053 87.88C211.193 87.74 211.361 87.67 211.557 87.67C211.744 87.67 211.903 87.74 212.033 87.88C212.173 88.02 212.243 88.1833 212.243 88.37C212.243 88.5567 212.173 88.72 212.033 88.86C211.903 88.9907 211.744 89.056 211.557 89.056ZM210.605 90.596C210.409 90.596 210.241 90.5307 210.101 90.4C209.971 90.26 209.905 90.0967 209.905 89.91C209.905 89.7233 209.971 89.56 210.101 89.42C210.241 89.28 210.409 89.21 210.605 89.21C210.792 89.21 210.951 89.28 211.081 89.42C211.221 89.56 211.291 89.7233 211.291 89.91C211.291 90.0967 211.221 90.26 211.081 90.4C210.951 90.5307 210.792 90.596 210.605 90.596ZM212.509 90.596C212.313 90.596 212.145 90.5307 212.005 90.4C211.875 90.26 211.809 90.0967 211.809 89.91C211.809 89.7233 211.875 89.56 212.005 89.42C212.145 89.28 212.313 89.21 212.509 89.21C212.696 89.21 212.855 89.28 212.985 89.42C213.125 89.56 213.195 89.7233 213.195 89.91C213.195 90.0967 213.125 90.26 212.985 90.4C212.855 90.5307 212.696 90.596 212.509 90.596ZM213.994 96.07L214.134 94.922H215.45C216.001 94.922 216.435 94.894 216.752 94.838C217.079 94.7727 217.317 94.6933 217.466 94.6C217.625 94.4973 217.727 94.39 217.774 94.278C217.83 94.1567 217.858 94.0353 217.858 93.914C217.858 93.6993 217.774 93.4333 217.606 93.116C217.447 92.7987 217.116 92.388 216.612 91.884C216.351 91.6227 216.089 91.3847 215.828 91.17C215.567 90.946 215.324 90.75 215.1 90.582C214.885 90.4047 214.713 90.2553 214.582 90.134C214.451 90.0127 214.386 89.9193 214.386 89.854C214.386 89.714 214.395 89.5787 214.414 89.448C214.442 89.3173 214.475 89.196 214.512 89.084C214.559 88.972 214.615 88.8833 214.68 88.818C214.867 88.622 215.105 88.426 215.394 88.23C215.693 88.034 216.038 87.8287 216.43 87.614C216.831 87.3993 217.279 87.1707 217.774 86.928C218.278 86.676 218.829 86.4007 219.426 86.102L219.902 87.138C219.155 87.4927 218.53 87.796 218.026 88.048C217.531 88.2907 217.111 88.51 216.766 88.706C216.421 88.8927 216.117 89.07 215.856 89.238C215.595 89.406 215.329 89.5927 215.058 89.798L215.268 89.266C215.856 89.7327 216.374 90.1713 216.822 90.582C217.279 90.9927 217.662 91.3893 217.97 91.772C218.278 92.1453 218.511 92.514 218.67 92.878C218.829 93.242 218.908 93.6107 218.908 93.984C218.908 94.1893 218.871 94.4133 218.796 94.656C218.721 94.8987 218.563 95.1273 218.32 95.342C218.077 95.5567 217.713 95.734 217.228 95.874C216.743 96.0047 216.089 96.07 215.268 96.07H213.994ZM221.01 96L220.772 86.984H221.906L222.144 96H221.01ZM220.086 86.144L219.918 85.388C220.16 85.332 220.356 85.2853 220.506 85.248C220.655 85.2107 220.823 85.1687 221.01 85.122L220.94 85.416C220.697 85.3413 220.464 85.1827 220.24 84.94C220.025 84.6973 219.918 84.422 219.918 84.114C219.918 83.834 219.983 83.6007 220.114 83.414C220.254 83.218 220.431 83.0733 220.646 82.98C220.87 82.8867 221.108 82.84 221.36 82.84C221.462 82.84 221.57 82.8493 221.682 82.868C221.803 82.8867 221.915 82.9147 222.018 82.952L221.906 83.652C221.812 83.6333 221.724 83.6147 221.64 83.596C221.556 83.5773 221.462 83.568 221.36 83.568C221.145 83.568 220.977 83.6147 220.856 83.708C220.734 83.792 220.674 83.9133 220.674 84.072C220.674 84.268 220.734 84.436 220.856 84.576C220.986 84.716 221.131 84.828 221.29 84.912C221.458 84.9867 221.593 85.024 221.696 85.024L221.122 85.08C221.374 85.0147 221.607 84.9493 221.822 84.884C222.046 84.8093 222.246 84.7393 222.424 84.674L222.648 85.388C222.424 85.472 222.158 85.5607 221.85 85.654C221.551 85.7473 221.248 85.836 220.94 85.92C220.632 86.004 220.347 86.0787 220.086 86.144Z" fill="#84879E"/>
<defs>
<filter id="filter0_d_806_919" x="0" y="0" width="356" height="175" filterUnits="userSpaceOnUse" color-interpolation-filters="sRGB">
<feFlood flood-opacity="0" result="BackgroundImageFix"/>
<feColorMatrix in="SourceAlpha" type="matrix" values="0 0 0 0 0 0 0 0 0 0 0 0 0 0 0 0 0 0 127 0" result="hardAlpha"/>
<feOffset dy="10"/>
<feGaussianBlur stdDeviation="25"/>
<feColorMatrix type="matrix" values="0 0 0 0 0 0 0 0 0 0 0 0 0 0 0 0 0 0 0.1 0"/>
<feBlend mode="normal" in2="BackgroundImageFix" result="effect1_dropShadow_806_919"/>
<feBlend mode="normal" in="SourceGraphic" in2="effect1_dropShadow_806_919" result="shape"/>
</filter>
<filter id="filter1_d_806_919" x="186" y="9" width="158" height="158" filterUnits="userSpaceOnUse" color-interpolation-filters="sRGB">
<feFlood flood-opacity="0" result="BackgroundImageFix"/>
<feColorMatrix in="SourceAlpha" type="matrix" values="0 0 0 0 0 0 0 0 0 0 0 0 0 0 0 0 0 0 127 0" result="hardAlpha"/>
<feOffset dy="10"/>
<feGaussianBlur stdDeviation="25"/>
<feColorMatrix type="matrix" values="0 0 0 0 0 0 0 0 0 0 0 0 0 0 0 0 0 0 0.1 0"/>
<feBlend mode="normal" in2="BackgroundImageFix" result="effect1_dropShadow_806_919"/>
<feBlend mode="normal" in="SourceGraphic" in2="effect1_dropShadow_806_919" result="shape"/>
</filter>
</defs>
</svg>
