<svg width="26" height="27" viewBox="0 0 26 27" fill="none" xmlns="http://www.w3.org/2000/svg">
<path d="M10.6331 13.4999C10.6331 12.1428 11.6929 11.0424 13.0005 11.0424C14.3081 11.0424 15.3685 12.1428 15.3685 13.4999C15.3685 14.857 14.3081 15.9575 13.0005 15.9575C11.6929 15.9575 10.6331 14.857 10.6331 13.4999ZM9.35305 13.4999C9.35305 15.5907 10.986 17.2854 13.0005 17.2854C15.015 17.2854 16.648 15.5907 16.648 13.4999C16.648 11.4092 15.015 9.71447 13.0005 9.71447C10.986 9.71447 9.35305 11.4092 9.35305 13.4999ZM15.94 9.56437C15.9399 9.73934 15.9898 9.9104 16.0834 10.0559C16.177 10.2014 16.3101 10.3149 16.4658 10.3819C16.6216 10.4489 16.793 10.4665 16.9583 10.4324C17.1237 10.3984 17.2756 10.3142 17.3948 10.1905C17.5141 10.0668 17.5953 9.90925 17.6283 9.73766C17.6613 9.56607 17.6444 9.38819 17.58 9.22651C17.5155 9.06484 17.4063 8.92663 17.2662 8.82937C17.1261 8.7321 16.9613 8.68015 16.7927 8.68008H16.7924C16.5664 8.68019 16.3497 8.77338 16.1899 8.93918C16.03 9.10499 15.9402 9.32985 15.94 9.56437ZM10.1308 19.5006C9.43823 19.4679 9.06182 19.3482 8.81167 19.247C8.48003 19.113 8.2434 18.9534 7.99462 18.6956C7.74583 18.4377 7.59183 18.1924 7.46329 17.8482C7.36578 17.5887 7.25042 17.1979 7.21894 16.4792C7.1845 15.7021 7.17763 15.4687 7.17763 13.5C7.17763 11.5313 7.18507 11.2985 7.21894 10.5208C7.25048 9.80205 7.36669 9.41204 7.46329 9.15177C7.5924 8.80759 7.74617 8.56201 7.99462 8.30381C8.24306 8.04561 8.47946 7.88578 8.81167 7.75238C9.0617 7.65117 9.43823 7.53145 10.1308 7.49878C10.8795 7.46304 11.1044 7.4559 13.0005 7.4559C14.8966 7.4559 15.1217 7.46363 15.8711 7.49878C16.5636 7.53151 16.9394 7.65212 17.1902 7.75238C17.5218 7.88578 17.7585 8.04596 18.0072 8.30381C18.256 8.56165 18.4095 8.80759 18.5386 9.15177C18.6361 9.41127 18.7514 9.80205 18.7829 10.5208C18.8174 11.2985 18.8242 11.5313 18.8242 13.5C18.8242 15.4687 18.8174 15.7015 18.7829 16.4792C18.7514 17.1979 18.6355 17.5886 18.5386 17.8482C18.4095 18.1924 18.2557 18.438 18.0072 18.6956C17.7588 18.9532 17.5218 19.113 17.1902 19.247C16.9402 19.3482 16.5636 19.468 15.8711 19.5006C15.1223 19.5364 14.8974 19.5435 13.0005 19.5435C11.1036 19.5435 10.8793 19.5364 10.1308 19.5006ZM10.072 6.17251C9.31577 6.20825 8.79905 6.33269 8.34779 6.51493C7.88046 6.70313 7.48483 6.9556 7.08949 7.36526C6.69415 7.77491 6.4515 8.18615 6.27017 8.67117C6.09457 9.1398 5.97467 9.67578 5.94023 10.4606C5.90523 11.2466 5.89722 11.4979 5.89722 13.4999C5.89722 15.502 5.90523 15.7533 5.94023 16.5393C5.97467 17.3242 6.09457 17.8601 6.27017 18.3287C6.4515 18.8134 6.69421 19.2251 7.08949 19.6346C7.48477 20.0441 7.88046 20.2962 8.34779 20.4849C8.7999 20.6672 9.31577 20.7916 10.072 20.8274C10.8297 20.8631 11.0715 20.872 13.0005 20.872C14.9295 20.872 15.1717 20.8637 15.9291 20.8274C16.6853 20.7916 17.2017 20.6672 17.6532 20.4849C18.1203 20.2962 18.5162 20.0443 18.9115 19.6346C19.3069 19.225 19.549 18.8134 19.7308 18.3287C19.9064 17.8601 20.0269 17.3241 20.0608 16.5393C20.0952 15.7527 20.1032 15.502 20.1032 13.4999C20.1032 11.4979 20.0952 11.2466 20.0608 10.4606C20.0263 9.67572 19.9064 9.13951 19.7308 8.67117C19.549 8.18645 19.3062 7.77556 18.9115 7.36526C18.5168 6.95496 18.1203 6.70313 17.6538 6.51493C17.2017 6.33269 16.6852 6.20766 15.9296 6.17251C15.1722 6.13677 14.9301 6.12787 13.0011 6.12787C11.072 6.12787 10.8297 6.13618 10.072 6.17251Z" fill="url(#paint0_radial_817_1926)"/>
<path d="M10.6331 13.4999C10.6331 12.1428 11.6929 11.0424 13.0005 11.0424C14.3081 11.0424 15.3685 12.1428 15.3685 13.4999C15.3685 14.857 14.3081 15.9575 13.0005 15.9575C11.6929 15.9575 10.6331 14.857 10.6331 13.4999ZM9.35305 13.4999C9.35305 15.5907 10.986 17.2854 13.0005 17.2854C15.015 17.2854 16.648 15.5907 16.648 13.4999C16.648 11.4092 15.015 9.71447 13.0005 9.71447C10.986 9.71447 9.35305 11.4092 9.35305 13.4999ZM15.94 9.56437C15.9399 9.73934 15.9898 9.9104 16.0834 10.0559C16.177 10.2014 16.3101 10.3149 16.4658 10.3819C16.6216 10.4489 16.793 10.4665 16.9583 10.4324C17.1237 10.3984 17.2756 10.3142 17.3948 10.1905C17.5141 10.0668 17.5953 9.90925 17.6283 9.73766C17.6613 9.56607 17.6444 9.38819 17.58 9.22651C17.5155 9.06484 17.4063 8.92663 17.2662 8.82937C17.1261 8.7321 16.9613 8.68015 16.7927 8.68008H16.7924C16.5664 8.68019 16.3497 8.77338 16.1899 8.93918C16.03 9.10499 15.9402 9.32985 15.94 9.56437ZM10.1308 19.5006C9.43823 19.4679 9.06182 19.3482 8.81167 19.247C8.48003 19.113 8.2434 18.9534 7.99462 18.6956C7.74583 18.4377 7.59183 18.1924 7.46329 17.8482C7.36578 17.5887 7.25042 17.1979 7.21894 16.4792C7.1845 15.7021 7.17763 15.4687 7.17763 13.5C7.17763 11.5313 7.18507 11.2985 7.21894 10.5208C7.25048 9.80205 7.36669 9.41204 7.46329 9.15177C7.5924 8.80759 7.74617 8.56201 7.99462 8.30381C8.24306 8.04561 8.47946 7.88578 8.81167 7.75238C9.0617 7.65117 9.43823 7.53145 10.1308 7.49878C10.8795 7.46304 11.1044 7.4559 13.0005 7.4559C14.8966 7.4559 15.1217 7.46363 15.8711 7.49878C16.5636 7.53151 16.9394 7.65212 17.1902 7.75238C17.5218 7.88578 17.7585 8.04596 18.0072 8.30381C18.256 8.56165 18.4095 8.80759 18.5386 9.15177C18.6361 9.41127 18.7514 9.80205 18.7829 10.5208C18.8174 11.2985 18.8242 11.5313 18.8242 13.5C18.8242 15.4687 18.8174 15.7015 18.7829 16.4792C18.7514 17.1979 18.6355 17.5886 18.5386 17.8482C18.4095 18.1924 18.2557 18.438 18.0072 18.6956C17.7588 18.9532 17.5218 19.113 17.1902 19.247C16.9402 19.3482 16.5636 19.468 15.8711 19.5006C15.1223 19.5364 14.8974 19.5435 13.0005 19.5435C11.1036 19.5435 10.8793 19.5364 10.1308 19.5006ZM10.072 6.17251C9.31577 6.20825 8.79905 6.33269 8.34779 6.51493C7.88046 6.70313 7.48483 6.9556 7.08949 7.36526C6.69415 7.77491 6.4515 8.18615 6.27017 8.67117C6.09457 9.1398 5.97467 9.67578 5.94023 10.4606C5.90523 11.2466 5.89722 11.4979 5.89722 13.4999C5.89722 15.502 5.90523 15.7533 5.94023 16.5393C5.97467 17.3242 6.09457 17.8601 6.27017 18.3287C6.4515 18.8134 6.69421 19.2251 7.08949 19.6346C7.48477 20.0441 7.88046 20.2962 8.34779 20.4849C8.7999 20.6672 9.31577 20.7916 10.072 20.8274C10.8297 20.8631 11.0715 20.872 13.0005 20.872C14.9295 20.872 15.1717 20.8637 15.9291 20.8274C16.6853 20.7916 17.2017 20.6672 17.6532 20.4849C18.1203 20.2962 18.5162 20.0443 18.9115 19.6346C19.3069 19.225 19.549 18.8134 19.7308 18.3287C19.9064 17.8601 20.0269 17.3241 20.0608 16.5393C20.0952 15.7527 20.1032 15.502 20.1032 13.4999C20.1032 11.4979 20.0952 11.2466 20.0608 10.4606C20.0263 9.67572 19.9064 9.13951 19.7308 8.67117C19.549 8.18645 19.3062 7.77556 18.9115 7.36526C18.5168 6.95496 18.1203 6.70313 17.6538 6.51493C17.2017 6.33269 16.6852 6.20766 15.9296 6.17251C15.1722 6.13677 14.9301 6.12787 13.0011 6.12787C11.072 6.12787 10.8297 6.13618 10.072 6.17251Z" fill="url(#paint1_radial_817_1926)"/>
<defs>
<radialGradient id="paint0_radial_817_1926" cx="0" cy="0" r="1" gradientUnits="userSpaceOnUse" gradientTransform="translate(7.78465 20.9417) scale(18.5455 19.2472)">
<stop offset="0.09" stop-color="#FA8F21"/>
<stop offset="0.78" stop-color="#D82D7E"/>
</radialGradient>
<radialGradient id="paint1_radial_817_1926" cx="0" cy="0" r="1" gradientUnits="userSpaceOnUse" gradientTransform="translate(14.5129 21.6022) scale(14.6164 15.1695)">
<stop offset="0.64" stop-color="#8C3AAA" stop-opacity="0"/>
<stop offset="1" stop-color="#8C3AAA"/>
</radialGradient>
</defs>
</svg>
