<svg width="27" height="27" viewBox="0 0 27 27" fill="none" xmlns="http://www.w3.org/2000/svg">
<path d="M6.19257 7.24936C6.19257 6.66604 6.68091 6.19257 7.2829 6.19257H19.8552C20.4574 6.19257 20.9456 6.66604 20.9456 7.24936V19.8889C20.9456 20.4724 20.4574 20.9456 19.8552 20.9456H7.2829C6.68097 20.9456 6.19257 20.4725 6.19257 19.8891V7.24919V7.24936Z" fill="#006699"/>
<path d="M10.6757 18.5389V11.8971H8.46808V18.5389H10.676H10.6757ZM9.57236 10.9904C10.3421 10.9904 10.8212 10.4804 10.8212 9.84299C10.8068 9.19109 10.3421 8.69531 9.587 8.69531C8.83143 8.69531 8.33795 9.19109 8.33795 9.84293C8.33795 10.4803 8.81696 10.9903 9.5579 10.9903H9.57219L9.57236 10.9904ZM11.8977 18.5389H14.1052V14.8302C14.1052 14.6319 14.1196 14.4332 14.1779 14.2916C14.3374 13.8948 14.7006 13.4841 15.3106 13.4841C16.1093 13.4841 16.4289 14.0931 16.4289 14.9861V18.5389H18.6363V14.7307C18.6363 12.6907 17.5474 11.7413 16.095 11.7413C14.9042 11.7413 14.3812 12.4069 14.0906 12.8602H14.1053V11.8973H11.8978C11.9266 12.5204 11.8976 18.5391 11.8976 18.5391L11.8977 18.5389Z" fill="white"/>
</svg>
