<svg width="1246" height="461" viewBox="0 0 1246 461" fill="none" xmlns="http://www.w3.org/2000/svg">
<mask id="mask0_844_1141" style="mask-type:alpha" maskUnits="userSpaceOnUse" x="7" y="9" width="1233" height="441">
<path d="M30.9263 44.1483C35.1907 23.5469 53.5954 9.17251 74.6325 9.38781C495.235 13.6922 750.727 22.3736 1189.93 46.0123C1207.84 46.9763 1223.36 58.5862 1227.06 76.1378C1233.58 107.105 1241.62 163.704 1239.02 247.964C1236.39 333.653 1224.22 390.833 1215.53 421.515C1210.78 438.288 1195.35 448.803 1177.92 448.997C1110.22 449.752 922.152 450.365 614.047 440.269C324.723 430.788 134.004 418.119 60.0554 412.664C39.6105 411.156 23.1069 395.908 20.2116 375.613C14.2481 333.811 5.56822 262.421 7.21238 210.605C8.87778 158.121 22.1852 86.3774 30.9263 44.1483Z" fill="#C4C4C4"/>
</mask>
<g mask="url(#mask0_844_1141)">
<g clip-path="url(#clip0_844_1141)">
<path d="M408.074 91.7371C465.455 60.5382 483.415 93.5698 540.795 62.371C598.175 31.1721 580.215 -1.85953 637.578 -33.0494C694.942 -64.2393 712.919 -31.2167 770.299 -62.4156C827.679 -93.6145 809.719 -126.646 867.099 -157.845C924.479 -189.044 942.439 -156.012 999.836 -187.22C1057.23 -218.428 1039.26 -251.451 1096.64 -282.649" stroke="#DFE1FE" stroke-opacity="0.04" stroke-width="2" stroke-miterlimit="10"/>
<path d="M551.828 356.124C609.208 324.925 627.168 357.957 684.548 326.758C741.928 295.559 723.968 262.527 781.332 231.338C838.695 200.148 856.672 233.17 914.052 201.971C971.432 170.772 953.472 137.741 1010.85 106.542C1068.23 75.3431 1086.19 108.375 1143.59 77.1668C1200.99 45.959 1183.01 12.9364 1240.39 -18.2625" stroke="#DFE1FE" stroke-opacity="0.04" stroke-width="2" stroke-miterlimit="10"/>
<path d="M479.951 223.931C537.331 192.732 555.291 225.763 612.671 194.564C670.051 163.366 652.091 130.334 709.455 99.144C766.819 67.9541 784.795 100.977 842.175 69.7779C899.555 38.579 881.595 5.5474 938.975 -25.6515C996.355 -56.8504 1014.32 -23.8188 1071.71 -55.0266C1129.11 -86.2345 1111.13 -119.257 1168.51 -150.456" stroke="#DFE1FE" stroke-opacity="0.04" stroke-width="2" stroke-miterlimit="10"/>
<path d="M623.705 488.318C681.085 457.119 699.081 490.218 756.461 459.019C813.841 427.82 795.845 394.721 853.208 363.531C910.572 332.341 928.585 365.431 985.965 334.232C1043.35 303.033 1025.35 269.934 1082.73 238.736C1140.11 207.537 1158.11 240.635 1215.5 209.428C1272.9 178.22 1254.89 145.13 1312.27 113.931" stroke="#DFE1FE" stroke-opacity="0.04" stroke-width="2" stroke-miterlimit="10"/>
<path d="M722.558 670.126C779.938 638.927 797.898 671.959 855.278 640.76C912.658 609.561 894.698 576.529 952.062 545.339C1009.43 514.149 1027.4 547.172 1084.78 515.973C1142.16 484.774 1124.2 451.743 1181.58 420.544C1238.96 389.345 1256.92 422.376 1314.32 391.169C1371.72 359.961 1353.74 326.938 1411.12 295.739" stroke="#DFE1FE" stroke-opacity="0.04" stroke-width="2" stroke-miterlimit="10"/>
<path d="M443.995 157.8C501.375 126.601 519.371 159.7 576.751 128.501C634.131 97.3023 616.135 64.2036 673.498 33.0137C730.862 1.82376 748.875 34.9135 806.255 3.71464C863.635 -27.4842 845.639 -60.583 903.019 -91.7819C960.399 -122.981 978.396 -89.882 1035.79 -121.09C1093.19 -152.298 1075.18 -185.387 1132.56 -216.586" stroke="#DFE1FE" stroke-opacity="0.04" stroke-width="2" stroke-miterlimit="10"/>
<path d="M587.785 422.254C645.165 391.056 663.125 424.087 720.505 392.888C777.885 361.689 759.925 328.658 817.288 297.468C874.652 266.278 892.629 299.301 950.009 268.102C1007.39 236.903 989.429 203.871 1046.81 172.672C1104.19 141.473 1122.15 174.505 1179.55 143.297C1236.94 112.089 1218.97 79.0667 1276.35 47.8678" stroke="#DFE1FE" stroke-opacity="0.04" stroke-width="2" stroke-miterlimit="10"/>
<path d="M515.908 290.061C573.288 258.862 591.248 291.894 648.628 260.695C706.008 229.496 688.048 196.464 745.411 165.274C802.775 134.085 820.752 167.107 878.132 135.908C935.512 104.709 917.552 71.6778 974.932 40.4789C1032.31 9.28 1050.27 42.3116 1107.67 11.1037C1165.07 -20.1041 1147.09 -53.1268 1204.47 -84.3256" stroke="#DFE1FE" stroke-opacity="0.04" stroke-width="2" stroke-miterlimit="10"/>
<path d="M659.661 554.448C717.041 523.249 735.001 556.281 792.382 525.082C849.762 493.883 831.802 460.852 889.165 429.662C946.529 398.472 964.505 431.494 1021.89 400.295C1079.27 369.097 1061.31 336.065 1118.69 304.866C1176.07 273.667 1194.03 306.699 1251.42 275.491C1308.82 244.283 1290.84 211.26 1348.22 180.062" stroke="#DFE1FE" stroke-opacity="0.04" stroke-width="2" stroke-miterlimit="10"/>
<path d="M758.478 736.189C815.858 704.99 833.855 738.089 891.235 706.89C948.615 675.691 930.618 642.592 987.982 611.402C1045.35 580.213 1063.36 613.302 1120.74 582.103C1178.12 550.905 1160.12 517.806 1217.5 486.607C1274.88 455.408 1292.88 488.507 1350.28 457.299C1407.67 426.091 1389.66 393.001 1447.04 361.802" stroke="#DFE1FE" stroke-opacity="0.04" stroke-width="2" stroke-miterlimit="10"/>
<path d="M426.034 124.769C483.414 93.5697 501.375 126.601 558.755 95.4025C616.135 64.2036 598.175 31.172 655.538 -0.0179474C712.902 -31.2079 730.878 1.81477 788.259 -29.3841C845.639 -60.583 827.679 -93.6146 885.059 -124.813C942.439 -156.012 960.399 -122.981 1017.8 -154.189C1075.19 -185.396 1057.22 -218.419 1114.6 -249.618" stroke="#DFE1FE" stroke-opacity="0.04" stroke-width="2" stroke-miterlimit="10"/>
<path d="M569.788 389.156C627.168 357.957 645.165 391.056 702.545 359.857C759.925 328.658 741.928 295.559 799.292 264.369C856.655 233.179 874.668 266.269 932.049 235.07C989.429 203.871 971.432 170.772 1028.81 139.574C1086.19 108.375 1104.19 141.473 1161.59 110.266C1218.98 79.0577 1200.97 45.968 1258.35 14.7691" stroke="#DFE1FE" stroke-opacity="0.04" stroke-width="2" stroke-miterlimit="10"/>
<path d="M497.911 256.962C555.291 225.763 573.288 258.862 630.668 227.663C688.048 196.464 670.052 163.365 727.415 132.176C784.779 100.986 802.792 134.075 860.172 102.877C917.552 71.6776 899.555 38.5789 956.936 7.38001C1014.32 -23.8189 1032.31 9.27986 1089.71 -21.928C1147.11 -53.1359 1129.09 -86.2256 1186.47 -117.425" stroke="#DFE1FE" stroke-opacity="0.04" stroke-width="2" stroke-miterlimit="10"/>
<path d="M641.701 521.416C699.081 490.217 717.041 523.249 774.421 492.05C831.801 460.851 813.841 427.82 871.205 396.63C928.569 365.44 946.545 398.462 1003.93 367.264C1061.31 336.065 1043.35 303.033 1100.73 271.834C1158.11 240.635 1176.07 273.667 1233.46 242.459C1290.86 211.251 1272.88 178.229 1330.26 147.03" stroke="#DFE1FE" stroke-opacity="0.04" stroke-width="2" stroke-miterlimit="10"/>
<path d="M740.518 703.157C797.898 671.958 815.858 704.99 873.238 673.791C930.618 642.592 912.658 609.561 970.022 578.371C1027.39 547.181 1045.36 580.203 1102.74 549.005C1160.12 517.806 1142.16 484.774 1199.54 453.575C1256.92 422.376 1274.88 455.408 1332.28 424.2C1389.68 392.992 1371.7 359.97 1429.08 328.771" stroke="#DFE1FE" stroke-opacity="0.04" stroke-width="2" stroke-miterlimit="10"/>
<path d="M461.991 190.899C519.371 159.7 537.331 192.732 594.711 161.533C652.091 130.334 634.131 97.3022 691.495 66.1123C748.859 34.9224 766.835 67.945 824.215 36.7461C881.595 5.54725 863.635 -27.4843 921.015 -58.6832C978.395 -89.8821 996.356 -56.8505 1053.75 -88.0584C1111.15 -119.266 1093.17 -152.289 1150.55 -183.488" stroke="#DFE1FE" stroke-opacity="0.04" stroke-width="2" stroke-miterlimit="10"/>
<path d="M605.745 455.286C663.125 424.087 681.085 457.119 738.465 425.92C795.845 394.721 777.885 361.689 835.248 330.5C892.612 299.31 910.589 332.332 967.969 301.133C1025.35 269.934 1007.39 236.903 1064.77 205.704C1122.15 174.505 1140.11 207.537 1197.51 176.329C1254.9 145.121 1236.93 112.098 1294.31 80.8995" stroke="#DFE1FE" stroke-opacity="0.04" stroke-width="2" stroke-miterlimit="10"/>
<path d="M704.598 637.094C761.978 605.895 779.938 638.927 837.318 607.728C894.698 576.529 876.738 543.498 934.102 512.308C991.465 481.118 1009.44 514.14 1066.82 482.941C1124.2 451.743 1106.24 418.711 1163.62 387.512C1221 356.313 1238.96 389.345 1296.36 358.137C1353.76 326.929 1335.78 293.906 1393.16 262.708" stroke="#DFE1FE" stroke-opacity="0.04" stroke-width="2" stroke-miterlimit="10"/>
<path d="M533.868 323.092C591.248 291.894 609.208 324.925 666.588 293.726C723.968 262.527 706.008 229.496 763.372 198.306C820.735 167.116 838.712 200.139 896.092 168.94C953.472 137.741 935.512 104.709 992.892 73.5104C1050.27 42.3115 1068.23 75.3431 1125.63 44.1352C1183.03 12.9274 1165.05 -20.0953 1222.43 -51.2941" stroke="#DFE1FE" stroke-opacity="0.04" stroke-width="2" stroke-miterlimit="10"/>
<path d="M677.621 587.48C735.001 556.281 752.961 589.312 810.341 558.114C867.721 526.915 849.761 493.883 907.125 462.693C964.489 431.503 982.465 464.526 1039.85 433.327C1097.23 402.128 1079.27 369.096 1136.65 337.898C1194.03 306.699 1211.99 339.73 1269.38 308.522C1326.78 277.315 1308.8 244.292 1366.18 213.093" stroke="#DFE1FE" stroke-opacity="0.04" stroke-width="2" stroke-miterlimit="10"/>
<path d="M776.474 769.288C833.854 738.089 851.815 771.121 909.195 739.922C966.575 708.723 948.615 675.691 1005.98 644.501C1063.34 613.311 1081.32 646.334 1138.7 615.135C1196.08 583.936 1178.12 550.905 1235.5 519.706C1292.88 488.507 1310.84 521.538 1368.24 490.331C1425.63 459.123 1407.66 426.1 1465.04 394.901" stroke="#DFE1FE" stroke-opacity="0.04" stroke-width="2" stroke-miterlimit="10"/>
<path d="M417.055 108.253C474.435 77.0539 492.395 110.085 549.775 78.8866C607.155 47.6877 589.195 14.6561 646.558 -16.5338C703.922 -47.7237 721.899 -14.7011 779.279 -45.9C836.659 -77.0989 818.699 -110.13 876.079 -141.329C933.459 -172.528 951.419 -139.497 1008.82 -170.704C1066.21 -201.912 1048.24 -234.935 1105.62 -266.134" stroke="#DFE1FE" stroke-opacity="0.04" stroke-width="2" stroke-miterlimit="10"/>
<path d="M560.808 372.64C618.188 341.441 636.185 374.54 693.565 343.341C750.945 312.142 732.948 279.043 790.312 247.853C847.675 216.663 865.688 249.753 923.069 218.554C980.449 187.355 962.452 154.257 1019.83 123.058C1077.21 91.859 1095.21 124.958 1152.61 93.7499C1210 62.542 1191.99 29.4522 1249.37 -1.74666" stroke="#DFE1FE" stroke-opacity="0.04" stroke-width="2" stroke-miterlimit="10"/>
<path d="M488.931 240.446C546.311 209.247 564.271 242.279 621.651 211.08C679.031 179.881 661.071 146.85 718.435 115.66C775.798 84.4699 793.775 117.493 851.155 86.2936C908.535 55.0947 890.575 22.0631 947.955 -9.13574C1005.34 -40.3346 1023.3 -7.30303 1080.69 -38.5109C1138.09 -69.7187 1120.11 -102.741 1177.49 -133.94" stroke="#DFE1FE" stroke-opacity="0.04" stroke-width="2" stroke-miterlimit="10"/>
<path d="M632.685 504.834C690.065 473.635 708.061 506.733 765.441 475.535C822.821 444.336 804.825 411.237 862.188 380.047C919.552 348.857 937.565 381.947 994.945 350.748C1052.33 319.549 1034.33 286.45 1091.71 255.251C1149.09 224.053 1167.09 257.151 1224.48 225.943C1281.88 194.736 1263.87 161.646 1321.25 130.447" stroke="#DFE1FE" stroke-opacity="0.04" stroke-width="2" stroke-miterlimit="10"/>
<path d="M731.538 686.642C788.918 655.443 806.878 688.474 864.258 657.275C921.638 626.077 903.678 593.045 961.042 561.855C1018.41 530.665 1036.38 563.688 1093.76 532.489C1151.14 501.29 1133.18 468.258 1190.56 437.06C1247.94 405.861 1265.9 438.892 1323.3 407.684C1380.7 376.477 1362.72 343.454 1420.1 312.255" stroke="#DFE1FE" stroke-opacity="0.04" stroke-width="2" stroke-miterlimit="10"/>
<path d="M453.011 174.383C510.391 143.184 528.351 176.216 585.731 145.017C643.112 113.818 625.152 80.7865 682.515 49.5966C739.879 18.4066 757.855 51.4293 815.235 20.2304C872.615 -10.9685 854.655 -44.0001 912.036 -75.199C969.416 -106.398 987.376 -73.3663 1044.77 -104.574C1102.17 -135.782 1084.19 -168.805 1141.57 -200.003" stroke="#DFE1FE" stroke-opacity="0.04" stroke-width="2" stroke-miterlimit="10"/>
<path d="M596.764 438.77C654.145 407.571 672.105 440.603 729.485 409.404C786.865 378.205 768.905 345.174 826.268 313.984C883.632 282.794 901.609 315.816 958.989 284.617C1016.37 253.419 998.409 220.387 1055.79 189.188C1113.17 157.989 1131.13 191.021 1188.53 159.813C1245.92 128.605 1227.95 95.5825 1285.33 64.3836" stroke="#DFE1FE" stroke-opacity="0.04" stroke-width="2" stroke-miterlimit="10"/>
<path d="M695.581 620.511C752.961 589.312 770.958 622.411 828.338 591.212C885.718 560.013 867.722 526.915 925.085 495.725C982.449 464.535 1000.46 497.625 1057.84 466.426C1115.22 435.227 1097.23 402.128 1154.61 370.929C1211.99 339.73 1229.98 372.829 1287.38 341.621C1344.78 310.413 1326.76 277.324 1384.14 246.125" stroke="#DFE1FE" stroke-opacity="0.04" stroke-width="2" stroke-miterlimit="10"/>
<path d="M524.888 306.577C582.268 275.378 600.228 308.409 657.608 277.211C714.988 246.012 697.028 212.98 754.392 181.79C811.755 150.6 829.732 183.623 887.112 152.424C944.492 121.225 926.532 88.1935 983.912 56.9946C1041.29 25.7958 1059.25 58.8273 1116.65 27.6195C1174.05 -3.58838 1156.07 -36.611 1213.45 -67.8099" stroke="#DFE1FE" stroke-opacity="0.04" stroke-width="2" stroke-miterlimit="10"/>
<path d="M668.641 570.964C726.021 539.765 743.981 572.797 801.361 541.598C858.742 510.399 840.782 477.367 898.145 446.177C955.509 414.987 973.485 448.01 1030.87 416.811C1088.25 385.612 1070.29 352.581 1127.67 321.382C1185.05 290.183 1203.01 323.214 1260.4 292.007C1317.8 260.799 1299.82 227.776 1357.2 196.577" stroke="#DFE1FE" stroke-opacity="0.04" stroke-width="2" stroke-miterlimit="10"/>
<path d="M767.494 752.772C824.874 721.573 842.835 754.605 900.215 723.406C957.595 692.207 939.635 659.175 996.998 627.985C1054.36 596.796 1072.34 629.818 1129.72 598.619C1187.1 567.42 1169.14 534.389 1226.52 503.19C1283.9 471.991 1301.86 505.023 1359.26 473.815C1416.65 442.607 1398.68 409.584 1456.06 378.385" stroke="#DFE1FE" stroke-opacity="0.04" stroke-width="2" stroke-miterlimit="10"/>
<path d="M435.015 141.284C492.395 110.086 510.391 143.184 567.771 111.985C625.151 80.7866 607.155 47.6878 664.519 16.4979C721.882 -14.692 739.895 18.3978 797.275 -12.8011C854.655 -44 836.659 -77.0987 894.039 -108.298C951.419 -139.496 969.416 -106.398 1026.81 -137.606C1084.21 -168.813 1066.2 -201.903 1123.58 -233.102" stroke="#DFE1FE" stroke-opacity="0.04" stroke-width="2" stroke-miterlimit="10"/>
<path d="M578.804 405.739C636.184 374.54 654.145 407.571 711.525 376.373C768.905 345.174 750.945 312.142 808.308 280.952C865.672 249.762 883.648 282.785 941.029 251.586C998.409 220.387 980.449 187.356 1037.83 156.157C1095.21 124.958 1113.17 157.989 1170.57 126.781C1227.96 95.5736 1209.99 62.551 1267.37 31.3521" stroke="#DFE1FE" stroke-opacity="0.04" stroke-width="2" stroke-miterlimit="10"/>
<path d="M506.891 273.478C564.271 242.279 582.268 275.378 639.648 244.179C697.028 212.98 679.031 179.881 736.395 148.691C793.759 117.501 811.772 150.591 869.152 119.392C926.532 88.1935 908.535 55.0948 965.915 23.8959C1023.3 -7.303 1041.29 25.7957 1098.69 -5.41213C1156.09 -36.62 1138.07 -69.7098 1195.45 -100.909" stroke="#DFE1FE" stroke-opacity="0.04" stroke-width="2" stroke-miterlimit="10"/>
<path d="M650.681 537.932C708.061 506.733 726.021 539.765 783.401 508.566C840.781 477.367 822.821 444.336 880.185 413.146C937.549 381.956 955.525 414.978 1012.91 383.779C1070.29 352.581 1052.33 319.549 1109.71 288.35C1167.09 257.151 1185.05 290.183 1242.44 258.975C1299.84 227.767 1281.86 194.744 1339.24 163.546" stroke="#DFE1FE" stroke-opacity="0.04" stroke-width="2" stroke-miterlimit="10"/>
<path d="M749.498 719.673C806.878 688.474 824.875 721.573 882.255 690.374C939.635 659.175 921.638 626.077 979.002 594.887C1036.37 563.697 1054.38 596.786 1111.76 565.588C1169.14 534.389 1151.14 501.29 1208.52 470.091C1265.9 438.892 1283.9 471.991 1341.3 440.783C1398.69 409.575 1380.68 376.485 1438.06 345.287" stroke="#DFE1FE" stroke-opacity="0.04" stroke-width="2" stroke-miterlimit="10"/>
<path d="M470.971 207.415C528.351 176.216 546.311 209.247 603.691 178.049C661.071 146.85 643.111 113.818 700.475 82.6282C757.839 51.4383 775.815 84.4609 833.195 53.262C890.575 22.0631 872.615 -10.9685 929.995 -42.1674C987.376 -73.3662 1005.34 -40.3346 1062.73 -71.5425C1120.13 -102.75 1102.15 -135.773 1159.53 -166.972" stroke="#DFE1FE" stroke-opacity="0.04" stroke-width="2" stroke-miterlimit="10"/>
<path d="M614.724 471.802C672.104 440.603 690.065 473.635 747.445 442.436C804.825 411.237 786.865 378.205 844.228 347.015C901.592 315.825 919.568 348.848 976.949 317.649C1034.33 286.45 1016.37 253.419 1073.75 222.22C1131.13 191.021 1149.09 224.052 1206.49 192.845C1263.88 161.637 1245.91 128.614 1303.29 97.4152" stroke="#DFE1FE" stroke-opacity="0.04" stroke-width="2" stroke-miterlimit="10"/>
<path d="M713.578 653.61C770.958 622.411 788.918 655.443 846.298 624.244C903.678 593.045 885.718 560.013 943.082 528.823C1000.45 497.634 1018.42 530.656 1075.8 499.457C1133.18 468.258 1115.22 435.227 1172.6 404.028C1229.98 372.829 1247.94 405.861 1305.34 374.653C1362.74 343.445 1344.76 310.422 1402.14 279.223" stroke="#DFE1FE" stroke-opacity="0.04" stroke-width="2" stroke-miterlimit="10"/>
<path d="M542.848 339.608C600.228 308.409 618.188 341.441 675.568 310.242C732.948 279.043 714.988 246.012 772.352 214.822C829.715 183.632 847.692 216.654 905.072 185.456C962.452 154.257 944.492 121.225 1001.87 90.0263C1059.25 58.8274 1077.21 91.859 1134.61 60.6511C1192.01 29.4432 1174.03 -3.57939 1231.41 -34.7783" stroke="#DFE1FE" stroke-opacity="0.04" stroke-width="2" stroke-miterlimit="10"/>
<path d="M686.601 603.996C743.981 572.797 761.978 605.895 819.358 574.697C876.738 543.498 858.742 510.399 916.105 479.209C973.469 448.019 991.482 481.109 1048.86 449.91C1106.24 418.711 1088.25 385.612 1145.63 354.413C1203.01 323.215 1221 356.313 1278.4 325.105C1335.8 293.898 1317.78 260.808 1375.16 229.609" stroke="#DFE1FE" stroke-opacity="0.04" stroke-width="2" stroke-miterlimit="10"/>
<path d="M785.454 785.804C842.834 754.605 860.794 787.636 918.175 756.437C975.555 725.238 957.595 692.207 1014.96 661.017C1072.32 629.827 1090.3 662.85 1147.68 631.651C1205.06 600.452 1187.1 567.42 1244.48 536.221C1301.86 505.023 1319.82 538.054 1377.22 506.846C1434.61 475.638 1416.64 442.616 1474.02 411.417" stroke="#DFE1FE" stroke-opacity="0.04" stroke-width="2" stroke-miterlimit="10"/>
</g>
<g clip-path="url(#clip1_844_1141)">
<path d="M-164.926 91.7371C-107.545 60.5382 -89.5854 93.5698 -32.2053 62.371C25.1748 31.1721 7.21477 -1.85953 64.5784 -33.0494C121.942 -64.2393 139.919 -31.2167 197.299 -62.4156C254.679 -93.6145 236.719 -126.646 294.099 -157.845C351.479 -189.044 369.439 -156.012 426.836 -187.22C484.232 -218.428 466.256 -251.451 523.636 -282.649" stroke="#DFE1FE" stroke-opacity="0.04" stroke-width="2" stroke-miterlimit="10"/>
<path d="M-21.1721 356.124C36.208 324.925 54.168 357.957 111.548 326.758C168.928 295.559 150.968 262.527 208.332 231.338C265.695 200.148 283.672 233.17 341.052 201.971C398.432 170.772 380.472 137.741 437.852 106.542C495.232 75.3431 513.192 108.375 570.589 77.1668C627.986 45.959 610.009 12.9364 667.389 -18.2625" stroke="#DFE1FE" stroke-opacity="0.04" stroke-width="2" stroke-miterlimit="10"/>
<path d="M-93.0489 223.931C-35.6688 192.732 -17.7087 225.763 39.6714 194.564C97.0515 163.366 79.0914 130.334 136.455 99.144C193.819 67.9541 211.795 100.977 269.175 69.7779C326.555 38.579 308.595 5.5474 365.975 -25.6515C423.355 -56.8504 441.316 -23.8188 498.712 -55.0266C556.109 -86.2345 538.132 -119.257 595.512 -150.456" stroke="#DFE1FE" stroke-opacity="0.04" stroke-width="2" stroke-miterlimit="10"/>
<path d="M50.7045 488.318C108.085 457.119 126.081 490.218 183.461 459.019C240.841 427.82 222.845 394.721 280.208 363.531C337.572 332.341 355.585 365.431 412.965 334.232C470.345 303.033 452.349 269.934 509.729 238.736C567.109 207.537 585.105 240.635 642.502 209.428C699.899 178.22 681.886 145.13 739.266 113.931" stroke="#DFE1FE" stroke-opacity="0.04" stroke-width="2" stroke-miterlimit="10"/>
<path d="M149.558 670.126C206.938 638.927 224.898 671.959 282.278 640.76C339.658 609.561 321.698 576.529 379.062 545.339C436.425 514.149 454.402 547.172 511.782 515.973C569.162 484.774 551.202 451.743 608.582 420.544C665.962 389.345 683.922 422.376 741.319 391.169C798.716 359.961 780.739 326.938 838.119 295.739" stroke="#DFE1FE" stroke-opacity="0.04" stroke-width="2" stroke-miterlimit="10"/>
<path d="M-129.005 157.8C-71.6253 126.601 -53.6288 159.7 3.75132 128.501C61.1314 97.3023 43.1349 64.2036 100.498 33.0137C157.862 1.82376 175.875 34.9135 233.255 3.71464C290.635 -27.4842 272.639 -60.583 330.019 -91.7819C387.399 -122.981 405.396 -89.882 462.792 -121.09C520.189 -152.298 502.176 -185.387 559.556 -216.586" stroke="#DFE1FE" stroke-opacity="0.04" stroke-width="2" stroke-miterlimit="10"/>
<path d="M14.7845 422.254C72.1646 391.056 90.1247 424.087 147.505 392.888C204.885 361.689 186.925 328.658 244.288 297.468C301.652 266.278 319.629 299.301 377.009 268.102C434.389 236.903 416.429 203.871 473.809 172.672C531.189 141.473 549.149 174.505 606.546 143.297C663.942 112.089 645.966 79.0667 703.346 47.8678" stroke="#DFE1FE" stroke-opacity="0.04" stroke-width="2" stroke-miterlimit="10"/>
<path d="M-57.0924 290.061C0.287693 258.862 18.2477 291.894 75.6278 260.695C133.008 229.496 115.048 196.464 172.411 165.274C229.775 134.085 247.752 167.107 305.132 135.908C362.512 104.709 344.552 71.6778 401.932 40.4789C459.312 9.28 477.272 42.3116 534.669 11.1037C592.065 -20.1041 574.089 -53.1268 631.469 -84.3256" stroke="#DFE1FE" stroke-opacity="0.04" stroke-width="2" stroke-miterlimit="10"/>
<path d="M86.6613 554.448C144.041 523.249 162.001 556.281 219.382 525.082C276.762 493.883 258.802 460.852 316.165 429.662C373.529 398.472 391.505 431.494 448.885 400.295C506.266 369.097 488.305 336.065 545.686 304.866C603.066 273.667 621.026 306.699 678.422 275.491C735.819 244.283 717.842 211.26 775.223 180.062" stroke="#DFE1FE" stroke-opacity="0.04" stroke-width="2" stroke-miterlimit="10"/>
<path d="M185.478 736.189C242.858 704.99 260.855 738.089 318.235 706.89C375.615 675.691 357.618 642.592 414.982 611.402C472.345 580.213 490.358 613.302 547.739 582.103C605.119 550.905 587.122 517.806 644.502 486.607C701.882 455.408 719.879 488.507 777.275 457.299C834.672 426.091 816.659 393.001 874.039 361.802" stroke="#DFE1FE" stroke-opacity="0.04" stroke-width="2" stroke-miterlimit="10"/>
<path d="M-146.966 124.769C-89.5855 93.5697 -71.6255 126.601 -14.2454 95.4025C43.1347 64.2036 25.1747 31.172 82.5383 -0.0179474C139.902 -31.2079 157.878 1.81477 215.259 -29.3841C272.639 -60.583 254.679 -93.6146 312.059 -124.813C369.439 -156.012 387.399 -122.981 444.795 -154.189C502.192 -185.396 484.215 -218.419 541.596 -249.618" stroke="#DFE1FE" stroke-opacity="0.04" stroke-width="2" stroke-miterlimit="10"/>
<path d="M-3.2121 389.156C54.168 357.957 72.1646 391.056 129.545 359.857C186.925 328.658 168.928 295.559 226.292 264.369C283.655 233.179 301.668 266.269 359.049 235.07C416.429 203.871 398.432 170.772 455.812 139.574C513.192 108.375 531.189 141.473 588.585 110.266C645.982 79.0577 627.969 45.968 685.349 14.7691" stroke="#DFE1FE" stroke-opacity="0.04" stroke-width="2" stroke-miterlimit="10"/>
<path d="M-75.0887 256.962C-17.7086 225.763 0.287964 258.862 57.6681 227.663C115.048 196.464 97.0516 163.365 154.415 132.176C211.779 100.986 229.792 134.075 287.172 102.877C344.552 71.6776 326.555 38.5789 383.936 7.38001C441.316 -23.8189 459.312 9.27986 516.709 -21.928C574.105 -53.1359 556.092 -86.2256 613.473 -117.425" stroke="#DFE1FE" stroke-opacity="0.04" stroke-width="2" stroke-miterlimit="10"/>
<path d="M68.701 521.416C126.081 490.217 144.041 523.249 201.421 492.05C258.801 460.851 240.841 427.82 298.205 396.63C355.569 365.44 373.545 398.462 430.925 367.264C488.305 336.065 470.345 303.033 527.725 271.834C585.105 240.635 603.065 273.667 660.462 242.459C717.859 211.251 699.882 178.229 757.262 147.03" stroke="#DFE1FE" stroke-opacity="0.04" stroke-width="2" stroke-miterlimit="10"/>
<path d="M167.518 703.157C224.898 671.958 242.858 704.99 300.238 673.791C357.618 642.592 339.658 609.561 397.022 578.371C454.385 547.181 472.362 580.203 529.742 549.005C587.122 517.806 569.162 484.774 626.542 453.575C683.922 422.376 701.882 455.408 759.279 424.2C816.676 392.992 798.699 359.97 856.079 328.771" stroke="#DFE1FE" stroke-opacity="0.04" stroke-width="2" stroke-miterlimit="10"/>
<path d="M-111.009 190.899C-53.6288 159.7 -35.6688 192.732 21.7113 161.533C79.0914 130.334 61.1314 97.3022 118.495 66.1123C175.859 34.9224 193.835 67.945 251.215 36.7461C308.595 5.54725 290.635 -27.4843 348.015 -58.6832C405.395 -89.8821 423.356 -56.8505 480.752 -88.0584C538.149 -119.266 520.172 -152.289 577.552 -183.488" stroke="#DFE1FE" stroke-opacity="0.04" stroke-width="2" stroke-miterlimit="10"/>
<path d="M32.7446 455.286C90.1247 424.087 108.085 457.119 165.465 425.92C222.845 394.721 204.885 361.689 262.248 330.5C319.612 299.31 337.589 332.332 394.969 301.133C452.349 269.934 434.389 236.903 491.769 205.704C549.149 174.505 567.109 207.537 624.506 176.329C681.902 145.121 663.926 112.098 721.306 80.8995" stroke="#DFE1FE" stroke-opacity="0.04" stroke-width="2" stroke-miterlimit="10"/>
<path d="M131.598 637.094C188.978 605.895 206.938 638.927 264.318 607.728C321.698 576.529 303.738 543.498 361.102 512.308C418.465 481.118 436.442 514.14 493.822 482.941C551.202 451.743 533.242 418.711 590.622 387.512C648.002 356.313 665.962 389.345 723.359 358.137C780.755 326.929 762.779 293.906 820.159 262.708" stroke="#DFE1FE" stroke-opacity="0.04" stroke-width="2" stroke-miterlimit="10"/>
<path d="M-39.1322 323.092C18.2479 291.894 36.2079 324.925 93.588 293.726C150.968 262.527 133.008 229.496 190.372 198.306C247.735 167.116 265.712 200.139 323.092 168.94C380.472 137.741 362.512 104.709 419.892 73.5104C477.272 42.3115 495.232 75.3431 552.629 44.1352C610.025 12.9274 592.049 -20.0953 649.429 -51.2941" stroke="#DFE1FE" stroke-opacity="0.04" stroke-width="2" stroke-miterlimit="10"/>
<path d="M104.621 587.48C162.001 556.281 179.961 589.312 237.341 558.114C294.721 526.915 276.761 493.883 334.125 462.693C391.489 431.503 409.465 464.526 466.845 433.327C524.225 402.128 506.265 369.096 563.645 337.898C621.025 306.699 638.985 339.73 696.382 308.522C753.779 277.315 735.802 244.292 793.182 213.093" stroke="#DFE1FE" stroke-opacity="0.04" stroke-width="2" stroke-miterlimit="10"/>
<path d="M203.474 769.288C260.854 738.089 278.815 771.121 336.195 739.922C393.575 708.723 375.615 675.691 432.978 644.501C490.342 613.311 508.318 646.334 565.699 615.135C623.079 583.936 605.119 550.905 662.499 519.706C719.879 488.507 737.839 521.538 795.235 490.331C852.632 459.123 834.655 426.1 892.036 394.901" stroke="#DFE1FE" stroke-opacity="0.04" stroke-width="2" stroke-miterlimit="10"/>
<path d="M-155.945 108.253C-98.5654 77.0539 -80.6054 110.085 -23.2253 78.8866C34.1548 47.6877 16.1948 14.6561 73.5584 -16.5338C130.922 -47.7237 148.899 -14.7011 206.279 -45.9C263.659 -77.0989 245.699 -110.13 303.079 -141.329C360.459 -172.528 378.419 -139.497 435.816 -170.704C493.212 -201.912 475.236 -234.935 532.616 -266.134" stroke="#DFE1FE" stroke-opacity="0.04" stroke-width="2" stroke-miterlimit="10"/>
<path d="M-12.1921 372.64C45.188 341.441 63.1845 374.54 120.565 343.341C177.945 312.142 159.948 279.043 217.312 247.853C274.675 216.663 292.688 249.753 350.069 218.554C407.449 187.355 389.452 154.257 446.832 123.058C504.212 91.859 522.209 124.958 579.605 93.7499C637.002 62.542 618.989 29.4522 676.369 -1.74666" stroke="#DFE1FE" stroke-opacity="0.04" stroke-width="2" stroke-miterlimit="10"/>
<path d="M-84.069 240.446C-26.6889 209.247 -8.72889 242.279 48.6512 211.08C106.031 179.881 88.0713 146.85 145.435 115.66C202.798 84.4699 220.775 117.493 278.155 86.2936C335.535 55.0947 317.575 22.0631 374.955 -9.13574C432.335 -40.3346 450.295 -7.30303 507.692 -38.5109C565.089 -69.7187 547.112 -102.741 604.492 -133.94" stroke="#DFE1FE" stroke-opacity="0.04" stroke-width="2" stroke-miterlimit="10"/>
<path d="M59.6846 504.834C117.065 473.635 135.061 506.733 192.441 475.535C249.821 444.336 231.825 411.237 289.188 380.047C346.552 348.857 364.565 381.947 421.945 350.748C479.325 319.549 461.329 286.45 518.709 255.251C576.089 224.053 594.086 257.151 651.482 225.943C708.879 194.736 690.866 161.646 748.246 130.447" stroke="#DFE1FE" stroke-opacity="0.04" stroke-width="2" stroke-miterlimit="10"/>
<path d="M158.538 686.642C215.918 655.443 233.878 688.474 291.258 657.275C348.638 626.077 330.678 593.045 388.042 561.855C445.405 530.665 463.382 563.688 520.762 532.489C578.142 501.29 560.182 468.258 617.562 437.06C674.942 405.861 692.902 438.892 750.299 407.684C807.695 376.477 789.719 343.454 847.099 312.255" stroke="#DFE1FE" stroke-opacity="0.04" stroke-width="2" stroke-miterlimit="10"/>
<path d="M-119.989 174.383C-62.6087 143.184 -44.6486 176.216 12.7315 145.017C70.1116 113.818 52.1515 80.7865 109.515 49.5966C166.879 18.4066 184.855 51.4293 242.235 20.2304C299.615 -10.9685 281.655 -44.0001 339.036 -75.199C396.416 -106.398 414.376 -73.3663 471.772 -104.574C529.169 -135.782 511.192 -168.805 568.572 -200.003" stroke="#DFE1FE" stroke-opacity="0.04" stroke-width="2" stroke-miterlimit="10"/>
<path d="M23.7645 438.77C81.1446 407.571 99.1046 440.603 156.485 409.404C213.865 378.205 195.905 345.174 253.268 313.984C310.632 282.794 328.609 315.816 385.989 284.617C443.369 253.419 425.409 220.387 482.789 189.188C540.169 157.989 558.129 191.021 615.526 159.813C672.922 128.605 654.946 95.5825 712.326 64.3836" stroke="#DFE1FE" stroke-opacity="0.04" stroke-width="2" stroke-miterlimit="10"/>
<path d="M122.581 620.511C179.961 589.312 197.958 622.411 255.338 591.212C312.718 560.013 294.722 526.915 352.085 495.725C409.449 464.535 427.462 497.625 484.842 466.426C542.222 435.227 524.226 402.128 581.606 370.929C638.986 339.73 656.982 372.829 714.379 341.621C771.776 310.413 753.762 277.324 811.143 246.125" stroke="#DFE1FE" stroke-opacity="0.04" stroke-width="2" stroke-miterlimit="10"/>
<path d="M-48.1122 306.577C9.26792 275.378 27.228 308.409 84.6081 277.211C141.988 246.012 124.028 212.98 181.392 181.79C238.755 150.6 256.732 183.623 314.112 152.424C371.492 121.225 353.532 88.1935 410.912 56.9946C468.292 25.7958 486.252 58.8273 543.649 27.6195C601.045 -3.58838 583.069 -36.611 640.449 -67.8099" stroke="#DFE1FE" stroke-opacity="0.04" stroke-width="2" stroke-miterlimit="10"/>
<path d="M95.6412 570.964C153.021 539.765 170.981 572.797 228.361 541.598C285.742 510.399 267.782 477.367 325.145 446.177C382.509 414.987 400.485 448.01 457.865 416.811C515.245 385.612 497.285 352.581 554.666 321.382C612.046 290.183 630.006 323.214 687.402 292.007C744.799 260.799 726.822 227.776 784.202 196.577" stroke="#DFE1FE" stroke-opacity="0.04" stroke-width="2" stroke-miterlimit="10"/>
<path d="M194.494 752.772C251.874 721.573 269.835 754.605 327.215 723.406C384.595 692.207 366.635 659.175 423.998 627.985C481.362 596.796 499.338 629.818 556.719 598.619C614.099 567.42 596.139 534.389 653.519 503.19C710.899 471.991 728.859 505.023 786.255 473.815C843.652 442.607 825.675 409.584 883.056 378.385" stroke="#DFE1FE" stroke-opacity="0.04" stroke-width="2" stroke-miterlimit="10"/>
<path d="M-137.985 141.284C-80.6053 110.086 -62.6087 143.184 -5.2286 111.985C52.1515 80.7866 34.155 47.6878 91.5185 16.4979C148.882 -14.692 166.895 18.3978 224.275 -12.8011C281.655 -44 263.659 -77.0987 321.039 -108.298C378.419 -139.496 396.416 -106.398 453.812 -137.606C511.209 -168.813 493.196 -201.903 550.576 -233.102" stroke="#DFE1FE" stroke-opacity="0.04" stroke-width="2" stroke-miterlimit="10"/>
<path d="M5.80438 405.739C63.1845 374.54 81.1445 407.571 138.525 376.373C195.905 345.174 177.945 312.142 235.308 280.952C292.672 249.762 310.648 282.785 368.029 251.586C425.409 220.387 407.449 187.356 464.829 156.157C522.209 124.958 540.169 157.989 597.565 126.781C654.962 95.5736 636.985 62.551 694.366 31.3521" stroke="#DFE1FE" stroke-opacity="0.04" stroke-width="2" stroke-miterlimit="10"/>
<path d="M-66.1088 273.478C-8.72873 242.279 9.26782 275.378 66.6479 244.179C124.028 212.98 106.031 179.881 163.395 148.691C220.759 117.501 238.772 150.591 296.152 119.392C353.532 88.1935 335.535 55.0948 392.915 23.8959C450.296 -7.303 468.292 25.7957 525.689 -5.41213C583.085 -36.62 565.072 -69.7098 622.452 -100.909" stroke="#DFE1FE" stroke-opacity="0.04" stroke-width="2" stroke-miterlimit="10"/>
<path d="M77.6811 537.932C135.061 506.733 153.021 539.765 210.401 508.566C267.781 477.367 249.821 444.336 307.185 413.146C364.549 381.956 382.525 414.978 439.905 383.779C497.285 352.581 479.325 319.549 536.705 288.35C594.085 257.151 612.046 290.183 669.442 258.975C726.839 227.767 708.862 194.744 766.242 163.546" stroke="#DFE1FE" stroke-opacity="0.04" stroke-width="2" stroke-miterlimit="10"/>
<path d="M176.498 719.673C233.878 688.474 251.875 721.573 309.255 690.374C366.635 659.175 348.638 626.077 406.002 594.887C463.365 563.697 481.378 596.786 538.759 565.588C596.139 534.389 578.142 501.29 635.522 470.091C692.902 438.892 710.899 471.991 768.295 440.783C825.692 409.575 807.679 376.485 865.059 345.287" stroke="#DFE1FE" stroke-opacity="0.04" stroke-width="2" stroke-miterlimit="10"/>
<path d="M-102.029 207.415C-44.6488 176.216 -26.6887 209.247 30.6914 178.049C88.0715 146.85 70.1114 113.818 127.475 82.6282C184.839 51.4383 202.815 84.4609 260.195 53.262C317.575 22.0631 299.615 -10.9685 356.995 -42.1674C414.376 -73.3662 432.336 -40.3346 489.732 -71.5425C547.129 -102.75 529.152 -135.773 586.532 -166.972" stroke="#DFE1FE" stroke-opacity="0.04" stroke-width="2" stroke-miterlimit="10"/>
<path d="M41.7244 471.802C99.1045 440.603 117.065 473.635 174.445 442.436C231.825 411.237 213.865 378.205 271.228 347.015C328.592 315.825 346.568 348.848 403.949 317.649C461.329 286.45 443.369 253.419 500.749 222.22C558.129 191.021 576.089 224.052 633.485 192.845C690.882 161.637 672.905 128.614 730.286 97.4152" stroke="#DFE1FE" stroke-opacity="0.04" stroke-width="2" stroke-miterlimit="10"/>
<path d="M140.578 653.61C197.958 622.411 215.918 655.443 273.298 624.244C330.678 593.045 312.718 560.013 370.082 528.823C427.445 497.634 445.422 530.656 502.802 499.457C560.182 468.258 542.222 435.227 599.602 404.028C656.982 372.829 674.942 405.861 732.339 374.653C789.735 343.445 771.759 310.422 829.139 279.223" stroke="#DFE1FE" stroke-opacity="0.04" stroke-width="2" stroke-miterlimit="10"/>
<path d="M-30.1523 339.608C27.2278 308.409 45.1878 341.441 102.568 310.242C159.948 279.043 141.988 246.012 199.352 214.822C256.715 183.632 274.692 216.654 332.072 185.456C389.452 154.257 371.492 121.225 428.872 90.0263C486.252 58.8274 504.212 91.859 561.609 60.6511C619.005 29.4432 601.029 -3.57939 658.409 -34.7783" stroke="#DFE1FE" stroke-opacity="0.04" stroke-width="2" stroke-miterlimit="10"/>
<path d="M113.601 603.996C170.981 572.797 188.978 605.895 246.358 574.697C303.738 543.498 285.742 510.399 343.105 479.209C400.469 448.019 418.482 481.109 475.862 449.91C533.242 418.711 515.245 385.612 572.625 354.413C630.006 323.215 648.002 356.313 705.399 325.105C762.795 293.898 744.782 260.808 802.162 229.609" stroke="#DFE1FE" stroke-opacity="0.04" stroke-width="2" stroke-miterlimit="10"/>
<path d="M212.454 785.804C269.834 754.605 287.794 787.636 345.175 756.437C402.555 725.238 384.595 692.207 441.958 661.017C499.322 629.827 517.298 662.85 574.678 631.651C632.059 600.452 614.099 567.42 671.479 536.221C728.859 505.023 746.819 538.054 804.215 506.846C861.612 475.638 843.635 442.616 901.016 411.417" stroke="#DFE1FE" stroke-opacity="0.04" stroke-width="2" stroke-miterlimit="10"/>
</g>
<g clip-path="url(#clip2_844_1141)">
<path d="M-596.172 356.124C-538.792 324.925 -520.832 357.957 -463.452 326.758C-406.072 295.559 -424.032 262.527 -366.668 231.338C-309.305 200.148 -291.328 233.17 -233.948 201.971C-176.568 170.772 -194.528 137.741 -137.148 106.542C-79.7677 75.3431 -61.8077 108.375 -4.41107 77.1668C52.9855 45.959 35.009 12.9364 92.3891 -18.2625" stroke="#DFE1FE" stroke-opacity="0.04" stroke-width="2" stroke-miterlimit="10"/>
<path d="M-668.049 223.931C-610.669 192.732 -592.709 225.763 -535.329 194.564C-477.948 163.366 -495.909 130.334 -438.545 99.144C-381.181 67.9541 -363.205 100.977 -305.825 69.7779C-248.445 38.579 -266.405 5.5474 -209.025 -25.6515C-151.644 -56.8504 -133.684 -23.8188 -76.2878 -55.0266C-18.8912 -86.2345 -36.8677 -119.257 20.5124 -150.456" stroke="#DFE1FE" stroke-opacity="0.04" stroke-width="2" stroke-miterlimit="10"/>
<path d="M-524.295 488.318C-466.915 457.119 -448.919 490.218 -391.539 459.019C-334.159 427.82 -352.155 394.721 -294.792 363.531C-237.428 332.341 -219.415 365.431 -162.035 334.232C-104.655 303.033 -122.651 269.934 -65.2711 238.736C-7.89104 207.537 10.1055 240.635 67.5021 209.428C124.899 178.22 106.886 145.13 164.266 113.931" stroke="#DFE1FE" stroke-opacity="0.04" stroke-width="2" stroke-miterlimit="10"/>
<path d="M-425.442 670.126C-368.062 638.927 -350.102 671.959 -292.722 640.76C-235.342 609.561 -253.302 576.529 -195.938 545.339C-138.575 514.149 -120.598 547.172 -63.218 515.973C-5.8379 484.774 -23.798 451.743 33.5821 420.544C90.9622 389.345 108.922 422.376 166.319 391.169C223.716 359.961 205.739 326.938 263.119 295.739" stroke="#DFE1FE" stroke-opacity="0.04" stroke-width="2" stroke-miterlimit="10"/>
<path d="M-560.215 422.254C-502.835 391.056 -484.875 424.087 -427.495 392.888C-370.115 361.689 -388.075 328.658 -330.712 297.468C-273.348 266.278 -255.371 299.301 -197.991 268.102C-140.611 236.903 -158.571 203.871 -101.191 172.672C-43.8111 141.473 -25.851 174.505 31.5456 143.297C88.9422 112.089 70.9656 79.0667 128.346 47.8678" stroke="#DFE1FE" stroke-opacity="0.04" stroke-width="2" stroke-miterlimit="10"/>
<path d="M-632.092 290.061C-574.712 258.862 -556.752 291.894 -499.372 260.695C-441.992 229.496 -459.952 196.464 -402.589 165.274C-345.225 134.085 -327.248 167.107 -269.868 135.908C-212.488 104.709 -230.448 71.6778 -173.068 40.4789C-115.688 9.28 -97.728 42.3116 -40.3314 11.1037C17.0652 -20.1041 -0.911307 -53.1268 56.4688 -84.3256" stroke="#DFE1FE" stroke-opacity="0.04" stroke-width="2" stroke-miterlimit="10"/>
<path d="M-488.339 554.448C-430.959 523.249 -412.998 556.281 -355.618 525.082C-298.238 493.883 -316.198 460.852 -258.835 429.662C-201.471 398.472 -183.495 431.494 -126.114 400.295C-68.7344 369.097 -86.6945 336.065 -29.3144 304.866C28.0657 273.667 46.0258 306.699 103.422 275.491C160.819 244.283 142.842 211.26 200.223 180.062" stroke="#DFE1FE" stroke-opacity="0.04" stroke-width="2" stroke-miterlimit="10"/>
<path d="M-389.522 736.189C-332.142 704.99 -314.145 738.089 -256.765 706.89C-199.385 675.691 -217.382 642.592 -160.018 611.402C-102.655 580.213 -84.6415 613.302 -27.2614 582.103C30.1187 550.905 12.1221 517.806 69.5022 486.607C126.882 455.408 144.879 488.507 202.275 457.299C259.672 426.091 241.659 393.001 299.039 361.802" stroke="#DFE1FE" stroke-opacity="0.04" stroke-width="2" stroke-miterlimit="10"/>
<path d="M-578.212 389.156C-520.832 357.957 -502.836 391.056 -445.455 359.857C-388.075 328.658 -406.072 295.559 -348.708 264.369C-291.345 233.179 -273.332 266.269 -215.952 235.07C-158.571 203.871 -176.568 170.772 -119.188 139.574C-61.8078 108.375 -43.8112 141.473 13.5854 110.266C70.982 79.0577 52.9689 45.968 110.349 14.7691" stroke="#DFE1FE" stroke-opacity="0.04" stroke-width="2" stroke-miterlimit="10"/>
<path d="M-650.089 256.962C-592.709 225.763 -574.712 258.862 -517.332 227.663C-459.952 196.464 -477.948 163.365 -420.585 132.176C-363.221 100.986 -345.208 134.075 -287.828 102.877C-230.448 71.6776 -248.444 38.5789 -191.064 7.38001C-133.684 -23.8189 -115.688 9.27986 -58.2911 -21.928C-0.894465 -53.1359 -18.9075 -86.2256 38.4726 -117.425" stroke="#DFE1FE" stroke-opacity="0.04" stroke-width="2" stroke-miterlimit="10"/>
<path d="M-506.299 521.416C-448.919 490.217 -430.959 523.249 -373.579 492.05C-316.199 460.851 -334.159 427.82 -276.795 396.63C-219.431 365.44 -201.455 398.462 -144.075 367.264C-86.6947 336.065 -104.655 303.033 -47.2747 271.834C10.1054 240.635 28.0655 273.667 85.4621 242.459C142.859 211.251 124.882 178.229 182.262 147.03" stroke="#DFE1FE" stroke-opacity="0.04" stroke-width="2" stroke-miterlimit="10"/>
<path d="M-407.482 703.157C-350.102 671.958 -332.142 704.99 -274.762 673.791C-217.382 642.592 -235.342 609.561 -177.978 578.371C-120.615 547.181 -102.638 580.203 -45.2579 549.005C12.1222 517.806 -5.83788 484.774 51.5422 453.575C108.922 422.376 126.882 455.408 184.279 424.2C241.676 392.992 223.699 359.97 281.079 328.771" stroke="#DFE1FE" stroke-opacity="0.04" stroke-width="2" stroke-miterlimit="10"/>
<path d="M-686.009 190.899C-628.629 159.7 -610.669 192.732 -553.289 161.533C-495.909 130.334 -513.869 97.3022 -456.505 66.1123C-399.141 34.9224 -381.165 67.945 -323.785 36.7461C-266.405 5.54725 -284.365 -27.4843 -226.985 -58.6832C-169.605 -89.8821 -151.644 -56.8505 -94.2479 -88.0584C-36.8513 -119.266 -54.8278 -152.289 2.55229 -183.488" stroke="#DFE1FE" stroke-opacity="0.04" stroke-width="2" stroke-miterlimit="10"/>
<path d="M-542.255 455.286C-484.875 424.087 -466.915 457.119 -409.535 425.92C-352.155 394.721 -370.115 361.689 -312.751 330.5C-255.388 299.31 -237.411 332.332 -180.031 301.133C-122.651 269.934 -140.611 236.903 -83.2311 205.704C-25.851 174.505 -7.89093 207.537 49.5057 176.329C106.902 145.121 88.9257 112.098 146.306 80.8995" stroke="#DFE1FE" stroke-opacity="0.04" stroke-width="2" stroke-miterlimit="10"/>
<path d="M-443.402 637.094C-386.022 605.895 -368.062 638.927 -310.682 607.728C-253.302 576.529 -271.262 543.498 -213.898 512.308C-156.535 481.118 -138.558 514.14 -81.1782 482.941C-23.7981 451.743 -41.7582 418.711 15.6219 387.512C73.002 356.313 90.9621 389.345 148.359 358.137C205.755 326.929 187.779 293.906 245.159 262.708" stroke="#DFE1FE" stroke-opacity="0.04" stroke-width="2" stroke-miterlimit="10"/>
<path d="M-614.132 323.092C-556.752 291.894 -538.792 324.925 -481.412 293.726C-424.032 262.527 -441.992 229.496 -384.628 198.306C-327.265 167.116 -309.288 200.139 -251.908 168.94C-194.528 137.741 -212.488 104.709 -155.108 73.5104C-97.7278 42.3115 -79.7678 75.3431 -22.3712 44.1352C35.0255 12.9274 17.0489 -20.0953 74.429 -51.2941" stroke="#DFE1FE" stroke-opacity="0.04" stroke-width="2" stroke-miterlimit="10"/>
<path d="M-470.379 587.48C-412.999 556.281 -395.039 589.312 -337.659 558.114C-280.279 526.915 -298.239 493.883 -240.875 462.693C-183.511 431.503 -165.535 464.526 -108.155 433.327C-50.7747 402.128 -68.7347 369.096 -11.3546 337.898C46.0255 306.699 63.9855 339.73 121.382 308.522C178.779 277.315 160.802 244.292 218.182 213.093" stroke="#DFE1FE" stroke-opacity="0.04" stroke-width="2" stroke-miterlimit="10"/>
<path d="M-371.526 769.288C-314.146 738.089 -296.185 771.121 -238.805 739.922C-181.425 708.723 -199.385 675.691 -142.022 644.501C-84.6581 613.311 -66.6816 646.334 -9.30149 615.135C48.0786 583.936 30.1185 550.905 87.4986 519.706C144.879 488.507 162.839 521.538 220.235 490.331C277.632 459.123 259.655 426.1 317.036 394.901" stroke="#DFE1FE" stroke-opacity="0.04" stroke-width="2" stroke-miterlimit="10"/>
<path d="M-587.192 372.64C-529.812 341.441 -511.815 374.54 -454.435 343.341C-397.055 312.142 -415.052 279.043 -357.688 247.853C-300.325 216.663 -282.312 249.753 -224.931 218.554C-167.551 187.355 -185.548 154.257 -128.168 123.058C-70.7878 91.859 -52.7912 124.958 4.60541 93.7499C62.002 62.542 43.989 29.4522 101.369 -1.74666" stroke="#DFE1FE" stroke-opacity="0.04" stroke-width="2" stroke-miterlimit="10"/>
<path d="M-659.069 240.446C-601.689 209.247 -583.729 242.279 -526.349 211.08C-468.969 179.881 -486.929 146.85 -429.565 115.66C-372.202 84.4699 -354.225 117.493 -296.845 86.2936C-239.465 55.0947 -257.425 22.0631 -200.045 -9.13574C-142.665 -40.3346 -124.705 -7.30303 -67.308 -38.5109C-9.91144 -69.7187 -27.888 -102.741 29.4921 -133.94" stroke="#DFE1FE" stroke-opacity="0.04" stroke-width="2" stroke-miterlimit="10"/>
<path d="M-515.315 504.834C-457.935 473.635 -439.939 506.733 -382.559 475.535C-325.179 444.336 -343.175 411.237 -285.812 380.047C-228.448 348.857 -210.435 381.947 -153.055 350.748C-95.6747 319.549 -113.671 286.45 -56.2912 255.251C1.08894 224.053 19.0855 257.151 76.4821 225.943C133.879 194.736 115.866 161.646 173.246 130.447" stroke="#DFE1FE" stroke-opacity="0.04" stroke-width="2" stroke-miterlimit="10"/>
<path d="M-416.462 686.642C-359.082 655.443 -341.122 688.474 -283.742 657.275C-226.362 626.077 -244.322 593.045 -186.958 561.855C-129.595 530.665 -111.618 563.688 -54.238 532.489C3.14208 501.29 -14.818 468.258 42.5621 437.06C99.9422 405.861 117.902 438.892 175.299 407.684C232.695 376.477 214.719 343.454 272.099 312.255" stroke="#DFE1FE" stroke-opacity="0.04" stroke-width="2" stroke-miterlimit="10"/>
<path d="M-694.989 174.383C-637.609 143.184 -619.649 176.216 -562.269 145.017C-504.888 113.818 -522.848 80.7865 -465.485 49.5966C-408.121 18.4066 -390.145 51.4293 -332.765 20.2304C-275.385 -10.9685 -293.345 -44.0001 -235.964 -75.199C-178.584 -106.398 -160.624 -73.3663 -103.228 -104.574C-45.8311 -135.782 -63.8077 -168.805 -6.42757 -200.003" stroke="#DFE1FE" stroke-opacity="0.04" stroke-width="2" stroke-miterlimit="10"/>
<path d="M-551.236 438.77C-493.855 407.571 -475.895 440.603 -418.515 409.404C-361.135 378.205 -379.095 345.174 -321.732 313.984C-264.368 282.794 -246.392 315.816 -189.011 284.617C-131.631 253.419 -149.591 220.387 -92.2113 189.188C-34.8312 157.989 -16.8712 191.021 40.5254 159.813C97.9221 128.605 79.9455 95.5825 137.326 64.3836" stroke="#DFE1FE" stroke-opacity="0.04" stroke-width="2" stroke-miterlimit="10"/>
<path d="M-452.419 620.511C-395.039 589.312 -377.042 622.411 -319.662 591.212C-262.282 560.013 -280.278 526.915 -222.915 495.725C-165.551 464.535 -147.538 497.625 -90.1581 466.426C-32.778 435.227 -50.7745 402.128 6.60557 370.929C63.9857 339.73 81.9822 372.829 139.379 341.621C196.775 310.413 178.762 277.324 236.142 246.125" stroke="#DFE1FE" stroke-opacity="0.04" stroke-width="2" stroke-miterlimit="10"/>
<path d="M-623.112 306.577C-565.732 275.378 -547.772 308.409 -490.392 277.211C-433.012 246.012 -450.972 212.98 -393.608 181.79C-336.245 150.6 -318.268 183.623 -260.888 152.424C-203.508 121.225 -221.468 88.1935 -164.088 56.9946C-106.708 25.7958 -88.7477 58.8273 -31.3511 27.6195C26.0455 -3.58838 8.06892 -36.611 65.449 -67.8099" stroke="#DFE1FE" stroke-opacity="0.04" stroke-width="2" stroke-miterlimit="10"/>
<path d="M-479.359 570.964C-421.979 539.765 -404.019 572.797 -346.639 541.598C-289.258 510.399 -307.218 477.367 -249.855 446.177C-192.491 414.987 -174.515 448.01 -117.135 416.811C-59.7545 385.612 -77.7146 352.581 -20.3345 321.382C37.0456 290.183 55.0057 323.214 112.402 292.007C169.799 260.799 151.822 227.776 209.202 196.577" stroke="#DFE1FE" stroke-opacity="0.04" stroke-width="2" stroke-miterlimit="10"/>
<path d="M-380.506 752.772C-323.126 721.573 -305.165 754.605 -247.785 723.406C-190.405 692.207 -208.365 659.175 -151.002 627.985C-93.6381 596.796 -75.6616 629.818 -18.2815 598.619C39.0986 567.42 21.1386 534.389 78.5187 503.19C135.899 471.991 153.859 505.023 211.255 473.815C268.652 442.607 250.675 409.584 308.056 378.385" stroke="#DFE1FE" stroke-opacity="0.04" stroke-width="2" stroke-miterlimit="10"/>
<path d="M-569.196 405.739C-511.815 374.54 -493.855 407.571 -436.475 376.373C-379.095 345.174 -397.055 312.142 -339.692 280.952C-282.328 249.762 -264.352 282.785 -206.971 251.586C-149.591 220.387 -167.551 187.356 -110.171 156.157C-52.7912 124.958 -34.8311 157.989 22.5655 126.781C79.9621 95.5736 61.9855 62.551 119.366 31.3521" stroke="#DFE1FE" stroke-opacity="0.04" stroke-width="2" stroke-miterlimit="10"/>
<path d="M-641.109 273.478C-583.729 242.279 -565.732 275.378 -508.352 244.179C-450.972 212.98 -468.969 179.881 -411.605 148.691C-354.241 117.501 -336.228 150.591 -278.848 119.392C-221.468 88.1935 -239.465 55.0948 -182.085 23.8959C-124.705 -7.303 -106.708 25.7957 -49.3113 -5.41213C8.08527 -36.62 -9.92779 -69.7098 47.4523 -100.909" stroke="#DFE1FE" stroke-opacity="0.04" stroke-width="2" stroke-miterlimit="10"/>
<path d="M-497.319 537.932C-439.939 506.733 -421.979 539.765 -364.599 508.566C-307.219 477.367 -325.179 444.336 -267.815 413.146C-210.451 381.956 -192.475 414.978 -135.095 383.779C-77.7146 352.581 -95.6747 319.549 -38.2946 288.35C19.0855 257.151 37.0456 290.183 94.4422 258.975C151.839 227.767 133.862 194.744 191.242 163.546" stroke="#DFE1FE" stroke-opacity="0.04" stroke-width="2" stroke-miterlimit="10"/>
<path d="M-398.502 719.673C-341.122 688.474 -323.125 721.573 -265.745 690.374C-208.365 659.175 -226.362 626.077 -168.998 594.887C-111.635 563.697 -93.6216 596.786 -36.2415 565.588C21.1386 534.389 3.14204 501.29 60.5221 470.091C117.902 438.892 135.899 471.991 193.295 440.783C250.692 409.575 232.679 376.485 290.059 345.287" stroke="#DFE1FE" stroke-opacity="0.04" stroke-width="2" stroke-miterlimit="10"/>
<path d="M-677.029 207.415C-619.649 176.216 -601.689 209.247 -544.309 178.049C-486.928 146.85 -504.889 113.818 -447.525 82.6282C-390.161 51.4383 -372.185 84.4609 -314.805 53.262C-257.425 22.0631 -275.385 -10.9685 -218.005 -42.1674C-160.624 -73.3662 -142.664 -40.3346 -85.2678 -71.5425C-27.8712 -102.75 -45.8477 -135.773 11.5324 -166.972" stroke="#DFE1FE" stroke-opacity="0.04" stroke-width="2" stroke-miterlimit="10"/>
<path d="M-533.276 471.802C-475.896 440.603 -457.935 473.635 -400.555 442.436C-343.175 411.237 -361.135 378.205 -303.772 347.015C-246.408 315.825 -228.432 348.848 -171.051 317.649C-113.671 286.45 -131.631 253.419 -74.2514 222.22C-16.8713 191.021 1.0888 224.052 58.4854 192.845C115.882 161.637 97.9055 128.614 155.286 97.4152" stroke="#DFE1FE" stroke-opacity="0.04" stroke-width="2" stroke-miterlimit="10"/>
<path d="M-434.422 653.61C-377.042 622.411 -359.082 655.443 -301.702 624.244C-244.322 593.045 -262.282 560.013 -204.918 528.823C-147.555 497.634 -129.578 530.656 -72.1982 499.457C-14.8181 468.258 -32.7782 435.227 24.6019 404.028C81.982 372.829 99.9421 405.861 157.339 374.653C214.735 343.445 196.759 310.422 254.139 279.223" stroke="#DFE1FE" stroke-opacity="0.04" stroke-width="2" stroke-miterlimit="10"/>
<path d="M-605.152 339.608C-547.772 308.409 -529.812 341.441 -472.432 310.242C-415.052 279.043 -433.012 246.012 -375.648 214.822C-318.285 183.632 -300.308 216.654 -242.928 185.456C-185.548 154.257 -203.508 121.225 -146.128 90.0263C-88.748 58.8274 -70.7879 91.859 -13.3913 60.6511C44.0053 29.4432 26.0288 -3.57939 83.4089 -34.7783" stroke="#DFE1FE" stroke-opacity="0.04" stroke-width="2" stroke-miterlimit="10"/>
<path d="M-461.399 603.996C-404.019 572.797 -386.022 605.895 -328.642 574.697C-271.262 543.498 -289.258 510.399 -231.895 479.209C-174.531 448.019 -156.518 481.109 -99.1382 449.91C-41.7581 418.711 -59.7546 385.612 -2.37453 354.413C55.0056 323.215 73.0021 356.313 130.399 325.105C187.795 293.898 169.782 260.808 227.162 229.609" stroke="#DFE1FE" stroke-opacity="0.04" stroke-width="2" stroke-miterlimit="10"/>
<path d="M-362.546 785.804C-305.166 754.605 -287.206 787.636 -229.825 756.437C-172.445 725.238 -190.405 692.207 -133.042 661.017C-75.6782 629.827 -57.7016 662.85 -0.321512 631.651C57.0586 600.452 39.0985 567.42 96.4786 536.221C153.859 505.023 171.819 538.054 229.215 506.846C286.612 475.638 268.635 442.616 326.016 411.417" stroke="#DFE1FE" stroke-opacity="0.04" stroke-width="2" stroke-miterlimit="10"/>
</g>
</g>
<defs>
<clipPath id="clip0_844_1141">
<rect width="576" height="576" fill="white" transform="translate(662 -28)"/>
</clipPath>
<clipPath id="clip1_844_1141">
<rect width="576" height="576" fill="white" transform="translate(89 -28)"/>
</clipPath>
<clipPath id="clip2_844_1141">
<rect width="576" height="576" fill="white" transform="translate(-486 -28)"/>
</clipPath>
</defs>
</svg>
