<svg width="27" height="27" viewBox="0 0 27 27" fill="none" xmlns="http://www.w3.org/2000/svg">
<path d="M20.3295 9.18432C19.8837 9.37618 19.415 9.50979 18.9351 9.58183C19.1595 9.54336 19.4896 9.13945 19.6211 8.97596C19.8208 8.72935 19.9729 8.44783 20.0699 8.14569C20.0699 8.12325 20.0923 8.0912 20.0699 8.07517C20.0586 8.06899 20.0459 8.06576 20.033 8.06576C20.0201 8.06576 20.0074 8.06899 19.9961 8.07517C19.475 8.3574 18.9203 8.57281 18.3452 8.7163C18.3252 8.72242 18.3039 8.72297 18.2835 8.71789C18.2632 8.71281 18.2446 8.70228 18.2298 8.68745C18.1851 8.63415 18.1369 8.58382 18.0856 8.53678C17.851 8.32663 17.5849 8.15464 17.297 8.02708C16.9083 7.86763 16.4885 7.79857 16.0692 7.82513C15.6624 7.85082 15.2652 7.95994 14.9024 8.14569C14.545 8.34153 14.231 8.60759 13.9791 8.92787C13.7142 9.25753 13.5229 9.6401 13.4181 10.0499C13.3318 10.4396 13.322 10.8424 13.3893 11.2359C13.3893 11.3033 13.3893 11.3129 13.3316 11.3033C11.046 10.9667 9.17064 10.1556 7.63834 8.41497C7.57102 8.33803 7.53576 8.33803 7.48126 8.41497C6.81449 9.42795 7.13826 11.0308 7.97173 11.8226C8.08393 11.9284 8.19933 12.0309 8.32114 12.1271C7.939 12.1 7.5662 11.9964 7.22481 11.8226C7.1607 11.7809 7.12543 11.8033 7.12223 11.8803C7.11314 11.9869 7.11314 12.0942 7.12223 12.2008C7.18912 12.712 7.39057 13.1963 7.70598 13.604C8.02139 14.0118 8.43945 14.3285 8.9174 14.5217C9.03391 14.5716 9.15531 14.6092 9.27963 14.6339C8.92587 14.7036 8.56303 14.7144 8.20574 14.666C8.1288 14.65 8.09995 14.6916 8.1288 14.7654C8.60004 16.0476 9.62264 16.4387 10.3728 16.6567C10.4753 16.6727 10.5779 16.6727 10.6933 16.6984C10.6933 16.6984 10.6933 16.6984 10.6741 16.7176C10.4529 17.1215 9.55853 17.394 9.1482 17.5351C8.39926 17.8041 7.60074 17.9069 6.80807 17.8364C6.68305 17.8172 6.6542 17.8204 6.62215 17.8364C6.59009 17.8524 6.62215 17.8877 6.65741 17.9197C6.81769 18.0255 6.97797 18.1185 7.14467 18.2082C7.64092 18.4789 8.16555 18.6939 8.70903 18.8494C11.5236 19.6251 14.6908 19.0545 16.8033 16.9548C18.4638 15.3071 19.0473 13.0343 19.0473 10.7583C19.0473 10.6717 19.1531 10.6205 19.214 10.5756C19.6341 10.2482 20.0044 9.86168 20.3135 9.42795C20.367 9.3633 20.3945 9.28098 20.3904 9.19715C20.3904 9.14906 20.3904 9.15868 20.3295 9.18432Z" fill="#33CCFF"/>
</svg>
