<svg width="457" height="151" viewBox="0 0 457 151" fill="none" xmlns="http://www.w3.org/2000/svg">
<path d="M91 4.49999L91.1899 3.51818L91 4.49999ZM2.00004 68.5L1.00066 68.5352L1.00162 68.5625L1.00407 68.5897L2.00004 68.5ZM457 136.5L446.507 131.681L447.58 143.178L457 136.5ZM212.853 5.52167C212.372 5.79287 212.202 6.40274 212.473 6.88385C212.744 7.36496 213.354 7.53512 213.835 7.26392L212.853 5.52167ZM206.223 10.3297C206.753 10.1724 207.055 9.61574 206.897 9.08632C206.74 8.55689 206.183 8.25519 205.654 8.41245L206.223 10.3297ZM197.993 10.2114C197.45 10.3112 197.09 10.8325 197.19 11.3757C197.29 11.9189 197.811 12.2783 198.354 12.1784L197.993 10.2114ZM190.358 13.3441C190.907 13.2825 191.302 12.7877 191.24 12.2388C191.179 11.69 190.684 11.295 190.135 11.3565L190.358 13.3441ZM182.243 12.0271C181.692 12.0603 181.272 12.5341 181.305 13.0854C181.338 13.6367 181.812 14.0567 182.363 14.0235L182.243 12.0271ZM174.337 14.3358C174.889 14.3253 175.328 13.8691 175.318 13.3169C175.307 12.7647 174.851 12.3256 174.299 12.3362L174.337 14.3358ZM166.322 12.3494C165.77 12.3413 165.316 12.7823 165.308 13.3345C165.299 13.8868 165.741 14.3411 166.293 14.3492L166.322 12.3494ZM158.304 14.1137C158.856 14.1377 159.322 13.7098 159.346 13.1581C159.37 12.6063 158.943 12.1396 158.391 12.1156L158.304 14.1137ZM150.424 11.6672C149.873 11.6295 149.396 12.0455 149.358 12.5965C149.32 13.1475 149.736 13.6248 150.287 13.6626L150.424 11.6672ZM142.317 13.0266C142.867 13.0764 143.353 12.6709 143.403 12.1209C143.453 11.5709 143.048 11.0846 142.498 11.0347L142.317 13.0266ZM134.549 10.2339C134 10.1732 133.506 10.569 133.445 11.1179C133.385 11.6669 133.781 12.1611 134.33 12.2218L134.549 10.2339ZM126.374 11.2696C126.921 11.3401 127.422 10.9531 127.493 10.4053C127.563 9.85751 127.176 9.35637 126.629 9.28596L126.374 11.2696ZM118.743 8.20688C118.197 8.12766 117.689 8.50652 117.61 9.0531C117.531 9.59967 117.91 10.107 118.456 10.1862L118.743 8.20688ZM110.549 8.97947C111.094 9.06676 111.607 8.69543 111.694 8.15009C111.781 7.60475 111.41 7.0919 110.865 7.00461L110.549 8.97947ZM102.998 5.68973C102.454 5.59501 101.936 5.95931 101.842 6.50342C101.747 7.04752 102.111 7.56538 102.655 7.6601L102.998 5.68973ZM94.7799 6.23718C95.3228 6.33876 95.8452 5.98104 95.9468 5.43818C96.0484 4.89532 95.6907 4.37289 95.1478 4.2713L94.7799 6.23718ZM87.0372 2.762C86.4928 2.66915 85.9762 3.03523 85.8833 3.57965C85.7905 4.12407 86.1565 4.64068 86.701 4.73353L87.0372 2.762ZM78.5775 3.54727C79.1259 3.61323 79.6239 3.2222 79.6898 2.67387C79.7558 2.12554 79.3648 1.62755 78.8164 1.56158L78.5775 3.54727ZM70.5486 0.803327C69.9973 0.769398 69.5229 1.18876 69.489 1.74C69.4551 2.29125 69.8745 2.76562 70.4257 2.79955L70.5486 0.803327ZM62.2526 2.57393C62.8049 2.56924 63.2488 2.11774 63.2441 1.56548C63.2394 1.01321 62.7879 0.569312 62.2356 0.574L62.2526 2.57393ZM53.8665 0.991049C53.3166 1.04282 52.9129 1.53054 52.9646 2.08039C53.0164 2.63024 53.5041 3.03401 54.054 2.98224L53.8665 0.991049ZM46.0159 4.1462C46.5575 4.038 46.9089 3.51125 46.8007 2.96967C46.6925 2.42808 46.1657 2.07676 45.6241 2.18495L46.0159 4.1462ZM37.4962 4.33319C36.9726 4.50875 36.6904 5.07557 36.866 5.5992C37.0416 6.12284 37.6084 6.40501 38.132 6.22944L37.4962 4.33319ZM30.6512 9.36073C31.1428 9.10901 31.3372 8.50644 31.0855 8.01486C30.8338 7.52327 30.2312 7.32882 29.7397 7.58055L30.6512 9.36073ZM22.5908 12.0301C22.1487 12.3612 22.0587 12.9879 22.3898 13.43C22.7209 13.8721 23.3476 13.962 23.7897 13.631L22.5908 12.0301ZM17.7865 19.0242C18.1628 18.6199 18.14 17.9871 17.7357 17.6109C17.3314 17.2347 16.6986 17.2575 16.3224 17.6618L17.7865 19.0242ZM11.1417 24.3111C10.8407 24.7742 10.9721 25.3935 11.4351 25.6946C11.8982 25.9956 12.5176 25.8642 12.8186 25.4012L11.1417 24.3111ZM8.9549 32.5268C9.18055 32.0228 8.95482 31.4312 8.45073 31.2055C7.94665 30.9799 7.35508 31.2056 7.12944 31.7097L8.9549 32.5268ZM4.23343 39.5838C4.07673 40.1133 4.37901 40.6697 4.9086 40.8264C5.43819 40.9831 5.99453 40.6808 6.15124 40.1512L4.23343 39.5838ZM4.29129 48.096C4.38776 47.5522 4.02514 47.0332 3.48135 46.9367C2.93756 46.8403 2.41852 47.2029 2.32204 47.7467L4.29129 48.096ZM1.26194 56.0389C1.21709 56.5894 1.62697 57.072 2.17743 57.1168C2.72789 57.1617 3.21048 56.7518 3.25533 56.2013L1.26194 56.0389ZM2.928 64.3842C2.92838 63.8319 2.48096 63.3839 1.92868 63.3835C1.37639 63.3832 0.928377 63.8306 0.928004 64.3829L2.928 64.3842ZM1.53868 72.8508C1.62898 73.3957 2.14388 73.7642 2.68873 73.6739C3.23358 73.5836 3.60206 73.0687 3.51176 72.5238L1.53868 72.8508ZM5.62913 80.5004C5.43467 79.9835 4.85798 79.7221 4.34107 79.9166C3.82415 80.111 3.56274 80.6877 3.75721 81.2046L5.62913 80.5004ZM7.58595 88.9468C7.87681 89.4163 8.4932 89.5611 8.96269 89.2703C9.43217 88.9794 9.57698 88.363 9.28612 87.8935L7.58595 88.9468ZM14.2228 94.5466C13.8605 94.1297 13.2289 94.0855 12.812 94.4478C12.3952 94.8101 12.3509 95.4417 12.7132 95.8585L14.2228 94.5466ZM18.7433 101.953C19.1543 102.321 19.7865 102.287 20.1555 101.876C20.5244 101.465 20.4903 100.833 20.0794 100.464L18.7433 101.953ZM26.5612 105.731C26.1174 105.402 25.4911 105.496 25.1625 105.939C24.8339 106.383 24.9273 107.009 25.3712 107.338L26.5612 105.731ZM32.4074 112.145C32.874 112.44 33.4918 112.302 33.7872 111.835C34.0826 111.368 33.9438 110.751 33.4771 110.455L32.4074 112.145ZM40.7116 114.737C40.2287 114.469 39.62 114.643 39.352 115.126C39.084 115.609 39.2582 116.218 39.7411 116.486L40.7116 114.737ZM47.2707 120.431C47.7655 120.676 48.3655 120.474 48.6107 119.979C48.856 119.484 48.6536 118.884 48.1587 118.639L47.2707 120.431ZM55.7598 122.22C55.2559 121.994 54.6641 122.219 54.438 122.723C54.212 123.227 54.4372 123.819 54.9411 124.045L55.7598 122.22ZM62.7487 127.394C63.2596 127.603 63.8438 127.359 64.0535 126.848C64.2632 126.337 64.0191 125.753 63.5081 125.543L62.7487 127.394ZM71.367 128.64C70.8505 128.445 70.2733 128.705 70.0777 129.221C69.8822 129.738 70.1423 130.315 70.6588 130.511L71.367 128.64ZM78.6009 133.408C79.1219 133.592 79.6928 133.318 79.8761 132.797C80.0594 132.276 79.7857 131.705 79.2647 131.522L78.6009 133.408ZM87.2434 134.234C86.7187 134.062 86.1536 134.347 85.9811 134.872C85.8087 135.397 86.0942 135.962 86.6188 136.134L87.2434 134.234ZM94.4769 138.599C95.0075 138.752 95.5618 138.446 95.715 137.915C95.8683 137.385 95.5623 136.83 95.0317 136.677L94.4769 138.599ZM102.718 138.701C102.181 138.572 101.641 138.903 101.512 139.44C101.383 139.977 101.714 140.517 102.251 140.646L102.718 138.701ZM110.097 142.375C110.639 142.485 111.166 142.134 111.276 141.593C111.385 141.052 111.035 140.524 110.494 140.415L110.097 142.375ZM118.339 141.877C117.794 141.783 117.277 142.149 117.184 142.693C117.091 143.237 117.456 143.754 118.001 143.848L118.339 141.877ZM125.952 145.108C126.499 145.188 127.006 144.809 127.086 144.263C127.166 143.716 126.788 143.209 126.241 143.129L125.952 145.108ZM134.11 144.192C133.562 144.124 133.062 144.513 132.994 145.061C132.925 145.609 133.314 146.109 133.862 146.177L134.11 144.192ZM141.8 147.093C142.349 147.152 142.842 146.754 142.9 146.205C142.959 145.656 142.561 145.163 142.012 145.105L141.8 147.093ZM149.959 145.886C149.409 145.836 148.923 146.242 148.873 146.792C148.823 147.342 149.229 147.828 149.779 147.878L149.959 145.886ZM157.795 148.545C158.345 148.587 158.826 148.174 158.868 147.623C158.91 147.073 158.498 146.592 157.947 146.55L157.795 148.545ZM165.872 147.104C165.321 147.069 164.846 147.487 164.811 148.039C164.776 148.59 165.194 149.065 165.745 149.1L165.872 147.104ZM173.731 149.563C174.282 149.592 174.753 149.169 174.782 148.617C174.811 148.066 174.387 147.595 173.835 147.566L173.731 149.563ZM181.836 147.944C181.285 147.921 180.818 148.349 180.795 148.901C180.772 149.453 181.2 149.919 181.752 149.943L181.836 147.944ZM189.728 150.242C190.28 150.26 190.742 149.827 190.76 149.275C190.778 148.723 190.346 148.261 189.794 148.243L189.728 150.242ZM197.771 148.471C197.219 148.458 196.76 148.895 196.747 149.447C196.733 149.999 197.17 150.457 197.722 150.471L197.771 148.471ZM205.746 150.635C206.298 150.644 206.753 150.204 206.763 149.652C206.772 149.1 206.332 148.645 205.779 148.635L205.746 150.635ZM213.74 148.738C213.188 148.733 212.736 149.177 212.731 149.729C212.726 150.281 213.169 150.733 213.721 150.738L213.74 148.738ZM221.725 150.786C222.277 150.788 222.726 150.341 222.727 149.789C222.729 149.237 222.282 148.788 221.73 148.786L221.725 150.786ZM229.725 148.782C229.172 148.784 228.726 149.234 228.728 149.786C228.73 150.338 229.179 150.784 229.732 150.782L229.725 148.782ZM237.719 150.73C238.271 150.725 238.714 150.273 238.709 149.721C238.704 149.168 238.252 148.725 237.7 148.73L237.719 150.73ZM245.695 148.632C245.143 148.641 244.702 149.095 244.71 149.647C244.718 150.2 245.173 150.641 245.725 150.632L245.695 148.632ZM253.716 150.492C254.268 150.481 254.707 150.024 254.696 149.472C254.685 148.92 254.228 148.481 253.676 148.493L253.716 150.492ZM261.662 148.312C261.11 148.326 260.674 148.785 260.687 149.337C260.701 149.889 261.16 150.326 261.712 150.312L261.662 148.312ZM269.709 150.094C270.261 150.077 270.695 149.617 270.679 149.065C270.663 148.513 270.202 148.078 269.65 148.095L269.709 150.094ZM277.632 147.841C277.08 147.86 276.648 148.323 276.666 148.875C276.685 149.426 277.148 149.859 277.7 149.84L277.632 147.841ZM285.692 149.552C286.244 149.531 286.674 149.067 286.653 148.515C286.632 147.963 286.168 147.533 285.616 147.554L285.692 149.552ZM293.597 147.234C293.046 147.257 292.617 147.724 292.64 148.275C292.663 148.827 293.129 149.256 293.681 149.232L293.597 147.234ZM301.673 148.882C302.224 148.857 302.651 148.389 302.626 147.837C302.601 147.286 302.133 146.859 301.581 146.884L301.673 148.882ZM309.552 146.505C309 146.532 308.575 147.001 308.602 147.553C308.63 148.105 309.099 148.53 309.65 148.503L309.552 146.505ZM317.647 148.095C318.198 148.065 318.622 147.595 318.593 147.043C318.564 146.492 318.093 146.068 317.542 146.097L317.647 148.095ZM325.515 145.664C324.964 145.695 324.542 146.167 324.573 146.718C324.603 147.27 325.076 147.691 325.627 147.661L325.515 145.664ZM333.607 147.201C334.158 147.168 334.579 146.695 334.546 146.144C334.514 145.592 334.04 145.172 333.489 145.205L333.607 147.201ZM341.474 144.72C340.923 144.754 340.504 145.229 340.538 145.78C340.572 146.332 341.047 146.751 341.598 146.716L341.474 144.72ZM349.558 146.21C350.11 146.174 350.527 145.698 350.491 145.147C350.456 144.596 349.98 144.178 349.429 144.214L349.558 146.21ZM357.416 143.684C356.865 143.721 356.449 144.198 356.486 144.749C356.524 145.3 357.001 145.716 357.552 145.679L357.416 143.684ZM365.532 145.127C366.083 145.088 366.498 144.61 366.459 144.059C366.421 143.508 365.942 143.093 365.392 143.132L365.532 145.127ZM373.327 142.562C372.777 142.602 372.363 143.082 372.403 143.632C372.443 144.183 372.922 144.597 373.473 144.557L373.327 142.562ZM381.48 143.962C382.031 143.92 382.443 143.44 382.402 142.89C382.36 142.339 381.88 141.926 381.329 141.968L381.48 143.962ZM389.299 141.356C388.748 141.399 388.336 141.88 388.379 142.431C388.422 142.981 388.903 143.393 389.454 143.35L389.299 141.356ZM397.387 142.723C397.937 142.679 398.348 142.197 398.304 141.646C398.26 141.096 397.778 140.685 397.227 140.729L397.387 142.723ZM405.222 140.08C404.672 140.125 404.263 140.608 404.308 141.158C404.353 141.709 404.836 142.118 405.387 142.073L405.222 140.08ZM413.368 141.407C413.918 141.36 414.327 140.877 414.28 140.326C414.234 139.776 413.75 139.368 413.199 139.414L413.368 141.407ZM421.144 138.735C420.594 138.783 420.186 139.267 420.234 139.817C420.282 140.368 420.766 140.775 421.316 140.728L421.144 138.735ZM429.241 140.035C429.791 139.986 430.197 139.501 430.149 138.951C430.1 138.401 429.615 137.994 429.065 138.043L429.241 140.035ZM437.062 137.329C436.512 137.379 436.106 137.865 436.155 138.415C436.205 138.965 436.691 139.371 437.241 139.321L437.062 137.329ZM445.223 138.596C445.773 138.546 446.178 138.059 446.127 137.509C446.077 136.959 445.59 136.554 445.04 136.604L445.223 138.596ZM453.006 135.868C452.456 135.92 452.052 136.407 452.103 136.957C452.154 137.507 452.642 137.911 453.191 137.86L453.006 135.868ZM215.749 3.3402C215.17 3.9987 214.231 4.74516 212.853 5.52167L213.835 7.26392C215.333 6.41979 216.476 5.54265 217.251 4.6598L215.749 3.3402ZM205.654 8.41245C203.461 9.06375 200.915 9.67405 197.993 10.2114L198.354 12.1784C201.338 11.6299 203.954 11.0038 206.223 10.3297L205.654 8.41245ZM190.135 11.3565C187.693 11.6305 185.065 11.8574 182.243 12.0271L182.363 14.0235C185.217 13.8518 187.88 13.6221 190.358 13.3441L190.135 11.3565ZM174.299 12.3362C171.768 12.3846 169.111 12.3907 166.322 12.3494L166.293 14.3492C169.103 14.3908 171.783 14.3846 174.337 14.3358L174.299 12.3362ZM158.391 12.1156C155.832 12.0043 153.177 11.8559 150.424 11.6672L150.287 13.6626C153.056 13.8524 155.728 14.0017 158.304 14.1137L158.391 12.1156ZM142.498 11.0347C139.925 10.8016 137.276 10.5353 134.549 10.2339L134.33 12.2218C137.069 12.5246 139.731 12.7922 142.317 13.0266L142.498 11.0347ZM126.629 9.28596C124.064 8.95631 121.436 8.59711 118.743 8.20688L118.456 10.1862C121.159 10.5779 123.798 10.9386 126.374 11.2696L126.629 9.28596ZM110.865 7.00461C108.297 6.59365 105.675 6.15573 102.998 5.68973L102.655 7.6601C105.341 8.12763 107.972 8.56705 110.549 8.97947L110.865 7.00461ZM95.1478 4.2713C93.8408 4.02673 92.5216 3.77573 91.1899 3.51818L90.8101 5.4818C92.1457 5.7401 93.469 5.99186 94.7799 6.23718L95.1478 4.2713ZM91.1899 3.51818C89.7842 3.24634 88.4001 2.99443 87.0372 2.762L86.701 4.73353C88.049 4.96343 89.4186 5.21269 90.8101 5.4818L91.1899 3.51818ZM78.8164 1.56158C75.9591 1.21782 73.2044 0.966792 70.5486 0.803327L70.4257 2.79955C73.0409 2.96051 75.7569 3.20791 78.5775 3.54727L78.8164 1.56158ZM62.2356 0.574C59.3125 0.598811 56.5249 0.740747 53.8665 0.991049L54.054 2.98224C56.6527 2.73755 59.3834 2.59828 62.2526 2.57393L62.2356 0.574ZM45.6241 2.18495C42.7386 2.76144 40.0328 3.48271 37.4962 4.33319L38.132 6.22944C40.5852 5.40694 43.2092 4.70693 46.0159 4.1462L45.6241 2.18495ZM29.7397 7.58055C27.1355 8.91405 24.7587 10.4065 22.5908 12.0301L23.7897 13.631C25.8665 12.0756 28.147 10.643 30.6512 9.36073L29.7397 7.58055ZM16.3224 17.6618C14.3631 19.7673 12.6457 21.9976 11.1417 24.3111L12.8186 25.4012C14.2633 23.1788 15.9103 21.0405 17.7865 19.0242L16.3224 17.6618ZM7.12944 31.7097C5.96781 34.3048 5.01397 36.9459 4.23343 39.5838L6.15124 40.1512C6.90914 37.5898 7.83309 35.033 8.9549 32.5268L7.12944 31.7097ZM2.32204 47.7467C1.81671 50.595 1.47852 53.3807 1.26194 56.0389L3.25533 56.2013C3.46745 53.5979 3.79824 50.8751 4.29129 48.096L2.32204 47.7467ZM0.928004 64.3829C0.927011 65.8538 0.95518 67.2436 1.00066 68.5352L2.99942 68.4649C2.95469 67.1946 2.92703 65.8288 2.928 64.3842L0.928004 64.3829ZM1.00407 68.5897C1.12606 69.9452 1.29291 71.368 1.53868 72.8508L3.51176 72.5238C3.27585 71.1005 3.11462 69.7283 2.99601 68.4104L1.00407 68.5897ZM3.75721 81.2046C4.69245 83.6907 5.93237 86.2777 7.58595 88.9468L9.28612 87.8935C7.70246 85.3373 6.5196 82.8675 5.62913 80.5004L3.75721 81.2046ZM12.7132 95.8585C14.4525 97.8599 16.4495 99.8933 18.7433 101.953L20.0794 100.464C17.8432 98.4568 15.9048 96.482 14.2228 94.5466L12.7132 95.8585ZM25.3712 107.338C27.5207 108.929 29.8603 110.533 32.4074 112.145L33.4771 110.455C30.9686 108.867 28.6692 107.291 26.5612 105.731L25.3712 107.338ZM39.7411 116.486C42.1031 117.797 44.6099 119.112 47.2707 120.431L48.1587 118.639C45.5243 117.333 43.045 116.032 40.7116 114.737L39.7411 116.486ZM54.9411 124.045C57.4265 125.16 60.0272 126.276 62.7487 127.394L63.5081 125.543C60.8056 124.434 58.2247 123.326 55.7598 122.22L54.9411 124.045ZM70.6588 130.511C73.2108 131.477 75.857 132.443 78.6009 133.408L79.2647 131.522C76.5351 130.561 73.9037 129.601 71.367 128.64L70.6588 130.511ZM86.6188 136.134C87.957 136.574 89.3162 137.014 90.6968 137.453L91.3032 135.547C89.9285 135.11 88.5754 134.672 87.2434 134.234L86.6188 136.134ZM90.6968 137.453C91.9292 137.845 93.1895 138.227 94.4769 138.599L95.0317 136.677C93.7607 136.31 92.5176 135.933 91.3032 135.547L90.6968 137.453ZM102.251 140.646C104.783 141.254 107.4 141.83 110.097 142.375L110.494 140.415C107.818 139.874 105.225 139.303 102.718 138.701L102.251 140.646ZM118.001 143.848C120.59 144.292 123.242 144.712 125.952 145.108L126.241 143.129C123.546 142.735 120.911 142.318 118.339 141.877L118.001 143.848ZM133.862 146.177C136.462 146.502 139.109 146.807 141.8 147.093L142.012 145.105C139.332 144.819 136.697 144.515 134.11 144.192L133.862 146.177ZM149.779 147.878C152.415 148.116 155.087 148.338 157.795 148.545L157.947 146.55C155.248 146.345 152.585 146.123 149.959 145.886L149.779 147.878ZM165.745 149.1C168.379 149.268 171.041 149.422 173.731 149.563L173.835 147.566C171.153 147.425 168.498 147.272 165.872 147.104L165.745 149.1ZM181.752 149.943C184.389 150.054 187.048 150.153 189.728 150.242L189.794 148.243C187.12 148.155 184.467 148.055 181.836 147.944L181.752 149.943ZM197.722 150.471C200.379 150.536 203.055 150.59 205.746 150.635L205.779 148.635C203.093 148.591 200.423 148.536 197.771 148.471L197.722 150.471ZM213.721 150.738C216.376 150.763 219.044 150.779 221.725 150.786L221.73 148.786C219.054 148.779 216.39 148.763 213.74 148.738L213.721 150.738ZM229.732 150.782C232.385 150.773 235.047 150.755 237.719 150.73L237.7 148.73C235.032 148.755 232.373 148.773 229.725 148.782L229.732 150.782ZM245.725 150.632C248.383 150.593 251.047 150.546 253.716 150.492L253.676 148.493C251.01 148.546 248.349 148.593 245.695 148.632L245.725 150.632ZM261.712 150.312C264.375 150.245 267.041 150.173 269.709 150.094L269.65 148.095C266.985 148.173 264.322 148.246 261.662 148.312L261.712 150.312ZM277.7 149.84C280.364 149.75 283.029 149.654 285.692 149.552L285.616 147.554C282.955 147.655 280.293 147.751 277.632 147.841L277.7 149.84ZM293.681 149.232C296.348 149.121 299.013 149.004 301.673 148.882L301.581 146.884C298.924 147.006 296.262 147.122 293.597 147.234L293.681 149.232ZM309.65 148.503C312.322 148.371 314.988 148.235 317.647 148.095L317.542 146.097C314.885 146.237 312.222 146.373 309.552 146.505L309.65 148.503ZM325.627 147.661C328.297 147.511 330.957 147.358 333.607 147.201L333.489 145.205C330.841 145.361 328.183 145.514 325.515 145.664L325.627 147.661ZM341.598 146.716C344.265 146.551 346.919 146.382 349.558 146.21L349.429 144.214C346.791 144.386 344.139 144.555 341.474 144.72L341.598 146.716ZM357.552 145.679C360.23 145.497 362.891 145.313 365.532 145.127L365.392 143.132C362.752 143.318 360.093 143.502 357.416 143.684L357.552 145.679ZM373.473 144.557C376.165 144.36 378.835 144.162 381.48 143.962L381.329 141.968C378.686 142.167 376.018 142.366 373.327 142.562L373.473 144.557ZM389.454 143.35C392.127 143.142 394.772 142.933 397.387 142.723L397.227 140.729C394.614 140.939 391.971 141.148 389.299 141.356L389.454 143.35ZM405.387 142.073C408.085 141.851 410.746 141.628 413.368 141.407L413.199 139.414C410.579 139.635 407.919 139.857 405.222 140.08L405.387 142.073ZM421.316 140.728C424.007 140.495 426.649 140.264 429.241 140.035L429.065 138.043C426.474 138.272 423.833 138.503 421.144 138.735L421.316 140.728ZM437.241 139.321C439.969 139.076 442.631 138.834 445.223 138.596L445.04 136.604C442.449 136.842 439.788 137.084 437.062 137.329L437.241 139.321Z" fill="#3D7C7C"/>
</svg>
