<svg width="423" height="772" viewBox="0 0 423 772" fill="none" xmlns="http://www.w3.org/2000/svg">
<path d="M0.733332 6.78034L6.78084 12.2662L12.2667 6.21865L6.21916 0.732828L0.733332 6.78034ZM421.5 99.9995L420.51 99.8603L421.5 99.9995ZM159 209L158.353 208.237L159 209ZM38.5 408L37.5349 407.738L38.5 408ZM145 720L144.509 720.871L145 720ZM350.707 765.207C351.098 764.817 351.098 764.183 350.707 763.793L344.343 757.429C343.953 757.038 343.319 757.038 342.929 757.429C342.538 757.819 342.538 758.453 342.929 758.843L348.586 764.5L342.929 770.157C342.538 770.547 342.538 771.181 342.929 771.571C343.319 771.962 343.953 771.962 344.343 771.571L350.707 765.207ZM10.4082 7.31354C10.9598 7.28758 11.386 6.81932 11.3601 6.26765C11.3341 5.71597 10.8658 5.28979 10.3142 5.31575L10.4082 7.31354ZM18.1843 4.9587C17.6326 4.98281 17.2048 5.44963 17.2289 6.00139C17.253 6.55315 17.7198 6.9809 18.2716 6.9568L18.1843 4.9587ZM26.1128 6.62742C26.6646 6.60516 27.094 6.13977 27.0717 5.58794C27.0494 5.0361 26.5841 4.60679 26.0322 4.62904L26.1128 6.62742ZM33.9145 4.32454C33.3626 4.34493 32.9317 4.80886 32.9521 5.36077C32.9725 5.91268 33.4364 6.34356 33.9883 6.32318L33.9145 4.32454ZM41.8278 6.04698C42.3797 6.02848 42.8122 5.56601 42.7937 5.01404C42.7752 4.46206 42.3127 4.0296 41.7607 4.04811L41.8278 6.04698ZM49.6414 3.7975C49.0894 3.8141 48.6553 4.27507 48.6719 4.8271C48.6885 5.37914 49.1495 5.8132 49.7015 5.7966L49.6414 3.7975ZM57.549 5.57433C58.1011 5.55966 58.5368 5.10021 58.5221 4.54812C58.5074 3.99603 58.048 3.56037 57.4959 3.57504L57.549 5.57433ZM65.3685 3.37982C64.8164 3.39253 64.3791 3.85042 64.3918 4.40256C64.4045 4.9547 64.8624 5.392 65.4145 5.37929L65.3685 3.37982ZM73.2747 5.21259C73.8269 5.20188 74.2659 4.74557 74.2552 4.19339C74.2445 3.64121 73.7881 3.20226 73.236 3.21297L73.2747 5.21259ZM81.0988 3.07495C80.5466 3.08362 80.1059 3.53831 80.1146 4.09053C80.1233 4.64274 80.578 5.08337 81.1302 5.0747L81.0988 3.07495ZM89.0034 4.96591C89.5556 4.95933 89.998 4.50631 89.9914 3.95406C89.9848 3.40182 89.5318 2.95947 88.9795 2.96605L89.0034 4.96591ZM96.8337 2.88751C96.2815 2.89196 95.8374 3.34327 95.8418 3.89554C95.8463 4.44781 96.2976 4.8919 96.8499 4.88744L96.8337 2.88751ZM104.733 4.83947C105.285 4.83721 105.731 4.38767 105.729 3.83539C105.726 3.28311 105.277 2.83723 104.725 2.83949L104.733 4.83947ZM112.573 2.82324C112.021 2.82326 111.573 3.27099 111.573 3.82327C111.573 4.37556 112.021 4.82326 112.573 4.82324L112.573 2.82324ZM120.458 4.83948C121.01 4.84178 121.46 4.39594 121.462 3.84366C121.464 3.29138 121.019 2.8418 120.466 2.8395L120.458 4.83948ZM128.316 2.88904C127.763 2.88436 127.312 3.32826 127.307 3.88053C127.303 4.43279 127.747 4.88429 128.299 4.88897L128.316 2.88904ZM136.168 4.9731C136.72 4.98024 137.173 4.53835 137.18 3.98611C137.188 3.43388 136.746 2.98041 136.193 2.97327L136.168 4.9731ZM144.058 3.09298C143.506 3.0833 143.051 3.5231 143.041 4.07529C143.031 4.62749 143.471 5.08299 144.023 5.09267L144.058 3.09298ZM151.882 5.24911C152.434 5.26143 152.892 4.82381 152.904 4.27166C152.916 3.71951 152.479 3.26192 151.927 3.24961L151.882 5.24911ZM159.797 3.4445C159.245 3.42945 158.785 3.86481 158.77 4.41688C158.755 4.96896 159.19 5.42871 159.743 5.44375L159.797 3.4445ZM167.597 5.67785C168.149 5.69573 168.611 5.26274 168.629 4.71075C168.647 4.15875 168.214 3.69678 167.662 3.6789L167.597 5.67785ZM175.528 3.95453C174.976 3.9337 174.512 4.36422 174.491 4.91611C174.47 5.468 174.9 5.93228 175.452 5.95311L175.528 3.95453ZM183.309 6.27133C183.861 6.29523 184.327 5.86731 184.351 5.31554C184.375 4.76377 183.947 4.2971 183.396 4.2732L183.309 6.27133ZM191.248 4.63595C190.696 4.60885 190.227 5.03405 190.2 5.58567C190.173 6.13729 190.598 6.60644 191.149 6.63354L191.248 4.63595ZM199.012 7.04357C199.563 7.07403 200.035 6.65169 200.065 6.10024C200.096 5.5488 199.673 5.07707 199.122 5.04662L199.012 7.04357ZM206.969 5.50483C206.418 5.47087 205.943 5.89021 205.909 6.44144C205.875 6.99268 206.295 7.46708 206.846 7.50105L206.969 5.50483ZM214.699 8.01107C215.25 8.04872 215.727 7.63257 215.765 7.08157C215.803 6.53057 215.387 6.05338 214.836 6.01573L214.699 8.01107ZM222.682 6.57935C222.131 6.53783 221.651 6.95061 221.609 7.50133C221.568 8.05206 221.981 8.53217 222.531 8.57369L222.682 6.57935ZM230.367 9.19343C230.917 9.23904 231.4 8.82982 231.446 8.27943C231.491 7.72903 231.082 7.24587 230.532 7.20026L230.367 9.19343ZM238.38 7.88131C237.83 7.83138 237.344 8.23679 237.294 8.78681C237.244 9.33684 237.649 9.82319 238.199 9.87312L238.38 7.88131ZM246.008 10.6142C246.557 10.6687 247.047 10.2673 247.102 9.71776C247.156 9.16817 246.755 8.67847 246.205 8.62398L246.008 10.6142ZM254.056 9.43703C253.507 9.37768 253.014 9.7747 252.954 10.3238C252.895 10.8729 253.292 11.3661 253.841 11.4254L254.056 9.43703ZM261.617 12.3022C262.165 12.3667 262.662 11.9743 262.726 11.4258C262.791 10.8773 262.399 10.3804 261.85 10.3159L261.617 12.3022ZM269.702 11.2788C269.154 11.2087 268.653 11.5961 268.583 12.1439C268.513 12.6917 268.901 13.1926 269.449 13.2626L269.702 11.2788ZM277.186 14.2931C277.733 14.369 278.238 13.987 278.314 13.44C278.39 12.8929 278.008 12.3879 277.461 12.3121L277.186 14.2931ZM285.308 13.4466C284.762 13.3643 284.252 13.7404 284.17 14.2865C284.088 14.8326 284.464 15.342 285.01 15.4243L285.308 13.4466ZM292.707 16.6318C293.252 16.7208 293.766 16.3511 293.855 15.806C293.944 15.261 293.575 14.7469 293.03 14.6579L292.707 16.6318ZM300.86 15.9911C300.316 15.8947 299.797 16.2573 299.701 16.8011C299.604 17.3449 299.967 17.8639 300.511 17.9604L300.86 15.9911ZM308.164 19.3753C308.707 19.4797 309.231 19.1247 309.335 18.5824C309.44 18.0401 309.085 17.5158 308.542 17.4114L308.164 19.3753ZM316.337 18.9775C315.797 18.8642 315.267 19.2106 315.154 19.7511C315.04 20.2917 315.387 20.8217 315.927 20.935L316.337 18.9775ZM323.536 22.5986C324.074 22.7214 324.61 22.3845 324.733 21.846C324.856 21.3076 324.519 20.7715 323.981 20.6487L323.536 22.5986ZM331.707 22.4905C331.171 22.357 330.628 22.6833 330.495 23.2192C330.362 23.7551 330.688 24.2977 331.224 24.4312L331.707 22.4905ZM338.78 26.4001C339.313 26.5453 339.863 26.231 340.008 25.6982C340.153 25.1653 339.839 24.6157 339.306 24.4704L338.78 26.4001ZM346.913 26.6429C346.384 26.4845 345.826 26.7851 345.668 27.3142C345.51 27.8433 345.81 28.4005 346.339 28.5589L346.913 26.6429ZM353.824 30.9113C354.348 31.0845 354.913 30.7997 355.087 30.2752C355.26 29.7508 354.975 29.1853 354.451 29.0121L353.824 30.9113ZM361.859 31.586C361.34 31.3963 360.766 31.663 360.576 32.1816C360.386 32.7003 360.653 33.2746 361.172 33.4643L361.859 31.586ZM368.533 36.3096C369.045 36.5185 369.628 36.2734 369.837 35.7621C370.046 35.2509 369.801 34.6671 369.29 34.4582L368.533 36.3096ZM376.517 37.5896C376.016 37.3589 375.422 37.5787 375.191 38.0805C374.96 38.5823 375.18 39.1761 375.682 39.4068L376.517 37.5896ZM382.673 42.8327C383.163 43.0887 383.767 42.8994 384.023 42.41C384.279 41.9205 384.09 41.3163 383.6 41.0604L382.673 42.8327ZM390.556 44.9659C390.083 44.6804 389.468 44.8322 389.183 45.3049C388.897 45.7776 389.049 46.3923 389.522 46.6779L390.556 44.9659ZM396.036 50.9383C396.486 51.2581 397.11 51.1523 397.43 50.702C397.75 50.2517 397.644 49.6274 397.194 49.3077L396.036 50.9383ZM403.441 54.1682C403.021 53.8091 402.39 53.8581 402.031 54.2776C401.672 54.6972 401.721 55.3285 402.14 55.6876L403.441 54.1682ZM407.722 61.0084C408.099 61.4118 408.732 61.433 409.135 61.0558C409.538 60.6786 409.56 60.0458 409.182 59.6424L407.722 61.0084ZM414.263 65.8496C413.944 65.3988 413.32 65.2919 412.869 65.6108C412.418 65.9298 412.311 66.5539 412.63 67.0048L414.263 65.8496ZM416.574 73.6184C416.817 74.1142 417.416 74.3191 417.912 74.0759C418.408 73.8328 418.613 73.2336 418.37 72.7378L416.574 73.6184ZM421.259 80.2179C421.107 79.687 420.553 79.3803 420.022 79.5327C419.491 79.6851 419.184 80.239 419.337 80.7698L421.259 80.2179ZM420.781 88.2843C420.837 88.8337 421.327 89.2339 421.877 89.1781C422.426 89.1223 422.827 88.6317 422.771 88.0822L420.781 88.2843ZM422.908 96.0682C422.943 95.5171 422.525 95.0418 421.973 95.0066C421.422 94.9715 420.947 95.3898 420.912 95.9409L422.908 96.0682ZM419.861 103.842C419.76 104.385 420.118 104.907 420.661 105.008C421.204 105.109 421.726 104.751 421.827 104.208L419.861 103.842ZM419.968 112.009C420.125 111.48 419.822 110.923 419.293 110.766C418.763 110.61 418.207 110.912 418.05 111.441L419.968 112.009ZM415.375 118.753C415.151 119.258 415.378 119.849 415.883 120.073C416.387 120.298 416.978 120.071 417.203 119.566L415.375 118.753ZM413.369 126.664C413.67 126.201 413.538 125.581 413.075 125.28C412.612 124.979 411.993 125.111 411.692 125.574L413.369 126.664ZM406.934 131.662C406.556 132.065 406.577 132.698 406.98 133.075C407.383 133.452 408.016 133.432 408.394 133.028L406.934 131.662ZM402.36 138.422C402.802 138.091 402.892 137.464 402.561 137.022C402.231 136.58 401.604 136.49 401.162 136.821L402.36 138.422ZM394.598 140.96C394.11 141.219 393.924 141.824 394.183 142.312C394.441 142.8 395.047 142.986 395.534 142.727L394.598 140.96ZM388.196 146.026C388.712 145.83 388.972 145.252 388.776 144.736C388.58 144.22 388.003 143.96 387.486 144.156L388.196 146.026ZM380.029 146.568C379.496 146.714 379.183 147.264 379.329 147.796C379.475 148.329 380.025 148.642 380.557 148.496L380.029 146.568ZM372.76 150.328C373.302 150.219 373.653 149.692 373.545 149.151C373.437 148.609 372.91 148.258 372.368 148.367L372.76 150.328ZM364.595 149.706C364.049 149.787 363.671 150.295 363.752 150.842C363.833 151.388 364.341 151.765 364.887 151.685L364.595 149.706ZM356.981 152.7C357.53 152.639 357.925 152.145 357.864 151.596C357.803 151.047 357.309 150.652 356.76 150.713L356.981 152.7ZM348.888 151.487C348.338 151.534 347.931 152.019 347.979 152.569C348.027 153.12 348.511 153.527 349.062 153.479L348.888 151.487ZM341.137 154.102C341.687 154.062 342.102 153.584 342.063 153.033C342.023 152.482 341.545 152.067 340.994 152.107L341.137 154.102ZM333.082 152.637C332.531 152.672 332.112 153.148 332.147 153.699C332.183 154.25 332.658 154.668 333.209 154.633L333.082 152.637ZM325.279 155.126C325.831 155.092 326.25 154.618 326.216 154.067C326.182 153.516 325.707 153.096 325.156 153.13L325.279 155.126ZM317.219 153.63C316.668 153.665 316.25 154.141 316.286 154.692C316.322 155.243 316.797 155.661 317.348 155.625L317.219 153.63ZM309.422 156.167C309.973 156.127 310.387 155.648 310.347 155.098C310.307 154.547 309.828 154.133 309.277 154.172L309.422 156.167ZM301.372 154.789C300.822 154.835 300.413 155.319 300.459 155.869C300.506 156.42 300.989 156.828 301.54 156.782L301.372 154.789ZM293.658 157.502C294.208 157.447 294.609 156.957 294.554 156.408C294.5 155.858 294.01 155.457 293.461 155.511L293.658 157.502ZM285.548 156.366C284.999 156.431 284.607 156.927 284.671 157.476C284.736 158.025 285.233 158.417 285.781 158.353L285.548 156.366ZM277.914 159.359C278.461 159.283 278.843 158.778 278.767 158.231C278.691 157.684 278.186 157.302 277.639 157.378L277.914 159.359ZM269.774 158.563C269.229 158.652 268.859 159.166 268.948 159.711C269.037 160.256 269.551 160.626 270.096 160.537L269.774 158.563ZM262.316 161.909C262.859 161.806 263.215 161.282 263.112 160.74C263.009 160.197 262.485 159.841 261.943 159.944L262.316 161.909ZM254.136 161.542C253.596 161.66 253.255 162.193 253.374 162.733C253.492 163.272 254.025 163.614 254.565 163.495L254.136 161.542ZM246.848 165.313C247.384 165.178 247.708 164.634 247.574 164.099C247.439 163.563 246.895 163.239 246.36 163.374L246.848 165.313ZM238.687 165.438C238.156 165.59 237.849 166.143 238.001 166.674C238.153 167.205 238.707 167.512 239.238 167.36L238.687 165.438ZM231.684 169.663C232.21 169.493 232.498 168.929 232.328 168.404C232.158 167.878 231.594 167.59 231.068 167.76L231.684 169.663ZM223.509 170.354C222.99 170.543 222.722 171.117 222.911 171.636C223.099 172.155 223.673 172.423 224.192 172.234L223.509 170.354ZM216.831 175.06C217.343 174.853 217.59 174.27 217.383 173.758C217.175 173.246 216.592 172.999 216.08 173.206L216.831 175.06ZM208.758 176.332C208.254 176.558 208.029 177.15 208.255 177.654C208.481 178.158 209.073 178.383 209.577 178.156L208.758 176.332ZM202.41 181.54C202.904 181.295 203.107 180.695 202.862 180.2C202.616 179.705 202.016 179.503 201.521 179.748L202.41 181.54ZM194.468 183.413C193.983 183.677 193.804 184.284 194.068 184.769C194.332 185.254 194.939 185.434 195.424 185.17L194.468 183.413ZM188.566 189.072C189.041 188.79 189.197 188.176 188.915 187.702C188.632 187.227 188.019 187.071 187.544 187.353L188.566 189.072ZM180.737 191.58C180.273 191.88 180.141 192.499 180.441 192.963C180.741 193.426 181.36 193.559 181.824 193.259L180.737 191.58ZM175.317 197.648C175.769 197.33 175.878 196.707 175.561 196.255C175.244 195.803 174.62 195.694 174.168 196.011L175.317 197.648ZM167.706 200.73C167.266 201.064 167.18 201.691 167.514 202.131C167.847 202.571 168.475 202.657 168.915 202.323L167.706 200.73ZM162.728 207.198C163.155 206.848 163.219 206.218 162.869 205.79C162.52 205.363 161.89 205.3 161.462 205.649L162.728 207.198ZM155.374 210.804C154.959 211.168 154.917 211.799 155.28 212.215C155.644 212.631 156.276 212.673 156.691 212.309L155.374 210.804ZM150.87 217.561C151.275 217.185 151.298 216.552 150.922 216.147C150.546 215.743 149.913 215.72 149.509 216.096L150.87 217.561ZM143.806 221.545C143.412 221.932 143.407 222.565 143.794 222.959C144.181 223.353 144.814 223.359 145.208 222.972L143.806 221.545ZM139.694 228.531C140.078 228.133 140.067 227.5 139.67 227.117C139.273 226.733 138.64 226.743 138.256 227.14L139.694 228.531ZM132.846 232.876C132.472 233.282 132.498 233.915 132.904 234.289C133.311 234.663 133.943 234.637 134.317 234.231L132.846 232.876ZM129.075 240.06C129.439 239.645 129.399 239.013 128.984 238.649C128.569 238.284 127.937 238.325 127.573 238.74L129.075 240.06ZM122.433 244.722C122.077 245.145 122.132 245.775 122.555 246.131C122.978 246.486 123.608 246.431 123.964 246.009L122.433 244.722ZM118.981 252.068C119.328 251.637 119.26 251.008 118.829 250.662C118.399 250.315 117.77 250.383 117.423 250.814L118.981 252.068ZM112.545 257.004C112.208 257.441 112.288 258.069 112.726 258.407C113.163 258.744 113.791 258.663 114.128 258.226L112.545 257.004ZM109.401 264.479C109.73 264.035 109.637 263.409 109.193 263.08C108.749 262.751 108.123 262.845 107.794 263.288L109.401 264.479ZM103.166 269.665C102.846 270.115 102.951 270.739 103.401 271.059C103.851 271.379 104.476 271.274 104.796 270.824L103.166 269.665ZM100.311 277.256C100.622 276.8 100.505 276.178 100.049 275.866C99.5933 275.555 98.971 275.672 98.6594 276.128L100.311 277.256ZM94.2734 282.673C93.9702 283.135 94.0986 283.755 94.5602 284.058C95.0218 284.361 95.6418 284.233 95.945 283.771L94.2734 282.673ZM91.6985 290.366C91.9933 289.899 91.8537 289.281 91.3867 288.986C90.9197 288.691 90.3021 288.831 90.0073 289.298L91.6985 290.366ZM85.8607 295.998C85.5742 296.47 85.7248 297.085 86.197 297.372C86.6692 297.658 87.2842 297.507 87.5706 297.035L85.8607 295.998ZM83.5614 303.777C83.8395 303.3 83.6781 302.688 83.201 302.41C82.7238 302.132 82.1116 302.293 81.8335 302.77L83.5614 303.777ZM77.9258 309.612C77.6561 310.094 77.8282 310.703 78.3101 310.973C78.7921 311.243 79.4014 311.071 79.6711 310.589L77.9258 309.612ZM75.9002 317.467C76.1615 316.981 75.9788 316.374 75.4922 316.113C75.0057 315.852 74.3994 316.034 74.1382 316.521L75.9002 317.467ZM70.4713 323.495C70.2185 323.986 70.4117 324.589 70.9027 324.842C71.3938 325.094 71.9967 324.901 72.2495 324.41L70.4713 323.495ZM68.7201 331.415C68.9643 330.92 68.7606 330.321 68.2653 330.076C67.7699 329.832 67.1704 330.036 66.9262 330.531L68.7201 331.415ZM63.5041 337.628C63.2686 338.128 63.4827 338.724 63.9822 338.959C64.4818 339.195 65.0776 338.981 65.3132 338.481L63.5041 337.628ZM62.0304 345.605C62.2571 345.102 62.0327 344.51 61.5291 344.283C61.0254 344.056 60.4334 344.281 60.2067 344.784L62.0304 345.605ZM57.0356 351.997C56.8178 352.505 57.0527 353.093 57.5602 353.311C58.0678 353.528 58.6558 353.293 58.8736 352.786L57.0356 351.997ZM55.8447 360.021C56.0534 359.51 55.8081 358.926 55.2968 358.718C54.7854 358.509 54.2017 358.754 53.993 359.266L55.8447 360.021ZM51.0813 366.587C50.8818 367.102 51.1376 367.682 51.6527 367.881C52.1677 368.08 52.7469 367.825 52.9463 367.31L51.0813 366.587ZM50.1808 374.649C50.3708 374.131 50.1044 373.556 49.5858 373.366C49.0673 373.176 48.4929 373.443 48.3029 373.961L50.1808 374.649ZM45.6608 381.385C45.4805 381.907 45.7575 382.477 46.2795 382.657C46.8015 382.837 47.3709 382.56 47.5512 382.038L45.6608 381.385ZM45.0605 389.475C45.231 388.949 44.9433 388.385 44.4179 388.215C43.8926 388.045 43.3286 388.332 43.1581 388.858L45.0605 389.475ZM40.7984 396.377C40.6381 396.905 40.9366 397.464 41.4651 397.624C41.9936 397.784 42.552 397.486 42.7123 396.957L40.7984 396.377ZM40.5101 404.483C40.6599 403.952 40.3505 403.399 39.819 403.25C39.2874 403.1 38.735 403.409 38.5851 403.941L40.5101 404.483ZM36.5431 411.576C36.4109 412.112 36.7385 412.654 37.2747 412.786C37.8109 412.918 38.3528 412.591 38.485 412.055L36.5431 411.576ZM36.719 419.888C36.8306 419.347 36.4825 418.818 35.9417 418.706C35.4008 418.595 34.8718 418.943 34.7603 419.484L36.719 419.888ZM33.254 427.424C33.1592 427.968 33.5235 428.486 34.0676 428.581C34.6117 428.676 35.1296 428.311 35.2243 427.767L33.254 427.424ZM33.9616 435.659C34.0416 435.112 33.6635 434.605 33.1171 434.525C32.5706 434.444 32.0627 434.823 31.9827 435.369L33.9616 435.659ZM30.9139 443.353C30.8473 443.902 31.2377 444.4 31.7859 444.467C32.3342 444.533 32.8327 444.143 32.8993 443.595L30.9139 443.353ZM32.0271 451.531C32.0813 450.982 31.6796 450.492 31.1299 450.438C30.5803 450.384 30.0909 450.786 30.0368 451.335L32.0271 451.531ZM29.3378 459.335C29.2957 459.885 29.708 460.366 30.2587 460.408C30.8093 460.45 31.2899 460.038 31.332 459.487L29.3378 459.335ZM30.8074 467.464C30.8379 466.913 30.4155 466.441 29.864 466.411C29.3126 466.38 28.8409 466.803 28.8105 467.354L30.8074 467.464ZM28.4513 475.394C28.4324 475.946 28.8646 476.408 29.4165 476.427C29.9685 476.446 30.4313 476.014 30.4502 475.462L28.4513 475.394ZM30.2589 483.478C30.2663 482.926 29.8247 482.472 29.2725 482.465C28.7202 482.457 28.2665 482.899 28.259 483.451L30.2589 483.478ZM28.2337 491.523C28.2377 492.075 28.6886 492.52 29.2409 492.516C29.7932 492.512 30.2376 492.061 30.2336 491.508L28.2337 491.523ZM30.374 499.489C30.3586 498.937 29.8985 498.502 29.3464 498.517C28.7944 498.533 28.3594 498.993 28.3748 499.545L30.374 499.489ZM28.6838 507.578C28.7109 508.13 29.18 508.555 29.7316 508.528C30.2832 508.501 30.7085 508.032 30.6814 507.48L28.6838 507.578ZM31.1589 515.48C31.1201 514.929 30.6421 514.514 30.0911 514.553C29.5402 514.591 29.1251 515.069 29.1639 515.62L31.1589 515.48ZM29.8179 523.658C29.8687 524.208 30.3557 524.612 30.9057 524.561C31.4556 524.511 31.8602 524.024 31.8094 523.474L29.8179 523.658ZM32.6318 531.417C32.5688 530.868 32.073 530.474 31.5243 530.537C30.9756 530.6 30.5819 531.096 30.6449 531.645L32.6318 531.417ZM31.6534 539.63C31.7289 540.177 32.2336 540.559 32.7807 540.484C33.3278 540.408 33.7101 539.904 33.6347 539.356L31.6534 539.63ZM34.8225 547.283C34.7342 546.738 34.2207 546.368 33.6755 546.456C33.1303 546.544 32.7599 547.058 32.8482 547.603L34.8225 547.283ZM34.2284 555.526C34.3297 556.069 34.852 556.427 35.3949 556.325C35.9378 556.224 36.2958 555.702 36.1944 555.159L34.2284 555.526ZM37.7589 563.002C37.6441 562.461 37.1131 562.116 36.5729 562.231C36.0327 562.346 35.6878 562.877 35.8025 563.417L37.7589 563.002ZM37.5778 571.278C37.7064 571.815 38.246 572.147 38.7831 572.018C39.3203 571.889 39.6514 571.35 39.5228 570.813L37.5778 571.278ZM41.4868 578.565C41.3441 578.031 40.7959 577.715 40.2624 577.857C39.7288 578 39.412 578.548 39.5548 579.082L41.4868 578.565ZM41.7403 586.828C41.8975 587.357 42.4542 587.659 42.9836 587.502C43.513 587.345 43.8147 586.788 43.6575 586.259L41.7403 586.828ZM46.0436 593.897C45.8715 593.372 45.3065 593.086 44.7817 593.259C44.257 593.431 43.9711 593.996 44.1433 594.521L46.0436 593.897ZM46.7646 602.136C46.952 602.655 47.525 602.925 48.0445 602.737C48.5641 602.55 48.8333 601.977 48.6459 601.457L46.7646 602.136ZM51.4699 608.933C51.2669 608.419 50.686 608.167 50.1724 608.37C49.6588 608.573 49.4069 609.154 49.6099 609.668L51.4699 608.933ZM52.6888 617.118C52.9077 617.625 53.4963 617.858 54.0033 617.639C54.5103 617.42 54.7439 616.832 54.525 616.325L52.6888 617.118ZM57.8098 623.61C57.5747 623.11 56.979 622.896 56.4793 623.131C55.9795 623.366 55.765 623.962 56.0002 624.462L57.8098 623.61ZM59.549 631.692C59.8006 632.183 60.4031 632.378 60.8947 632.126C61.3864 631.875 61.581 631.272 61.3294 630.781L59.549 631.692ZM65.0929 637.837C64.8246 637.354 64.2158 637.18 63.733 637.448C63.2503 637.716 63.0764 638.325 63.3446 638.808L65.0929 637.837ZM67.3799 645.78C67.665 646.253 68.2795 646.406 68.7526 646.121C69.2256 645.836 69.378 645.221 69.093 644.748L67.3799 645.78ZM73.3357 651.512C73.0338 651.05 72.4142 650.92 71.9517 651.222C71.4892 651.523 71.359 652.143 71.6609 652.606L73.3357 651.512ZM76.1968 659.284C76.5155 659.735 77.1395 659.842 77.5906 659.523C78.0416 659.205 78.1489 658.581 77.8302 658.13L76.1968 659.284ZM82.5537 664.556C82.2183 664.117 81.5907 664.033 81.152 664.369C80.7132 664.704 80.6294 665.332 80.9648 665.771L82.5537 664.556ZM85.9812 672.08C86.3331 672.506 86.9634 672.566 87.3891 672.214C87.8148 671.862 87.8745 671.232 87.5226 670.806L85.9812 672.08ZM92.7381 676.872C92.37 676.46 91.7378 676.425 91.3261 676.793C90.9144 677.161 90.8791 677.793 91.2472 678.205L92.7381 676.872ZM96.7246 684.096C97.1085 684.493 97.7416 684.503 98.1386 684.12C98.5357 683.736 98.5464 683.103 98.1625 682.706L96.7246 684.096ZM103.83 688.342C103.431 687.961 102.798 687.975 102.417 688.374C102.035 688.773 102.049 689.406 102.448 689.788L103.83 688.342ZM108.384 695.243C108.798 695.609 109.43 695.57 109.795 695.156C110.161 694.742 110.122 694.11 109.708 693.744L108.384 695.243ZM115.785 698.905C115.357 698.556 114.727 698.62 114.378 699.047C114.029 699.475 114.092 700.105 114.52 700.454L115.785 698.905ZM120.893 705.45C121.334 705.783 121.961 705.694 122.294 705.253C122.626 704.812 122.537 704.185 122.096 703.853L120.893 705.45ZM128.535 708.509C128.081 708.194 127.458 708.306 127.143 708.76C126.828 709.213 126.941 709.837 127.394 710.151L128.535 708.509ZM134.119 714.633C134.585 714.93 135.203 714.794 135.5 714.329C135.798 713.864 135.662 713.245 135.196 712.948L134.119 714.633ZM141.992 717.115C141.516 716.835 140.903 716.994 140.623 717.47C140.343 717.947 140.502 718.559 140.979 718.839L141.992 717.115ZM148.097 722.8C148.588 723.053 149.191 722.86 149.443 722.369C149.696 721.878 149.503 721.275 149.012 721.022L148.097 722.8ZM156.274 724.487C155.77 724.262 155.179 724.489 154.954 724.994C154.73 725.499 154.957 726.09 155.462 726.314L156.274 724.487ZM163 729.474C163.514 729.677 164.095 729.426 164.298 728.912C164.502 728.399 164.25 727.818 163.737 727.614L163 729.474ZM171.308 730.472C170.788 730.285 170.215 730.554 170.028 731.074C169.841 731.593 170.11 732.166 170.63 732.353L171.308 730.472ZM178.316 735.008C178.84 735.182 179.406 734.898 179.58 734.374C179.753 733.85 179.47 733.284 178.945 733.11L178.316 735.008ZM186.661 735.577C186.133 735.415 185.573 735.71 185.41 736.238C185.248 736.766 185.543 737.326 186.071 737.489L186.661 735.577ZM193.876 739.817C194.407 739.971 194.961 739.665 195.114 739.134C195.268 738.603 194.962 738.049 194.431 737.896L193.876 739.817ZM202.242 740.083C201.709 739.938 201.16 740.253 201.015 740.786C200.87 741.319 201.185 741.868 201.718 742.013L202.242 740.083ZM209.582 744.09C210.117 744.227 210.662 743.904 210.8 743.37C210.937 742.835 210.614 742.29 210.08 742.152L209.582 744.09ZM217.94 744.115C217.404 743.985 216.863 744.314 216.733 744.851C216.602 745.388 216.931 745.928 217.468 746.059L217.94 744.115ZM225.379 747.931C225.917 748.055 226.454 747.72 226.578 747.182C226.702 746.643 226.366 746.107 225.828 745.982L225.379 747.931ZM233.739 747.76C233.2 747.642 232.667 747.984 232.548 748.523C232.43 749.063 232.772 749.596 233.311 749.714L233.739 747.76ZM241.263 751.411C241.804 751.524 242.333 751.177 242.446 750.636C242.558 750.095 242.211 749.566 241.67 749.453L241.263 751.411ZM249.619 751.065C249.077 750.958 248.551 751.311 248.444 751.852C248.337 752.394 248.69 752.92 249.231 753.027L249.619 751.065ZM257.215 754.564C257.758 754.666 258.281 754.308 258.383 753.766C258.484 753.223 258.127 752.7 257.584 752.599L257.215 754.564ZM265.563 754.054C265.02 753.958 264.501 754.32 264.404 754.864C264.308 755.408 264.67 755.927 265.214 756.024L265.563 754.054ZM273.226 757.405C273.77 757.497 274.286 757.129 274.377 756.584C274.468 756.039 274.101 755.524 273.556 755.433L273.226 757.405ZM281.56 756.733C281.014 756.647 280.503 757.02 280.417 757.565C280.331 758.111 280.704 758.623 281.249 758.708L281.56 756.733ZM289.283 759.93C289.829 760.011 290.337 759.633 290.417 759.086C290.498 758.54 290.12 758.032 289.573 757.952L289.283 759.93ZM297.592 759.085C297.045 759.011 296.541 759.394 296.467 759.942C296.392 760.489 296.776 760.993 297.323 761.067L297.592 759.085ZM305.397 762.116C305.945 762.183 306.444 761.794 306.512 761.246C306.58 760.698 306.191 760.199 305.643 760.131L305.397 762.116ZM313.706 761.077C313.158 761.016 312.663 761.412 312.603 761.961C312.542 762.51 312.938 763.004 313.487 763.065L313.706 761.077ZM321.578 763.899C322.128 763.951 322.616 763.548 322.668 762.998C322.721 762.449 322.318 761.96 321.768 761.908L321.578 763.899ZM329.81 762.604C329.259 762.562 328.779 762.974 328.736 763.524C328.694 764.075 329.106 764.556 329.656 764.598L329.81 762.604ZM337.819 765.138C338.371 765.167 338.842 764.744 338.871 764.193C338.901 763.641 338.478 763.17 337.927 763.14L337.819 765.138ZM345.982 763.454C345.43 763.442 344.973 763.88 344.961 764.432C344.948 764.984 345.386 765.441 345.938 765.454L345.982 763.454ZM6.54864 7.49831C7.82689 7.43606 9.11347 7.37445 10.4082 7.31354L10.3142 5.31575C9.01837 5.37671 7.73069 5.43837 6.45136 5.50068L6.54864 7.49831ZM18.2716 6.9568C20.8569 6.84386 23.4712 6.73394 26.1128 6.62742L26.0322 4.62904C23.3884 4.73565 20.7718 4.84567 18.1843 4.9587L18.2716 6.9568ZM33.9883 6.32318C36.5784 6.22752 39.192 6.13535 41.8278 6.04698L41.7607 4.04811C39.1227 4.13655 36.5068 4.22881 33.9145 4.32454L33.9883 6.32318ZM49.7015 5.7966C52.2985 5.71852 54.9148 5.64433 57.549 5.57433L57.4959 3.57504C54.8593 3.6451 52.2407 3.71935 49.6414 3.7975L49.7015 5.7966ZM65.4145 5.37929C68.0193 5.31935 70.6398 5.26369 73.2747 5.21259L73.236 3.21297C70.5986 3.26411 67.9757 3.31982 65.3685 3.37982L65.4145 5.37929ZM81.1302 5.0747C83.7423 5.03369 86.3672 4.99734 89.0034 4.96591L88.9795 2.96605C86.3408 2.99751 83.7134 3.0339 81.0988 3.07495L81.1302 5.0747ZM96.8499 4.88744C99.468 4.86633 102.096 4.85026 104.733 4.83947L104.725 2.83949C102.085 2.85028 99.4545 2.86638 96.8337 2.88751L96.8499 4.88744ZM112.573 4.82324C115.195 4.82316 117.823 4.82849 120.458 4.83948L120.466 2.8395C117.829 2.8285 115.197 2.82316 112.573 2.82324L112.573 4.82324ZM128.299 4.88897C130.917 4.91115 133.54 4.93912 136.168 4.9731L136.193 2.97327C133.563 2.93925 130.937 2.91125 128.316 2.88904L128.299 4.88897ZM144.023 5.09267C146.64 5.13857 149.26 5.19064 151.882 5.24911L151.927 3.24961C149.302 3.19106 146.679 3.13893 144.058 3.09298L144.023 5.09267ZM159.743 5.44375C162.361 5.5151 164.979 5.59306 167.597 5.67785L167.662 3.6789C165.041 3.59399 162.419 3.51594 159.797 3.4445L159.743 5.44375ZM175.452 5.95311C178.073 6.05201 180.692 6.158 183.309 6.27133L183.396 4.2732C180.775 4.15971 178.152 4.05357 175.528 3.95453L175.452 5.95311ZM191.149 6.63354C193.774 6.76249 196.395 6.89909 199.012 7.04357L199.122 5.04662C196.502 4.9019 193.876 4.76509 191.248 4.63595L191.149 6.63354ZM206.846 7.50105C209.47 7.66273 212.088 7.83266 214.699 8.01107L214.836 6.01573C212.22 5.837 209.597 5.66679 206.969 5.50483L206.846 7.50105ZM222.531 8.57369C225.152 8.77129 227.764 8.97779 230.367 9.19343L230.532 7.20026C227.924 6.9842 225.307 6.77731 222.682 6.57935L222.531 8.57369ZM238.199 9.87312C240.814 10.1104 243.417 10.3574 246.008 10.6142L246.205 8.62398C243.609 8.36658 241 8.11911 238.38 7.88131L238.199 9.87312ZM253.841 11.4254C256.448 11.7071 259.04 11.9993 261.617 12.3022L261.85 10.3159C259.267 10.0122 256.668 9.71936 254.056 9.43703L253.841 11.4254ZM269.449 13.2626C272.046 13.5945 274.625 13.9379 277.186 14.2931L277.461 12.3121C274.893 11.9559 272.306 11.6115 269.702 11.2788L269.449 13.2626ZM285.01 15.4243C287.598 15.814 290.164 16.2163 292.707 16.6318L293.03 14.6579C290.478 14.2411 287.903 13.8375 285.308 13.4466L285.01 15.4243ZM300.511 17.9604C303.088 18.4177 305.64 18.8892 308.164 19.3753L308.542 17.4114C306.008 16.9234 303.447 16.4501 300.86 15.9911L300.511 17.9604ZM315.927 20.935C318.496 21.4732 321.032 22.0276 323.536 22.5986L323.981 20.6487C321.465 20.075 318.917 19.518 316.337 18.9775L315.927 20.935ZM331.224 24.4312C333.782 25.0686 336.302 25.7248 338.78 26.4001L339.306 24.4704C336.813 23.7911 334.279 23.1313 331.707 22.4905L331.224 24.4312ZM346.339 28.5589C348.884 29.3207 351.38 30.1046 353.824 30.9113L354.451 29.0121C351.988 28.1993 349.475 27.4097 346.913 26.6429L346.339 28.5589ZM361.172 33.4643C363.69 34.3855 366.145 35.3337 368.533 36.3096L369.29 34.4582C366.877 33.4724 364.399 32.5152 361.859 31.586L361.172 33.4643ZM375.682 39.4068C378.095 40.5161 380.427 41.6578 382.673 42.8327L383.6 41.0604C381.321 39.8688 378.959 38.7122 376.517 37.5896L375.682 39.4068ZM389.522 46.6779C391.804 48.0565 393.977 49.4763 396.036 50.9383L397.194 49.3077C395.092 47.815 392.877 46.3682 390.556 44.9659L389.522 46.6779ZM402.14 55.6876C404.151 57.4084 406.013 59.1815 407.722 61.0084L409.182 59.6424C407.42 57.7575 405.503 55.9334 403.441 54.1682L402.14 55.6876ZM412.63 67.0048C414.142 69.1418 415.46 71.3457 416.574 73.6184L418.37 72.7378C417.206 70.3643 415.833 68.069 414.263 65.8496L412.63 67.0048ZM419.337 80.7698C420.034 83.1985 420.519 85.7023 420.781 88.2843L422.771 88.0822C422.497 85.3824 421.989 82.7614 421.259 80.2179L419.337 80.7698ZM420.912 95.9409C420.83 97.2288 420.696 98.5351 420.51 99.8603L422.49 100.139C422.683 98.7647 422.822 97.4079 422.908 96.0682L420.912 95.9409ZM420.51 99.8603C420.318 101.225 420.101 102.552 419.861 103.842L421.827 104.208C422.073 102.888 422.294 101.532 422.49 100.139L420.51 99.8603ZM418.05 111.441C417.277 114.054 416.383 116.486 415.375 118.753L417.203 119.566C418.248 117.214 419.171 114.699 419.968 112.009L418.05 111.441ZM411.692 125.574C410.249 127.794 408.661 129.817 406.934 131.662L408.394 133.028C410.202 131.097 411.863 128.982 413.369 126.664L411.692 125.574ZM401.162 136.821C399.112 138.354 396.922 139.728 394.598 140.96L395.534 142.727C397.943 141.45 400.222 140.022 402.36 138.422L401.162 136.821ZM387.486 144.156C385.107 145.058 382.62 145.857 380.029 146.568L380.557 148.496C383.202 147.771 385.751 146.954 388.196 146.026L387.486 144.156ZM372.368 148.367C369.854 148.869 367.262 149.312 364.595 149.706L364.887 151.685C367.583 151.286 370.209 150.838 372.76 150.328L372.368 148.367ZM356.76 150.713C354.193 150.999 351.568 151.254 348.888 151.487L349.062 153.479C351.754 153.245 354.395 152.989 356.981 152.7L356.76 150.713ZM340.994 152.107C338.4 152.293 335.762 152.467 333.082 152.637L333.209 154.633C335.891 154.463 338.535 154.288 341.137 154.102L340.994 152.107ZM325.156 153.13C322.544 153.291 319.897 153.456 317.219 153.63L317.348 155.625C320.023 155.452 322.667 155.288 325.279 155.126L325.156 153.13ZM309.277 154.172C306.668 154.362 304.032 154.565 301.372 154.789L301.54 156.782C304.191 156.559 306.819 156.356 309.422 156.167L309.277 154.172ZM293.461 155.511C290.843 155.771 288.205 156.054 285.548 156.366L285.781 158.353C288.425 158.042 291.051 157.76 293.658 157.502L293.461 155.511ZM277.639 157.378C275.033 157.74 272.41 158.133 269.774 158.563L270.096 160.537C272.716 160.11 275.322 159.719 277.914 159.359L277.639 157.378ZM261.943 159.944C259.352 160.437 256.749 160.968 254.136 161.542L254.565 163.495C257.158 162.925 259.743 162.398 262.316 161.909L261.943 159.944ZM246.36 163.374C243.809 164.016 241.251 164.703 238.687 165.438L239.238 167.36C241.781 166.632 244.318 165.95 246.848 165.313L246.36 163.374ZM231.068 167.76C228.553 168.574 226.033 169.438 223.509 170.354L224.192 172.234C226.693 171.326 229.191 170.47 231.684 169.663L231.068 167.76ZM216.08 173.206C213.641 174.195 211.199 175.235 208.758 176.332L209.577 178.156C211.996 177.07 214.414 176.039 216.831 175.06L216.08 173.206ZM201.521 179.748C199.169 180.914 196.818 182.135 194.468 183.413L195.424 185.17C197.751 183.904 200.08 182.695 202.41 181.54L201.521 179.748ZM187.544 187.353C185.272 188.705 183.002 190.112 180.737 191.58L181.824 193.259C184.068 191.805 186.316 190.411 188.566 189.072L187.544 187.353ZM174.168 196.011C172.009 197.527 169.855 199.099 167.706 200.73L168.915 202.323C171.044 200.707 173.179 199.149 175.317 197.648L174.168 196.011ZM161.462 205.649C160.424 206.497 159.388 207.36 158.353 208.237L159.647 209.763C160.672 208.893 161.699 208.038 162.728 207.198L161.462 205.649ZM158.353 208.237C157.36 209.08 156.367 209.935 155.374 210.804L156.691 212.309C157.676 211.447 158.661 210.598 159.647 209.763L158.353 208.237ZM149.509 216.096C147.604 217.866 145.703 219.683 143.806 221.545L145.208 222.972C147.091 221.122 148.979 219.318 150.87 217.561L149.509 216.096ZM138.256 227.14C136.447 229.012 134.643 230.925 132.846 232.876L134.317 234.231C136.103 232.291 137.896 230.39 139.694 228.531L138.256 227.14ZM127.573 238.74C125.851 240.699 124.137 242.693 122.433 244.722L123.964 246.009C125.659 243.991 127.363 242.008 129.075 240.06L127.573 238.74ZM117.423 250.814C115.787 252.847 114.161 254.91 112.545 257.004L114.128 258.226C115.736 256.143 117.354 254.09 118.981 252.068L117.423 250.814ZM107.794 263.288C106.24 265.387 104.697 267.513 103.166 269.665L104.796 270.824C106.319 268.682 107.855 266.567 109.401 264.479L107.794 263.288ZM98.6594 276.128C97.1844 278.286 95.7221 280.468 94.2734 282.673L95.945 283.771C97.3871 281.576 98.8426 279.404 100.311 277.256L98.6594 276.128ZM90.0073 289.298C88.6108 291.51 87.2283 293.744 85.8607 295.998L87.5706 297.035C88.9321 294.791 90.3083 292.568 91.6985 290.366L90.0073 289.298ZM81.8335 302.77C80.5153 305.032 79.2124 307.313 77.9258 309.612L79.6711 310.589C80.952 308.3 82.2491 306.029 83.5614 303.777L81.8335 302.77ZM74.1382 316.521C72.8989 318.829 71.6763 321.154 70.4713 323.495L72.2495 324.41C73.4493 322.079 74.6664 319.765 75.9002 317.467L74.1382 316.521ZM66.9262 330.531C65.7672 332.882 64.6263 335.248 63.5041 337.628L65.3132 338.481C66.4303 336.112 67.5662 333.756 68.7201 331.415L66.9262 330.531ZM60.2067 344.784C59.13 347.176 58.0728 349.58 57.0356 351.997L58.8736 352.786C59.906 350.38 60.9586 347.986 62.0304 345.605L60.2067 344.784ZM53.993 359.266C53.0014 361.695 52.0306 364.136 51.0813 366.587L52.9463 367.31C53.8912 364.869 54.8577 362.44 55.8447 360.021L53.993 359.266ZM48.3029 373.961C47.3997 376.426 46.5188 378.901 45.6608 381.385L47.5512 382.038C48.4051 379.566 49.2819 377.103 50.1808 374.649L48.3029 373.961ZM43.1581 388.858C42.3476 391.356 41.5607 393.863 40.7984 396.377L42.7123 396.957C43.4709 394.456 44.2539 391.961 45.0605 389.475L43.1581 388.858ZM38.5851 403.941C38.2287 405.205 37.8786 406.471 37.5349 407.738L39.4651 408.262C39.8071 407.001 40.1554 405.741 40.5101 404.483L38.5851 403.941ZM37.5349 407.738C37.2015 408.968 36.8705 410.247 36.5431 411.576L38.485 412.055C38.8089 410.74 39.136 409.475 39.4651 408.262L37.5349 407.738ZM34.7603 419.484C34.2399 422.006 33.7359 424.656 33.254 427.424L35.2243 427.767C35.7028 425.019 36.203 422.389 36.719 419.888L34.7603 419.484ZM31.9827 435.369C31.6045 437.95 31.247 440.613 30.9139 443.353L32.8993 443.595C33.2305 440.871 33.5858 438.224 33.9616 435.659L31.9827 435.369ZM30.0368 451.335C29.7798 453.945 29.5459 456.613 29.3378 459.335L31.332 459.487C31.5389 456.78 31.7716 454.127 32.0271 451.531L30.0368 451.335ZM28.8105 467.354C28.665 469.992 28.5445 472.673 28.4513 475.394L30.4502 475.462C30.5429 472.756 30.6627 470.089 30.8074 467.464L28.8105 467.354ZM28.259 483.451C28.2231 486.11 28.214 488.802 28.2337 491.523L30.2336 491.508C30.2141 488.801 30.2231 486.124 30.2589 483.478L28.259 483.451ZM28.3748 499.545C28.4491 502.2 28.5515 504.878 28.6838 507.578L30.6814 507.48C30.5498 504.795 30.4479 502.13 30.374 499.489L28.3748 499.545ZM29.1639 515.62C29.3515 518.283 29.5689 520.963 29.8179 523.658L31.8094 523.474C31.5618 520.793 31.3455 518.128 31.1589 515.48L29.1639 515.62ZM30.6449 531.645C30.9492 534.295 31.2848 536.958 31.6534 539.63L33.6347 539.356C33.2682 536.7 32.9344 534.052 32.6318 531.417L30.6449 531.645ZM32.8482 547.603C33.2748 550.238 33.7344 552.88 34.2284 555.526L36.1944 555.159C35.7034 552.529 35.2465 549.903 34.8225 547.283L32.8482 547.603ZM35.8025 563.417C36.3589 566.036 36.9502 568.657 37.5778 571.278L39.5228 570.813C38.8993 568.208 38.3118 565.604 37.7589 563.002L35.8025 563.417ZM39.5548 579.082C40.2462 581.666 40.9743 584.249 41.7403 586.828L43.6575 586.259C42.8968 583.698 42.1737 581.132 41.4868 578.565L39.5548 579.082ZM44.1433 594.521C44.9781 597.065 45.8515 599.605 46.7646 602.136L48.6459 601.457C47.7395 598.945 46.8725 596.424 46.0436 593.897L44.1433 594.521ZM49.6099 609.668C50.5955 612.161 51.6213 614.645 52.6888 617.118L54.525 616.325C53.4659 613.872 52.448 611.407 51.4699 608.933L49.6099 609.668ZM56.0002 624.462C57.1407 626.886 58.3232 629.296 59.549 631.692L61.3294 630.781C60.1139 628.405 58.9411 626.014 57.8098 623.61L56.0002 624.462ZM63.3446 638.808C64.6457 641.15 65.9904 643.474 67.3799 645.78L69.093 644.748C67.7158 642.463 66.3828 640.158 65.0929 637.837L63.3446 638.808ZM71.6609 652.606C73.1274 654.852 74.639 657.079 76.1968 659.284L77.8302 658.13C76.2867 655.945 74.7889 653.739 73.3357 651.512L71.6609 652.606ZM80.9648 665.771C82.5906 667.897 84.2624 670.001 85.9812 672.08L87.5226 670.806C85.8202 668.747 84.1643 666.663 82.5537 664.556L80.9648 665.771ZM91.2472 678.205C93.0264 680.195 94.8518 682.159 96.7246 684.096L98.1625 682.706C96.3079 680.787 94.5001 678.842 92.7381 676.872L91.2472 678.205ZM102.448 689.788C104.38 691.635 106.358 693.454 108.384 695.243L109.708 693.744C107.702 691.972 105.743 690.171 103.83 688.342L102.448 689.788ZM114.52 700.454C116.598 702.15 118.722 703.816 120.893 705.45L122.096 703.853C119.946 702.234 117.842 700.584 115.785 698.905L114.52 700.454ZM127.394 710.151C129.59 711.676 131.832 713.171 134.119 714.633L135.196 712.948C132.93 711.499 130.71 710.019 128.535 708.509L127.394 710.151ZM140.979 718.839C142.144 719.525 143.321 720.202 144.509 720.871L145.491 719.129C144.313 718.466 143.147 717.794 141.992 717.115L140.979 718.839ZM144.509 720.871C145.658 721.518 146.854 722.161 148.097 722.8L149.012 721.022C147.79 720.393 146.616 719.762 145.491 719.129L144.509 720.871ZM155.462 726.314C157.858 727.38 160.375 728.433 163 729.474L163.737 727.614C161.135 726.583 158.643 725.54 156.274 724.487L155.462 726.314ZM170.63 732.353C173.119 733.25 175.684 734.135 178.316 735.008L178.945 733.11C176.328 732.242 173.78 731.362 171.308 730.472L170.63 732.353ZM186.071 737.489C188.624 738.276 191.228 739.053 193.876 739.817L194.431 737.896C191.794 737.134 189.202 736.361 186.661 735.577L186.071 737.489ZM201.718 742.013C204.307 742.717 206.931 743.409 209.582 744.09L210.08 742.152C207.437 741.474 204.822 740.784 202.242 740.083L201.718 742.013ZM217.468 746.059C220.086 746.695 222.725 747.319 225.379 747.931L225.828 745.982C223.182 745.372 220.55 744.75 217.94 744.115L217.468 746.059ZM233.311 749.714C235.954 750.292 238.606 750.858 241.263 751.411L241.67 749.453C239.02 748.902 236.375 748.337 233.739 747.76L233.311 749.714ZM249.231 753.027C251.895 753.554 254.558 754.066 257.215 754.564L257.584 752.599C254.933 752.102 252.276 751.59 249.619 751.065L249.231 753.027ZM265.214 756.024C267.897 756.5 270.57 756.961 273.226 757.405L273.556 755.433C270.906 754.989 268.24 754.529 265.563 754.054L265.214 756.024ZM281.249 758.708C283.952 759.134 286.632 759.541 289.283 759.93L289.573 757.952C286.929 757.563 284.256 757.157 281.56 756.733L281.249 758.708ZM297.323 761.067C300.056 761.438 302.75 761.788 305.397 762.116L305.643 760.131C303.004 759.804 300.318 759.455 297.592 759.085L297.323 761.067ZM313.487 763.065C316.25 763.37 318.95 763.648 321.578 763.899L321.768 761.908C319.15 761.659 316.46 761.381 313.706 761.077L313.487 763.065ZM329.656 764.598C332.489 764.817 335.215 764.997 337.819 765.138L337.927 763.14C335.339 763.001 332.629 762.822 329.81 762.604L329.656 764.598ZM345.938 765.454C347.343 765.484 348.698 765.5 350 765.5V763.5C348.713 763.5 347.373 763.485 345.982 763.454L345.938 765.454Z" fill="url(#paint0_linear_836_1481)"/>
<defs>
<linearGradient id="paint0_linear_836_1481" x1="61.4997" y1="634.5" x2="214.255" y2="783.866" gradientUnits="userSpaceOnUse">
<stop stop-color="#3D7D7D"/>
<stop offset="1" stop-color="#F7C763"/>
</linearGradient>
</defs>
</svg>
