<?xml version="1.0" encoding="utf-8"?>
<svg viewBox="0 0 834.101 253.22" xmlns="http://www.w3.org/2000/svg">
  <clipPath id="a">
    <path d="m0 253.22h834.101v-253.22h-834.101z" transform="matrix(1 0 0 -1 0 253.22)"/>
  </clipPath>
  <g clip-path="url(#a)" enable-background="new">
    <g fill="#231f20" transform="matrix(1, 0, 0, 1, -130, 0)">
      <path d="m0 0h-.006v.312z" transform="matrix(1 0 0 -1 774.6279 87.9709)"/>
      <path d="m0 0-.037.019.068.137.037-.018z" transform="matrix(1 0 0 -1 784.1846 28.4758)"/>
      <path d="m0 0c-.035.014-.049.021-.049.021l.068.138c.002-.001.012-.007.038-.016z" transform="matrix(1 0 0 -1 779.0264 86.9514)"/>
      <path d="m146.051 186.576-3.229-2.472-1.468 2.472-3.388-2.575 2.294-3.948 3.203 2.541 1.494-2.541 3.389 2.677zm5.523-24.479c.161.114.352.274.574.48.223.206.445.424.667.652.223.229.432.452.628.67.195.217.346.395.453.532.214.297.431.641.654 1.03.222.389.431.812.627 1.27l-1.921 6.558c-.641.664-1.468 1.316-2.482 1.957s-2.13 1.219-3.349 1.734-2.504.927-3.856 1.236-2.677.464-3.976.464c-1.726 0-3.158-.292-4.296-.876-1.139-.583-2.046-1.339-2.722-2.266s-1.152-1.98-1.427-3.159c-.276-1.179-.414-2.352-.414-3.519 0-1.396.111-2.723.334-3.982.222-1.259.506-2.444.853-3.554s.734-2.145 1.161-3.107c.427-.961.845-1.866 1.254-2.712l.801.412c-.267.801-.521 1.573-.761 2.317-.24.743-.445 1.488-.614 2.232s-.306 1.505-.413 2.283-.16 1.613-.16 2.506c0 1.282.195 2.426.587 3.433.391 1.007.916 1.86 1.574 2.558.659.698 1.428 1.236 2.308 1.614.881.377 1.819.567 2.816.567 1.547 0 3.011-.126 4.39-.378 1.378-.252 2.628-.584 3.749-.995 1.12-.413 2.09-.876 2.908-1.391.819-.516 1.45-1.048 1.895-1.597-.089-.48-.383-.967-.881-1.459s-1.134-.944-1.908-1.356-1.663-.75-2.668-1.013c-1.005-.264-2.051-.395-3.136-.395.285-.984.556-1.871.814-2.661s.556-1.585.894-2.386h5.043z"/>
      <path d="m151.575 164.843c-.196 0-.405-.034-.627-.103-.222-.068-.436-.166-.641-.292-.204-.126-.373-.286-.506-.48-.134-.194-.201-.418-.201-.67v-1.957c0-.274.067-.509.201-.703.133-.195.302-.356.506-.482.205-.125.419-.216.641-.274.222-.057.431-.086.627-.086h2.001v5.047z"/>
      <path d="m153.576 164.843c-.196 0-.405-.034-.627-.103-.223-.068-.436-.166-.641-.292-.204-.126-.373-.286-.506-.48-.134-.194-.201-.418-.201-.67v-1.957c0-.274.067-.509.201-.703.133-.195.302-.356.506-.482.205-.125.418-.216.641-.274.222-.057.431-.086.627-.086h2.001v5.047z"/>
      <path d="m155.578 164.843c-.196 0-.405-.034-.627-.103-.223-.068-.436-.166-.641-.292-.204-.126-.373-.286-.507-.48-.133-.194-.2-.418-.2-.67v-1.957c0-.274.067-.509.2-.703.134-.195.303-.356.507-.482.205-.125.418-.216.641-.274.222-.057.431-.086.627-.086h2.001v5.047z"/>
      <path d="m157.579 164.843c-.195 0-.404-.034-.627-.103-.222-.068-.435-.166-.64-.292s-.374-.286-.507-.48c-.134-.194-.201-.418-.201-.67v-1.957c0-.274.067-.509.201-.703.133-.195.302-.356.507-.482.205-.125.418-.216.64-.274.223-.057.432-.086.627-.086h2.001v5.047z"/>
      <path d="m159.58 164.843c-.196 0-.405-.034-.627-.103-.222-.068-.436-.166-.641-.292-.204-.126-.373-.286-.506-.48-.134-.194-.201-.418-.201-.67v-1.957c0-.274.067-.509.201-.703.133-.195.302-.356.506-.482.205-.125.419-.216.641-.274.222-.057.431-.086.627-.086h2.001v5.047z"/>
      <path d="m161.581 164.843c-.196 0-.405-.034-.627-.103-.223-.068-.436-.166-.641-.292-.204-.126-.373-.286-.506-.48-.134-.194-.201-.418-.201-.67v-1.957c0-.274.067-.509.201-.703.133-.195.302-.356.506-.482.205-.125.418-.216.641-.274.222-.057.431-.086.627-.086h2.001v5.047z"/>
      <path d="m163.583 164.843c-.196 0-.405-.034-.627-.103-.223-.068-.436-.166-.641-.292-.204-.126-.373-.286-.506-.48-.134-.194-.201-.418-.201-.67v-1.957c0-.274.067-.509.201-.703.133-.195.302-.356.506-.482.205-.125.418-.216.641-.274.222-.057.431-.086.627-.086h2.001v5.047z"/>
      <path d="m165.584 164.843c-.196 0-.405-.034-.627-.103-.223-.068-.436-.166-.641-.292-.204-.126-.373-.286-.507-.48-.133-.194-.2-.418-.2-.67v-1.957c0-.274.067-.509.2-.703.134-.195.303-.356.507-.482.205-.125.418-.216.641-.274.222-.057.431-.086.627-.086h2.001v5.047z"/>
      <path d="m167.585 164.843c-.195 0-.405-.034-.627-.103-.222-.068-.436-.166-.641-.292-.204-.126-.373-.286-.506-.48-.134-.194-.201-.418-.201-.67v-1.957c0-.274.067-.509.201-.703.133-.195.302-.356.506-.482.205-.125.419-.216.641-.274.222-.057.432-.086.627-.086h2.001v5.047z"/>
      <path d="m169.587 164.843c-.196 0-.405-.034-.627-.103-.223-.068-.436-.166-.641-.292-.204-.126-.373-.286-.506-.48-.134-.194-.201-.418-.201-.67v-1.957c0-.274.067-.509.201-.703.133-.195.302-.356.506-.482.205-.125.418-.216.641-.274.222-.057.431-.086.627-.086h2.001v5.047z"/>
      <path d="m171.588 164.843c-.196 0-.405-.034-.627-.103-.223-.068-.436-.166-.641-.292-.204-.126-.373-.286-.506-.48-.134-.194-.201-.418-.201-.67v-1.957c0-.274.067-.509.201-.703.133-.195.302-.356.506-.482.205-.125.418-.216.641-.274.222-.057.431-.086.627-.086h2.001v5.047z"/>
      <path d="m173.59 164.843c-.196 0-.405-.034-.627-.103-.223-.068-.436-.166-.641-.292-.204-.126-.373-.286-.507-.48-.133-.194-.2-.418-.2-.67v-1.957c0-.274.067-.509.2-.703.134-.195.303-.356.507-.482.205-.125.418-.216.641-.274.222-.057.431-.086.627-.086h2.001v5.047z"/>
      <path d="m175.591 164.843c-.195 0-.405-.034-.627-.103-.222-.068-.436-.166-.641-.292-.204-.126-.373-.286-.506-.48-.134-.194-.201-.418-.201-.67v-1.957c0-.274.067-.509.201-.703.133-.195.302-.356.506-.482.205-.125.419-.216.641-.274.222-.057.432-.086.627-.086h2.001v5.047z"/>
      <path d="m177.592 164.843c-.196 0-.405-.034-.627-.103-.223-.068-.436-.166-.641-.292-.204-.126-.373-.286-.506-.48-.134-.194-.201-.418-.201-.67v-1.957c0-.274.067-.509.201-.703.133-.195.302-.356.506-.482.205-.125.418-.216.641-.274.222-.057.431-.086.627-.086h2.001v5.047z"/>
      <path d="m179.594 164.843c-.196 0-.405-.034-.627-.103-.223-.068-.436-.166-.641-.292-.204-.126-.373-.286-.506-.48-.134-.194-.201-.418-.201-.67v-1.957c0-.274.067-.509.201-.703.133-.195.302-.356.506-.482.205-.125.418-.216.641-.274.222-.057.431-.086.627-.086h2.001v5.047z"/>
      <path d="m181.595 164.843c-.196 0-.405-.034-.627-.103-.223-.068-.436-.166-.641-.292-.204-.126-.373-.286-.507-.48-.133-.194-.2-.418-.2-.67v-1.957c0-.274.067-.509.2-.703.134-.195.303-.356.507-.482.205-.125.418-.216.641-.274.222-.057.431-.086.627-.086h2.001v5.047z"/>
      <path d="m183.596 164.843c-.195 0-.405-.034-.627-.103-.222-.068-.436-.166-.641-.292-.204-.126-.373-.286-.506-.48-.134-.194-.201-.418-.201-.67v-1.957c0-.274.067-.509.201-.703.133-.195.302-.356.506-.482.205-.125.419-.216.641-.274.222-.057.432-.086.627-.086h2.001v5.047z"/>
      <path d="m185.598 164.843c-.196 0-.405-.034-.627-.103-.223-.068-.436-.166-.641-.292-.204-.126-.373-.286-.506-.48-.134-.194-.201-.418-.201-.67v-1.957c0-.274.067-.509.201-.703.133-.195.302-.356.506-.482.205-.125.418-.216.641-.274.222-.057.431-.086.627-.086h2.001v5.047z"/>
      <path d="m187.599 164.843c-.196 0-.405-.034-.627-.103-.223-.068-.436-.166-.641-.292-.204-.126-.373-.286-.506-.48-.134-.194-.201-.418-.201-.67v-1.957c0-.274.067-.509.201-.703.133-.195.302-.356.506-.482.205-.125.418-.216.641-.274.222-.057.431-.086.627-.086h2.001v5.047z"/>
      <path d="m189.601 164.843c-.196 0-.405-.034-.627-.103-.223-.068-.436-.166-.641-.292-.204-.126-.373-.286-.507-.48-.133-.194-.2-.418-.2-.67v-1.957c0-.274.067-.509.2-.703.134-.195.303-.356.507-.482.205-.125.418-.216.641-.274.222-.057.431-.086.627-.086h2.001v5.047z"/>
      <path d="m209.027 164.843c-.747 0-1.415-.028-2.001-.085-.587-.058-1.125-.206-1.615-.446-.489-.241-.951-.596-1.387-1.065s-.876-1.104-1.321-1.906c-.516.526-1.116 1.002-1.801 1.425-.686.424-1.428.79-2.229 1.098-.8.31-1.627.55-2.481.722s-1.708.257-2.562.257h-2.028c-.196 0-.405-.034-.627-.103-.222-.068-.436-.166-.64-.292-.205-.126-.374-.286-.508-.48-.133-.194-.2-.418-.2-.67v-1.957c0-.274.071-.515.213-.721.143-.206.316-.366.521-.48s.422-.2.654-.258c.231-.057.427-.086.587-.086h2.855c.534 0 1.103-.062 1.708-.188s1.201-.298 1.788-.515c.587-.218 1.138-.476 1.654-.772.516-.298.961-.63 1.335-.997-.161-.252-.352-.56-.574-.926-.222-.367-.476-.722-.761-1.065-.285-.344-.591-.636-.92-.876s-.69-.36-1.081-.36c-.373 0-.792.114-1.254.344l-.587-.344 2.241-6.626c.409-.32.876-.601 1.401-.841.525-.241 1.187-.361 1.988-.361.516 0 1.161.189 1.935.566.774.378 1.525.882 2.255 1.511.729.63 1.352 1.34 1.868 2.129.515.79.773 1.597.773 2.421 0 .48-.053.995-.159 1.545-.107.548-.268 1.081-.481 1.596s-.489.99-.827 1.425-.73.789-1.174 1.065c.177.32.453.566.827.737.373.172.782.298 1.227.378s.886.126 1.321.138c.436.01.805.016 1.108.016h2.748v5.047z"/>
      <path d="m228.32 161.857c-.409-.618-.751-1.299-1.027-2.043s-.507-1.505-.694-2.283-.325-1.539-.414-2.283c-.089-.745-.151-1.413-.187-2.009-.533 0-1.062.04-1.587.12s-1.014.229-1.468.446c-.454.218-.85.522-1.187.91-.338.39-.587.905-.748 1.545.445.573.952 1.157 1.521 1.751.57.596 1.17 1.162 1.802 1.7.631.538 1.276 1.018 1.934 1.442.659.424 1.299.75 1.922.978zm4.376 2.986c-.409 0-.76-.022-1.054-.068-.293-.046-.56-.132-.801-.258-.239-.125-.466-.291-.68-.497-.213-.206-.453-.47-.72-.79l-1.815 4.154c-.943-.366-1.814-.778-2.615-1.236-.8-.457-1.552-.955-2.255-1.493s-1.378-1.116-2.028-1.734c-.649-.618-1.285-1.27-1.908-1.957-.391.801-.765 1.454-1.121 1.957-.355.503-.715.899-1.08 1.185s-.734.48-1.108.583c-.373.104-.782.154-1.227.154h-1.468c-.178 0-.462-.056-.854-.171-.302-.115-.564-.292-.787-.532-.222-.24-.334-.52-.334-.842v-1.957c0-.274.067-.508.201-.703.133-.195.302-.355.507-.481.204-.125.418-.217.64-.275.222-.056.431-.086.627-.086h3.442c.41 0 .806-.16 1.188-.48s.671-.744.867-1.271c.125-.32.272-.72.441-1.201.169-.48.369-1.052.6-1.716.676-2.015 1.548-3.606 2.615-4.773s2.428-1.751 4.083-1.751c.462 0 .823.224 1.081.67.257.446.413.943.466 1.493.179 1.739.463 3.278.854 4.618.392 1.339.988 2.5 1.788 3.485.231.252.543.469.934.652.392.184.898.274 1.521.274h.988v5.047z"/>
      <path d="m243.797 145.48-3.229-2.473-1.467 2.473-3.389-2.575 2.294-3.948 3.203 2.54 1.494-2.54 3.389 2.677zm.96 19.363c-.355 0-.711-.08-1.067-.24-.355-.16-.68-.394-.974-.703-.293-.31-.547-.676-.76-1.099-.214-.424-.356-.898-.427-1.425h-.32l-1.255 3.467h-6.27c-.196 0-.405-.034-.628-.102-.222-.069-.435-.166-.64-.292-.204-.126-.373-.286-.507-.481-.133-.194-.2-.418-.2-.67v-1.957c0-.274.067-.508.2-.703.134-.195.303-.355.507-.481.205-.125.418-.217.64-.275.223-.056.432-.086.628-.086h6.137l1.067-8.377 2.802-2.369-.934 7.244c.054.756.191 1.369.414 1.837.222.47.502.825.84 1.065s.721.4 1.148.48.881.12 1.361.12h1.574v5.047z"/>
      <path d="m260.928 174.972-3.602-2.815 2.295-3.949 3.602 2.884zm8.485-10.129c-1.191 0-2.134-.108-2.828-.326-.694-.217-1.223-.561-1.587-1.029-.365-.47-.596-1.077-.694-1.821-.098-.743-.147-1.653-.147-2.729v-1.133c-.623.802-1.383 1.619-2.281 2.455-.899.835-1.886 1.591-2.963 2.266-1.076.675-2.223 1.23-3.442 1.665-1.218.435-2.45.652-3.696.652h-3.682c-.196 0-.405-.034-.627-.102-.223-.069-.436-.166-.641-.292-.204-.126-.373-.287-.507-.481-.133-.194-.2-.418-.2-.67v-1.957c0-.274.067-.509.2-.703.134-.195.303-.355.507-.481.205-.125.418-.217.641-.275.222-.056.431-.086.627-.086h5.203c1.086 0 2.153-.177 3.203-.532 1.049-.354 2.063-.801 3.042-1.339.978-.538 1.916-1.133 2.815-1.785.898-.652 1.748-1.287 2.548-1.905l-1.814-.653c-.73-.252-1.428-.504-2.095-.756-.667-.25-1.325-.48-1.975-.686-.649-.206-1.299-.377-1.948-.515-.649-.137-1.303-.206-1.961-.206-.356 0-.667.098-.934.292-.267.195-.498.435-.694.721s-.369.584-.52.893-.289.578-.414.806l-.774-.549c.356-1.167.708-2.209 1.054-3.124.348-.916.712-1.682 1.095-2.3.382-.619.814-1.087 1.294-1.408s1.031-.481 1.654-.481c.801 0 1.65.143 2.549.43.898.286 1.907.658 3.028 1.115.801.321 1.646.647 2.535.978.89.332 1.819.636 2.789.91.969.275 1.978.499 3.028.67 1.049.171 2.135.257 3.255.257l-1.761 5.082c-1.245 0-2.339-.115-3.282-.343-.8 0-1.458.103-1.974.308-.516.206-1.005.482-1.467.824 0 .802.106 1.425.319 1.871.214.447.525.773.934.979.41.206.908.332 1.495.378s1.245.068 1.974.068h6.164v5.047z"/>
      <path d="m276.458 164.843c-.196 0-.405-.034-.627-.103-.223-.068-.436-.166-.641-.292-.204-.126-.373-.286-.507-.48-.133-.194-.2-.418-.2-.67v-1.957c0-.274.067-.509.2-.703.134-.195.303-.356.507-.482.205-.125.418-.216.641-.274.222-.057.431-.086.627-.086h2.001v5.047z"/>
      <path d="m278.46 164.843c-.195 0-.404-.034-.627-.103-.222-.068-.435-.166-.64-.292s-.374-.286-.507-.48c-.134-.194-.201-.418-.201-.67v-1.957c0-.274.067-.509.201-.703.133-.195.302-.356.507-.482.205-.125.418-.216.64-.274.223-.057.432-.086.627-.086h2.001v5.047z"/>
      <path d="m280.461 164.843c-.196 0-.405-.034-.627-.103-.223-.068-.436-.166-.641-.292-.204-.126-.373-.286-.506-.48-.134-.194-.201-.418-.201-.67v-1.957c0-.274.067-.509.201-.703.133-.195.302-.356.506-.482.205-.125.418-.216.641-.274.222-.057.431-.086.627-.086h2.001v5.047z"/>
      <path d="m282.462 164.843c-.196 0-.405-.034-.627-.103-.223-.068-.436-.166-.641-.292-.204-.126-.373-.286-.506-.48-.134-.194-.201-.418-.201-.67v-1.957c0-.274.067-.509.201-.703.133-.195.302-.356.506-.482.205-.125.418-.216.641-.274.222-.057.431-.086.627-.086h2.001v5.047z"/>
      <path d="m284.464 164.843c-.196 0-.405-.034-.627-.103-.223-.068-.436-.166-.641-.292-.204-.126-.373-.286-.507-.48-.133-.194-.2-.418-.2-.67v-1.957c0-.274.067-.509.2-.703.134-.195.303-.356.507-.482.205-.125.418-.216.641-.274.222-.057.431-.086.627-.086h2.001v5.047z"/>
      <path d="m286.465 164.843c-.195 0-.404-.034-.627-.103-.222-.068-.435-.166-.64-.292s-.374-.286-.507-.48c-.134-.194-.201-.418-.201-.67v-1.957c0-.274.067-.509.201-.703.133-.195.302-.356.507-.482.205-.125.418-.216.64-.274.223-.057.432-.086.627-.086h2.001v5.047z"/>
      <path d="m288.466 164.843c-.196 0-.405-.034-.627-.103-.222-.068-.436-.166-.641-.292-.204-.126-.373-.286-.506-.48-.134-.194-.201-.418-.201-.67v-1.957c0-.274.067-.509.201-.703.133-.195.302-.356.506-.482.205-.125.419-.216.641-.274.222-.057.431-.086.627-.086h2.001v5.047z"/>
      <path d="m290.468 164.843c-.196 0-.405-.034-.627-.103-.223-.068-.436-.166-.641-.292-.204-.126-.373-.286-.506-.48-.134-.194-.201-.418-.201-.67v-1.957c0-.274.067-.509.201-.703.133-.195.302-.356.506-.482.205-.125.418-.216.641-.274.222-.057.431-.086.627-.086h2.001v5.047z"/>
      <path d="m292.469 164.843c-.196 0-.405-.034-.627-.103-.223-.068-.436-.166-.641-.292-.204-.126-.373-.286-.506-.48-.134-.194-.201-.418-.201-.67v-1.957c0-.274.067-.509.201-.703.133-.195.302-.356.506-.482.205-.125.418-.216.641-.274.222-.057.431-.086.627-.086h2.001v5.047z"/>
      <path d="m294.47 164.843c-.195 0-.404-.034-.627-.103-.222-.068-.435-.166-.64-.292s-.374-.286-.507-.48c-.134-.194-.201-.418-.201-.67v-1.957c0-.274.067-.509.201-.703.133-.195.302-.356.507-.482.205-.125.418-.216.64-.274.223-.057.432-.086.627-.086h2.001v5.047z"/>
      <path d="m296.472 164.843c-.196 0-.405-.034-.627-.103-.222-.068-.436-.166-.641-.292-.204-.126-.373-.286-.506-.48-.134-.194-.201-.418-.201-.67v-1.957c0-.274.067-.509.201-.703.133-.195.302-.356.506-.482.205-.125.419-.216.641-.274.222-.057.431-.086.627-.086h2.001v5.047z"/>
      <path d="m298.473 164.843c-.196 0-.405-.034-.627-.103-.223-.068-.436-.166-.641-.292-.204-.126-.373-.286-.506-.48-.134-.194-.201-.418-.201-.67v-1.957c0-.274.067-.509.201-.703.133-.195.302-.356.506-.482.205-.125.418-.216.641-.274.222-.057.431-.086.627-.086h2.001v5.047z"/>
      <path d="m300.475 164.843c-.196 0-.405-.034-.627-.103-.223-.068-.436-.166-.641-.292-.204-.126-.373-.286-.506-.48-.134-.194-.201-.418-.201-.67v-1.957c0-.274.067-.509.201-.703.133-.195.302-.356.506-.482.205-.125.418-.216.641-.274.222-.057.431-.086.627-.086h2.001v5.047z"/>
      <path d="m302.476 164.843c-.196 0-.405-.034-.627-.103-.223-.068-.436-.166-.641-.292-.204-.126-.373-.286-.507-.48-.133-.194-.2-.418-.2-.67v-1.957c0-.274.067-.509.2-.703.134-.195.303-.356.507-.482.205-.125.418-.216.641-.274.222-.057.431-.086.627-.086h2.001v5.047z"/>
      <path d="m304.477 164.843c-.195 0-.405-.034-.627-.103-.222-.068-.436-.166-.641-.292-.204-.126-.373-.286-.506-.48-.134-.194-.201-.418-.201-.67v-1.957c0-.274.067-.509.201-.703.133-.195.302-.356.506-.482.205-.125.419-.216.641-.274.222-.057.432-.086.627-.086h2.001v5.047z"/>
      <path d="m306.479 164.843c-.196 0-.405-.034-.627-.103-.223-.068-.436-.166-.641-.292-.204-.126-.373-.286-.506-.48-.134-.194-.201-.418-.201-.67v-1.957c0-.274.067-.509.201-.703.133-.195.302-.356.506-.482.205-.125.418-.216.641-.274.222-.057.431-.086.627-.086h2.001v5.047z"/>
      <path d="m308.48 164.843c-.196 0-.405-.034-.627-.103-.223-.068-.436-.166-.641-.292-.204-.126-.373-.286-.506-.48-.134-.194-.201-.418-.201-.67v-1.957c0-.274.067-.509.201-.703.133-.195.302-.356.506-.482.205-.125.418-.216.641-.274.222-.057.431-.086.627-.086h2.001v5.047z"/>
      <path d="m310.481 164.843c-.196 0-.405-.034-.627-.103-.223-.068-.436-.166-.641-.292-.204-.126-.373-.286-.507-.48-.133-.194-.2-.418-.2-.67v-1.957c0-.274.067-.509.2-.703.134-.195.303-.356.507-.482.205-.125.418-.216.641-.274.222-.057.431-.086.627-.086h2.001v5.047z"/>
      <path d="m312.482 164.843c-.195 0-.405-.034-.627-.103-.222-.068-.436-.166-.641-.292-.204-.126-.373-.286-.506-.48-.134-.194-.201-.418-.201-.67v-1.957c0-.274.067-.509.201-.703.133-.195.302-.356.506-.482.205-.125.419-.216.641-.274.222-.057.432-.086.627-.086h2.001v5.047z"/>
      <path d="m314.484 164.843c-.196 0-.405-.034-.627-.103-.223-.068-.436-.166-.641-.292-.204-.126-.373-.286-.506-.48-.134-.194-.201-.418-.201-.67v-1.957c0-.274.067-.509.201-.703.133-.195.302-.356.506-.482.205-.125.418-.216.641-.274.222-.057.431-.086.627-.086h2.001v5.047z"/>
      <path d="m323.717 137.033.747 14.97c.036.892.143 1.727.32 2.506.178.778.454 1.304.828 1.579.32.206.631.401.934.584.302.183.595.366.88.549.712.412 1.361.784 1.948 1.116s1.094.675 1.521 1.03c.427.354.756.755.988 1.201.231.446.346.99.346 1.631 0 .572-.044 1.11-.133 1.614-.089.503-.213 1.001-.374 1.493-.16.493-.351.997-.573 1.511-.223.515-.467 1.059-.734 1.631-.516-.458-1.05-.933-1.601-1.425-.552-.492-1.099-.967-1.641-1.425-.543-.458-1.068-.876-1.575-1.253-.506-.377-.974-.669-1.401-.875-.48-.252-.942-.395-1.387-.429s-.854-.052-1.228-.052c-.373 0-.747.098-1.12.292-.374.194-.766.406-1.175.635-.409.252-.844.47-1.307.652-.463.184-.961.275-1.494.275-.196 0-.405-.035-.627-.103-.223-.068-.436-.166-.641-.292s-.374-.286-.507-.48c-.134-.195-.2-.418-.2-.67v-1.957c0-.275.066-.509.2-.704.133-.195.302-.355.507-.481.205-.125.418-.217.641-.274.222-.057.431-.086.627-.086.658 0 1.276-.131 1.854-.395s1.161-.52 1.748-.772c.391-.184.787-.338 1.188-.464.399-.126.813-.2 1.24-.223l-1.974-25.132c-.409-.526-.69-1.002-.841-1.424-.151-.424-.227-.808-.227-1.151l2.802-4.635h.267c0 .481.04.944.12 1.391.08.446.258.915.533 1.407.276.492.672 1.053 1.188 1.683.516.629 1.21 1.379 2.082 2.248z"/>
      <path d="m339.114 164.843-2.082-32.479 2.562-5.63c.196 3.914.365 7.318.507 10.213.143 2.896.267 5.385.374 7.468s.196 3.811.267 5.185c.071 1.373.124 2.483.16 3.33s.062 1.482.08 1.905c.018.424.027.738.027.945 0 1.121-.054 2.157-.161 3.107-.106.949-.239 1.813-.4 2.592-.16.778-.333 1.448-.52 2.009-.187.56-.369 1.012-.547 1.355z"/>
      <path d="m371.989 160.448c-.213-.435-.418-.921-.614-1.459s-.373-1.081-.533-1.631c-.161-.549-.303-1.081-.427-1.597-.125-.514-.232-.978-.321-1.39-.106-.527-.297-.903-.573-1.133-.276-.228-.61-.343-1.001-.343-.231 0-.516.04-.854.12s-.694.195-1.067.343c-.374.15-.747.32-1.121.516-.374.194-.72.406-1.041.635.445.618.974 1.258 1.588 1.922s1.258 1.288 1.935 1.871c.675.584 1.352 1.093 2.028 1.528s1.298.744 1.868.928zm4.83 4.395c-.712 0-1.383-.217-2.015-.653-.631-.434-1.232-1.179-1.801-2.231l-1.788 4.223c-.96-.412-1.894-.904-2.802-1.476-.907-.572-1.761-1.185-2.561-1.837-.801-.652-1.53-1.322-2.189-2.009-.658-.686-1.227-1.35-1.707-1.991l1.334-3.742c-.338.228-.739.509-1.201.841s-.934.681-1.414 1.047c-.48.367-.938.727-1.374 1.081-.437.355-.796.67-1.081.945.16 1.304.325 2.781.494 4.428.169 1.649.324 3.376.466 5.185.143 1.809.258 3.634.348 5.477.088 1.841.133 3.598.133 5.269l-1.815 6.352h-.107c0-1.191-.035-2.5-.106-3.931s-.174-2.919-.307-4.464-.28-3.112-.441-4.703c-.16-1.591-.333-3.136-.52-4.635-.187-1.5-.369-2.925-.547-4.275s-.347-2.552-.507-3.605c.142-.572.321-1.156.534-1.751s.454-1.167.72-1.716c.267-.549.548-1.059.841-1.528s.583-.876.867-1.219c.32-.367.77-.778 1.348-1.236s1.218-.922 1.921-1.39c.703-.47 1.427-.921 2.175-1.357.747-.434 1.454-.818 2.121-1.15.668-.331 1.259-.601 1.775-.807s.889-.308 1.121-.308c.498 0 .907.096 1.227.292.32.194.587.468.8.823.214.355.392.778.534 1.27.143.492.294 1.048.454 1.665.231.893.48 1.769.747 2.627.267.859.543 1.631.827 2.318.499 1.03 1.032 1.808 1.602 2.335.569.526 1.227.789 1.974.789h.827v5.047z"/>
      <path d="m377.727 164.843c-.196 0-.405-.034-.627-.103-.223-.068-.436-.166-.641-.292-.204-.126-.373-.286-.506-.48-.134-.194-.201-.418-.201-.67v-1.957c0-.274.067-.509.201-.703.133-.195.302-.356.506-.482.205-.125.418-.216.641-.274.222-.057.431-.086.627-.086h2.001v5.047z"/>
      <path d="m379.728 164.843c-.196 0-.405-.034-.627-.103-.223-.068-.436-.166-.641-.292-.204-.126-.373-.286-.507-.48-.133-.194-.2-.418-.2-.67v-1.957c0-.274.067-.509.2-.703.134-.195.303-.356.507-.482.205-.125.418-.216.641-.274.222-.057.431-.086.627-.086h2.001v5.047z"/>
      <path d="m381.729 164.843c-.195 0-.404-.034-.627-.103-.222-.068-.435-.166-.64-.292s-.374-.286-.507-.48c-.134-.194-.201-.418-.201-.67v-1.957c0-.274.067-.509.201-.703.133-.195.302-.356.507-.482.205-.125.418-.216.64-.274.223-.057.432-.086.627-.086h2.001v5.047z"/>
      <path d="m383.73 164.843c-.196 0-.405-.034-.627-.103-.223-.068-.436-.166-.641-.292-.204-.126-.373-.286-.506-.48-.134-.194-.201-.418-.201-.67v-1.957c0-.274.067-.509.201-.703.133-.195.302-.356.506-.482.205-.125.418-.216.641-.274.222-.057.431-.086.627-.086h2.001v5.047z"/>
      <path d="m385.732 164.843c-.196 0-.405-.034-.627-.103-.223-.068-.436-.166-.641-.292-.204-.126-.373-.286-.506-.48-.134-.194-.201-.418-.201-.67v-1.957c0-.274.067-.509.201-.703.133-.195.302-.356.506-.482.205-.125.418-.216.641-.274.222-.057.431-.086.627-.086h2.001v5.047z"/>
      <path d="m387.733 164.843c-.196 0-.405-.034-.627-.103-.223-.068-.436-.166-.641-.292-.204-.126-.373-.286-.507-.48-.133-.194-.2-.418-.2-.67v-1.957c0-.274.067-.509.2-.703.134-.195.303-.356.507-.482.205-.125.418-.216.641-.274.222-.057.431-.086.627-.086h2.001v5.047z"/>
      <path d="m389.734 164.843c-.195 0-.404-.034-.627-.103-.222-.068-.435-.166-.64-.292s-.374-.286-.507-.48c-.134-.194-.201-.418-.201-.67v-1.957c0-.274.067-.509.201-.703.133-.195.302-.356.507-.482.205-.125.418-.216.64-.274.223-.057.432-.086.627-.086h2.001v5.047z"/>
      <path d="m391.736 164.843c-.196 0-.405-.034-.627-.103-.222-.068-.436-.166-.641-.292-.204-.126-.373-.286-.506-.48-.134-.194-.201-.418-.201-.67v-1.957c0-.274.067-.509.201-.703.133-.195.302-.356.506-.482.205-.125.419-.216.641-.274.222-.057.431-.086.627-.086h2.001v5.047z"/>
      <path d="m393.737 164.843c-.196 0-.405-.034-.627-.103-.223-.068-.436-.166-.641-.292-.204-.126-.373-.286-.506-.48-.134-.194-.201-.418-.201-.67v-1.957c0-.274.067-.509.201-.703.133-.195.302-.356.506-.482.205-.125.418-.216.641-.274.222-.057.431-.086.627-.086h2.001v5.047z"/>
      <path d="m395.739 164.843c-.196 0-.405-.034-.627-.103-.223-.068-.436-.166-.641-.292-.204-.126-.373-.286-.507-.48-.133-.194-.2-.418-.2-.67v-1.957c0-.274.067-.509.2-.703.134-.195.303-.356.507-.482.205-.125.418-.216.641-.274.222-.057.431-.086.627-.086h2.001v5.047z"/>
      <path d="m397.74 164.843c-.195 0-.404-.034-.627-.103-.222-.068-.435-.166-.64-.292s-.374-.286-.507-.48c-.134-.194-.201-.418-.201-.67v-1.957c0-.274.067-.509.201-.703.133-.195.302-.356.507-.482.205-.125.418-.216.64-.274.223-.057.432-.086.627-.086h2.001v5.047z"/>
      <path d="m399.741 164.843c-.196 0-.405-.034-.627-.103-.222-.068-.436-.166-.641-.292-.204-.126-.373-.286-.506-.48-.134-.194-.201-.418-.201-.67v-1.957c0-.274.067-.509.201-.703.133-.195.302-.356.506-.482.205-.125.419-.216.641-.274.222-.057.431-.086.627-.086h2.001v5.047z"/>
      <path d="m401.743 164.843c-.196 0-.405-.034-.627-.103-.223-.068-.436-.166-.641-.292-.204-.126-.373-.286-.506-.48-.134-.194-.201-.418-.201-.67v-1.957c0-.274.067-.509.201-.703.133-.195.302-.356.506-.482.205-.125.418-.216.641-.274.222-.057.431-.086.627-.086h2.002v5.047z"/>
      <path d="m403.745 164.843c-.196 0-.405-.034-.627-.103-.223-.068-.436-.166-.641-.292-.204-.126-.373-.286-.506-.48-.134-.194-.201-.418-.201-.67v-1.957c0-.274.067-.509.201-.703.133-.195.302-.356.506-.482.205-.125.418-.216.641-.274.222-.057.431-.086.627-.086h2.001v5.047z"/>
      <path d="m405.747 164.843c-.196 0-.405-.034-.627-.103-.223-.068-.436-.166-.641-.292-.204-.126-.373-.286-.506-.48-.134-.194-.201-.418-.201-.67v-1.957c0-.274.067-.509.201-.703.133-.195.302-.356.506-.482.205-.125.418-.216.641-.274.222-.057.431-.086.627-.086h2.001v5.047z"/>
      <path d="m407.748 164.843c-.196 0-.405-.034-.627-.103-.223-.068-.436-.166-.641-.292-.204-.126-.373-.286-.507-.48-.133-.194-.2-.418-.2-.67v-1.957c0-.274.067-.509.2-.703.134-.195.303-.356.507-.482.205-.125.418-.216.641-.274.222-.057.431-.086.627-.086h2.001v5.047z"/>
      <path d="m409.749 164.843c-.195 0-.405-.034-.627-.103-.222-.068-.436-.166-.641-.292-.204-.126-.373-.286-.506-.48-.134-.194-.201-.418-.201-.67v-1.957c0-.274.067-.509.201-.703.133-.195.302-.356.506-.482.205-.125.419-.216.641-.274.222-.057.432-.086.627-.086h2.001v5.047z"/>
      <path d="m411.75 164.843c-.196 0-.405-.034-.627-.103-.223-.068-.436-.166-.641-.292-.204-.126-.373-.286-.506-.48-.134-.194-.201-.418-.201-.67v-1.957c0-.274.067-.509.201-.703.133-.195.302-.356.506-.482.205-.125.418-.216.641-.274.222-.057.431-.086.627-.086h2.001v5.047z"/>
      <path d="m413.752 164.843c-.196 0-.405-.034-.627-.103-.223-.068-.436-.166-.641-.292-.204-.126-.373-.286-.506-.48-.134-.194-.201-.418-.201-.67v-1.957c0-.274.067-.509.201-.703.133-.195.302-.356.506-.482.205-.125.418-.216.641-.274.222-.057.431-.086.627-.086h2.001v5.047z"/>
      <path d="m415.753 164.843c-.196 0-.405-.034-.627-.103-.223-.068-.436-.166-.641-.292-.204-.126-.373-.286-.507-.48-.133-.194-.2-.418-.2-.67v-1.957c0-.274.067-.509.2-.703.134-.195.303-.356.507-.482.205-.125.418-.216.641-.274.222-.057.431-.086.627-.086h2.001v5.047z"/>
      <path d="m427.868 174.56-3.229-2.472-1.468 2.472-3.388-2.575 2.294-3.948 3.203 2.541 1.494-2.541 3.389 2.677zm.96-9.717c-.355 0-.711-.08-1.067-.24s-.68-.395-.974-.703c-.294-.31-.547-.676-.76-1.099-.214-.424-.356-.898-.427-1.425h-.32l-1.255 3.467h-6.271c-.195 0-.404-.034-.627-.102-.222-.069-.436-.166-.64-.292s-.374-.286-.507-.481c-.133-.194-.2-.418-.2-.67v-1.957c0-.274.067-.509.2-.703.133-.195.303-.355.507-.481.204-.125.418-.217.64-.275.223-.056.432-.086.627-.086h6.138l1.067-8.377 2.802-2.369-.934 7.244c.054.756.191 1.369.414 1.837.222.47.502.825.84 1.065s.721.4 1.148.48.88.12 1.361.12h1.574v5.047z"/>
      <path d="m442.838 164.843c-.747 0-1.387-.257-1.921-.772s-.925-1.253-1.174-2.214h-.321l-1.067 2.986h-6.191c-.195 0-.404-.034-.627-.103-.222-.068-.435-.166-.64-.292s-.374-.286-.507-.48c-.134-.194-.2-.418-.2-.67v-1.957c0-.274.066-.509.2-.703.133-.195.302-.356.507-.482.205-.125.418-.216.64-.274.223-.057.432-.086.627-.086h6.378l-1.841-27.432 2.561-5.63c.054 1.121.12 2.465.201 4.034.08 1.567.164 3.262.253 5.081s.183 3.714.28 5.682c.098 1.968.2 3.915.307 5.836.107 1.923.209 3.772.307 5.545.098 1.775.191 3.382.28 4.825.036.32.08.6.134.84.053.241.133.43.24.567s.267.252.48.344c.214.091.445.16.694.206.249.045.498.074.747.086.249.01.471.016.667.016h.187v5.047z"/>
      <path d="m461.464 164.843c-.747 0-1.414-.028-2.001-.085-.587-.058-1.125-.206-1.615-.446-.489-.241-.951-.596-1.387-1.065s-.876-1.104-1.321-1.906c-.516.526-1.116 1.002-1.801 1.425-.685.424-1.428.79-2.229 1.098-.8.31-1.627.55-2.481.722s-1.708.257-2.562.257h-2.028c-.196 0-.405-.034-.627-.103-.222-.068-.436-.166-.64-.292-.205-.126-.374-.286-.507-.48-.134-.194-.2-.418-.2-.67v-1.957c0-.274.07-.515.213-.721.142-.206.316-.366.52-.48.205-.114.423-.2.654-.258.231-.057.427-.086.587-.086h2.855c.534 0 1.103-.062 1.708-.188s1.201-.298 1.788-.515c.587-.218 1.138-.476 1.655-.772.515-.298.96-.63 1.334-.997-.161-.252-.352-.56-.574-.926-.222-.367-.476-.722-.76-1.065-.285-.344-.592-.636-.921-.876s-.689-.36-1.081-.36c-.373 0-.791.114-1.254.344l-.587-.344 2.241-6.626c.41-.32.876-.601 1.401-.841.525-.241 1.188-.361 1.988-.361.516 0 1.161.189 1.935.566.774.378 1.526.882 2.255 1.511.729.63 1.352 1.34 1.868 2.129.515.79.774 1.597.774 2.421 0 .48-.054.995-.16 1.545-.107.548-.268 1.081-.481 1.596s-.489.99-.827 1.425-.73.789-1.174 1.065c.178.32.453.566.827.737.374.172.783.298 1.227.378.445.08.886.126 1.322.138.435.01.804.016 1.107.016h2.749v5.047z"/>
      <path d="m475.367 145.48-3.229-2.473-1.467 2.473-3.389-2.575 2.294-3.948 3.203 2.54 1.494-2.54 3.389 2.677zm.96 19.363c-.355 0-.711-.08-1.067-.24-.355-.16-.68-.394-.974-.703-.293-.31-.547-.676-.76-1.099-.214-.424-.356-.898-.427-1.425h-.32l-1.255 3.467h-6.27c-.196 0-.405-.034-.628-.102-.222-.069-.435-.166-.64-.292-.204-.126-.373-.286-.507-.481-.133-.194-.2-.418-.2-.67v-1.957c0-.274.067-.508.2-.703.134-.195.303-.355.507-.481.205-.125.418-.217.64-.275.223-.056.432-.086.628-.086h6.137l1.067-8.377 2.802-2.369-.934 7.244c.054.756.191 1.369.414 1.837.222.47.502.825.84 1.065s.721.4 1.148.48.881.12 1.361.12h1.574v5.047z"/>
      <path d="m490.337 164.843c-.747 0-1.388-.257-1.921-.772-.534-.515-.926-1.253-1.175-2.214h-.32l-1.067 2.986h-6.191c-.196 0-.405-.034-.627-.103-.222-.068-.436-.166-.64-.292-.205-.126-.374-.286-.508-.48-.133-.194-.199-.418-.199-.67v-1.957c0-.274.066-.509.199-.703.134-.195.303-.356.508-.482.204-.125.418-.216.64-.274.222-.057.431-.086.627-.086h6.378l-1.842-27.432 2.562-5.63c.054 1.121.12 2.465.2 4.034.08 1.567.165 3.262.254 5.081s.182 3.714.28 5.682.2 3.915.307 5.836c.107 1.923.209 3.772.306 5.545.099 1.775.192 3.382.281 4.825.035.32.08.6.134.84.053.241.133.43.239.567.107.137.267.252.481.344.213.091.445.16.694.206.249.045.498.074.747.086.249.01.471.016.667.016h.187v5.047z"/>
      <path d="m491.538 164.843c-.196 0-.405-.034-.627-.103-.223-.068-.436-.166-.641-.292-.204-.126-.373-.286-.506-.48-.134-.194-.201-.418-.201-.67v-1.957c0-.274.067-.509.201-.703.133-.195.302-.356.506-.482.205-.125.418-.216.641-.274.222-.057.431-.086.627-.086h7.552l-2.135-26.985c-.409-.527-.689-1.002-.841-1.425-.151-.424-.226-.808-.226-1.15l2.801-4.635h.267c0 .48.04.943.121 1.39.08.447.257.915.533 1.408.276.492.672 1.052 1.188 1.682.515.629 1.209 1.379 2.081 2.248l-2.749 4.704 1.201 20.704-1.788 7.106z"/>
      <path d="m532.045 164.843c-.498 0-1.001-.085-1.508-.257s-.938-.52-1.294-1.048l-.4.276c-.036 1.167-.192 2.363-.467 3.588-.276 1.224-.645 2.409-1.108 3.552-.462 1.145-.996 2.227-1.601 3.245-.604 1.019-1.254 1.906-1.948 2.662-.694.754-1.414 1.355-2.161 1.801-.747.447-1.486.67-2.215.67-1.121 0-2.344-.28-3.669-.842-1.325-.56-2.922-1.481-4.79-2.763l.32-1.03c.552.229 1.028.423 1.428.584.4.16.769.291 1.107.395.338.103.654.177.948.223.293.046.609.068.947.068.871 0 1.774-.211 2.708-.635s1.837-.972 2.709-1.648c.871-.675 1.699-1.436 2.481-2.282.784-.848 1.468-1.701 2.055-2.559s1.05-1.671 1.388-2.438c.338-.766.507-1.401.507-1.905 0-.206-.049-.464-.147-.772-.098-.31-.231-.653-.4-1.031-.169-.377-.36-.766-.574-1.167-.213-.4-.436-.806-.667-1.218-.374-.642-.73-1.282-1.067-1.923-.338-.641-.676-1.282-1.015-1.923l1.628-4.909c.214.411.414.823.601 1.235.186.412.395.836.627 1.271.338.664.707 1.333 1.107 2.009.401.674.836 1.287 1.308 1.836.471.549.974 1.001 1.508 1.356.533.355 1.093.532 1.681.532h1.521v5.047z"/>
      <path d="m540.477 155.642c.249.16.494.32.734.481s.485.331.734.515c.498.343.991.675 1.481.995.489.322.951.613 1.387.876s.841.475 1.215.635c.373.16.693.252.96.275-.142-.847-.311-1.722-.507-2.627-.195-.904-.427-1.733-.693-2.489-.268-.755-.579-1.379-.935-1.871-.355-.492-.755-.738-1.2-.738-1.121 0-2.179 1.316-3.176 3.948m7.152 9.991c-.658-.182-1.321-.406-1.988-.669s-1.464-.681-2.389-1.254c-.8-.48-1.583-1.006-2.348-1.579-.765-.572-1.432-1.121-2.001-1.648-.16.389-.312.778-.454 1.168-.142.388-.356.869-.64 1.441-.285.572-.623 1.008-1.014 1.305-.392.298-.801.446-1.228.446h-1.974c-.196 0-.405-.034-.628-.102-.222-.069-.435-.166-.64-.292-.204-.126-.373-.286-.507-.481-.133-.194-.2-.418-.2-.67v-1.957c0-.274.067-.509.2-.703.134-.195.303-.355.507-.481.205-.125.418-.217.64-.275.223-.056.432-.086.628-.086h1.867c.267 0 .521-.074.761-.222.24-.15.463-.332.667-.55.205-.217.387-.463.547-.738s.285-.549.374-.824c.213-.595.467-1.258.76-1.991.294-.733.623-1.476.988-2.232.364-.755.76-1.493 1.187-2.214.427-.722.885-1.357 1.374-1.906s.997-.996 1.521-1.339c.525-.343 1.072-.515 1.641-.515.676 0 1.312.435 1.908 1.305s1.072 2.093 1.428 3.674c.107.457.2.915.28 1.373s.164.916.254 1.373c.142.962.311 1.871.507 2.729.195.859.436 1.689.72 2.489z"/>
      <path d="m560.037 164.843c-.445 0-.854-.131-1.228-.395-.373-.262-.613-.486-.72-.668-.267-.413-.471-.939-.614-1.581-.142-.64-.249-1.441-.32-2.403-.089-1.35-.187-2.809-.294-4.377-.106-1.568-.213-3.181-.32-4.841s-.213-3.337-.32-5.03-.213-3.342-.32-4.944-.205-3.13-.294-4.583-.169-2.764-.24-3.932l2.562-5.596 1.547 30.179c.036.87.183 1.609.441 2.215s.725.909 1.401.909h3.415v5.047z"/>
      <path d="m564.733 164.843c-.195 0-.405-.034-.627-.103-.222-.068-.436-.166-.641-.292-.204-.126-.373-.286-.506-.48-.134-.194-.201-.418-.201-.67v-1.957c0-.274.067-.509.201-.703.133-.195.302-.356.506-.482.205-.125.419-.216.641-.274.222-.057.432-.086.627-.086h2.001v5.047z"/>
      <path d="m566.735 164.843c-.196 0-.405-.034-.627-.103-.223-.068-.436-.166-.641-.292-.204-.126-.373-.286-.506-.48-.134-.194-.201-.418-.201-.67v-1.957c0-.274.067-.509.201-.703.133-.195.302-.356.506-.482.205-.125.418-.216.641-.274.222-.057.431-.086.627-.086h2.001v5.047z"/>
      <path d="m568.736 164.843c-.196 0-.405-.034-.627-.103-.223-.068-.436-.166-.641-.292-.204-.126-.373-.286-.506-.48-.134-.194-.201-.418-.201-.67v-1.957c0-.274.067-.509.201-.703.133-.195.302-.356.506-.482.205-.125.418-.216.641-.274.222-.057.431-.086.627-.086h2.001v5.047z"/>
      <path d="m570.738 164.843c-.196 0-.405-.034-.627-.103-.223-.068-.436-.166-.641-.292-.204-.126-.373-.286-.507-.48-.133-.194-.2-.418-.2-.67v-1.957c0-.274.067-.509.2-.703.134-.195.303-.356.507-.482.205-.125.418-.216.641-.274.222-.057.431-.086.627-.086h2.001v5.047z"/>
      <path d="m572.739 164.843c-.195 0-.405-.034-.627-.103-.222-.068-.436-.166-.641-.292-.204-.126-.373-.286-.506-.48-.134-.194-.201-.418-.201-.67v-1.957c0-.274.067-.509.201-.703.133-.195.302-.356.506-.482.205-.125.419-.216.641-.274.222-.057.432-.086.627-.086h2.001v5.047z"/>
      <path d="m574.74 164.843c-.196 0-.405-.034-.627-.103-.223-.068-.436-.166-.641-.292-.204-.126-.373-.286-.506-.48-.134-.194-.201-.418-.201-.67v-1.957c0-.274.067-.509.201-.703.133-.195.302-.356.506-.482.205-.125.418-.216.641-.274.222-.057.431-.086.627-.086h2.001v5.047z"/>
      <path d="m576.742 164.843c-.196 0-.405-.034-.627-.103-.223-.068-.436-.166-.641-.292-.204-.126-.373-.286-.506-.48-.134-.194-.201-.418-.201-.67v-1.957c0-.274.067-.509.201-.703.133-.195.302-.356.506-.482.205-.125.418-.216.641-.274.222-.057.431-.086.627-.086h2.001v5.047z"/>
      <path d="m578.743 164.843c-.196 0-.405-.034-.627-.103-.223-.068-.436-.166-.641-.292-.204-.126-.373-.286-.507-.48-.133-.194-.2-.418-.2-.67v-1.957c0-.274.067-.509.2-.703.134-.195.303-.356.507-.482.205-.125.418-.216.641-.274.222-.057.431-.086.627-.086h2.001v5.047z"/>
      <path d="m580.744 164.843c-.195 0-.405-.034-.627-.103-.222-.068-.436-.166-.641-.292-.204-.126-.373-.286-.506-.48-.134-.194-.201-.418-.201-.67v-1.957c0-.274.067-.509.201-.703.133-.195.302-.356.506-.482.205-.125.419-.216.641-.274.222-.057.432-.086.627-.086h2.001v5.047z"/>
      <path d="m582.746 164.843c-.196 0-.405-.034-.627-.103-.223-.068-.436-.166-.641-.292-.204-.126-.373-.286-.506-.48-.134-.194-.201-.418-.201-.67v-1.957c0-.274.067-.509.201-.703.133-.195.302-.356.506-.482.205-.125.418-.216.641-.274.222-.057.431-.086.627-.086h2.001v5.047z"/>
      <path d="m584.747 164.843c-.196 0-.405-.034-.627-.103-.223-.068-.436-.166-.641-.292-.204-.126-.373-.286-.506-.48-.134-.194-.201-.418-.201-.67v-1.957c0-.274.067-.509.201-.703.133-.195.302-.356.506-.482.205-.125.418-.216.641-.274.222-.057.431-.086.627-.086h2.001v5.047z"/>
      <path d="m586.749 164.843c-.196 0-.405-.034-.627-.103-.223-.068-.436-.166-.641-.292-.204-.126-.373-.286-.507-.48-.133-.194-.2-.418-.2-.67v-1.957c0-.274.067-.509.2-.703.134-.195.303-.356.507-.482.205-.125.418-.216.641-.274.222-.057.431-.086.627-.086h2.001v5.047z"/>
      <path d="m588.75 164.843c-.195 0-.404-.034-.627-.103-.222-.068-.436-.166-.64-.292-.205-.126-.374-.286-.507-.48-.134-.194-.201-.418-.201-.67v-1.957c0-.274.067-.509.201-.703.133-.195.302-.356.507-.482.204-.125.418-.216.64-.274.223-.057.432-.086.627-.086h2.001v5.047z"/>
      <path d="m590.751 164.843c-.196 0-.405-.034-.627-.103-.223-.068-.436-.166-.641-.292-.204-.126-.373-.286-.506-.48-.134-.194-.201-.418-.201-.67v-1.957c0-.274.067-.509.201-.703.133-.195.302-.356.506-.482.205-.125.418-.216.641-.274.222-.057.431-.086.627-.086h2.001v5.047z"/>
      <path d="m592.752 164.843c-.196 0-.405-.034-.627-.103-.223-.068-.436-.166-.641-.292-.204-.126-.373-.286-.506-.48-.134-.194-.201-.418-.201-.67v-1.957c0-.274.067-.509.201-.703.133-.195.302-.356.506-.482.205-.125.418-.216.641-.274.222-.057.431-.086.627-.086h2.001v5.047z"/>
      <path d="m594.754 164.843c-.196 0-.405-.034-.627-.103-.223-.068-.436-.166-.641-.292-.204-.126-.373-.286-.507-.48-.133-.194-.2-.418-.2-.67v-1.957c0-.274.067-.509.2-.703.134-.195.303-.356.507-.482.205-.125.418-.216.641-.274.222-.057.431-.086.627-.086h2.001v5.047z"/>
      <path d="m596.755 164.843c-.195 0-.404-.034-.627-.103-.222-.068-.435-.166-.64-.292s-.374-.286-.507-.48c-.134-.194-.201-.418-.201-.67v-1.957c0-.274.067-.509.201-.703.133-.195.302-.356.507-.482.205-.125.418-.216.64-.274.223-.057.432-.086.627-.086h2.001v5.047z"/>
      <path d="m598.756 164.843c-.196 0-.405-.034-.627-.103-.223-.068-.436-.166-.641-.292-.204-.126-.373-.286-.506-.48-.134-.194-.201-.418-.201-.67v-1.957c0-.274.067-.509.201-.703.133-.195.302-.356.506-.482.205-.125.418-.216.641-.274.222-.057.431-.086.627-.086h2.001v5.047z"/>
      <path d="m600.758 164.843c-.196 0-.405-.034-.627-.103-.223-.068-.436-.166-.641-.292-.204-.126-.373-.286-.506-.48-.134-.194-.201-.418-.201-.67v-1.957c0-.274.067-.509.201-.703.133-.195.302-.356.506-.482.205-.125.418-.216.641-.274.222-.057.431-.086.627-.086h2.001v5.047z"/>
      <path d="m602.759 164.843c-.196 0-.405-.034-.627-.103-.223-.068-.436-.166-.641-.292-.204-.126-.373-.286-.507-.48-.133-.194-.2-.418-.2-.67v-1.957c0-.274.067-.509.2-.703.134-.195.303-.356.507-.482.205-.125.418-.216.641-.274.222-.057.431-.086.627-.086h2.001v5.047z"/>
      <path d="m604.76 164.843c-.195 0-.404-.034-.627-.103-.222-.068-.435-.166-.64-.292s-.374-.286-.507-.48c-.134-.194-.201-.418-.201-.67v-1.957c0-.274.067-.509.201-.703.133-.195.302-.356.507-.482.205-.125.418-.216.64-.274.223-.057.432-.086.627-.086h2.001v5.047z"/>
      <path d="m606.762 164.843c-.195 0-.404-.034-.627-.103-.223-.068-.435-.166-.641-.292-.204-.126-.373-.286-.506-.48-.134-.194-.201-.418-.201-.67v-1.957c0-.274.067-.509.201-.703.133-.195.302-.356.506-.482.206-.125.418-.216.641-.274.223-.057.432-.086.627-.086h2.001v5.047z"/>
      <path d="m608.763 164.843c-.195 0-.404-.034-.627-.103-.222-.068-.435-.166-.64-.292s-.374-.286-.507-.48-.201-.418-.201-.67v-1.957c0-.274.068-.509.201-.703.133-.195.302-.356.507-.482.205-.125.418-.216.64-.274.223-.057.432-.086.627-.086h2.002v5.047z"/>
      <path d="m610.765 164.843c-.196 0-.405-.034-.627-.103-.223-.068-.436-.166-.641-.292s-.374-.286-.506-.48c-.134-.194-.201-.418-.201-.67v-1.957c0-.274.067-.509.201-.703.132-.195.301-.356.506-.482.205-.125.418-.216.641-.274.222-.057.431-.086.627-.086h2.001v5.047z"/>
      <path d="m612.766 164.843c-.195 0-.404-.034-.627-.103-.223-.068-.435-.166-.641-.292-.204-.126-.373-.286-.506-.48s-.201-.418-.201-.67v-1.957c0-.274.068-.509.201-.703.133-.195.302-.356.506-.482.206-.125.418-.216.641-.274.223-.057.432-.086.627-.086h2.002v5.047z"/>
      <path d="m624.08 143.763-3.229-2.472-1.467 2.472-3.389-2.575 2.295-3.948 3.202 2.541 1.494-2.541 3.389 2.677zm-9.313 21.08c-.196 0-.405-.034-.627-.102-.222-.069-.436-.166-.64-.292-.205-.126-.374-.287-.507-.481-.134-.194-.2-.418-.2-.67v-1.957c0-.274.066-.509.2-.703.133-.195.302-.355.507-.481.204-.125.418-.217.64-.275.222-.057.431-.086.627-.086h7.418c0-.709-.08-1.367-.24-1.973-.16-.607-.364-1.173-.613-1.7s-.517-1.007-.801-1.442c-.285-.435-.552-.824-.801-1.167l1.895-5.631c.338.618.672 1.316 1.001 2.094s.622 1.574.881 2.387c.258.812.467 1.625.627 2.437.16.813.24 1.563.24 2.249 0 .663-.045 1.345-.134 2.043-.089.697-.209 1.385-.36 2.06-.152.674-.312 1.327-.481 1.957s-.333 1.207-.493 1.733z"/>
      <path d="m647.723 153.754-.48-8.378c-.249.458-.481.956-.694 1.494-.214.537-.48.921-.801 1.15-.16.137-.511.361-1.053.67-.543.308-1.139.646-1.788 1.012-.65.366-1.286.721-1.909 1.065-.622.343-1.093.618-1.414.824l-.294.583c1.228.572 2.46 1.008 3.697 1.305 1.236.297 2.575.572 4.015.824zm-2.295-17.888-3.228-2.472-1.468 2.472-3.389-2.575 2.295-3.948 3.202 2.54 1.494-2.54 3.389 2.678zm7.045 28.977c-.765 0-1.445-.223-2.041-.669-.597-.446-1.055-.933-1.375-1.459-.213-.344-.387-.773-.52-1.288s-.245-1.093-.334-1.734c-.088-.64-.16-1.316-.213-2.025-.053-.71-.107-1.408-.161-2.095h-.479l-2.108 4.189c-.979-.183-1.926-.401-2.842-.653-.916-.251-1.757-.538-2.522-.858-.569-.228-1.037-.446-1.401-.652s-.654-.412-.867-.618c-.214-.206-.361-.423-.441-.653-.08-.228-.12-.48-.12-.755 0-.366.12-.904.361-1.613.24-.71.524-1.442.853-2.197.329-.756.658-1.466.987-2.129.329-.664.583-1.122.761-1.374.125-.183.329-.395.614-.635s.631-.498 1.04-.772c.41-.275.864-.573 1.362-.893s1.013-.641 1.548-.961c.426-.252.849-.504 1.267-.756s.831-.504 1.24-.755c0-.16-.008-.366-.026-.618s-.031-.515-.04-.79c-.009-.274-.022-.532-.04-.772-.018-.241-.026-.429-.026-.567l2.427-4.669.374 7.141c.053.848.116 1.866.187 3.056s.146 2.403.226 3.639c.08 1.237.165 2.426.254 3.571.089 1.144.169 2.106.241 2.884.052.663.168 1.207.346 1.631.178.423.347.703.507.841.357.32.721.549 1.095.687.373.137.853.228 1.44.274h1.868v5.047z"/>
      <path d="m655.915 164.843c-.196 0-.405-.034-.627-.103-.223-.068-.436-.166-.641-.292s-.374-.286-.506-.48c-.134-.194-.201-.418-.201-.67v-1.957c0-.274.067-.509.201-.703.132-.195.301-.356.506-.482.205-.125.418-.216.641-.274.222-.057.431-.086.627-.086h2.001v5.047z"/>
      <path d="m657.916 164.843c-.195 0-.404-.034-.627-.103-.223-.068-.435-.166-.641-.292-.204-.126-.373-.286-.506-.48s-.201-.418-.201-.67v-1.957c0-.274.068-.509.201-.703.133-.195.302-.356.506-.482.206-.125.418-.216.641-.274.223-.057.432-.086.627-.086h2.002v5.047z"/>
      <path d="m659.918 164.843c-.196 0-.405-.034-.627-.103-.223-.068-.436-.166-.641-.292s-.374-.286-.506-.48c-.134-.194-.201-.418-.201-.67v-1.957c0-.274.067-.509.201-.703.132-.195.301-.356.506-.482.205-.125.418-.216.641-.274.222-.057.431-.086.627-.086h2.001v5.047z"/>
      <path d="m661.919 164.843c-.195 0-.404-.034-.627-.103-.223-.068-.435-.166-.641-.292-.204-.126-.373-.286-.506-.48-.134-.194-.201-.418-.201-.67v-1.957c0-.274.067-.509.201-.703.133-.195.302-.356.506-.482.206-.125.418-.216.641-.274.223-.057.432-.086.627-.086h2.001v5.047z"/>
      <path d="m663.92 164.843c-.195 0-.404-.034-.627-.103-.222-.068-.435-.166-.641-.292-.204-.126-.373-.286-.506-.48s-.201-.418-.201-.67v-1.957c0-.274.068-.509.201-.703.133-.195.302-.356.506-.482.206-.125.419-.216.641-.274.223-.057.432-.086.627-.086h2.002v5.047z"/>
      <path d="m665.922 164.843c-.196 0-.405-.034-.627-.103-.223-.068-.436-.166-.641-.292s-.374-.286-.506-.48c-.134-.194-.201-.418-.201-.67v-1.957c0-.274.067-.509.201-.703.132-.195.301-.356.506-.482.205-.125.418-.216.641-.274.222-.057.431-.086.627-.086h2.001v5.047z"/>
      <path d="m667.923 164.843c-.195 0-.404-.034-.627-.103-.223-.068-.435-.166-.641-.292-.204-.126-.373-.286-.506-.48-.134-.194-.201-.418-.201-.67v-1.957c0-.274.067-.509.201-.703.133-.195.302-.356.506-.482.206-.125.418-.216.641-.274.223-.057.432-.086.627-.086h2.002v5.047z"/>
      <path d="m669.925 164.843c-.196 0-.405-.034-.628-.103-.222-.068-.435-.166-.64-.292s-.374-.286-.507-.48-.201-.418-.201-.67v-1.957c0-.274.068-.509.201-.703.133-.195.302-.356.507-.482.205-.125.418-.216.64-.274.223-.057.432-.086.628-.086h2.001v5.047z"/>
      <path d="m671.926 164.843c-.195 0-.405-.034-.627-.103-.223-.068-.436-.166-.641-.292s-.374-.286-.506-.48c-.134-.194-.201-.418-.201-.67v-1.957c0-.274.067-.509.201-.703.132-.195.301-.356.506-.482.205-.125.418-.216.641-.274.222-.057.432-.086.627-.086h2.001v5.047z"/>
      <path d="m673.927 164.843c-.195 0-.404-.034-.627-.103-.223-.068-.435-.166-.641-.292-.204-.126-.373-.286-.506-.48s-.201-.418-.201-.67v-1.957c0-.274.068-.509.201-.703.133-.195.302-.356.506-.482.206-.125.418-.216.641-.274.223-.057.432-.086.627-.086h2.002v5.047z"/>
      <path d="m675.929 164.843c-.196 0-.405-.034-.627-.103-.223-.068-.436-.166-.641-.292s-.374-.286-.506-.48c-.134-.194-.201-.418-.201-.67v-1.957c0-.274.067-.509.201-.703.132-.195.301-.356.506-.482.205-.125.418-.216.641-.274.222-.057.431-.086.627-.086h2.001v5.047z"/>
      <path d="m677.93 164.843c-.195 0-.404-.034-.627-.103-.223-.068-.435-.166-.641-.292-.204-.126-.373-.286-.506-.48-.134-.194-.201-.418-.201-.67v-1.957c0-.274.067-.509.201-.703.133-.195.302-.356.506-.482.206-.125.418-.216.641-.274.223-.057.432-.086.627-.086h2.001v5.047z"/>
      <path d="m679.931 164.843c-.195 0-.404-.034-.627-.103-.222-.068-.435-.166-.641-.292-.204-.126-.373-.286-.506-.48s-.201-.418-.201-.67v-1.957c0-.274.068-.509.201-.703.133-.195.302-.356.506-.482.206-.125.419-.216.641-.274.223-.057.432-.086.627-.086h2.002v5.047z"/>
      <path d="m681.933 164.843c-.196 0-.405-.034-.627-.103-.223-.068-.436-.166-.641-.292s-.374-.286-.506-.48c-.134-.194-.201-.418-.201-.67v-1.957c0-.274.067-.509.201-.703.132-.195.301-.356.506-.482.205-.125.418-.216.641-.274.222-.057.431-.086.627-.086h2.001v5.047z"/>
      <path d="m683.934 164.843c-.195 0-.404-.034-.627-.103-.223-.068-.435-.166-.641-.292-.204-.126-.373-.286-.506-.48-.134-.194-.201-.418-.201-.67v-1.957c0-.274.067-.509.201-.703.133-.195.302-.356.506-.482.206-.125.418-.216.641-.274.223-.057.432-.086.627-.086h2.002v5.047z"/>
      <path d="m685.935 164.843c-.196 0-.405-.034-.628-.103-.222-.068-.435-.166-.64-.292s-.374-.286-.507-.48-.2-.418-.2-.67v-1.957c0-.274.067-.509.2-.703.133-.195.302-.356.507-.482.205-.125.418-.216.64-.274.223-.057.432-.086.628-.086h2.001v5.047z"/>
      <path d="m687.937 164.843c-.195 0-.404-.034-.627-.103-.223-.068-.435-.166-.641-.292-.204-.126-.374-.286-.506-.48-.134-.194-.201-.418-.201-.67v-1.957c0-.274.067-.509.201-.703.132-.195.302-.356.506-.482.206-.125.418-.216.641-.274.223-.057.432-.086.627-.086h2.001v5.047z"/>
      <path d="m689.938 164.843c-.195 0-.404-.034-.627-.103-.223-.068-.435-.166-.641-.292-.204-.126-.373-.286-.506-.48s-.201-.418-.201-.67v-1.957c0-.274.068-.509.201-.703.133-.195.302-.356.506-.482.206-.125.418-.216.641-.274.223-.057.432-.086.627-.086h2.002v5.047z"/>
      <path d="m691.94 164.843c-.196 0-.405-.034-.627-.103-.223-.068-.436-.166-.641-.292s-.374-.286-.506-.48c-.134-.194-.201-.418-.201-.67v-1.957c0-.274.067-.509.201-.703.132-.195.301-.356.506-.482.205-.125.418-.216.641-.274.222-.057.431-.086.627-.086h2.001v5.047z"/>
      <path d="m693.94 164.843c-.195 0-.404-.034-.627-.103-.223-.068-.435-.166-.641-.292-.204-.126-.373-.286-.506-.48-.134-.194-.201-.418-.201-.67v-1.957c0-.274.067-.509.201-.703.133-.195.302-.356.506-.482.206-.125.418-.216.641-.274.223-.057.432-.086.627-.086h2.001v5.047z"/>
      <path d="m726.122 164.843c-.641 0-1.28-.286-1.921-.857-.641-.573-1.103-1.385-1.388-2.439h-.266c-.09.366-.183.75-.28 1.15-.099.401-.197.779-.294 1.133-.098.356-.187.676-.267.962s-.156.509-.227.669c-.338.756-.654 1.242-.947 1.459-.294.218-.628.326-1.001.326-.196 0-.449-.24-.761-.72-.311-.481-.627-1.059-.947-1.734-.32-.676-.632-1.39-.933-2.146-.303-.755-.552-1.407-.747-1.957-.41.641-.966 1.174-1.668 1.596-.704.424-1.468.767-2.295 1.031-.828.263-1.668.452-2.522.566s-1.628.172-2.322.172c-.516 0-.947-.178-1.294-.532-.347-.355-.521-.876-.521-1.563h-.106c-.338.436-.841.83-1.508 1.185-.667.354-1.431.658-2.295.91-.862.252-1.783.446-2.761.584-.979.137-1.949.205-2.91.205-.195 0-.404-.034-.627-.103-.221-.068-.435-.166-.639-.292-.205-.126-.374-.286-.508-.48-.133-.194-.2-.418-.2-.67v-1.957c0-.274.071-.509.214-.703.142-.195.311-.356.506-.482.197-.125.41-.216.641-.274.232-.057.436-.086.613-.086.25 0 .508-.006.775-.016.266-.012.524-.03.773-.052 1.015-.069 1.997-.212 2.949-.429.952-.218 1.824-.487 2.616-.808.791-.32 1.48-.698 2.067-1.132.587-.435 1.032-.905 1.335-1.408.479-.846.934-1.768 1.36-2.763.427-.996.819-2.089 1.174-3.28l1.361.619c-.249 1.167-.546 2.289-.893 3.364-.348 1.076-.726 2.095-1.135 3.056-.106.251-.218.498-.333.738-.116.24-.174.384-.174.429 0 .343.49.515 1.468.515.463 0 .961-.022 1.494-.068.534-.046 1.059-.12 1.574-.224.517-.102 1.006-.252 1.468-.446.463-.194.864-.441 1.201-.738.321-.275.622-.704.908-1.288.284-.584.547-1.23.787-1.94.24-.709.458-1.419.654-2.128.195-.71.364-1.339.507-1.889l1.36.515c-.124.802-.289 1.694-.493 2.679-.205.984-.423 1.899-.654 2.746.125.435.294.956.507 1.562.213.607.431 1.191.654 1.751.223.561.427 1.036.613 1.425.188.389.325.584.414.584.107 0 .2-.052.281-.155.08-.103.146-.234.2-.395.052-.16.102-.326.146-.498.045-.171.085-.314.12-.428.16-.573.338-1.253.535-2.043.195-.79.386-1.614.573-2.472.186-.858.369-1.705.547-2.541.177-.835.329-1.573.454-2.215l1.414.412c-.089.847-.232 1.825-.427 2.936-.196 1.11-.4 2.215-.614 3.313.177.618.391 1.105.64 1.459.249.355.538.624.868.807.329.183.694.304 1.093.36.401.058.832.086 1.295.086h1.2v5.047z"/>
      <path d="m728.604 164.843c-.195 0-.404-.034-.627-.103-.222-.068-.435-.166-.641-.292-.204-.126-.373-.286-.506-.48s-.201-.418-.201-.67v-1.957c0-.274.068-.509.201-.703.133-.195.302-.356.506-.482.206-.125.419-.216.641-.274.223-.057.432-.086.627-.086h2.002v5.047z"/>
      <path d="m730.606 164.843c-.196 0-.405-.034-.627-.103-.223-.068-.436-.166-.641-.292s-.374-.286-.506-.48c-.134-.194-.201-.418-.201-.67v-1.957c0-.274.067-.509.201-.703.132-.195.301-.356.506-.482.205-.125.418-.216.641-.274.222-.057.431-.086.627-.086h2.001v5.047z"/>
      <path d="m732.606 164.843c-.195 0-.404-.034-.627-.103-.223-.068-.435-.166-.641-.292-.204-.126-.373-.286-.506-.48-.134-.194-.201-.418-.201-.67v-1.957c0-.274.067-.509.201-.703.133-.195.302-.356.506-.482.206-.125.418-.216.641-.274.223-.057.432-.086.627-.086h2.001v5.047z"/>
      <path d="m734.607 164.843c-.195 0-.404-.034-.627-.103-.222-.068-.435-.166-.64-.292s-.374-.286-.507-.48-.201-.418-.201-.67v-1.957c0-.274.068-.509.201-.703.133-.195.302-.356.507-.482.205-.125.418-.216.64-.274.223-.057.432-.086.627-.086h2.002v5.047z"/>
      <path d="m764.067 149.771c.107.298.249.722.428 1.271.177.549.355 1.162.533 1.836.178.676.329 1.379.454 2.112.124.732.187 1.43.187 2.094 0 .916-.077 1.837-.227 2.764-.151.927-.458 1.905-.921 2.936-.392.87-.721 1.516-.987 1.939-.267.424-.623.636-1.068.636-.142 0-.365-.08-.667-.24s-.645-.367-1.027-.619c-.383-.251-.792-.538-1.227-.858-.437-.32-.85-.646-1.242-.978-.391-.332-.752-.653-1.081-.961-.329-.31-.573-.568-.733-.773-.427.527-.987.967-1.681 1.321-.694.355-1.441.647-2.242.876-.8.229-1.605.395-2.415.498s-1.534.155-2.175.155c-.676 0-1.147-.166-1.414-.498-.266-.332-.4-.773-.4-1.323h-.187c-.32.458-.813.865-1.481 1.219-.667.356-1.427.658-2.281.91s-1.77.441-2.749.567c-.978.126-1.93.188-2.855.188-.196 0-.405-.034-.627-.102-.223-.069-.436-.166-.641-.292s-.374-.286-.506-.481c-.134-.194-.201-.418-.201-.67v-1.957c0-.274.067-.508.201-.703.132-.195.301-.355.506-.481.205-.125.418-.217.641-.275.222-.056.431-.086.627-.086.303 0 .596-.005.881-.016.284-.012.578-.03.88-.052.996-.068 1.966-.206 2.909-.412.942-.206 1.801-.475 2.575-.807s1.445-.71 2.015-1.133c.569-.423.987-.886 1.254-1.39.515-.985.973-1.945 1.374-2.884.4-.938.778-2.003 1.134-3.193l1.361.618c-.249 1.19-.561 2.369-.934 3.536-.374 1.167-.738 2.129-1.095 2.884-.106.252-.217.498-.333.738s-.173.384-.173.43c0 .343.489.514 1.467.514.481 0 .988-.034 1.522-.102.533-.069 1.058-.178 1.574-.326.516-.15 1.01-.332 1.481-.55s.877-.475 1.214-.773c.321-.274.619-.692.894-1.253s.534-1.172.773-1.836c.241-.664.455-1.345.641-2.043.188-.699.352-1.311.494-1.837l1.361.514c-.072.482-.161 1.008-.267 1.58-.106.573-.223 1.139-.347 1.7-.125.56-.258 1.11-.4 1.647-.143.538-.284 1.025-.427 1.46.178.297.521.687 1.027 1.167.507.481 1.05.95 1.628 1.407.579.458 1.121.854 1.627 1.185.508.332.841.498 1.001.498.089 0 .16-.046.214-.137.071-.092.107-.229.107-.412 0-.138-.009-.435-.027-.893s-.08-1.007-.187-1.648-.28-1.327-.52-2.06c-.24-.732-.574-1.43-1.001-2.094z"/>
      <path d="m779.918 159.625c-.178-.687-.399-1.38-.667-2.077-.267-.698-.56-1.34-.88-1.923-.32-.584-.658-1.059-1.015-1.425-.355-.366-.71-.55-1.067-.55-.392 0-.747.138-1.067.413-.321.274-.591.6-.814.978-.222.378-.395.761-.52 1.15s-.187.699-.187.927c.142.595.449 1.087.92 1.477.472.388 1.215.675 2.229.858.16.023.374.046.64.068.267.024.547.041.841.052.293.012.582.023.867.034.284.012.525.018.72.018m-1.2-15.896c-.57.182-1.201.406-1.895.668-.694.264-1.281.556-1.761.876-.356.229-.694.555-1.014.979-.32.423-.605.864-.854 1.321l-.668-.377c.072-.435.223-.95.455-1.545.231-.595.515-1.099.853-1.51-.516-.252-.942-.602-1.28-1.048-.338-.447-.507-.921-.507-1.425 0-.503.142-1.087.427-1.751.284-.663.64-1.287 1.067-1.871.427-.583.89-1.081 1.388-1.493s.96-.618 1.387-.618c.445 0 .779.154 1 .463.223.309.334.669.334 1.081 0 .595-.186 1.179-.56 1.751-.534-.548-1.13-.824-1.788-.824-.373 0-.738.138-1.094.412-.355.275-.534.676-.534 1.203 0 .296.076.566.227.806s.347.446.587.618c.241.172.507.303.801.395.293.092.573.138.84.138.409 0 .907-.104 1.494-.31.588-.206 1.255-.469 2.002-.789zm3.682 21.114c-.267 1.832-.703 3.617-1.307 5.356-.606 1.739-1.344 3.284-2.215 4.635-.872 1.351-1.859 2.437-2.962 3.262-1.103.824-2.286 1.236-3.55 1.236-.587 0-1.196-.068-1.827-.206-.632-.138-1.308-.35-2.028-.636-.721-.285-1.503-.657-2.349-1.115-.845-.458-1.765-1.007-2.762-1.648l.321-1.03c.569.229 1.067.423 1.494.583.428.16.818.292 1.175.396.355.102.693.177 1.013.222.321.046.667.069 1.041.069.854 0 1.73-.177 2.628-.532.899-.355 1.78-.83 2.642-1.425.863-.595 1.677-1.281 2.442-2.06.765-.778 1.449-1.585 2.055-2.421.604-.835 1.099-1.671 1.48-2.506.383-.836.619-1.608.707-2.317h-.813c-.312 0-.641-.012-.987-.034-.347-.024-.699-.052-1.054-.086-.356-.034-.694-.074-1.015-.12-.587-.092-1.156-.27-1.708-.532-.55-.264-1.045-.601-1.48-1.013-.436-.412-.783-.904-1.041-1.477-.258-.572-.387-1.202-.387-1.888 0-1.648.174-3.164.521-4.549.346-1.385.791-2.575 1.334-3.57.543-.997 1.152-1.775 1.828-2.335.676-.561 1.334-.842 1.974-.842.694 0 1.334.355 1.921 1.064.587.71 1.099 1.62 1.534 2.73.437 1.11.797 2.346 1.081 3.708.286 1.362.463 2.707.535 4.034h4.509v5.047z"/>
      <path d="m787.15 164.843c-.196 0-.405-.034-.628-.103-.222-.068-.435-.166-.64-.292s-.374-.286-.507-.48-.201-.418-.201-.67v-1.957c0-.274.068-.509.201-.703.133-.195.302-.356.507-.482.205-.125.418-.216.64-.274.223-.057.432-.086.628-.086h2.001v5.047z"/>
      <path d="m789.151 164.843c-.195 0-.405-.034-.627-.103-.223-.068-.436-.166-.641-.292s-.374-.286-.506-.48c-.134-.194-.201-.418-.201-.67v-1.957c0-.274.067-.509.201-.703.132-.195.301-.356.506-.482.205-.125.418-.216.641-.274.222-.057.432-.086.627-.086h2.001v5.047z"/>
      <path d="m791.152 164.843c-.195 0-.404-.034-.627-.103-.223-.068-.435-.166-.641-.292-.204-.126-.373-.286-.506-.48s-.201-.418-.201-.67v-1.957c0-.274.068-.509.201-.703.133-.195.302-.356.506-.482.206-.125.418-.216.641-.274.223-.057.432-.086.627-.086h2.002v5.047z"/>
      <path d="m793.154 164.843c-.196 0-.405-.034-.627-.103-.223-.068-.436-.166-.641-.292s-.374-.286-.506-.48c-.134-.194-.201-.418-.201-.67v-1.957c0-.274.067-.509.201-.703.132-.195.301-.356.506-.482.205-.125.418-.216.641-.274.222-.057.431-.086.627-.086h2.001v5.047z"/>
      <path d="m795.155 164.843c-.195 0-.404-.034-.627-.103-.223-.068-.435-.166-.641-.292-.204-.126-.373-.286-.506-.48-.134-.194-.201-.418-.201-.67v-1.957c0-.274.067-.509.201-.703.133-.195.302-.356.506-.482.206-.125.418-.216.641-.274.223-.057.432-.086.627-.086h2.001v5.047z"/>
      <path d="m797.156 164.843c-.195 0-.404-.034-.627-.103-.222-.068-.435-.166-.64-.292s-.374-.286-.507-.48-.201-.418-.201-.67v-1.957c0-.274.068-.509.201-.703.133-.195.302-.356.507-.482.205-.125.418-.216.64-.274.223-.057.432-.086.627-.086h2.002v5.047z"/>
      <path d="m806.043 155.642c.249.16.493.32.733.481.241.161.486.331.735.515.498.343.991.675 1.48.995.49.322.952.613 1.388.876.435.263.841.475 1.214.635.374.16.694.252.961.275-.143-.847-.312-1.722-.507-2.627-.196-.904-.427-1.733-.694-2.489-.267-.755-.579-1.379-.934-1.871s-.756-.738-1.201-.738c-1.12 0-2.179 1.316-3.175 3.948m7.151 9.991c-.658-.182-1.321-.406-1.988-.669s-1.463-.681-2.389-1.254c-.799-.48-1.583-1.006-2.347-1.579-.765-.572-1.433-1.121-2.001-1.648-.16.389-.312.778-.454 1.168-.143.388-.356.869-.641 1.441-.284.572-.622 1.008-1.014 1.305-.391.298-.8.446-1.227.446h-1.975c-.196 0-.405-.034-.627-.102-.222-.069-.436-.166-.64-.292-.205-.126-.374-.286-.507-.481-.134-.194-.2-.418-.2-.67v-1.957c0-.274.066-.509.2-.703.133-.195.302-.355.507-.481.204-.125.418-.217.64-.275.222-.056.431-.086.627-.086h1.868c.267 0 .52-.074.76-.222.24-.15.463-.332.667-.55.205-.217.388-.463.548-.738s.284-.549.373-.824c.214-.595.467-1.258.761-1.991s.623-1.476.987-2.232c.364-.755.761-1.493 1.188-2.214.426-.722.884-1.357 1.374-1.906.489-.549.996-.996 1.521-1.339s1.071-.515 1.641-.515c.676 0 1.312.435 1.908 1.305s1.072 2.093 1.428 3.674c.106.457.2.915.28 1.373s.164.916.253 1.373c.142.962.311 1.871.508 2.729.195.859.435 1.689.719 2.489z"/>
      <path d="m148.697 213.893v2.142c0 .332-.129.498-.387.498h-7.588c-.103 0-.154.067-.154.198v31.03c0 .332-.13.498-.388.498h-1.974c-.258 0-.386-.166-.386-.498v-31.03c0-.131-.053-.198-.156-.198h-7.278c-.257 0-.386-.166-.386-.498v-2.142c0-.332.129-.498.386-.498h17.924c.258 0 .387.166.387.498"/>
      <path d="m162.516 244.151c1.109-.98 1.665-2.299 1.665-3.96v-3.886c0-.131-.052-.198-.155-.198h-4.065c-1.703 0-3.071.447-4.103 1.345-1.032.896-1.549 2.141-1.549 3.735 0 1.462.394 2.565 1.182 3.312.786.748 1.812 1.121 3.076 1.121 1.523 0 2.839-.49 3.949-1.469m2.517-19.201c1.264 1.528 1.896 3.554 1.896 6.077v16.734c0 .332-.129.498-.387.498h-1.974c-.259 0-.387-.166-.387-.498v-2.043c0-.065-.02-.115-.058-.148-.039-.033-.085-.016-.136.05-.645.996-1.484 1.751-2.516 2.266-1.032.514-2.181.773-3.445.773-1.833 0-3.368-.599-4.607-1.794-1.238-1.194-1.858-3.022-1.858-5.48 0-2.489.703-4.457 2.11-5.9 1.407-1.445 3.361-2.168 5.865-2.168h4.49c.103 0 .155-.065.155-.198v-1.893c0-1.694-.368-3.03-1.103-4.01-.736-.978-1.878-1.469-3.426-1.469-1.239 0-2.245.307-3.02.922-.774.614-1.252 1.468-1.432 2.564-.078.333-.232.482-.465.449l-2.09-.348c-.284-.067-.4-.2-.348-.4.206-1.858.98-3.369 2.322-4.532 1.342-1.161 3.02-1.742 5.033-1.742 2.322 0 4.115.763 5.381 2.29"/>
      <path d="m197.065 224.949c1.123 1.495 1.684 3.536 1.684 6.126v16.686c0 .332-.129.498-.387.498h-1.936c-.258 0-.387-.166-.387-.498v-15.988c0-1.825-.407-3.279-1.219-4.357-.813-1.079-1.878-1.62-3.194-1.62-1.368 0-2.471.532-3.31 1.593-.838 1.064-1.257 2.492-1.257 4.284v16.088c0 .332-.13.498-.388.498h-1.974c-.258 0-.387-.166-.387-.498v-15.988c0-1.825-.4-3.279-1.2-4.357-.8-1.079-1.872-1.62-3.213-1.62-1.368 0-2.458.532-3.271 1.593-.813 1.064-1.22 2.492-1.22 4.284v16.088c0 .332-.129.498-.387.498h-1.974c-.258 0-.387-.166-.387-.498v-24.207c0-.33.129-.498.387-.498h1.974c.258 0 .387.168.387.498v1.994c0 .066.02.108.058.124.039.017.084-.007.136-.075.567-.962 1.297-1.685 2.187-2.168.89-.48 1.878-.721 2.962-.721 1.341 0 2.49.348 3.445 1.047.954.696 1.677 1.71 2.167 3.037.052.167.117.167.194 0 .568-1.361 1.367-2.382 2.4-3.063 1.032-.679 2.207-1.021 3.523-1.021 1.936 0 3.464.748 4.587 2.241"/>
      <path d="m208.485 227.017c-.839.847-1.387 1.984-1.646 3.412-.154.696-.257 1.826-.309 3.386 0 .133.052.2.155.2h10.026c.103 0 .155-.067.155-.2-.052-1.493-.13-2.557-.233-3.188-.284-1.493-.858-2.68-1.722-3.56-.865-.88-1.955-1.321-3.271-1.321-1.265 0-2.317.424-3.155 1.271m11.09 7.894v1.593c0 .333-.129.499-.386.499h-12.504c-.103 0-.155.067-.155.2.052 1.827.129 3.005.232 3.536.284 1.494.891 2.673 1.82 3.536.929.864 2.116 1.295 3.561 1.295 1.084 0 2.039-.315 2.865-.948.826-.628 1.471-1.526 1.935-2.689.155-.299.335-.364.542-.198l1.51 1.145c.206.166.258.398.155.698-.646 1.592-1.613 2.847-2.903 3.76-1.291.914-2.775 1.369-4.452 1.369-1.832-.033-3.368-.596-4.607-1.692-1.238-1.096-2.129-2.624-2.671-4.582-.464-1.596-.697-3.886-.697-6.874 0-1.395.02-2.532.059-3.412.038-.88.135-1.668.29-2.366.439-2.158 1.322-3.884 2.652-5.18 1.329-1.295 2.935-1.941 4.819-1.941 2.348 0 4.155.763 5.419 2.29 1.264 1.528 2.052 3.685 2.362 6.474.103.93.154 2.092.154 3.487"/>
      <path d="m235.137 223.456c.207.133.284.348.232.646l-.426 2.441c-.077.333-.245.432-.503.299-.439-.232-.942-.349-1.51-.349l-.503.05c-1.342.067-2.452.707-3.329 1.918-.878 1.212-1.316 2.749-1.316 4.606v14.694c0 .332-.129.498-.387.498h-1.974c-.259 0-.388-.166-.388-.498v-24.206c0-.33.129-.498.388-.498h1.974c.258 0 .387.168.387.498v3.038c0 .1.019.157.058.175.039.017.07-.009.097-.075.542-1.228 1.232-2.183 2.071-2.864.838-.681 1.813-1.021 2.922-1.021.852 0 1.587.215 2.207.648"/>
      <path d="m247.407 247.761v-33.868c0-.332.129-.498.388-.498h1.974c.257 0 .387.166.387.498v33.868c0 .332-.13.498-.387.498h-1.974c-.259 0-.388-.166-.388-.498"/>
      <path d="m269.956 225.05c1.226 1.561 1.839 3.652 1.839 6.275v16.436c0 .332-.129.498-.387.498h-1.975c-.258 0-.387-.166-.387-.498v-15.738c0-1.827-.432-3.321-1.296-4.483-.865-1.163-1.981-1.744-3.349-1.744-1.419 0-2.568.566-3.445 1.694-.877 1.129-1.316 2.607-1.316 4.432v15.839c0 .332-.129.498-.387.498h-1.974c-.259 0-.387-.166-.387-.498v-24.206c0-.33.128-.498.387-.498h1.974c.258 0 .387.168.387.498v2.141c0 .068.02.118.058.151.039.032.071.016.097-.051 1.135-2.058 2.877-3.088 5.226-3.088 2.064 0 3.709.781 4.935 2.342"/>
      <path d="m280.33 247.611c-1.123-.596-1.988-1.393-2.594-2.39-.607-.996-.909-2.107-.909-3.336v-.598c0-.332.128-.498.386-.498h1.858c.259 0 .387.166.387.498v.397c0 1.097.446 2.052 1.337 2.864.889.815 2.006 1.221 3.348 1.221s2.426-.389 3.252-1.171c.825-.779 1.238-1.767 1.238-2.964 0-.828-.213-1.508-.639-2.041-.426-.531-.928-.945-1.509-1.245-.581-.299-1.477-.68-2.691-1.145-1.445-.531-2.632-1.063-3.561-1.594-.929-.53-1.71-1.27-2.342-2.217-.633-.946-.949-2.149-.949-3.611 0-2.124.645-3.818 1.936-5.08s2.993-1.893 5.11-1.893c1.419 0 2.677.299 3.774.898 1.097.597 1.942 1.419 2.536 2.465.594 1.045.89 2.215.89 3.511v.149c0 .332-.129.498-.386.498h-1.821c-.257 0-.386-.166-.386-.498v-.149c0-1.129-.421-2.076-1.259-2.84-.839-.763-1.968-1.145-3.387-1.145-1.316 0-2.375.342-3.174 1.021-.801.681-1.2 1.62-1.2 2.814 0 1.13.387 1.993 1.161 2.591.775.596 1.974 1.194 3.6 1.793 1.496.564 2.71 1.095 3.639 1.593.93.498 1.729 1.22 2.401 2.167.67.946 1.006 2.183 1.006 3.709 0 2.16-.658 3.886-1.975 5.181-1.316 1.294-3.057 1.942-5.225 1.942-1.446 0-2.73-.298-3.852-.897"/>
      <path d="m304.736 225.995h-4.374c-.103 0-.154.067-.154.2v14.693c0 1.592.277 2.714.831 3.361.555.648 1.426.972 2.613.972h.969c.257 0 .386.167.386.497v2.043c0 .332-.129.498-.386.498-.311.033-.789.049-1.434.049-1.858 0-3.264-.449-4.218-1.344-.955-.897-1.433-2.556-1.433-4.981v-15.788c0-.133-.051-.2-.155-.2h-2.361c-.258 0-.387-.166-.387-.498v-1.942c0-.331.129-.498.387-.498h2.361c.104 0 .155-.066.155-.199v-5.778c0-.332.129-.498.387-.498h1.896c.258 0 .389.166.389.498v5.778c0 .133.051.199.154.199h4.374c.258 0 .387.167.387.498v1.942c0 .332-.129.498-.387.498"/>
      <path d="m310.814 247.711v-24.206c0-.331.129-.498.387-.498h1.975c.258 0 .387.167.387.498v24.206c0 .332-.129.498-.387.498h-1.975c-.258 0-.387-.166-.387-.498m-.077-30.033c-.413-.53-.619-1.196-.619-1.992 0-.83.206-1.503.619-2.018.413-.514.929-.77 1.548-.77s1.135.256 1.549.77c.412.515.619 1.188.619 2.018 0 .796-.207 1.462-.619 1.992-.414.532-.93.797-1.549.797s-1.135-.265-1.548-.797"/>
      <path d="m328.698 225.995h-4.375c-.104 0-.155.067-.155.2v14.693c0 1.592.277 2.714.833 3.361.555.648 1.426.972 2.613.972h.967c.258 0 .387.167.387.497v2.043c0 .332-.129.498-.387.498-.309.033-.787.049-1.432.049-1.858 0-3.265-.449-4.22-1.344-.955-.897-1.431-2.556-1.431-4.981v-15.788c0-.133-.052-.2-.155-.2h-2.362c-.259 0-.387-.166-.387-.498v-1.942c0-.331.128-.498.387-.498h2.362c.103 0 .155-.066.155-.199v-5.778c0-.332.129-.498.387-.498h1.896c.258 0 .387.166.387.498v5.778c0 .133.051.199.155.199h4.375c.257 0 .387.167.387.498v1.942c0 .332-.13.498-.387.498"/>
      <path d="m346.62 223.057h1.975c.258 0 .387.168.387.498v24.206c0 .332-.129.498-.387.498h-1.975c-.258 0-.387-.166-.387-.498v-2.141c0-.066-.025-.116-.076-.15-.053-.033-.092-.017-.117.05-1.084 2.059-2.801 3.089-5.148 3.089-1.239 0-2.382-.325-3.427-.972-1.045-.648-1.871-1.585-2.477-2.814s-.91-2.706-.91-4.433v-16.835c0-.33.129-.498.387-.498h1.975c.258 0 .387.168.387.498v15.789c0 1.893.413 3.395 1.238 4.508.826 1.112 1.949 1.668 3.368 1.668 1.471 0 2.639-.564 3.504-1.694.864-1.127 1.296-2.623 1.296-4.482v-15.789c0-.33.129-.498.387-.498"/>
      <path d="m363.537 225.995h-4.375c-.104 0-.155.067-.155.2v14.693c0 1.592.277 2.714.833 3.361.555.648 1.426.972 2.613.972h.967c.258 0 .388.167.388.497v2.043c0 .332-.13.498-.388.498-.309.033-.787.049-1.432.049-1.858 0-3.265-.449-4.219-1.344-.955-.897-1.432-2.556-1.432-4.981v-15.788c0-.133-.052-.2-.155-.2h-2.361c-.26 0-.388-.166-.388-.498v-1.942c0-.331.128-.498.388-.498h2.361c.103 0 .155-.066.155-.199v-5.778c0-.332.129-.498.387-.498h1.896c.258 0 .387.166.387.498v5.778c0 .133.051.199.155.199h4.375c.257 0 .387.167.387.498v1.942c0 .332-.13.498-.387.498"/>
      <path d="m372.731 227.017c-.84.847-1.388 1.984-1.646 3.412-.154.696-.258 1.826-.31 3.386 0 .133.052.2.156.2h10.025c.103 0 .155-.067.155-.2-.052-1.493-.129-2.557-.233-3.188-.283-1.493-.858-2.68-1.722-3.56-.865-.88-1.954-1.321-3.271-1.321-1.264 0-2.316.424-3.154 1.271m11.089 7.894v1.593c0 .333-.129.499-.386.499h-12.503c-.104 0-.156.067-.156.2.052 1.827.129 3.005.232 3.536.284 1.494.891 2.673 1.821 3.536.928.864 2.115 1.295 3.561 1.295 1.084 0 2.038-.315 2.864-.948.826-.628 1.471-1.526 1.936-2.689.154-.299.334-.364.541-.198l1.51 1.145c.207.166.258.398.155.698-.645 1.592-1.613 2.847-2.903 3.76-1.291.914-2.775 1.369-4.452 1.369-1.833-.033-3.368-.596-4.607-1.692s-2.129-2.624-2.67-4.582c-.465-1.596-.698-3.886-.698-6.874 0-1.395.02-2.532.06-3.412.037-.88.134-1.668.29-2.366.438-2.158 1.321-3.884 2.651-5.18 1.329-1.295 2.936-1.941 4.819-1.941 2.348 0 4.155.763 5.419 2.29 1.264 1.528 2.053 3.685 2.362 6.474.103.93.154 2.092.154 3.487"/>
      <path d="m401.86 217.702c-.516.814-.774 2.2-.774 4.16v.996c0 .133.051.198.154.198h4.337c.257 0 .387.168.387.499v2.241c0 .332-.13.498-.387.498h-4.337c-.103 0-.154.067-.154.199v21.268c0 .332-.129.498-.387.498h-1.936c-.259 0-.386-.166-.386-.498v-21.268c0-.132-.053-.199-.156-.199h-2.593c-.259 0-.388-.166-.388-.498v-2.241c0-.331.129-.499.388-.499h2.593c.103 0 .156-.065.156-.198v-1.196c0-2.059.179-3.677.541-4.856.361-1.178.987-2.042 1.878-2.59.89-.548 2.135-.822 3.736-.822h1.121c.258 0 .388.166.388.498v2.092c0 .333-.13.498-.388.498h-.89c-1.419 0-2.387.408-2.903 1.22"/>
      <path d="m419.628 244.249c.876-.878 1.471-2.067 1.78-3.561.232-1.196.349-2.871.349-5.03 0-2.191-.103-3.868-.31-5.031-.309-1.493-.91-2.681-1.8-3.561-.891-.88-1.968-1.32-3.232-1.32-1.266 0-2.336.44-3.214 1.32-.877.88-1.47 2.068-1.78 3.561-.207 1.163-.31 2.84-.31 5.031s.103 3.868.31 5.03c.284 1.494.871 2.683 1.762 3.561.89.881 1.98 1.32 3.271 1.32 1.238 0 2.296-.439 3.174-1.32m-7.974 2.565c-1.343-1.227-2.272-2.921-2.788-5.08-.361-1.526-.542-3.569-.542-6.126 0-2.556.181-4.582.542-6.077.49-2.124 1.407-3.801 2.749-5.029 1.341-1.23 2.967-1.843 4.877-1.843 1.832 0 3.413.613 4.742 1.843 1.329 1.228 2.239 2.888 2.729 4.979.361 1.429.541 3.471.541 6.127 0 2.69-.18 4.731-.541 6.126-.49 2.159-1.4 3.853-2.729 5.08-1.329 1.229-2.922 1.844-4.78 1.844s-3.459-.615-4.8-1.844"/>
      <path d="m440.183 223.456c.207.133.284.348.232.646l-.425 2.441c-.077.333-.246.432-.503.299-.439-.232-.943-.349-1.51-.349l-.503.05c-1.342.067-2.452.707-3.33 1.918-.877 1.212-1.316 2.749-1.316 4.606v14.694c0 .332-.129.498-.387.498h-1.974c-.258 0-.388-.166-.388-.498v-24.206c0-.33.13-.498.388-.498h1.974c.258 0 .387.168.387.498v3.038c0 .1.02.157.058.175.039.017.071-.009.097-.075.542-1.228 1.233-2.183 2.071-2.864s1.814-1.021 2.923-1.021c.852 0 1.587.215 2.206.648"/>
      <path d="m455.939 247.338c-1.368-.913-2.433-2.208-3.193-3.886-.762-1.676-1.142-3.61-1.142-5.802v-13.696c0-2.159.38-4.067 1.142-5.728.76-1.659 1.825-2.947 3.193-3.86s2.955-1.37 4.762-1.37c1.805 0 3.392.449 4.761 1.345 1.368.896 2.432 2.158 3.193 3.785.762 1.628 1.142 3.503 1.142 5.629 0 .166-.039.298-.115.397-.078.101-.168.151-.272.151l-1.974.148c-.258 0-.388-.148-.388-.447v-.15c0-2.358-.58-4.242-1.741-5.653-1.161-1.412-2.697-2.117-4.606-2.117-1.91 0-3.446.714-4.608 2.142-1.16 1.427-1.741 3.304-1.741 5.628v13.946c0 2.325.581 4.2 1.741 5.628 1.162 1.428 2.698 2.141 4.608 2.141 1.909 0 3.445-.705 4.606-2.117 1.161-1.41 1.741-3.295 1.741-5.652v-.1c0-.299.13-.448.388-.448l1.974.149c.258 0 .387.15.387.448 0 2.16-.38 4.059-1.142 5.704-.761 1.643-1.825 2.914-3.193 3.809-1.369.897-2.956 1.345-4.761 1.345-1.807 0-3.394-.455-4.762-1.369"/>
      <path d="m486.017 244.249c.876-.878 1.471-2.067 1.78-3.561.232-1.196.349-2.871.349-5.03 0-2.191-.104-3.868-.31-5.031-.309-1.493-.91-2.681-1.8-3.561-.891-.88-1.968-1.32-3.232-1.32-1.266 0-2.336.44-3.214 1.32-.877.88-1.471 2.068-1.78 3.561-.207 1.163-.31 2.84-.31 5.031s.103 3.868.31 5.03c.284 1.494.871 2.683 1.761 3.561.891.881 1.981 1.32 3.271 1.32 1.239 0 2.297-.439 3.175-1.32m-7.975 2.565c-1.342-1.227-2.271-2.921-2.787-5.08-.361-1.526-.543-3.569-.543-6.126 0-2.556.182-4.582.543-6.077.489-2.124 1.407-3.801 2.749-5.029 1.341-1.23 2.967-1.843 4.877-1.843 1.831 0 3.413.613 4.742 1.843 1.329 1.228 2.239 2.888 2.729 4.979.361 1.429.541 3.471.541 6.127 0 2.69-.18 4.731-.541 6.126-.49 2.159-1.4 3.853-2.729 5.08-1.329 1.229-2.923 1.844-4.781 1.844s-3.459-.615-4.8-1.844"/>
      <path d="m520.875 224.949c1.122 1.495 1.683 3.536 1.683 6.126v16.686c0 .332-.129.498-.387.498h-1.936c-.257 0-.386-.166-.386-.498v-15.988c0-1.825-.406-3.279-1.22-4.357-.813-1.079-1.877-1.62-3.193-1.62-1.368 0-2.472.532-3.311 1.593-.838 1.064-1.257 2.492-1.257 4.284v16.088c0 .332-.13.498-.387.498h-1.975c-.257 0-.386-.166-.386-.498v-15.988c0-1.825-.401-3.279-1.2-4.357-.8-1.079-1.873-1.62-3.213-1.62-1.369 0-2.458.532-3.271 1.593-.813 1.064-1.22 2.492-1.22 4.284v16.088c0 .332-.129.498-.387.498h-1.975c-.258 0-.387-.166-.387-.498v-24.207c0-.33.129-.498.387-.498h1.975c.258 0 .387.168.387.498v1.994c0 .066.02.108.058.124.039.017.084-.007.135-.075.569-.962 1.298-1.685 2.187-2.168.891-.48 1.878-.721 2.963-.721 1.34 0 2.489.348 3.444 1.047.955.696 1.678 1.71 2.168 3.037.051.167.117.167.193 0 .568-1.361 1.368-2.382 2.401-3.063 1.032-.679 2.206-1.021 3.523-1.021 1.935 0 3.464.748 4.587 2.241"/>
      <path d="m552.889 224.949c1.122 1.495 1.684 3.536 1.684 6.126v16.686c0 .332-.13.498-.388.498h-1.935c-.258 0-.387-.166-.387-.498v-15.988c0-1.825-.406-3.279-1.22-4.357-.813-1.079-1.877-1.62-3.193-1.62-1.368 0-2.472.532-3.31 1.593-.838 1.064-1.258 2.492-1.258 4.284v16.088c0 .332-.13.498-.387.498h-1.974c-.258 0-.387-.166-.387-.498v-15.988c0-1.825-.4-3.279-1.2-4.357-.8-1.079-1.872-1.62-3.213-1.62-1.369 0-2.458.532-3.271 1.593-.813 1.064-1.22 2.492-1.22 4.284v16.088c0 .332-.129.498-.387.498h-1.975c-.257 0-.387-.166-.387-.498v-24.207c0-.33.13-.498.387-.498h1.975c.258 0 .387.168.387.498v1.994c0 .066.02.108.058.124.039.017.084-.007.136-.075.568-.962 1.297-1.685 2.187-2.168.89-.48 1.878-.721 2.962-.721 1.34 0 2.489.348 3.444 1.047.955.696 1.678 1.71 2.168 3.037.051.167.117.167.194 0 .567-1.361 1.367-2.382 2.4-3.063 1.032-.679 2.206-1.021 3.523-1.021 1.935 0 3.464.748 4.587 2.241"/>
      <path d="m572.727 223.057h1.975c.256 0 .386.168.386.498v24.206c0 .332-.13.498-.386.498h-1.975c-.258 0-.387-.166-.387-.498v-2.141c0-.066-.026-.116-.078-.15-.051-.033-.09-.017-.116.05-1.084 2.059-2.8 3.089-5.148 3.089-1.239 0-2.381-.325-3.426-.972-1.045-.648-1.871-1.585-2.477-2.814-.607-1.229-.91-2.706-.91-4.433v-16.835c0-.33.129-.498.387-.498h1.975c.257 0 .387.168.387.498v15.789c0 1.893.412 3.395 1.238 4.508.826 1.112 1.948 1.668 3.368 1.668 1.471 0 2.639-.564 3.503-1.694.865-1.127 1.297-2.623 1.297-4.482v-15.789c0-.33.129-.498.387-.498"/>
      <path d="m594.308 225.05c1.225 1.561 1.838 3.652 1.838 6.275v16.436c0 .332-.129.498-.387.498h-1.973c-.26 0-.388-.166-.388-.498v-15.738c0-1.827-.432-3.321-1.297-4.483-.865-1.163-1.98-1.744-3.348-1.744-1.42 0-2.568.566-3.445 1.694-.878 1.129-1.317 2.607-1.317 4.432v15.839c0 .332-.129.498-.387.498h-1.975c-.258 0-.386-.166-.386-.498v-24.206c0-.33.128-.498.386-.498h1.975c.258 0 .387.168.387.498v2.141c0 .068.02.118.058.151.039.032.071.016.097-.051 1.136-2.058 2.877-3.088 5.226-3.088 2.064 0 3.709.781 4.936 2.342"/>
      <path d="m602.495 247.711v-24.206c0-.331.129-.498.388-.498h1.974c.258 0 .387.167.387.498v24.206c0 .332-.129.498-.387.498h-1.974c-.259 0-.388-.166-.388-.498m-.077-30.033c-.413-.53-.619-1.196-.619-1.992 0-.83.206-1.503.619-2.018.413-.514.929-.77 1.548-.77.621 0 1.137.256 1.549.77.412.515.619 1.188.619 2.018 0 .796-.207 1.462-.619 1.992-.412.532-.928.797-1.549.797-.619 0-1.135-.265-1.548-.797"/>
      <path d="m620.379 225.995h-4.374c-.104 0-.154.067-.154.2v14.693c0 1.592.276 2.714.831 3.361.555.648 1.426.972 2.614.972h.968c.258 0 .386.167.386.497v2.043c0 .332-.128.498-.386.498-.311.033-.787.049-1.433.049-1.857 0-3.265-.449-4.219-1.344-.955-.897-1.432-2.556-1.432-4.981v-15.788c0-.133-.052-.2-.155-.2h-2.361c-.26 0-.389-.166-.389-.498v-1.942c0-.331.129-.498.389-.498h2.361c.103 0 .155-.066.155-.199v-5.778c0-.332.128-.498.387-.498h1.897c.257 0 .387.166.387.498v5.778c0 .133.05.199.154.199h4.374c.258 0 .389.167.389.498v1.942c0 .332-.131.498-.389.498"/>
      <path d="m624.909 257.722v-1.992c0-.332.129-.498.387-.498h.154c1.006-.033 1.787-.224 2.343-.573.554-.348 1.032-.996 1.431-1.942.4-.946.832-2.384 1.297-4.309.051-.133.051-.232 0-.297l-6.542-24.506-.039-.198c0-.233.116-.35.349-.35h2.052c.232 0 .386.133.464.399l5.033 20.121c.025.067.064.1.115.1.053 0 .091-.033.117-.1l4.954-20.121c.078-.266.233-.399.465-.399h2.013c.284 0 .387.184.31.548l-7.162 26.846c-.619 2.224-1.199 3.868-1.742 4.931-.541 1.062-1.219 1.801-2.032 2.216s-1.955.622-3.426.622h-.27c-.181 0-.271-.166-.271-.498"/>
      <path d="m669.348 216.483h-14.245c-.104 0-.154.066-.154.2v12.301c0 .133.05.199.154.199h9.986c.258 0 .389.167.389.499v2.092c0 .332-.131.497-.389.497h-9.986c-.104 0-.154.067-.154.199v12.502c0 .133.05.199.154.199h14.245c.258 0 .387.167.387.5v2.09c0 .332-.129.498-.387.498h-16.762c-.258 0-.386-.166-.386-.498v-33.868c0-.332.128-.498.386-.498h16.762c.258 0 .387.166.387.498v2.092c0 .333-.129.498-.387.498"/>
      <path d="m687.037 239.394c.104-.896.156-2.142.156-3.735 0-1.595-.052-2.847-.156-3.761-.104-.912-.283-1.718-.541-2.416-.311-1.127-.819-2.033-1.529-2.714s-1.556-1.021-2.536-1.021c-1.032 0-1.922.332-2.671.996-.748.665-1.29 1.545-1.625 2.64-.311.731-.536 1.552-.679 2.465-.141.914-.212 2.185-.212 3.811 0 1.561.051 2.781.154 3.661.104.88.284 1.668.543 2.364.309 1.196.858 2.142 1.645 2.84.787.697 1.722 1.046 2.806 1.046 1.033 0 1.897-.349 2.594-1.046.697-.698 1.213-1.626 1.549-2.789.231-.664.398-1.445.502-2.341m.582-25.999h1.974c.257 0 .386.166.386.498v33.868c0 .332-.129.498-.386.498h-1.974c-.26 0-.388-.166-.388-.498v-2.091c0-.067-.019-.109-.058-.125s-.083.009-.136.075c-.566.962-1.271 1.71-2.109 2.24-.839.531-1.775.799-2.806.799-1.807 0-3.323-.599-4.549-1.794s-2.071-2.822-2.536-4.881c-.361-1.494-.542-3.603-.542-6.325 0-2.756.155-4.815.465-6.177.465-2.124 1.316-3.792 2.556-5.006 1.238-1.211 2.772-1.816 4.606-1.816 1.006 0 1.936.257 2.787.77.851.516 1.562 1.255 2.128 2.218.053.065.097.092.136.074.039-.016.058-.057.058-.124v-11.705c0-.332.128-.498.388-.498"/>
      <path d="m708.444 223.057h1.975c.256 0 .386.168.386.498v24.206c0 .332-.13.498-.386.498h-1.975c-.259 0-.388-.166-.388-.498v-2.141c0-.066-.025-.116-.077-.15-.052-.033-.091-.017-.116.05-1.084 2.059-2.801 3.089-5.148 3.089-1.24 0-2.381-.325-3.426-.972-1.045-.648-1.871-1.585-2.478-2.814s-.909-2.706-.909-4.433v-16.835c0-.33.129-.498.387-.498h1.974c.257 0 .387.168.387.498v15.789c0 1.893.413 3.395 1.239 4.508.825 1.112 1.948 1.668 3.368 1.668 1.471 0 2.638-.564 3.503-1.694.864-1.127 1.296-2.623 1.296-4.482v-15.789c0-.33.129-.498.388-.498"/>
      <path d="m719.573 246.79c-1.328-1.245-2.239-2.93-2.729-5.056-.334-1.461-.502-3.519-.502-6.175 0-2.391.168-4.416.502-6.078.465-2.058 1.369-3.709 2.71-4.955 1.342-1.245 2.943-1.867 4.8-1.867 1.884 0 3.516.613 4.897 1.843 1.381 1.228 2.278 2.757 2.691 4.582.129.598.206 1.096.233 1.493v.101c0 .232-.117.382-.349.447l-1.936.35h-.078c-.179 0-.297-.15-.347-.449l-.118-.748c-.23-1.26-.798-2.332-1.703-3.212-.902-.88-2-1.32-3.29-1.32-1.291 0-2.368.44-3.232 1.32s-1.426 2.05-1.683 3.511c-.232 1.264-.349 2.939-.349 5.031 0 2.192.117 3.884.349 5.08.257 1.494.819 2.683 1.683 3.561.864.881 1.941 1.32 3.232 1.32 1.265 0 2.356-.424 3.272-1.27.916-.847 1.491-1.934 1.721-3.262v-.2l.039-.198c.026-.332.181-.465.465-.399l1.897.399c.259.066.374.249.348.547l-.154.996c-.388 1.926-1.278 3.488-2.671 4.682-1.394 1.196-3.033 1.794-4.917 1.794-1.857 0-3.451-.624-4.781-1.868"/>
      <path d="m746.729 244.151c1.109-.98 1.666-2.299 1.666-3.96v-3.886c0-.131-.053-.198-.156-.198h-4.064c-1.703 0-3.072.447-4.104 1.345-1.031.896-1.549 2.141-1.549 3.735 0 1.462.395 2.565 1.182 3.312.787.748 1.813 1.121 3.077 1.121 1.522 0 2.839-.49 3.948-1.469m2.518-19.201c1.262 1.528 1.895 3.554 1.895 6.077v16.734c0 .332-.129.498-.387.498h-1.973c-.259 0-.387-.166-.387-.498v-2.043c0-.065-.02-.115-.06-.148-.037-.033-.083-.016-.135.05-.645.996-1.485 1.751-2.516 2.266-1.032.514-2.181.773-3.444.773-1.834 0-3.368-.599-4.607-1.794-1.239-1.194-1.858-3.022-1.858-5.48 0-2.489.703-4.457 2.109-5.9 1.407-1.445 3.362-2.168 5.866-2.168h4.489c.103 0 .156-.065.156-.198v-1.893c0-1.694-.368-3.03-1.104-4.01-.736-.978-1.877-1.469-3.426-1.469-1.239 0-2.245.307-3.02.922-.774.614-1.252 1.468-1.432 2.564-.077.333-.233.482-.464.449l-2.091-.348c-.283-.067-.4-.2-.348-.4.206-1.858.981-3.369 2.323-4.532 1.341-1.161 3.019-1.742 5.032-1.742 2.323 0 4.116.763 5.382 2.29"/>
      <path d="m765.115 225.995h-4.374c-.104 0-.154.067-.154.2v14.693c0 1.592.276 2.714.831 3.361.555.648 1.426.972 2.614.972h.968c.258 0 .386.167.386.497v2.043c0 .332-.128.498-.386.498-.311.033-.787.049-1.433.049-1.857 0-3.265-.449-4.219-1.344-.955-.897-1.432-2.556-1.432-4.981v-15.788c0-.133-.052-.2-.155-.2h-2.361c-.26 0-.389-.166-.389-.498v-1.942c0-.331.129-.498.389-.498h2.361c.103 0 .155-.066.155-.199v-5.778c0-.332.128-.498.387-.498h1.897c.257 0 .387.166.387.498v5.778c0 .133.05.199.154.199h4.374c.258 0 .389.167.389.498v1.942c0 .332-.131.498-.389.498"/>
      <path d="m771.192 247.711v-24.206c0-.331.13-.498.389-.498h1.973c.258 0 .387.167.387.498v24.206c0 .332-.129.498-.387.498h-1.973c-.259 0-.389-.166-.389-.498m-.076-30.033c-.414-.53-.619-1.196-.619-1.992 0-.83.205-1.503.619-2.018.412-.514.929-.77 1.548-.77.62 0 1.135.256 1.549.77.412.515.619 1.188.619 2.018 0 .796-.207 1.462-.619 1.992-.414.532-.929.797-1.549.797-.619 0-1.136-.265-1.548-.797"/>
      <path d="m791.323 244.249c.876-.878 1.471-2.067 1.78-3.561.233-1.196.349-2.871.349-5.03 0-2.191-.104-3.868-.311-5.031-.308-1.493-.909-2.681-1.799-3.561-.891-.88-1.968-1.32-3.233-1.32s-2.336.44-3.213 1.32-1.47 2.068-1.78 3.561c-.207 1.163-.31 2.84-.31 5.031s.103 3.868.31 5.03c.284 1.494.871 2.683 1.762 3.561.89.881 1.979 1.32 3.27 1.32 1.239 0 2.296-.439 3.175-1.32m-7.975 2.565c-1.342-1.227-2.271-2.921-2.787-5.08-.361-1.526-.543-3.569-.543-6.126 0-2.556.182-4.582.543-6.077.49-2.124 1.407-3.801 2.748-5.029 1.341-1.23 2.968-1.843 4.878-1.843 1.831 0 3.412.613 4.742 1.843 1.33 1.228 2.239 2.888 2.729 4.979.361 1.429.541 3.471.541 6.127 0 2.69-.18 4.731-.541 6.126-.49 2.159-1.399 3.853-2.729 5.08-1.33 1.229-2.922 1.844-4.781 1.844-1.857 0-3.459-.615-4.8-1.844"/>
      <path d="m814.839 225.05c1.226 1.561 1.838 3.652 1.838 6.275v16.436c0 .332-.129.498-.387.498h-1.973c-.259 0-.387-.166-.387-.498v-15.738c0-1.827-.433-3.321-1.298-4.483-.865-1.163-1.98-1.744-3.348-1.744-1.42 0-2.568.566-3.446 1.694-.877 1.129-1.316 2.607-1.316 4.432v15.839c0 .332-.129.498-.387.498h-1.975c-.258 0-.386-.166-.386-.498v-24.206c0-.33.128-.498.386-.498h1.975c.258 0 .387.168.387.498v2.141c0 .068.02.118.058.151.039.032.071.016.097-.051 1.136-2.058 2.877-3.088 5.226-3.088 2.064 0 3.709.781 4.936 2.342"/>
    </g>
    <path d="M 815.957 86.032 C 798.247 107.99 780.214 105.436 775.913 104.414 C 775.347 104.279 774.892 103.855 774.725 103.298 C 772.974 97.448 772.335 90.873 772.335 84.477 C 772.335 52.828 796.206 25.988 826.716 21.725 C 828.125 21.528 829.419 22.533 829.595 23.945 C 830.778 33.423 833.01 64.891 815.957 86.032" fill="#d14948"/>
    <path d="M 784.304 28.432 C 784.304 34.451 782.927 40.143 780.475 45.22 L 749.535 32.795 C 748.579 32.411 748.337 31.161 749.086 30.453 C 761.338 18.873 775.121 16.976 780.258 16.833 C 781.609 16.795 782.818 17.69 783.147 19 C 783.904 22.02 784.304 25.18 784.304 28.432" fill="#d14948"/>
    <path d="M 766.728 81.687 C 766.728 89.472 768.367 97.167 770.904 104.1 C 771.059 104.524 770.775 104.972 770.326 105.014 C 767.705 105.26 759.26 105.265 745.538 97.752 C 730.579 89.563 720.597 71.09 717.722 65.246 C 717.185 64.154 717.449 62.843 718.369 62.046 C 721.673 59.185 730.558 52.448 746.254 47.004 C 766.762 39.885 775.642 48.878 775.642 48.878 C 769.974 58.499 766.728 69.718 766.728 81.687" fill="#d14948"/>
    <path d="M 759.65 260.003 C 759.65 260.003 755.234 250.182 753.443 234.548 C 751.879 220.889 751.051 199.303 763.836 176.281 C 786.16 136.083 776.475 110.725 775.49 108.163 L 783.939 108.791 C 784.316 109.787 790.842 132.594 767.259 178.654 C 745.921 220.331 765.353 260.003 765.353 260.003 L 759.65 260.003 Z" fill="#0f9256"/>
    <path d="M 757.028 260.218 L 708.07 260.218 C 709.06 226.1 728.449 197.927 754.059 191.103 C 753.936 191.485 753.813 191.871 753.69 192.253 C 748.453 208.992 749.147 224.01 750.382 234.829 C 751.92 248.199 755.731 257.397 757.028 260.218" fill="#979faa"/>
    <path d="M 820.291 260.218 L 768.18 260.218 L 767.577 258.951 C 767.411 258.601 752.866 227.152 765.062 191.546 C 794.951 193.298 818.926 223.1 820.291 260.218" fill="#979faa"/>
  </g>
</svg>